G04 -- Generated By PCBWeb Designer*
%FSLAX24Y24*%
%MOIN*%
%OFA0B0*%
%SFA1.0B1.0*%
%AMROTRECT*21,1,$1,$2,0,0,$3*%
%AMROTOBLONG*1,1,$7,$1,$2*1,1,$7,$3,$4*21,1,$5,$6,0,0,$8*%
%ADD10C,0.025*%
%ADD11C,0.06*%
%ADD12C,0.035*%
%ADD13C,0.07*%
%ADD14C,0.006*%
%ADD15C,0.008*%
%ADD16C,0.024*%
%ADD17C,0.05*%
%ADD18C,0.028*%
%ADD19C,0.1772*%
%ADD20C,0.128*%
%ADD21C,0.1872*%
%ADD22R,0.0787X0.024*%
%ADD23R,0.0887X0.034*%
%ADD24R,0.1417X0.1055*%
%ADD25R,0.1517X0.1155*%
%ADD26C,0.01*%
%ADD27R,0.06X0.06*%
%ADD28C,0.04*%
%ADD29R,0.07X0.07*%
%ADD30C,0.0*%
%ADD31C,0.0098*%
%ADD32C,0.0591*%
%ADD33C,0.0275*%
%ADD34C,0.0197*%
G01*
%LNBASEFILL*%
%LPD*%
G36*
X787Y13780D02*
X394Y13386D01*
X1989Y11527D01*
X787Y13780D01*
G37*
G36*
X1989Y11527D02*
X394Y13386D01*
X1989Y11229D01*
X1989Y11527D01*
G37*
G36*
X1989Y11229D02*
X394Y13386D01*
X1989Y11133D01*
X1989Y11229D01*
G37*
G36*
X1989Y11133D02*
X394Y13386D01*
X1989Y10835D01*
X1989Y11133D01*
G37*
G36*
X1989Y10835D02*
X394Y13386D01*
X1989Y10740D01*
X1989Y10835D01*
G37*
G36*
X1989Y10740D02*
X394Y13386D01*
X1989Y10442D01*
X1989Y10740D01*
G37*
G36*
X1989Y10442D02*
X394Y13386D01*
X1989Y10346D01*
X1989Y10442D01*
G37*
G36*
X1989Y10346D02*
X394Y13386D01*
X1989Y10048D01*
X1989Y10346D01*
G37*
G36*
X1989Y10048D02*
X394Y13386D01*
X1989Y9559D01*
X1989Y10048D01*
G37*
G36*
X1989Y9559D02*
X394Y13386D01*
X1989Y9260D01*
X1989Y9559D01*
G37*
G36*
X1989Y9260D02*
X394Y13386D01*
X1989Y9165D01*
X1989Y9260D01*
G37*
G36*
X1989Y9165D02*
X394Y13386D01*
X1989Y8867D01*
X1989Y9165D01*
G37*
G36*
X1989Y8867D02*
X394Y13386D01*
X1989Y8771D01*
X1989Y8867D01*
G37*
G36*
X1989Y8771D02*
X394Y13386D01*
X1989Y8473D01*
X1989Y8771D01*
G37*
G36*
X1989Y8473D02*
X394Y13386D01*
X1989Y8377D01*
X1989Y8473D01*
G37*
G36*
X1989Y8377D02*
X394Y13386D01*
X1989Y8079D01*
X1989Y8377D01*
G37*
G36*
X1989Y8079D02*
X394Y13386D01*
X1989Y7984D01*
X1989Y8079D01*
G37*
G36*
X1989Y7984D02*
X394Y13386D01*
X1989Y7686D01*
X1989Y7984D01*
G37*
G36*
X1989Y7686D02*
X394Y13386D01*
X1989Y7590D01*
X1989Y7686D01*
G37*
G36*
X1989Y7590D02*
X394Y13386D01*
X1989Y7292D01*
X1989Y7590D01*
G37*
G36*
X1989Y7292D02*
X394Y13386D01*
X1989Y7196D01*
X1989Y7292D01*
G37*
G36*
X1989Y7196D02*
X394Y13386D01*
X1989Y6898D01*
X1989Y7196D01*
G37*
G36*
X394Y13386D02*
X394Y394D01*
X1989Y6898D01*
X394Y13386D01*
G37*
G36*
X394Y394D02*
X1989Y6803D01*
X1989Y6898D01*
X394Y394D01*
G37*
G36*
X1989Y6898D02*
X1989Y6803D01*
X2834Y6803D01*
X1989Y6898D01*
G37*
G36*
X1989Y6898D02*
X2834Y6803D01*
X2834Y6898D01*
X1989Y6898D01*
G37*
G36*
X6595Y6920D02*
X2834Y6898D01*
X2834Y6803D01*
X6595Y6920D01*
G37*
G36*
X6595Y6920D02*
X2834Y6803D01*
X2834Y6781D01*
X6595Y6920D01*
G37*
G36*
X6595Y6920D02*
X2834Y6781D01*
X6937Y6781D01*
X6595Y6920D01*
G37*
G36*
X6611Y6922D02*
X6595Y6920D01*
X6937Y6781D01*
X6611Y6922D01*
G37*
G36*
X6627Y6924D02*
X6611Y6922D01*
X6937Y6781D01*
X6627Y6924D01*
G37*
G36*
X6937Y6781D02*
X6628Y6924D01*
X6627Y6924D01*
X6937Y6781D01*
G37*
G36*
X6628Y6924D02*
X6627Y6924D01*
X6627Y6924D01*
X6628Y6924D01*
G37*
G36*
X6643Y6930D02*
X6628Y6924D01*
X6937Y6781D01*
X6643Y6930D01*
G37*
G36*
X6658Y6937D02*
X6643Y6930D01*
X6937Y6781D01*
X6658Y6937D01*
G37*
G36*
X6937Y6781D02*
X6658Y6937D01*
X6658Y6937D01*
X6937Y6781D01*
G37*
G36*
X6658Y6937D02*
X6658Y6937D01*
X6658Y6937D01*
X6658Y6937D01*
G37*
G36*
X6672Y6947D02*
X6658Y6937D01*
X6937Y6781D01*
X6672Y6947D01*
G37*
G36*
X6684Y6957D02*
X6672Y6947D01*
X6937Y6781D01*
X6684Y6957D01*
G37*
G36*
X6684Y6957D02*
X6937Y6781D01*
X7195Y7031D01*
X6684Y6957D01*
G37*
G36*
X6684Y6957D02*
X7195Y7031D01*
X7208Y7040D01*
X6684Y6957D01*
G37*
G36*
X6684Y6957D02*
X7208Y7040D01*
X7220Y7050D01*
X6684Y6957D01*
G37*
G36*
X6684Y6957D02*
X7220Y7050D01*
X7533Y7796D01*
X6684Y6957D01*
G37*
G36*
X7533Y7796D02*
X7220Y7050D01*
X7222Y7051D01*
X7533Y7796D01*
G37*
G36*
X7220Y7050D02*
X7221Y7050D01*
X7222Y7051D01*
X7220Y7050D01*
G37*
G36*
X7222Y7051D02*
X7236Y7056D01*
X7533Y7796D01*
X7222Y7051D01*
G37*
G36*
X7236Y7056D02*
X7251Y7062D01*
X7533Y7796D01*
X7236Y7056D01*
G37*
G36*
X7533Y7796D02*
X7251Y7062D01*
X7253Y7063D01*
X7533Y7796D01*
G37*
G36*
X7251Y7062D02*
X7252Y7062D01*
X7253Y7063D01*
X7251Y7062D01*
G37*
G36*
X7253Y7063D02*
X7268Y7065D01*
X7533Y7796D01*
X7253Y7063D01*
G37*
G36*
X7268Y7065D02*
X7284Y7067D01*
X7533Y7796D01*
X7268Y7065D01*
G37*
G36*
X7533Y7796D02*
X7284Y7067D01*
X8671Y7067D01*
X7533Y7796D01*
G37*
G36*
X7533Y7796D02*
X8671Y7067D01*
X8682Y7087D01*
X7533Y7796D01*
G37*
G36*
X8682Y7759D02*
X7533Y7796D01*
X8682Y7087D01*
X8682Y7759D01*
G37*
G36*
X8682Y7759D02*
X8682Y7087D01*
X8744Y7698D01*
X8682Y7759D01*
G37*
G36*
X8682Y7087D02*
X8744Y7149D01*
X8744Y7698D01*
X8682Y7087D01*
G37*
G36*
X8744Y7698D02*
X8744Y7149D01*
X8822Y7658D01*
X8744Y7698D01*
G37*
G36*
X8744Y7149D02*
X8822Y7189D01*
X8822Y7658D01*
X8744Y7149D01*
G37*
G36*
X8822Y7658D02*
X8822Y7189D01*
X8908Y7644D01*
X8822Y7658D01*
G37*
G36*
X8822Y7189D02*
X8908Y7202D01*
X8908Y7644D01*
X8822Y7189D01*
G37*
G36*
X8908Y7644D02*
X8908Y7202D01*
X8994Y7189D01*
X8908Y7644D01*
G37*
G36*
X8908Y7644D02*
X8994Y7189D01*
X8994Y7658D01*
X8908Y7644D01*
G37*
G36*
X8994Y7658D02*
X8994Y7189D01*
X9072Y7149D01*
X8994Y7658D01*
G37*
G36*
X8994Y7658D02*
X9072Y7149D01*
X9072Y7698D01*
X8994Y7658D01*
G37*
G36*
X9133Y7759D02*
X9072Y7698D01*
X9072Y7149D01*
X9133Y7759D01*
G37*
G36*
X9133Y7759D02*
X9072Y7149D01*
X9133Y7087D01*
X9133Y7759D01*
G37*
G36*
X9173Y7837D02*
X9133Y7759D01*
X9133Y7087D01*
X9173Y7837D01*
G37*
G36*
X9173Y7837D02*
X9133Y7087D01*
X9173Y7010D01*
X9173Y7837D01*
G37*
G36*
X9173Y7837D02*
X9173Y7010D01*
X9187Y6923D01*
X9173Y7837D01*
G37*
G36*
X9173Y7837D02*
X9187Y6923D01*
X9187Y7923D01*
X9173Y7837D01*
G37*
G36*
X11024Y787D02*
X9187Y7923D01*
X9187Y6923D01*
X11024Y787D01*
G37*
G36*
X11024Y787D02*
X9187Y6923D01*
X9187Y5906D01*
X11024Y787D01*
G37*
G36*
X9173Y6837D02*
X9187Y5906D01*
X9187Y6923D01*
X9173Y6837D01*
G37*
G36*
X9173Y6837D02*
X9173Y5992D01*
X9187Y5906D01*
X9173Y6837D01*
G37*
G36*
X9173Y6837D02*
X9133Y6070D01*
X9173Y5992D01*
X9173Y6837D01*
G37*
G36*
X9173Y6837D02*
X9133Y6759D01*
X9133Y6070D01*
X9173Y6837D01*
G37*
G36*
X9072Y6698D02*
X9133Y6070D01*
X9133Y6759D01*
X9072Y6698D01*
G37*
G36*
X9072Y6698D02*
X9072Y6131D01*
X9133Y6070D01*
X9072Y6698D01*
G37*
G36*
X9072Y6698D02*
X8994Y6171D01*
X9072Y6131D01*
X9072Y6698D01*
G37*
G36*
X9072Y6698D02*
X8994Y6658D01*
X8994Y6171D01*
X9072Y6698D01*
G37*
G36*
X8994Y6658D02*
X8908Y6185D01*
X8994Y6171D01*
X8994Y6658D01*
G37*
G36*
X8994Y6658D02*
X8908Y6644D01*
X8908Y6185D01*
X8994Y6658D01*
G37*
G36*
X8908Y6644D02*
X8822Y6658D01*
X8908Y6185D01*
X8908Y6644D01*
G37*
G36*
X8822Y6658D02*
X8822Y6171D01*
X8908Y6185D01*
X8822Y6658D01*
G37*
G36*
X8744Y6131D02*
X8822Y6171D01*
X8822Y6658D01*
X8744Y6131D01*
G37*
G36*
X8744Y6698D02*
X8744Y6131D01*
X8822Y6658D01*
X8744Y6698D01*
G37*
G36*
X8682Y6070D02*
X8744Y6131D01*
X8744Y6698D01*
X8682Y6070D01*
G37*
G36*
X8682Y6759D02*
X8682Y6070D01*
X8744Y6698D01*
X8682Y6759D01*
G37*
G36*
X8682Y6070D02*
X8682Y6759D01*
X7612Y5984D01*
X8682Y6070D01*
G37*
G36*
X7612Y5984D02*
X8682Y6759D01*
X8655Y6812D01*
X7612Y5984D01*
G37*
G36*
X7335Y6812D02*
X7612Y5984D01*
X8655Y6812D01*
X7335Y6812D01*
G37*
G36*
X7335Y6812D02*
X7291Y6314D01*
X7612Y5984D01*
X7335Y6812D01*
G37*
G36*
X7335Y6812D02*
X7290Y6315D01*
X7291Y6314D01*
X7335Y6812D01*
G37*
G36*
X7290Y6315D02*
X7290Y6315D01*
X7291Y6314D01*
X7290Y6315D01*
G37*
G36*
X7282Y6321D02*
X7290Y6315D01*
X7335Y6812D01*
X7282Y6321D01*
G37*
G36*
X7274Y6327D02*
X7282Y6321D01*
X7335Y6812D01*
X7274Y6327D01*
G37*
G36*
X7335Y6812D02*
X7274Y6328D01*
X7274Y6327D01*
X7335Y6812D01*
G37*
G36*
X7274Y6328D02*
X7274Y6327D01*
X7274Y6327D01*
X7274Y6328D01*
G37*
G36*
X7265Y6331D02*
X7274Y6328D01*
X7335Y6812D01*
X7265Y6331D01*
G37*
G36*
X7256Y6335D02*
X7265Y6331D01*
X7335Y6812D01*
X7256Y6335D01*
G37*
G36*
X7077Y6562D02*
X7256Y6335D01*
X7335Y6812D01*
X7077Y6562D01*
G37*
G36*
X7256Y6335D02*
X7077Y6562D01*
X7255Y6335D01*
X7256Y6335D01*
G37*
G36*
X7077Y6562D02*
X7245Y6337D01*
X7255Y6335D01*
X7077Y6562D01*
G37*
G36*
X7077Y6562D02*
X7236Y6338D01*
X7245Y6337D01*
X7077Y6562D01*
G37*
G36*
X7236Y6338D02*
X7077Y6562D01*
X7234Y6338D01*
X7236Y6338D01*
G37*
G36*
X7234Y6338D02*
X7077Y6562D01*
X7065Y6553D01*
X7234Y6338D01*
G37*
G36*
X7234Y6338D02*
X7065Y6553D01*
X7052Y6543D01*
X7234Y6338D01*
G37*
G36*
X7050Y6542D02*
X7234Y6338D01*
X7052Y6543D01*
X7050Y6542D01*
G37*
G36*
X7052Y6543D02*
X7051Y6543D01*
X7050Y6542D01*
X7052Y6543D01*
G37*
G36*
X7050Y6542D02*
X7036Y6536D01*
X7234Y6338D01*
X7050Y6542D01*
G37*
G36*
X7036Y6536D02*
X7021Y6531D01*
X7234Y6338D01*
X7036Y6536D01*
G37*
G36*
X7234Y6338D02*
X7021Y6531D01*
X7019Y6530D01*
X7234Y6338D01*
G37*
G36*
X7021Y6531D02*
X7020Y6530D01*
X7019Y6530D01*
X7021Y6531D01*
G37*
G36*
X7019Y6530D02*
X7004Y6528D01*
X7234Y6338D01*
X7019Y6530D01*
G37*
G36*
X7004Y6528D02*
X6988Y6526D01*
X7234Y6338D01*
X7004Y6528D01*
G37*
G36*
X6988Y6526D02*
X2834Y6338D01*
X7234Y6338D01*
X6988Y6526D01*
G37*
G36*
X6988Y6526D02*
X2834Y6409D01*
X2834Y6338D01*
X6988Y6526D01*
G37*
G36*
X6988Y6526D02*
X2834Y6505D01*
X2834Y6409D01*
X6988Y6526D01*
G37*
G36*
X1989Y6505D02*
X2834Y6409D01*
X2834Y6505D01*
X1989Y6505D01*
G37*
G36*
X1989Y6505D02*
X1989Y6409D01*
X2834Y6409D01*
X1989Y6505D01*
G37*
G36*
X394Y394D02*
X1989Y6409D01*
X1989Y6505D01*
X394Y394D01*
G37*
G36*
X394Y394D02*
X1989Y6505D01*
X1989Y6803D01*
X394Y394D01*
G37*
G36*
X394Y394D02*
X1989Y6111D01*
X1989Y6409D01*
X394Y394D01*
G37*
G36*
X394Y394D02*
X1989Y6015D01*
X1989Y6111D01*
X394Y394D01*
G37*
G36*
X1989Y6111D02*
X1989Y6015D01*
X2834Y6015D01*
X1989Y6111D01*
G37*
G36*
X1989Y6111D02*
X2834Y6015D01*
X2834Y6111D01*
X1989Y6111D01*
G37*
G36*
X2834Y6111D02*
X2834Y6015D01*
X6890Y5994D01*
X2834Y6111D01*
G37*
G36*
X2834Y6015D02*
X2834Y5994D01*
X6890Y5994D01*
X2834Y6015D01*
G37*
G36*
X2834Y6182D02*
X2834Y6111D01*
X6890Y5994D01*
X2834Y6182D01*
G37*
G36*
X2834Y6182D02*
X6890Y5994D01*
X7201Y6182D01*
X2834Y6182D01*
G37*
G36*
X7201Y6182D02*
X6890Y5994D01*
X6891Y5994D01*
X7201Y6182D01*
G37*
G36*
X6890Y5994D02*
X6890Y5994D01*
X6891Y5994D01*
X6890Y5994D01*
G37*
G36*
X6891Y5994D02*
X6907Y5991D01*
X7201Y6182D01*
X6891Y5994D01*
G37*
G36*
X6907Y5991D02*
X6923Y5989D01*
X7201Y6182D01*
X6907Y5991D01*
G37*
G36*
X7201Y6182D02*
X6923Y5989D01*
X6924Y5989D01*
X7201Y6182D01*
G37*
G36*
X6923Y5989D02*
X6923Y5989D01*
X6924Y5989D01*
X6923Y5989D01*
G37*
G36*
X6924Y5989D02*
X6939Y5983D01*
X7201Y6182D01*
X6924Y5989D01*
G37*
G36*
X6939Y5983D02*
X6954Y5977D01*
X7201Y6182D01*
X6939Y5983D01*
G37*
G36*
X7201Y6182D02*
X6954Y5977D01*
X6954Y5976D01*
X7201Y6182D01*
G37*
G36*
X6954Y5977D02*
X6954Y5976D01*
X6954Y5976D01*
X6954Y5977D01*
G37*
G36*
X6954Y5976D02*
X6967Y5966D01*
X7201Y6182D01*
X6954Y5976D01*
G37*
G36*
X6967Y5966D02*
X6980Y5956D01*
X7201Y6182D01*
X6967Y5966D01*
G37*
G36*
X7201Y6182D02*
X6980Y5956D01*
X6981Y5956D01*
X7201Y6182D01*
G37*
G36*
X6980Y5956D02*
X6980Y5956D01*
X6981Y5956D01*
X6980Y5956D01*
G37*
G36*
X7201Y6182D02*
X6981Y5956D01*
X7523Y5851D01*
X7201Y6182D01*
G37*
G36*
X7523Y5851D02*
X6981Y5956D01*
X7524Y5850D01*
X7523Y5851D01*
G37*
G36*
X6981Y5956D02*
X7531Y5845D01*
X7524Y5850D01*
X6981Y5956D01*
G37*
G36*
X7539Y5839D02*
X7531Y5845D01*
X6981Y5956D01*
X7539Y5839D01*
G37*
G36*
X7540Y5838D02*
X7539Y5839D01*
X6981Y5956D01*
X7540Y5838D01*
G37*
G36*
X7540Y5838D02*
X6981Y5956D01*
X7558Y5830D01*
X7540Y5838D01*
G37*
G36*
X6981Y5956D02*
X7559Y5830D01*
X7558Y5830D01*
X6981Y5956D01*
G37*
G36*
X7559Y5830D02*
X7558Y5830D01*
X7558Y5830D01*
X7559Y5830D01*
G37*
G36*
X7559Y5830D02*
X6981Y5956D01*
X7878Y5049D01*
X7559Y5830D01*
G37*
G36*
X7878Y5049D02*
X7568Y5829D01*
X7559Y5830D01*
X7878Y5049D01*
G37*
G36*
X7878Y5049D02*
X7578Y5827D01*
X7568Y5829D01*
X7878Y5049D01*
G37*
G36*
X7878Y5049D02*
X7579Y5827D01*
X7578Y5827D01*
X7878Y5049D01*
G37*
G36*
X7578Y5828D02*
X7578Y5827D01*
X7579Y5827D01*
X7578Y5828D01*
G37*
G36*
X8642Y5819D02*
X7579Y5827D01*
X7878Y5049D01*
X8642Y5819D01*
G37*
G36*
X8682Y5742D02*
X8642Y5819D01*
X7878Y5049D01*
X8682Y5742D01*
G37*
G36*
X8682Y5070D02*
X8682Y5742D01*
X7878Y5049D01*
X8682Y5070D01*
G37*
G36*
X7878Y5049D02*
X8671Y5049D01*
X8682Y5070D01*
X7878Y5049D01*
G37*
G36*
X8682Y5742D02*
X8682Y5070D01*
X8744Y5680D01*
X8682Y5742D01*
G37*
G36*
X8682Y5070D02*
X8744Y5131D01*
X8744Y5680D01*
X8682Y5070D01*
G37*
G36*
X8744Y5680D02*
X8744Y5131D01*
X8822Y5640D01*
X8744Y5680D01*
G37*
G36*
X8744Y5131D02*
X8822Y5171D01*
X8822Y5640D01*
X8744Y5131D01*
G37*
G36*
X8822Y5640D02*
X8822Y5171D01*
X8908Y5627D01*
X8822Y5640D01*
G37*
G36*
X8822Y5171D02*
X8908Y5185D01*
X8908Y5627D01*
X8822Y5171D01*
G37*
G36*
X8908Y5627D02*
X8908Y5185D01*
X8994Y5171D01*
X8908Y5627D01*
G37*
G36*
X8908Y5627D02*
X8994Y5171D01*
X8994Y5640D01*
X8908Y5627D01*
G37*
G36*
X8994Y5640D02*
X8994Y5171D01*
X9072Y5131D01*
X8994Y5640D01*
G37*
G36*
X8994Y5640D02*
X9072Y5131D01*
X9072Y5680D01*
X8994Y5640D01*
G37*
G36*
X9133Y5742D02*
X9072Y5680D01*
X9072Y5131D01*
X9133Y5742D01*
G37*
G36*
X9133Y5742D02*
X9072Y5131D01*
X9133Y5070D01*
X9133Y5742D01*
G37*
G36*
X9173Y5819D02*
X9133Y5742D01*
X9133Y5070D01*
X9173Y5819D01*
G37*
G36*
X9173Y5819D02*
X9133Y5070D01*
X9173Y4992D01*
X9173Y5819D01*
G37*
G36*
X9173Y5819D02*
X9173Y4992D01*
X9187Y4906D01*
X9173Y5819D01*
G37*
G36*
X9173Y5819D02*
X9187Y4906D01*
X9187Y5906D01*
X9173Y5819D01*
G37*
G36*
X11024Y787D02*
X9187Y5906D01*
X9187Y4906D01*
X11024Y787D01*
G37*
G36*
X10236Y1575D02*
X11024Y787D01*
X9187Y4906D01*
X10236Y1575D01*
G37*
G36*
X9187Y4906D02*
X9187Y3906D01*
X10236Y1575D01*
X9187Y4906D01*
G37*
G36*
X9187Y3906D02*
X9173Y3819D01*
X10236Y1575D01*
X9187Y3906D01*
G37*
G36*
X9173Y3819D02*
X9133Y3742D01*
X10236Y1575D01*
X9173Y3819D01*
G37*
G36*
X9133Y3742D02*
X9072Y3680D01*
X10236Y1575D01*
X9133Y3742D01*
G37*
G36*
X9072Y3680D02*
X8994Y3640D01*
X10236Y1575D01*
X9072Y3680D01*
G37*
G36*
X10236Y1575D02*
X8994Y3640D01*
X8187Y2348D01*
X10236Y1575D01*
G37*
G36*
X8994Y3640D02*
X8908Y3627D01*
X8187Y2348D01*
X8994Y3640D01*
G37*
G36*
X8155Y2426D02*
X8187Y2348D01*
X8908Y3627D01*
X8155Y2426D01*
G37*
G36*
X8908Y3627D02*
X8822Y3640D01*
X8155Y2426D01*
X8908Y3627D01*
G37*
G36*
X8822Y3640D02*
X8103Y2493D01*
X8155Y2426D01*
X8822Y3640D01*
G37*
G36*
X8744Y3680D02*
X8103Y2493D01*
X8822Y3640D01*
X8744Y3680D01*
G37*
G36*
X8682Y3742D02*
X8103Y2493D01*
X8744Y3680D01*
X8682Y3742D01*
G37*
G36*
X8682Y3742D02*
X7727Y3760D01*
X8103Y2493D01*
X8682Y3742D01*
G37*
G36*
X7727Y3760D02*
X7726Y3760D01*
X8103Y2493D01*
X7727Y3760D01*
G37*
G36*
X7726Y3760D02*
X7710Y3763D01*
X8103Y2493D01*
X7726Y3760D01*
G37*
G36*
X7710Y3763D02*
X7694Y3765D01*
X8103Y2493D01*
X7710Y3763D01*
G37*
G36*
X8103Y2493D02*
X7694Y3765D01*
X7693Y3765D01*
X8103Y2493D01*
G37*
G36*
X7693Y3765D02*
X7693Y3765D01*
X7694Y3765D01*
X7693Y3765D01*
G37*
G36*
X7678Y3771D02*
X8103Y2493D01*
X7693Y3765D01*
X7678Y3771D01*
G37*
G36*
X7678Y3771D02*
X7663Y3778D01*
X8103Y2493D01*
X7678Y3771D01*
G37*
G36*
X8103Y2493D02*
X7663Y3778D01*
X7663Y3778D01*
X8103Y2493D01*
G37*
G36*
X7663Y3778D02*
X7663Y3778D01*
X7663Y3778D01*
X7663Y3778D01*
G37*
G36*
X5495Y5101D02*
X8103Y2493D01*
X7663Y3778D01*
X5495Y5101D01*
G37*
G36*
X7663Y3778D02*
X7637Y3798D01*
X5495Y5101D01*
X7663Y3778D01*
G37*
G36*
X7636Y3798D02*
X5495Y5101D01*
X7637Y3798D01*
X7636Y3798D01*
G37*
G36*
X7636Y3798D02*
X7636Y3798D01*
X7637Y3798D01*
X7636Y3798D01*
G37*
G36*
X6099Y5345D02*
X5495Y5101D01*
X7636Y3798D01*
X6099Y5345D01*
G37*
G36*
X5428Y5153D02*
X5495Y5101D01*
X6099Y5345D01*
X5428Y5153D01*
G37*
G36*
X5350Y5185D02*
X5428Y5153D01*
X6099Y5345D01*
X5350Y5185D01*
G37*
G36*
X5266Y5196D02*
X5350Y5185D01*
X6099Y5345D01*
X5266Y5196D01*
G37*
G36*
X2834Y5345D02*
X5266Y5196D01*
X6099Y5345D01*
X2834Y5345D01*
G37*
G36*
X2834Y5345D02*
X2834Y5323D01*
X5266Y5196D01*
X2834Y5345D01*
G37*
G36*
X2834Y5323D02*
X2834Y5228D01*
X5266Y5196D01*
X2834Y5323D01*
G37*
G36*
X2834Y5228D02*
X2834Y5196D01*
X5266Y5196D01*
X2834Y5228D01*
G37*
G36*
X1989Y5323D02*
X2834Y5228D01*
X2834Y5323D01*
X1989Y5323D01*
G37*
G36*
X1989Y5323D02*
X1989Y5228D01*
X2834Y5228D01*
X1989Y5323D01*
G37*
G36*
X394Y394D02*
X1989Y5228D01*
X1989Y5323D01*
X394Y394D01*
G37*
G36*
X394Y394D02*
X1989Y5323D01*
X1989Y5622D01*
X394Y394D01*
G37*
G36*
X394Y394D02*
X1989Y5622D01*
X1989Y5717D01*
X394Y394D01*
G37*
G36*
X1989Y5717D02*
X1989Y5622D01*
X2834Y5622D01*
X1989Y5717D01*
G37*
G36*
X1989Y5717D02*
X2834Y5622D01*
X2834Y5717D01*
X1989Y5717D01*
G37*
G36*
X2834Y5717D02*
X2834Y5622D01*
X6152Y5600D01*
X2834Y5717D01*
G37*
G36*
X2834Y5622D02*
X2834Y5600D01*
X6152Y5600D01*
X2834Y5622D01*
G37*
G36*
X2834Y5739D02*
X2834Y5717D01*
X6152Y5600D01*
X2834Y5739D01*
G37*
G36*
X2834Y5739D02*
X6152Y5600D01*
X6837Y5739D01*
X2834Y5739D01*
G37*
G36*
X6837Y5739D02*
X6152Y5600D01*
X6152Y5600D01*
X6837Y5739D01*
G37*
G36*
X6152Y5600D02*
X6152Y5600D01*
X6152Y5600D01*
X6152Y5600D01*
G37*
G36*
X6152Y5600D02*
X6168Y5598D01*
X6837Y5739D01*
X6152Y5600D01*
G37*
G36*
X6168Y5598D02*
X6185Y5596D01*
X6837Y5739D01*
X6168Y5598D01*
G37*
G36*
X6837Y5739D02*
X6185Y5596D01*
X6185Y5595D01*
X6837Y5739D01*
G37*
G36*
X6185Y5596D02*
X6185Y5595D01*
X6185Y5595D01*
X6185Y5596D01*
G37*
G36*
X6185Y5595D02*
X6200Y5589D01*
X6837Y5739D01*
X6185Y5595D01*
G37*
G36*
X6200Y5589D02*
X6215Y5583D01*
X6837Y5739D01*
X6200Y5589D01*
G37*
G36*
X6837Y5739D02*
X6215Y5583D01*
X6216Y5583D01*
X6837Y5739D01*
G37*
G36*
X6215Y5583D02*
X6216Y5583D01*
X6216Y5583D01*
X6215Y5583D01*
G37*
G36*
X6216Y5583D02*
X6229Y5573D01*
X6837Y5739D01*
X6216Y5583D01*
G37*
G36*
X6229Y5573D02*
X6242Y5563D01*
X6837Y5739D01*
X6229Y5573D01*
G37*
G36*
X6837Y5739D02*
X6242Y5563D01*
X6242Y5562D01*
X6837Y5739D01*
G37*
G36*
X6242Y5563D02*
X6242Y5562D01*
X6242Y5562D01*
X6242Y5563D01*
G37*
G36*
X6837Y5739D02*
X6242Y5562D01*
X7734Y4832D01*
X6837Y5739D01*
G37*
G36*
X7734Y4832D02*
X6242Y5562D01*
X7780Y4015D01*
X7734Y4832D01*
G37*
G36*
X7780Y4015D02*
X7735Y4831D01*
X7734Y4832D01*
X7780Y4015D01*
G37*
G36*
X7735Y4831D02*
X7735Y4832D01*
X7734Y4832D01*
X7735Y4831D01*
G37*
G36*
X7748Y4821D02*
X7735Y4831D01*
X7780Y4015D01*
X7748Y4821D01*
G37*
G36*
X7761Y4811D02*
X7748Y4821D01*
X7780Y4015D01*
X7761Y4811D01*
G37*
G36*
X7780Y4015D02*
X7761Y4811D01*
X7761Y4811D01*
X7780Y4015D01*
G37*
G36*
X7761Y4811D02*
X7761Y4811D01*
X7761Y4811D01*
X7761Y4811D01*
G37*
G36*
X7776Y4805D02*
X7761Y4811D01*
X7780Y4015D01*
X7776Y4805D01*
G37*
G36*
X7776Y4805D02*
X7780Y4015D01*
X7791Y4798D01*
X7776Y4805D01*
G37*
G36*
X7792Y4798D02*
X7791Y4798D01*
X7780Y4015D01*
X7792Y4798D01*
G37*
G36*
X7792Y4798D02*
X7780Y4015D01*
X7808Y4796D01*
X7792Y4798D01*
G37*
G36*
X7808Y4796D02*
X7780Y4015D01*
X7824Y4794D01*
X7808Y4796D01*
G37*
G36*
X7824Y4794D02*
X7780Y4015D01*
X7825Y4794D01*
X7824Y4794D01*
G37*
G36*
X8682Y4070D02*
X7825Y4794D01*
X7780Y4015D01*
X8682Y4070D01*
G37*
G36*
X8682Y4070D02*
X7780Y4015D01*
X8654Y4015D01*
X8682Y4070D01*
G37*
G36*
X8682Y4742D02*
X7825Y4794D01*
X8682Y4070D01*
X8682Y4742D01*
G37*
G36*
X8682Y4742D02*
X8682Y4070D01*
X8744Y4680D01*
X8682Y4742D01*
G37*
G36*
X8682Y4070D02*
X8744Y4131D01*
X8744Y4680D01*
X8682Y4070D01*
G37*
G36*
X8744Y4680D02*
X8744Y4131D01*
X8822Y4640D01*
X8744Y4680D01*
G37*
G36*
X8744Y4131D02*
X8822Y4171D01*
X8822Y4640D01*
X8744Y4131D01*
G37*
G36*
X8822Y4640D02*
X8822Y4171D01*
X8908Y4627D01*
X8822Y4640D01*
G37*
G36*
X8822Y4171D02*
X8908Y4185D01*
X8908Y4627D01*
X8822Y4171D01*
G37*
G36*
X8908Y4627D02*
X8908Y4185D01*
X8994Y4171D01*
X8908Y4627D01*
G37*
G36*
X8908Y4627D02*
X8994Y4171D01*
X8994Y4640D01*
X8908Y4627D01*
G37*
G36*
X8994Y4640D02*
X8994Y4171D01*
X9072Y4131D01*
X8994Y4640D01*
G37*
G36*
X8994Y4640D02*
X9072Y4131D01*
X9072Y4680D01*
X8994Y4640D01*
G37*
G36*
X9133Y4742D02*
X9072Y4680D01*
X9072Y4131D01*
X9133Y4742D01*
G37*
G36*
X9133Y4742D02*
X9072Y4131D01*
X9133Y4070D01*
X9133Y4742D01*
G37*
G36*
X9173Y4819D02*
X9133Y4742D01*
X9133Y4070D01*
X9173Y4819D01*
G37*
G36*
X9173Y4819D02*
X9133Y4070D01*
X9173Y3992D01*
X9173Y4819D01*
G37*
G36*
X9173Y4819D02*
X9173Y3992D01*
X9187Y3906D01*
X9173Y4819D01*
G37*
G36*
X9173Y4819D02*
X9187Y3906D01*
X9187Y4906D01*
X9173Y4819D01*
G37*
G36*
X8655Y4794D02*
X7825Y4794D01*
X8682Y4742D01*
X8655Y4794D01*
G37*
G36*
X7825Y4794D02*
X7824Y4794D01*
X7825Y4794D01*
X7825Y4794D01*
G37*
G36*
X7792Y4798D02*
X7791Y4798D01*
X7792Y4798D01*
X7792Y4798D01*
G37*
G36*
X394Y394D02*
X1989Y5717D01*
X1989Y6015D01*
X394Y394D01*
G37*
G36*
X394Y394D02*
X1989Y4930D01*
X1989Y5228D01*
X394Y394D01*
G37*
G36*
X394Y394D02*
X1989Y4834D01*
X1989Y4930D01*
X394Y394D01*
G37*
G36*
X1989Y4930D02*
X1989Y4834D01*
X2087Y4872D01*
X1989Y4930D01*
G37*
G36*
X2087Y4872D02*
X1989Y4834D01*
X2092Y4834D01*
X2087Y4872D01*
G37*
G36*
X1989Y4930D02*
X2087Y4872D01*
X2095Y4930D01*
X1989Y4930D01*
G37*
G36*
X394Y394D02*
X1989Y4536D01*
X1989Y4834D01*
X394Y394D01*
G37*
G36*
X394Y394D02*
X1989Y4440D01*
X1989Y4536D01*
X394Y394D01*
G37*
G36*
X1989Y4536D02*
X1989Y4440D01*
X2834Y4440D01*
X1989Y4536D01*
G37*
G36*
X1989Y4536D02*
X2834Y4440D01*
X2834Y4536D01*
X1989Y4536D01*
G37*
G36*
X2834Y4536D02*
X2834Y4440D01*
X5020Y4409D01*
X2834Y4536D01*
G37*
G36*
X2834Y4440D02*
X2834Y4409D01*
X5020Y4409D01*
X2834Y4440D01*
G37*
G36*
X2834Y4548D02*
X2834Y4536D01*
X5020Y4409D01*
X2834Y4548D01*
G37*
G36*
X2834Y4548D02*
X5020Y4409D01*
X5132Y4548D01*
X2834Y4548D01*
G37*
G36*
X5020Y4409D02*
X5104Y4398D01*
X5132Y4548D01*
X5020Y4409D01*
G37*
G36*
X5132Y4548D02*
X5104Y4398D01*
X5182Y4366D01*
X5132Y4548D01*
G37*
G36*
X5132Y4548D02*
X5182Y4366D01*
X5249Y4314D01*
X5132Y4548D01*
G37*
G36*
X7119Y2444D02*
X5132Y4548D01*
X5249Y4314D01*
X7119Y2444D01*
G37*
G36*
X5132Y4548D02*
X7119Y2444D01*
X7560Y2119D01*
X5132Y4548D01*
G37*
G36*
X7560Y2119D02*
X7119Y2444D01*
X7171Y2377D01*
X7560Y2119D01*
G37*
G36*
X7560Y2119D02*
X7171Y2377D01*
X7203Y2299D01*
X7560Y2119D01*
G37*
G36*
X7203Y2299D02*
X7214Y2215D01*
X7560Y2119D01*
X7203Y2299D01*
G37*
G36*
X7214Y2215D02*
X7203Y2131D01*
X7560Y2119D01*
X7214Y2215D01*
G37*
G36*
X7560Y2119D02*
X7203Y2131D01*
X7561Y2113D01*
X7560Y2119D01*
G37*
G36*
X7561Y2113D02*
X7203Y2131D01*
X7171Y2052D01*
X7561Y2113D01*
G37*
G36*
X7561Y2113D02*
X7171Y2052D01*
X7608Y2021D01*
X7561Y2113D01*
G37*
G36*
X7171Y2052D02*
X7119Y1985D01*
X7608Y2021D01*
X7171Y2052D01*
G37*
G36*
X7608Y2021D02*
X7119Y1985D01*
X7681Y1948D01*
X7608Y2021D01*
G37*
G36*
X7119Y1985D02*
X7052Y1934D01*
X7681Y1948D01*
X7119Y1985D01*
G37*
G36*
X7681Y1948D02*
X7052Y1934D01*
X7773Y1902D01*
X7681Y1948D01*
G37*
G36*
X7773Y1902D02*
X7052Y1934D01*
X6976Y1902D01*
X7773Y1902D01*
G37*
G36*
X7052Y1934D02*
X6981Y1904D01*
X6976Y1902D01*
X7052Y1934D01*
G37*
G36*
X6976Y1902D02*
X9449Y787D01*
X7773Y1902D01*
X6976Y1902D01*
G37*
G36*
X7874Y1886D02*
X7773Y1902D01*
X9449Y787D01*
X7874Y1886D01*
G37*
G36*
X7976Y1902D02*
X7874Y1886D01*
X9449Y787D01*
X7976Y1902D01*
G37*
G36*
X8068Y1948D02*
X7976Y1902D01*
X9449Y787D01*
X8068Y1948D01*
G37*
G36*
X8140Y2021D02*
X8068Y1948D01*
X9449Y787D01*
X8140Y2021D01*
G37*
G36*
X8187Y2113D02*
X8140Y2021D01*
X9449Y787D01*
X8187Y2113D01*
G37*
G36*
X8187Y2113D02*
X9449Y787D01*
X10236Y1575D01*
X8187Y2113D01*
G37*
G36*
X8203Y2215D02*
X8187Y2113D01*
X10236Y1575D01*
X8203Y2215D01*
G37*
G36*
X10236Y1575D02*
X8199Y2264D01*
X8203Y2215D01*
X10236Y1575D01*
G37*
G36*
X8199Y2264D02*
X8197Y2253D01*
X8203Y2215D01*
X8199Y2264D01*
G37*
G36*
X10236Y1575D02*
X8187Y2348D01*
X8199Y2264D01*
X10236Y1575D01*
G37*
G36*
X9449Y787D02*
X6976Y1902D01*
X6974Y1901D01*
X9449Y787D01*
G37*
G36*
X6976Y1902D02*
X6974Y1901D01*
X6974Y1901D01*
X6976Y1902D01*
G37*
G36*
X6874Y1886D02*
X9449Y787D01*
X6974Y1901D01*
X6874Y1886D01*
G37*
G36*
X6874Y1886D02*
X6974Y1901D01*
X6973Y1901D01*
X6874Y1886D01*
G37*
G36*
X6874Y1886D02*
X5874Y1886D01*
X9449Y787D01*
X6874Y1886D01*
G37*
G36*
X9449Y787D02*
X5874Y1886D01*
X10236Y0D01*
X9449Y787D01*
G37*
G36*
X787Y0D02*
X10236Y0D01*
X5874Y1886D01*
X787Y0D01*
G37*
G36*
X787Y0D02*
X5874Y1886D01*
X4874Y1886D01*
X787Y0D01*
G37*
G36*
X5874Y1886D02*
X5773Y1901D01*
X4874Y1886D01*
X5874Y1886D01*
G37*
G36*
X4976Y1902D02*
X4874Y1886D01*
X5773Y1901D01*
X4976Y1902D01*
G37*
G36*
X5694Y1934D02*
X4976Y1902D01*
X5773Y1901D01*
X5694Y1934D01*
G37*
G36*
X5068Y1948D02*
X4976Y1902D01*
X5694Y1934D01*
X5068Y1948D01*
G37*
G36*
X5627Y1985D02*
X5068Y1948D01*
X5694Y1934D01*
X5627Y1985D01*
G37*
G36*
X5140Y2021D02*
X5068Y1948D01*
X5627Y1985D01*
X5140Y2021D01*
G37*
G36*
X5187Y2113D02*
X5140Y2021D01*
X5627Y1985D01*
X5187Y2113D01*
G37*
G36*
X5203Y2215D02*
X5187Y2113D01*
X5627Y1985D01*
X5203Y2215D01*
G37*
G36*
X5187Y2316D02*
X5203Y2215D01*
X5627Y1985D01*
X5187Y2316D01*
G37*
G36*
X5140Y2408D02*
X5187Y2316D01*
X5627Y1985D01*
X5140Y2408D01*
G37*
G36*
X5627Y1985D02*
X5068Y2481D01*
X5140Y2408D01*
X5627Y1985D01*
G37*
G36*
X5627Y1985D02*
X4639Y2973D01*
X5068Y2481D01*
X5627Y1985D01*
G37*
G36*
X5068Y2481D02*
X4639Y2973D01*
X4806Y2739D01*
X5068Y2481D01*
G37*
G36*
X4639Y2973D02*
X4739Y2791D01*
X4806Y2739D01*
X4639Y2973D01*
G37*
G36*
X4639Y2973D02*
X4661Y2823D01*
X4739Y2791D01*
X4639Y2973D01*
G37*
G36*
X4639Y2973D02*
X4577Y2834D01*
X4661Y2823D01*
X4639Y2973D01*
G37*
G36*
X2834Y2973D02*
X4577Y2834D01*
X4639Y2973D01*
X2834Y2973D01*
G37*
G36*
X2834Y2973D02*
X2834Y2961D01*
X4577Y2834D01*
X2834Y2973D01*
G37*
G36*
X2834Y2961D02*
X2834Y2866D01*
X4577Y2834D01*
X2834Y2961D01*
G37*
G36*
X2834Y2866D02*
X2834Y2834D01*
X4577Y2834D01*
X2834Y2866D01*
G37*
G36*
X1989Y2961D02*
X2834Y2866D01*
X2834Y2961D01*
X1989Y2961D01*
G37*
G36*
X1989Y2961D02*
X1989Y2866D01*
X2834Y2866D01*
X1989Y2961D01*
G37*
G36*
X394Y394D02*
X1989Y2866D01*
X1989Y2961D01*
X394Y394D01*
G37*
G36*
X394Y394D02*
X1989Y2961D01*
X1989Y3259D01*
X394Y394D01*
G37*
G36*
X394Y394D02*
X1989Y3259D01*
X1989Y3355D01*
X394Y394D01*
G37*
G36*
X1989Y3355D02*
X1989Y3259D01*
X2087Y3297D01*
X1989Y3355D01*
G37*
G36*
X2087Y3297D02*
X1989Y3259D01*
X2092Y3259D01*
X2087Y3297D01*
G37*
G36*
X1989Y3355D02*
X2087Y3297D01*
X2095Y3355D01*
X1989Y3355D01*
G37*
G36*
X394Y394D02*
X1989Y3355D01*
X1989Y3653D01*
X394Y394D01*
G37*
G36*
X394Y394D02*
X1989Y3653D01*
X1989Y3749D01*
X394Y394D01*
G37*
G36*
X1989Y3749D02*
X1989Y3653D01*
X2834Y3653D01*
X1989Y3749D01*
G37*
G36*
X1989Y3749D02*
X2834Y3653D01*
X2834Y3749D01*
X1989Y3749D01*
G37*
G36*
X2834Y3749D02*
X2834Y3653D01*
X4774Y3622D01*
X2834Y3749D01*
G37*
G36*
X2834Y3653D02*
X2834Y3622D01*
X4774Y3622D01*
X2834Y3653D01*
G37*
G36*
X2834Y3760D02*
X2834Y3749D01*
X4774Y3622D01*
X2834Y3760D01*
G37*
G36*
X2834Y3760D02*
X4774Y3622D01*
X4886Y3760D01*
X2834Y3760D01*
G37*
G36*
X4774Y3622D02*
X4858Y3611D01*
X4886Y3760D01*
X4774Y3622D01*
G37*
G36*
X4886Y3760D02*
X4858Y3611D01*
X4936Y3578D01*
X4886Y3760D01*
G37*
G36*
X4886Y3760D02*
X4936Y3578D01*
X5003Y3527D01*
X4886Y3760D01*
G37*
G36*
X6068Y2481D02*
X4886Y3760D01*
X5003Y3527D01*
X6068Y2481D01*
G37*
G36*
X6068Y2481D02*
X5003Y3527D01*
X6029Y2500D01*
X6068Y2481D01*
G37*
G36*
X6591Y2055D02*
X4886Y3760D01*
X6068Y2481D01*
X6591Y2055D01*
G37*
G36*
X6591Y2055D02*
X6068Y2481D01*
X6140Y2408D01*
X6591Y2055D01*
G37*
G36*
X6140Y2408D02*
X6187Y2316D01*
X6591Y2055D01*
X6140Y2408D01*
G37*
G36*
X6187Y2316D02*
X6203Y2215D01*
X6591Y2055D01*
X6187Y2316D01*
G37*
G36*
X6203Y2215D02*
X6187Y2113D01*
X6591Y2055D01*
X6203Y2215D01*
G37*
G36*
X6187Y2113D02*
X6140Y2021D01*
X6591Y2055D01*
X6187Y2113D01*
G37*
G36*
X6591Y2055D02*
X6140Y2021D01*
X6608Y2021D01*
X6591Y2055D01*
G37*
G36*
X6608Y2021D02*
X6140Y2021D01*
X6681Y1948D01*
X6608Y2021D01*
G37*
G36*
X6140Y2021D02*
X6068Y1948D01*
X6681Y1948D01*
X6140Y2021D01*
G37*
G36*
X6681Y1948D02*
X6068Y1948D01*
X6773Y1902D01*
X6681Y1948D01*
G37*
G36*
X6068Y1948D02*
X5976Y1902D01*
X6773Y1902D01*
X6068Y1948D01*
G37*
G36*
X6773Y1902D02*
X5976Y1902D01*
X6874Y1886D01*
X6773Y1902D01*
G37*
G36*
X5976Y1902D02*
X5874Y1886D01*
X6874Y1886D01*
X5976Y1902D01*
G37*
G36*
X394Y394D02*
X1989Y3749D01*
X1989Y4047D01*
X394Y394D01*
G37*
G36*
X394Y394D02*
X1989Y4047D01*
X1989Y4142D01*
X394Y394D01*
G37*
G36*
X1989Y4142D02*
X1989Y4047D01*
X2087Y4085D01*
X1989Y4142D01*
G37*
G36*
X2087Y4085D02*
X1989Y4047D01*
X2092Y4047D01*
X2087Y4085D01*
G37*
G36*
X1989Y4142D02*
X2087Y4085D01*
X2095Y4142D01*
X1989Y4142D01*
G37*
G36*
X394Y394D02*
X1989Y4142D01*
X1989Y4440D01*
X394Y394D01*
G37*
G36*
X394Y394D02*
X1989Y2567D01*
X1989Y2866D01*
X394Y394D01*
G37*
G36*
X394Y394D02*
X1989Y2472D01*
X1989Y2567D01*
X394Y394D01*
G37*
G36*
X1989Y2567D02*
X1989Y2472D01*
X2087Y2510D01*
X1989Y2567D01*
G37*
G36*
X2087Y2510D02*
X1989Y2472D01*
X2092Y2472D01*
X2087Y2510D01*
G37*
G36*
X1989Y2567D02*
X2087Y2510D01*
X2095Y2567D01*
X1989Y2567D01*
G37*
G36*
X394Y394D02*
X1989Y2174D01*
X1989Y2472D01*
X394Y394D01*
G37*
G36*
X394Y394D02*
X787Y0D01*
X1989Y2174D01*
X394Y394D01*
G37*
G36*
X1989Y2174D02*
X787Y0D01*
X2834Y2174D01*
X1989Y2174D01*
G37*
G36*
X787Y0D02*
X4681Y1948D01*
X2834Y2174D01*
X787Y0D01*
G37*
G36*
X4643Y1985D02*
X2834Y2174D01*
X4681Y1948D01*
X4643Y1985D01*
G37*
G36*
X4648Y1982D02*
X4643Y1985D01*
X4681Y1948D01*
X4648Y1982D01*
G37*
G36*
X4643Y1985D02*
X4443Y2186D01*
X2834Y2174D01*
X4643Y1985D01*
G37*
G36*
X4443Y2186D02*
X2834Y2186D01*
X2834Y2174D01*
X4443Y2186D01*
G37*
G36*
X4681Y1948D02*
X787Y0D01*
X4773Y1902D01*
X4681Y1948D01*
G37*
G36*
X4773Y1902D02*
X787Y0D01*
X4874Y1886D01*
X4773Y1902D01*
G37*
G36*
X5068Y2481D02*
X4806Y2739D01*
X5062Y2484D01*
X5068Y2481D01*
G37*
G36*
X5785Y1900D02*
X5773Y1901D01*
X5874Y1886D01*
X5785Y1900D01*
G37*
G36*
X7637Y3798D02*
X7663Y3778D01*
X7650Y3788D01*
X7637Y3798D01*
G37*
G36*
X7726Y3761D02*
X7726Y3760D01*
X7727Y3760D01*
X7726Y3761D01*
G37*
G36*
X8672Y3760D02*
X7727Y3760D01*
X8682Y3742D01*
X8672Y3760D01*
G37*
G36*
X8641Y5827D02*
X7579Y5827D01*
X8642Y5819D01*
X8641Y5827D01*
G37*
G36*
X7549Y5834D02*
X7540Y5838D01*
X7558Y5830D01*
X7549Y5834D01*
G37*
G36*
X7539Y5838D02*
X7539Y5839D01*
X7540Y5838D01*
X7539Y5838D01*
G37*
G36*
X7523Y5851D02*
X7523Y5851D01*
X7524Y5850D01*
X7523Y5851D01*
G37*
G36*
X6988Y6526D02*
X2834Y6526D01*
X2834Y6505D01*
X6988Y6526D01*
G37*
G36*
X7234Y6338D02*
X7235Y6338D01*
X7236Y6338D01*
X7234Y6338D01*
G37*
G36*
X7255Y6335D02*
X7255Y6335D01*
X7256Y6335D01*
X7255Y6335D01*
G37*
G36*
X8682Y6070D02*
X7612Y5984D01*
X8642Y5992D01*
X8682Y6070D01*
G37*
G36*
X7612Y5984D02*
X8641Y5984D01*
X8642Y5992D01*
X7612Y5984D01*
G37*
G36*
X11024Y787D02*
X9187Y8941D01*
X9187Y7923D01*
X11024Y787D01*
G37*
G36*
X9173Y8855D02*
X9187Y7923D01*
X9187Y8941D01*
X9173Y8855D01*
G37*
G36*
X9173Y8855D02*
X9173Y8010D01*
X9187Y7923D01*
X9173Y8855D01*
G37*
G36*
X9173Y8855D02*
X9133Y8087D01*
X9173Y8010D01*
X9173Y8855D01*
G37*
G36*
X9173Y8855D02*
X9133Y8777D01*
X9133Y8087D01*
X9173Y8855D01*
G37*
G36*
X9072Y8716D02*
X9133Y8087D01*
X9133Y8777D01*
X9072Y8716D01*
G37*
G36*
X9072Y8716D02*
X9072Y8149D01*
X9133Y8087D01*
X9072Y8716D01*
G37*
G36*
X9072Y8716D02*
X8994Y8189D01*
X9072Y8149D01*
X9072Y8716D01*
G37*
G36*
X9072Y8716D02*
X8994Y8676D01*
X8994Y8189D01*
X9072Y8716D01*
G37*
G36*
X8994Y8676D02*
X8908Y8202D01*
X8994Y8189D01*
X8994Y8676D01*
G37*
G36*
X8994Y8676D02*
X8908Y8662D01*
X8908Y8202D01*
X8994Y8676D01*
G37*
G36*
X8908Y8662D02*
X8822Y8676D01*
X8908Y8202D01*
X8908Y8662D01*
G37*
G36*
X8822Y8676D02*
X8822Y8189D01*
X8908Y8202D01*
X8822Y8676D01*
G37*
G36*
X8744Y8149D02*
X8822Y8189D01*
X8822Y8676D01*
X8744Y8149D01*
G37*
G36*
X8744Y8716D02*
X8744Y8149D01*
X8822Y8676D01*
X8744Y8716D01*
G37*
G36*
X8682Y8087D02*
X8744Y8149D01*
X8744Y8716D01*
X8682Y8087D01*
G37*
G36*
X8682Y8777D02*
X8682Y8087D01*
X8744Y8716D01*
X8682Y8777D01*
G37*
G36*
X8682Y8777D02*
X7779Y8830D01*
X8682Y8087D01*
X8682Y8777D01*
G37*
G36*
X7779Y8830D02*
X8663Y8051D01*
X8682Y8087D01*
X7779Y8830D01*
G37*
G36*
X7779Y8830D02*
X7481Y8051D01*
X8663Y8051D01*
X7779Y8830D01*
G37*
G36*
X7464Y8049D02*
X7481Y8051D01*
X7779Y8830D01*
X7464Y8049D01*
G37*
G36*
X7448Y8047D02*
X7464Y8049D01*
X7779Y8830D01*
X7448Y8047D01*
G37*
G36*
X7779Y8830D02*
X7448Y8047D01*
X7448Y8047D01*
X7779Y8830D01*
G37*
G36*
X7448Y8047D02*
X7448Y8047D01*
X7448Y8047D01*
X7448Y8047D01*
G37*
G36*
X7433Y8040D02*
X7448Y8047D01*
X7779Y8830D01*
X7433Y8040D01*
G37*
G36*
X7417Y8034D02*
X7433Y8040D01*
X7779Y8830D01*
X7417Y8034D01*
G37*
G36*
X7779Y8830D02*
X7417Y8034D01*
X7417Y8034D01*
X7779Y8830D01*
G37*
G36*
X7417Y8034D02*
X7417Y8034D01*
X7417Y8034D01*
X7417Y8034D01*
G37*
G36*
X7404Y8024D02*
X7417Y8034D01*
X7779Y8830D01*
X7404Y8024D01*
G37*
G36*
X7391Y8014D02*
X7404Y8024D01*
X7779Y8830D01*
X7391Y8014D01*
G37*
G36*
X7779Y8830D02*
X6291Y7351D01*
X7391Y8014D01*
X7779Y8830D01*
G37*
G36*
X6291Y7351D02*
X6542Y7175D01*
X7391Y8014D01*
X6291Y7351D01*
G37*
G36*
X6291Y7351D02*
X6278Y7341D01*
X6542Y7175D01*
X6291Y7351D01*
G37*
G36*
X6278Y7341D02*
X6265Y7331D01*
X6542Y7175D01*
X6278Y7341D01*
G37*
G36*
X6542Y7175D02*
X6265Y7331D01*
X6264Y7330D01*
X6542Y7175D01*
G37*
G36*
X6265Y7331D02*
X6264Y7331D01*
X6264Y7330D01*
X6265Y7331D01*
G37*
G36*
X6264Y7330D02*
X6249Y7324D01*
X6542Y7175D01*
X6264Y7330D01*
G37*
G36*
X6249Y7324D02*
X6234Y7318D01*
X6542Y7175D01*
X6249Y7324D01*
G37*
G36*
X6542Y7175D02*
X6234Y7318D01*
X6234Y7318D01*
X6542Y7175D01*
G37*
G36*
X6234Y7318D02*
X6234Y7318D01*
X6234Y7318D01*
X6234Y7318D01*
G37*
G36*
X6234Y7318D02*
X6217Y7316D01*
X6542Y7175D01*
X6234Y7318D01*
G37*
G36*
X6217Y7316D02*
X6201Y7314D01*
X6542Y7175D01*
X6217Y7316D01*
G37*
G36*
X6201Y7314D02*
X2834Y7175D01*
X6542Y7175D01*
X6201Y7314D01*
G37*
G36*
X6201Y7314D02*
X2834Y7196D01*
X2834Y7175D01*
X6201Y7314D01*
G37*
G36*
X6201Y7314D02*
X2834Y7292D01*
X2834Y7196D01*
X6201Y7314D01*
G37*
G36*
X1989Y7292D02*
X2834Y7196D01*
X2834Y7292D01*
X1989Y7292D01*
G37*
G36*
X1989Y7292D02*
X1989Y7196D01*
X2834Y7196D01*
X1989Y7292D01*
G37*
G36*
X6201Y7314D02*
X2834Y7314D01*
X2834Y7292D01*
X6201Y7314D01*
G37*
G36*
X8655Y8830D02*
X7779Y8830D01*
X8682Y8777D01*
X8655Y8830D01*
G37*
G36*
X11024Y12992D02*
X9187Y8941D01*
X11024Y787D01*
X11024Y12992D01*
G37*
G36*
X11024Y12992D02*
X10236Y12205D01*
X9187Y8941D01*
X11024Y12992D01*
G37*
G36*
X10236Y12205D02*
X9187Y9941D01*
X9187Y8941D01*
X10236Y12205D01*
G37*
G36*
X9173Y9855D02*
X9187Y8941D01*
X9187Y9941D01*
X9173Y9855D01*
G37*
G36*
X9173Y9855D02*
X9173Y9027D01*
X9187Y8941D01*
X9173Y9855D01*
G37*
G36*
X9173Y9855D02*
X9133Y9105D01*
X9173Y9027D01*
X9173Y9855D01*
G37*
G36*
X9173Y9855D02*
X9133Y9777D01*
X9133Y9105D01*
X9173Y9855D01*
G37*
G36*
X9133Y9777D02*
X9072Y9167D01*
X9133Y9105D01*
X9133Y9777D01*
G37*
G36*
X9133Y9777D02*
X9072Y9716D01*
X9072Y9167D01*
X9133Y9777D01*
G37*
G36*
X8994Y9676D02*
X9072Y9167D01*
X9072Y9716D01*
X8994Y9676D01*
G37*
G36*
X8994Y9676D02*
X8994Y9207D01*
X9072Y9167D01*
X8994Y9676D01*
G37*
G36*
X8908Y9662D02*
X8994Y9207D01*
X8994Y9676D01*
X8908Y9662D01*
G37*
G36*
X8908Y9662D02*
X8908Y9220D01*
X8994Y9207D01*
X8908Y9662D01*
G37*
G36*
X8822Y9207D02*
X8908Y9220D01*
X8908Y9662D01*
X8822Y9207D01*
G37*
G36*
X8822Y9676D02*
X8822Y9207D01*
X8908Y9662D01*
X8822Y9676D01*
G37*
G36*
X8744Y9167D02*
X8822Y9207D01*
X8822Y9676D01*
X8744Y9167D01*
G37*
G36*
X8744Y9716D02*
X8744Y9167D01*
X8822Y9676D01*
X8744Y9716D01*
G37*
G36*
X8682Y9105D02*
X8744Y9167D01*
X8744Y9716D01*
X8682Y9105D01*
G37*
G36*
X8682Y9777D02*
X8682Y9105D01*
X8744Y9716D01*
X8682Y9777D01*
G37*
G36*
X8682Y9777D02*
X8063Y9802D01*
X8682Y9105D01*
X8682Y9777D01*
G37*
G36*
X8063Y9802D02*
X8671Y9084D01*
X8682Y9105D01*
X8063Y9802D01*
G37*
G36*
X8063Y9802D02*
X7727Y9084D01*
X8671Y9084D01*
X8063Y9802D01*
G37*
G36*
X7711Y9082D02*
X7727Y9084D01*
X8063Y9802D01*
X7711Y9082D01*
G37*
G36*
X7694Y9080D02*
X7711Y9082D01*
X8063Y9802D01*
X7694Y9080D01*
G37*
G36*
X8063Y9802D02*
X7694Y9080D01*
X7694Y9080D01*
X8063Y9802D01*
G37*
G36*
X7694Y9080D02*
X7694Y9080D01*
X7694Y9080D01*
X7694Y9080D01*
G37*
G36*
X7679Y9074D02*
X7694Y9080D01*
X8063Y9802D01*
X7679Y9074D01*
G37*
G36*
X7663Y9067D02*
X7679Y9074D01*
X8063Y9802D01*
X7663Y9067D01*
G37*
G36*
X8063Y9802D02*
X7663Y9067D01*
X7663Y9067D01*
X8063Y9802D01*
G37*
G36*
X7663Y9067D02*
X7663Y9067D01*
X7663Y9067D01*
X7663Y9067D01*
G37*
G36*
X7650Y9057D02*
X7663Y9067D01*
X8063Y9802D01*
X7650Y9057D01*
G37*
G36*
X7637Y9047D02*
X7650Y9057D01*
X8063Y9802D01*
X7637Y9047D01*
G37*
G36*
X8063Y9802D02*
X5996Y7744D01*
X7637Y9047D01*
X8063Y9802D01*
G37*
G36*
X6148Y7568D02*
X7637Y9047D01*
X5996Y7744D01*
X6148Y7568D01*
G37*
G36*
X5996Y7744D02*
X5982Y7734D01*
X6148Y7568D01*
X5996Y7744D01*
G37*
G36*
X5982Y7734D02*
X5969Y7724D01*
X6148Y7568D01*
X5982Y7734D01*
G37*
G36*
X6148Y7568D02*
X5969Y7724D01*
X5969Y7724D01*
X6148Y7568D01*
G37*
G36*
X5969Y7724D02*
X5969Y7724D01*
X5969Y7724D01*
X5969Y7724D01*
G37*
G36*
X5969Y7724D02*
X5954Y7718D01*
X6148Y7568D01*
X5969Y7724D01*
G37*
G36*
X5954Y7718D02*
X5939Y7712D01*
X6148Y7568D01*
X5954Y7718D01*
G37*
G36*
X6148Y7568D02*
X5939Y7712D01*
X5938Y7712D01*
X6148Y7568D01*
G37*
G36*
X5939Y7712D02*
X5938Y7712D01*
X5938Y7712D01*
X5939Y7712D01*
G37*
G36*
X5938Y7712D02*
X5922Y7709D01*
X6148Y7568D01*
X5938Y7712D01*
G37*
G36*
X5922Y7709D02*
X5905Y7707D01*
X6148Y7568D01*
X5922Y7709D01*
G37*
G36*
X5905Y7707D02*
X2834Y7568D01*
X6148Y7568D01*
X5905Y7707D01*
G37*
G36*
X5905Y7707D02*
X2834Y7590D01*
X2834Y7568D01*
X5905Y7707D01*
G37*
G36*
X5905Y7707D02*
X2834Y7686D01*
X2834Y7590D01*
X5905Y7707D01*
G37*
G36*
X1989Y7686D02*
X2834Y7590D01*
X2834Y7686D01*
X1989Y7686D01*
G37*
G36*
X1989Y7686D02*
X1989Y7590D01*
X2834Y7590D01*
X1989Y7686D01*
G37*
G36*
X5905Y7707D02*
X2834Y7707D01*
X2834Y7686D01*
X5905Y7707D01*
G37*
G36*
X8682Y9777D02*
X8063Y9802D01*
X8063Y9802D01*
X8682Y9777D01*
G37*
G36*
X8063Y9802D02*
X8063Y9802D01*
X8063Y9802D01*
X8063Y9802D01*
G37*
G36*
X8075Y9814D02*
X8063Y9802D01*
X8682Y9777D01*
X8075Y9814D01*
G37*
G36*
X8663Y9814D02*
X8075Y9814D01*
X8682Y9777D01*
X8663Y9814D01*
G37*
G36*
X9187Y9941D02*
X10236Y12205D01*
X9173Y10027D01*
X9187Y9941D01*
G37*
G36*
X9173Y10027D02*
X10236Y12205D01*
X9173Y10922D01*
X9173Y10027D01*
G37*
G36*
X10236Y12205D02*
X9187Y11008D01*
X9173Y10922D01*
X10236Y12205D01*
G37*
G36*
X9173Y11094D02*
X9187Y11008D01*
X10236Y12205D01*
X9173Y11094D01*
G37*
G36*
X9173Y11094D02*
X10236Y12205D01*
X9133Y11172D01*
X9173Y11094D01*
G37*
G36*
X9133Y11172D02*
X10236Y12205D01*
X9133Y11844D01*
X9133Y11172D01*
G37*
G36*
X10236Y12205D02*
X9173Y11922D01*
X9133Y11844D01*
X10236Y12205D01*
G37*
G36*
X9187Y12008D02*
X9173Y11922D01*
X10236Y12205D01*
X9187Y12008D01*
G37*
G36*
X9173Y12094D02*
X9187Y12008D01*
X10236Y12205D01*
X9173Y12094D01*
G37*
G36*
X10236Y12205D02*
X9133Y12172D01*
X9173Y12094D01*
X10236Y12205D01*
G37*
G36*
X9449Y12992D02*
X9133Y12172D01*
X10236Y12205D01*
X9449Y12992D01*
G37*
G36*
X9072Y12234D02*
X9133Y12172D01*
X9449Y12992D01*
X9072Y12234D01*
G37*
G36*
X8994Y12274D02*
X9072Y12234D01*
X9449Y12992D01*
X8994Y12274D01*
G37*
G36*
X8908Y12287D02*
X8994Y12274D01*
X9449Y12992D01*
X8908Y12287D01*
G37*
G36*
X8822Y12274D02*
X8908Y12287D01*
X9449Y12992D01*
X8822Y12274D01*
G37*
G36*
X8822Y12274D02*
X9449Y12992D01*
X7841Y12287D01*
X8822Y12274D01*
G37*
G36*
X9449Y12992D02*
X5918Y13258D01*
X7841Y12287D01*
X9449Y12992D01*
G37*
G36*
X5918Y13258D02*
X7755Y12274D01*
X7841Y12287D01*
X5918Y13258D01*
G37*
G36*
X5918Y13258D02*
X5962Y13221D01*
X7755Y12274D01*
X5918Y13258D01*
G37*
G36*
X7755Y12274D02*
X5962Y13221D01*
X7677Y12234D01*
X7755Y12274D01*
G37*
G36*
X5991Y13186D02*
X7677Y12234D01*
X5962Y13221D01*
X5991Y13186D01*
G37*
G36*
X5962Y13221D02*
X5987Y13189D01*
X5991Y13186D01*
X5962Y13221D01*
G37*
G36*
X6014Y13154D02*
X7677Y12234D01*
X5991Y13186D01*
X6014Y13154D01*
G37*
G36*
X5991Y13186D02*
X5992Y13183D01*
X6014Y13154D01*
X5991Y13186D01*
G37*
G36*
X6046Y13076D02*
X7677Y12234D01*
X6014Y13154D01*
X6046Y13076D01*
G37*
G36*
X6046Y13076D02*
X6927Y12274D01*
X7677Y12234D01*
X6046Y13076D01*
G37*
G36*
X7005Y12234D02*
X7677Y12234D01*
X6927Y12274D01*
X7005Y12234D01*
G37*
G36*
X7615Y12172D02*
X7677Y12234D01*
X7005Y12234D01*
X7615Y12172D01*
G37*
G36*
X7615Y12172D02*
X7005Y12234D01*
X7066Y12172D01*
X7615Y12172D01*
G37*
G36*
X7575Y12094D02*
X7615Y12172D01*
X7066Y12172D01*
X7575Y12094D01*
G37*
G36*
X7066Y12172D02*
X7106Y12094D01*
X7575Y12094D01*
X7066Y12172D01*
G37*
G36*
X7106Y12094D02*
X7120Y12008D01*
X7575Y12094D01*
X7106Y12094D01*
G37*
G36*
X7120Y12008D02*
X7562Y12008D01*
X7575Y12094D01*
X7120Y12008D01*
G37*
G36*
X7562Y12008D02*
X7120Y12008D01*
X7575Y11922D01*
X7562Y12008D01*
G37*
G36*
X7120Y12008D02*
X7106Y11922D01*
X7575Y11922D01*
X7120Y12008D01*
G37*
G36*
X7575Y11922D02*
X7106Y11922D01*
X7615Y11844D01*
X7575Y11922D01*
G37*
G36*
X7106Y11922D02*
X7066Y11844D01*
X7615Y11844D01*
X7106Y11922D01*
G37*
G36*
X7615Y11844D02*
X7066Y11844D01*
X7632Y11827D01*
X7615Y11844D01*
G37*
G36*
X7632Y11827D02*
X7066Y11844D01*
X6943Y11417D01*
X7632Y11827D01*
G37*
G36*
X7005Y11783D02*
X6943Y11417D01*
X7066Y11844D01*
X7005Y11783D01*
G37*
G36*
X7005Y11783D02*
X6943Y11751D01*
X6943Y11417D01*
X7005Y11783D01*
G37*
G36*
X6943Y11417D02*
X6943Y11417D01*
X7632Y11827D01*
X6943Y11417D01*
G37*
G36*
X6943Y11417D02*
X6942Y11407D01*
X7632Y11827D01*
X6943Y11417D01*
G37*
G36*
X6942Y11407D02*
X6941Y11397D01*
X7632Y11827D01*
X6942Y11407D01*
G37*
G36*
X7632Y11827D02*
X6941Y11397D01*
X6941Y11397D01*
X7632Y11827D01*
G37*
G36*
X6941Y11397D02*
X6941Y11397D01*
X6941Y11397D01*
X6941Y11397D01*
G37*
G36*
X6941Y11397D02*
X6937Y11387D01*
X7632Y11827D01*
X6941Y11397D01*
G37*
G36*
X6937Y11387D02*
X6933Y11378D01*
X7632Y11827D01*
X6937Y11387D01*
G37*
G36*
X6933Y11378D02*
X6933Y11378D01*
X7632Y11827D01*
X6933Y11378D01*
G37*
G36*
X6927Y11370D02*
X7632Y11827D01*
X6933Y11378D01*
X6927Y11370D01*
G37*
G36*
X6920Y11362D02*
X7632Y11827D01*
X6927Y11370D01*
X6920Y11362D01*
G37*
G36*
X6920Y11362D02*
X6920Y11362D01*
X7632Y11827D01*
X6920Y11362D01*
G37*
G36*
X7632Y11827D02*
X6920Y11362D01*
X4913Y9094D01*
X7632Y11827D01*
G37*
G36*
X4903Y9354D02*
X4913Y9094D01*
X6920Y11362D01*
X4903Y9354D01*
G37*
G36*
X4913Y9094D02*
X4903Y9354D01*
X4894Y9348D01*
X4913Y9094D01*
G37*
G36*
X4913Y9094D02*
X4894Y9348D01*
X4886Y9342D01*
X4913Y9094D01*
G37*
G36*
X4886Y9342D02*
X4913Y9094D01*
X4886Y9342D01*
X4886Y9342D01*
G37*
G36*
X4886Y9342D02*
X4886Y9342D01*
X4886Y9342D01*
X4886Y9342D01*
G37*
G36*
X4913Y9094D02*
X4886Y9342D01*
X4877Y9338D01*
X4913Y9094D01*
G37*
G36*
X4913Y9094D02*
X4877Y9338D01*
X4868Y9334D01*
X4913Y9094D01*
G37*
G36*
X4867Y9334D02*
X4913Y9094D01*
X4868Y9334D01*
X4867Y9334D01*
G37*
G36*
X4867Y9334D02*
X4868Y9334D01*
X4868Y9334D01*
X4867Y9334D01*
G37*
G36*
X4867Y9334D02*
X4857Y9333D01*
X4913Y9094D01*
X4867Y9334D01*
G37*
G36*
X4857Y9333D02*
X4847Y9331D01*
X4913Y9094D01*
X4857Y9333D01*
G37*
G36*
X4847Y9331D02*
X2834Y9094D01*
X4913Y9094D01*
X4847Y9331D01*
G37*
G36*
X4847Y9331D02*
X2834Y9165D01*
X2834Y9094D01*
X4847Y9331D01*
G37*
G36*
X4847Y9331D02*
X2834Y9260D01*
X2834Y9165D01*
X4847Y9331D01*
G37*
G36*
X1989Y9260D02*
X2834Y9165D01*
X2834Y9260D01*
X1989Y9260D01*
G37*
G36*
X1989Y9260D02*
X1989Y9165D01*
X2834Y9165D01*
X1989Y9260D01*
G37*
G36*
X4847Y9331D02*
X2834Y9331D01*
X2834Y9260D01*
X4847Y9331D01*
G37*
G36*
X6920Y11362D02*
X6920Y11362D01*
X6920Y11362D01*
X6920Y11362D01*
G37*
G36*
X6933Y11378D02*
X6933Y11378D01*
X6933Y11378D01*
X6933Y11378D01*
G37*
G36*
X6943Y11417D02*
X6943Y11417D01*
X6943Y11417D01*
X6943Y11417D01*
G37*
G36*
X6841Y12287D02*
X6927Y12274D01*
X6046Y13076D01*
X6841Y12287D01*
G37*
G36*
X6046Y13076D02*
X6057Y12992D01*
X6841Y12287D01*
X6046Y13076D01*
G37*
G36*
X6057Y12992D02*
X6755Y12274D01*
X6841Y12287D01*
X6057Y12992D01*
G37*
G36*
X6057Y12992D02*
X6677Y12234D01*
X6755Y12274D01*
X6057Y12992D01*
G37*
G36*
X6057Y12992D02*
X6615Y12172D01*
X6677Y12234D01*
X6057Y12992D01*
G37*
G36*
X6575Y12094D02*
X6615Y12172D01*
X6057Y12992D01*
X6575Y12094D01*
G37*
G36*
X6562Y12008D02*
X6575Y12094D01*
X6057Y12992D01*
X6562Y12008D01*
G37*
G36*
X6057Y12992D02*
X6057Y11220D01*
X6562Y12008D01*
X6057Y12992D01*
G37*
G36*
X6562Y12008D02*
X6057Y11220D01*
X6575Y11922D01*
X6562Y12008D01*
G37*
G36*
X6615Y11844D02*
X6575Y11922D01*
X6057Y11220D01*
X6615Y11844D01*
G37*
G36*
X6615Y11844D02*
X6057Y11220D01*
X6677Y11783D01*
X6615Y11844D01*
G37*
G36*
X6787Y11450D02*
X6677Y11783D01*
X6057Y11220D01*
X6787Y11450D01*
G37*
G36*
X6046Y11136D02*
X6787Y11450D01*
X6057Y11220D01*
X6046Y11136D01*
G37*
G36*
X6014Y11058D02*
X6787Y11450D01*
X6046Y11136D01*
X6014Y11058D01*
G37*
G36*
X5962Y10991D02*
X6787Y11450D01*
X6014Y11058D01*
X5962Y10991D01*
G37*
G36*
X5962Y10991D02*
X5126Y10154D01*
X6787Y11450D01*
X5962Y10991D01*
G37*
G36*
X5126Y10154D02*
X4815Y9488D01*
X6787Y11450D01*
X5126Y10154D01*
G37*
G36*
X4815Y9488D02*
X5126Y10154D01*
X5059Y10103D01*
X4815Y9488D01*
G37*
G36*
X5059Y10103D02*
X4981Y10071D01*
X4815Y9488D01*
X5059Y10103D01*
G37*
G36*
X4981Y10071D02*
X4897Y10059D01*
X4815Y9488D01*
X4981Y10071D01*
G37*
G36*
X4897Y10059D02*
X2834Y10048D01*
X4815Y9488D01*
X4897Y10059D01*
G37*
G36*
X2834Y10048D02*
X2834Y9559D01*
X4815Y9488D01*
X2834Y10048D01*
G37*
G36*
X2834Y9559D02*
X2834Y9488D01*
X4815Y9488D01*
X2834Y9559D01*
G37*
G36*
X2834Y10048D02*
X1989Y9559D01*
X2834Y9559D01*
X2834Y10048D01*
G37*
G36*
X2834Y10048D02*
X1989Y10048D01*
X1989Y9559D01*
X2834Y10048D01*
G37*
G36*
X4897Y10059D02*
X2834Y10059D01*
X2834Y10048D01*
X4897Y10059D01*
G37*
G36*
X6755Y11743D02*
X6677Y11783D01*
X6787Y11450D01*
X6755Y11743D01*
G37*
G36*
X6787Y11738D02*
X6755Y11743D01*
X6787Y11450D01*
X6787Y11738D01*
G37*
G36*
X5918Y13258D02*
X5930Y13246D01*
X5962Y13221D01*
X5918Y13258D01*
G37*
G36*
X9449Y12992D02*
X10236Y13780D01*
X5918Y13258D01*
X9449Y12992D01*
G37*
G36*
X10236Y13780D02*
X5895Y13273D01*
X5918Y13258D01*
X10236Y13780D01*
G37*
G36*
X5895Y13273D02*
X5907Y13264D01*
X5918Y13258D01*
X5895Y13273D01*
G37*
G36*
X10236Y13780D02*
X5826Y13305D01*
X5895Y13273D01*
X10236Y13780D01*
G37*
G36*
X5826Y13305D02*
X5864Y13286D01*
X5895Y13273D01*
X5826Y13305D01*
G37*
G36*
X5724Y13321D02*
X5826Y13305D01*
X10236Y13780D01*
X5724Y13321D01*
G37*
G36*
X5724Y13321D02*
X10236Y13780D01*
X787Y13780D01*
X5724Y13321D01*
G37*
G36*
X787Y13780D02*
X5053Y13321D01*
X5724Y13321D01*
X787Y13780D01*
G37*
G36*
X5053Y13321D02*
X5623Y13305D01*
X5724Y13321D01*
X5053Y13321D01*
G37*
G36*
X5053Y13321D02*
X5531Y13258D01*
X5623Y13305D01*
X5053Y13321D01*
G37*
G36*
X5053Y13321D02*
X5458Y13186D01*
X5531Y13258D01*
X5053Y13321D01*
G37*
G36*
X5053Y13321D02*
X5412Y13094D01*
X5458Y13186D01*
X5053Y13321D01*
G37*
G36*
X5053Y13321D02*
X5395Y12992D01*
X5412Y13094D01*
X5053Y13321D01*
G37*
G36*
X5053Y13321D02*
X5053Y12663D01*
X5395Y12992D01*
X5053Y13321D01*
G37*
G36*
X5395Y12992D02*
X5053Y12663D01*
X5409Y12907D01*
X5395Y12992D01*
G37*
G36*
X5053Y12663D02*
X5409Y12077D01*
X5409Y12907D01*
X5053Y12663D01*
G37*
G36*
X5409Y12077D02*
X5053Y12663D01*
X5049Y12023D01*
X5409Y12077D01*
G37*
G36*
X5049Y12023D02*
X5053Y12663D01*
X5049Y12663D01*
X5049Y12023D01*
G37*
G36*
X5395Y11992D02*
X5409Y12077D01*
X5049Y12023D01*
X5395Y11992D01*
G37*
G36*
X5049Y12023D02*
X5053Y11992D01*
X5395Y11992D01*
X5049Y12023D01*
G37*
G36*
X5395Y11992D02*
X5053Y11992D01*
X5049Y11962D01*
X5395Y11992D01*
G37*
G36*
X5409Y11907D02*
X5395Y11992D01*
X5049Y11962D01*
X5409Y11907D01*
G37*
G36*
X5049Y11962D02*
X5049Y11343D01*
X5409Y11907D01*
X5049Y11962D01*
G37*
G36*
X5049Y11343D02*
X5409Y11355D01*
X5409Y11907D01*
X5049Y11343D01*
G37*
G36*
X5409Y11355D02*
X5049Y11343D01*
X5038Y11259D01*
X5409Y11355D01*
G37*
G36*
X5409Y11355D02*
X5038Y11259D01*
X5005Y11181D01*
X5409Y11355D01*
G37*
G36*
X5409Y11355D02*
X5005Y11181D01*
X4954Y11114D01*
X5409Y11355D01*
G37*
G36*
X4762Y10708D02*
X5409Y11355D01*
X4954Y11114D01*
X4762Y10708D01*
G37*
G36*
X4762Y10708D02*
X4954Y11114D01*
X4781Y10942D01*
X4762Y10708D01*
G37*
G36*
X4714Y10890D02*
X4762Y10708D01*
X4781Y10942D01*
X4714Y10890D01*
G37*
G36*
X4714Y10890D02*
X4636Y10858D01*
X4762Y10708D01*
X4714Y10890D01*
G37*
G36*
X4636Y10858D02*
X4552Y10847D01*
X4762Y10708D01*
X4636Y10858D01*
G37*
G36*
X4552Y10847D02*
X2834Y10708D01*
X4762Y10708D01*
X4552Y10847D01*
G37*
G36*
X4552Y10847D02*
X2834Y10740D01*
X2834Y10708D01*
X4552Y10847D01*
G37*
G36*
X4552Y10847D02*
X2834Y10835D01*
X2834Y10740D01*
X4552Y10847D01*
G37*
G36*
X1989Y10835D02*
X2834Y10740D01*
X2834Y10835D01*
X1989Y10835D01*
G37*
G36*
X1989Y10835D02*
X1989Y10740D01*
X2834Y10740D01*
X1989Y10835D01*
G37*
G36*
X4552Y10847D02*
X2834Y10847D01*
X2834Y10835D01*
X4552Y10847D01*
G37*
G36*
X787Y13780D02*
X4395Y13321D01*
X5053Y13321D01*
X787Y13780D01*
G37*
G36*
X4395Y13321D02*
X787Y13780D01*
X2834Y11527D01*
X4395Y13321D01*
G37*
G36*
X787Y13780D02*
X1989Y11527D01*
X2834Y11527D01*
X787Y13780D01*
G37*
G36*
X2834Y11527D02*
X4395Y12663D01*
X4395Y13321D01*
X2834Y11527D01*
G37*
G36*
X4400Y12021D02*
X4395Y12663D01*
X2834Y11527D01*
X4400Y12021D01*
G37*
G36*
X4400Y12021D02*
X2834Y11527D01*
X4395Y11992D01*
X4400Y12021D01*
G37*
G36*
X4395Y11992D02*
X2834Y11527D01*
X4400Y11963D01*
X4395Y11992D01*
G37*
G36*
X2834Y11527D02*
X4400Y11495D01*
X4400Y11963D01*
X2834Y11527D01*
G37*
G36*
X2834Y11527D02*
X2834Y11495D01*
X4400Y11495D01*
X2834Y11527D01*
G37*
G36*
X4395Y12663D02*
X4400Y12021D01*
X4400Y12663D01*
X4395Y12663D01*
G37*
G36*
X7841Y12287D02*
X8744Y12234D01*
X8822Y12274D01*
X7841Y12287D01*
G37*
G36*
X8744Y12234D02*
X7841Y12287D01*
X7927Y12274D01*
X8744Y12234D01*
G37*
G36*
X8005Y12234D02*
X8744Y12234D01*
X7927Y12274D01*
X8005Y12234D01*
G37*
G36*
X8682Y12172D02*
X8744Y12234D01*
X8005Y12234D01*
X8682Y12172D01*
G37*
G36*
X8682Y12172D02*
X8005Y12234D01*
X8066Y12172D01*
X8682Y12172D01*
G37*
G36*
X8642Y12094D02*
X8682Y12172D01*
X8066Y12172D01*
X8642Y12094D01*
G37*
G36*
X8066Y12172D02*
X8106Y12094D01*
X8642Y12094D01*
X8066Y12172D01*
G37*
G36*
X8106Y12094D02*
X8120Y12008D01*
X8642Y12094D01*
X8106Y12094D01*
G37*
G36*
X8120Y12008D02*
X8629Y12008D01*
X8642Y12094D01*
X8120Y12008D01*
G37*
G36*
X8629Y12008D02*
X8120Y12008D01*
X8642Y11922D01*
X8629Y12008D01*
G37*
G36*
X8120Y12008D02*
X8106Y11922D01*
X8642Y11922D01*
X8120Y12008D01*
G37*
G36*
X8642Y11922D02*
X8106Y11922D01*
X8657Y11893D01*
X8642Y11922D01*
G37*
G36*
X8106Y11922D02*
X8066Y11844D01*
X8657Y11893D01*
X8106Y11922D01*
G37*
G36*
X8657Y11893D02*
X8066Y11844D01*
X8005Y11783D01*
X8657Y11893D01*
G37*
G36*
X8657Y11893D02*
X8005Y11783D01*
X7927Y11743D01*
X8657Y11893D01*
G37*
G36*
X5455Y8700D02*
X8657Y11893D01*
X7927Y11743D01*
X5455Y8700D01*
G37*
G36*
X7841Y11729D02*
X5455Y8700D01*
X7927Y11743D01*
X7841Y11729D01*
G37*
G36*
X7841Y11729D02*
X7767Y11741D01*
X5455Y8700D01*
X7841Y11729D01*
G37*
G36*
X5455Y8700D02*
X7767Y11741D01*
X5001Y8961D01*
X5455Y8700D01*
G37*
G36*
X5455Y8700D02*
X5001Y8961D01*
X5001Y8960D01*
X5455Y8700D01*
G37*
G36*
X5001Y8961D02*
X5001Y8961D01*
X5001Y8960D01*
X5001Y8961D01*
G37*
G36*
X5001Y8960D02*
X4993Y8954D01*
X5455Y8700D01*
X5001Y8960D01*
G37*
G36*
X4993Y8954D02*
X4985Y8948D01*
X5455Y8700D01*
X4993Y8954D01*
G37*
G36*
X5455Y8700D02*
X4985Y8948D01*
X4985Y8948D01*
X5455Y8700D01*
G37*
G36*
X4985Y8948D02*
X4985Y8948D01*
X4985Y8948D01*
X4985Y8948D01*
G37*
G36*
X4985Y8948D02*
X4976Y8944D01*
X5455Y8700D01*
X4985Y8948D01*
G37*
G36*
X4976Y8944D02*
X4966Y8940D01*
X5455Y8700D01*
X4976Y8944D01*
G37*
G36*
X5455Y8700D02*
X4966Y8940D01*
X4966Y8940D01*
X5455Y8700D01*
G37*
G36*
X4966Y8940D02*
X4966Y8940D01*
X4966Y8940D01*
X4966Y8940D01*
G37*
G36*
X4966Y8940D02*
X4956Y8939D01*
X5455Y8700D01*
X4966Y8940D01*
G37*
G36*
X4956Y8939D02*
X4946Y8938D01*
X5455Y8700D01*
X4956Y8939D01*
G37*
G36*
X4946Y8938D02*
X4946Y8938D01*
X5455Y8700D01*
X4946Y8938D01*
G37*
G36*
X4946Y8938D02*
X2834Y8700D01*
X5455Y8700D01*
X4946Y8938D01*
G37*
G36*
X4946Y8938D02*
X2834Y8771D01*
X2834Y8700D01*
X4946Y8938D01*
G37*
G36*
X4946Y8938D02*
X2834Y8867D01*
X2834Y8771D01*
X4946Y8938D01*
G37*
G36*
X1989Y8867D02*
X2834Y8771D01*
X2834Y8867D01*
X1989Y8867D01*
G37*
G36*
X1989Y8867D02*
X1989Y8771D01*
X2834Y8771D01*
X1989Y8867D01*
G37*
G36*
X4946Y8938D02*
X2834Y8938D01*
X2834Y8867D01*
X4946Y8938D01*
G37*
G36*
X4946Y8938D02*
X4946Y8938D01*
X4946Y8938D01*
X4946Y8938D01*
G37*
G36*
X9133Y11844D02*
X9072Y11234D01*
X9133Y11172D01*
X9133Y11844D01*
G37*
G36*
X9133Y11844D02*
X9072Y11783D01*
X9072Y11234D01*
X9133Y11844D01*
G37*
G36*
X8994Y11743D02*
X9072Y11234D01*
X9072Y11783D01*
X8994Y11743D01*
G37*
G36*
X8994Y11743D02*
X8994Y11274D01*
X9072Y11234D01*
X8994Y11743D01*
G37*
G36*
X8908Y11729D02*
X8994Y11274D01*
X8994Y11743D01*
X8908Y11729D01*
G37*
G36*
X8908Y11729D02*
X8908Y11287D01*
X8994Y11274D01*
X8908Y11729D01*
G37*
G36*
X8822Y11274D02*
X8908Y11287D01*
X8908Y11729D01*
X8822Y11274D01*
G37*
G36*
X8822Y11743D02*
X8822Y11274D01*
X8908Y11729D01*
X8822Y11743D01*
G37*
G36*
X8822Y11743D02*
X8760Y11774D01*
X8822Y11274D01*
X8822Y11743D01*
G37*
G36*
X8760Y11774D02*
X8744Y11234D01*
X8822Y11274D01*
X8760Y11774D01*
G37*
G36*
X8744Y11234D02*
X8760Y11774D01*
X8415Y11077D01*
X8744Y11234D01*
G37*
G36*
X8760Y11774D02*
X8406Y11076D01*
X8415Y11077D01*
X8760Y11774D01*
G37*
G36*
X8406Y11076D02*
X8760Y11774D01*
X8395Y11074D01*
X8406Y11076D01*
G37*
G36*
X8395Y11074D02*
X8760Y11774D01*
X8395Y11074D01*
X8395Y11074D01*
G37*
G36*
X8386Y11071D02*
X8395Y11074D01*
X8760Y11774D01*
X8386Y11071D01*
G37*
G36*
X8386Y11071D02*
X8760Y11774D01*
X8376Y11067D01*
X8386Y11071D01*
G37*
G36*
X8376Y11067D02*
X8760Y11774D01*
X8376Y11067D01*
X8376Y11067D01*
G37*
G36*
X8368Y11060D02*
X8376Y11067D01*
X8760Y11774D01*
X8368Y11060D01*
G37*
G36*
X8760Y11774D02*
X8360Y11054D01*
X8368Y11060D01*
X8760Y11774D01*
G37*
G36*
X8360Y11054D02*
X8760Y11774D01*
X5542Y8567D01*
X8360Y11054D01*
G37*
G36*
X5602Y8307D02*
X8360Y11054D01*
X5542Y8567D01*
X5602Y8307D01*
G37*
G36*
X5602Y8307D02*
X5542Y8567D01*
X5534Y8560D01*
X5602Y8307D01*
G37*
G36*
X5602Y8307D02*
X5534Y8560D01*
X5526Y8554D01*
X5602Y8307D01*
G37*
G36*
X5526Y8554D02*
X5602Y8307D01*
X5526Y8554D01*
X5526Y8554D01*
G37*
G36*
X5526Y8554D02*
X5526Y8554D01*
X5526Y8554D01*
X5526Y8554D01*
G37*
G36*
X5602Y8307D02*
X5526Y8554D01*
X5517Y8550D01*
X5602Y8307D01*
G37*
G36*
X5602Y8307D02*
X5517Y8550D01*
X5507Y8547D01*
X5602Y8307D01*
G37*
G36*
X5507Y8547D02*
X5602Y8307D01*
X5507Y8547D01*
X5507Y8547D01*
G37*
G36*
X5507Y8547D02*
X5507Y8547D01*
X5507Y8547D01*
X5507Y8547D01*
G37*
G36*
X5507Y8547D02*
X5497Y8545D01*
X5602Y8307D01*
X5507Y8547D01*
G37*
G36*
X5497Y8545D02*
X5487Y8544D01*
X5602Y8307D01*
X5497Y8545D01*
G37*
G36*
X5487Y8544D02*
X2834Y8307D01*
X5602Y8307D01*
X5487Y8544D01*
G37*
G36*
X5487Y8544D02*
X2834Y8377D01*
X2834Y8307D01*
X5487Y8544D01*
G37*
G36*
X5487Y8544D02*
X2834Y8473D01*
X2834Y8377D01*
X5487Y8544D01*
G37*
G36*
X1989Y8473D02*
X2834Y8377D01*
X2834Y8473D01*
X1989Y8473D01*
G37*
G36*
X1989Y8473D02*
X1989Y8377D01*
X2834Y8377D01*
X1989Y8473D01*
G37*
G36*
X5487Y8544D02*
X2834Y8544D01*
X2834Y8473D01*
X5487Y8544D01*
G37*
G36*
X8376Y11067D02*
X8376Y11067D01*
X8376Y11067D01*
X8376Y11067D01*
G37*
G36*
X8395Y11074D02*
X8395Y11074D01*
X8395Y11074D01*
X8395Y11074D01*
G37*
G36*
X8415Y11077D02*
X8682Y11172D01*
X8744Y11234D01*
X8415Y11077D01*
G37*
G36*
X8415Y11077D02*
X8642Y11094D01*
X8682Y11172D01*
X8415Y11077D01*
G37*
G36*
X8415Y11077D02*
X8640Y11077D01*
X8642Y11094D01*
X8415Y11077D01*
G37*
G36*
X9173Y10922D02*
X9133Y10105D01*
X9173Y10027D01*
X9173Y10922D01*
G37*
G36*
X9173Y10922D02*
X9133Y10844D01*
X9133Y10105D01*
X9173Y10922D01*
G37*
G36*
X9072Y10783D02*
X9133Y10105D01*
X9133Y10844D01*
X9072Y10783D01*
G37*
G36*
X9072Y10783D02*
X9072Y10167D01*
X9133Y10105D01*
X9072Y10783D01*
G37*
G36*
X9072Y10783D02*
X8994Y10207D01*
X9072Y10167D01*
X9072Y10783D01*
G37*
G36*
X9072Y10783D02*
X8994Y10743D01*
X8994Y10207D01*
X9072Y10783D01*
G37*
G36*
X8908Y10729D02*
X8994Y10207D01*
X8994Y10743D01*
X8908Y10729D01*
G37*
G36*
X8908Y10729D02*
X8908Y10220D01*
X8994Y10207D01*
X8908Y10729D01*
G37*
G36*
X8822Y10207D02*
X8908Y10220D01*
X8908Y10729D01*
X8822Y10207D01*
G37*
G36*
X8822Y10743D02*
X8822Y10207D01*
X8908Y10729D01*
X8822Y10743D01*
G37*
G36*
X8744Y10167D02*
X8822Y10207D01*
X8822Y10743D01*
X8744Y10167D01*
G37*
G36*
X8744Y10783D02*
X8744Y10167D01*
X8822Y10743D01*
X8744Y10783D01*
G37*
G36*
X8744Y10167D02*
X8744Y10783D01*
X8448Y10921D01*
X8744Y10167D01*
G37*
G36*
X8744Y10783D02*
X8682Y10844D01*
X8448Y10921D01*
X8744Y10783D01*
G37*
G36*
X8643Y10921D02*
X8448Y10921D01*
X8682Y10844D01*
X8643Y10921D01*
G37*
G36*
X8448Y10921D02*
X8682Y10105D01*
X8744Y10167D01*
X8448Y10921D01*
G37*
G36*
X8682Y10105D02*
X8448Y10921D01*
X8022Y10069D01*
X8682Y10105D01*
G37*
G36*
X7989Y10064D02*
X8022Y10069D01*
X8448Y10921D01*
X7989Y10064D01*
G37*
G36*
X7958Y10052D02*
X7989Y10064D01*
X8448Y10921D01*
X7958Y10052D01*
G37*
G36*
X7932Y10031D02*
X7958Y10052D01*
X8448Y10921D01*
X7932Y10031D01*
G37*
G36*
X7883Y9982D02*
X7932Y10031D01*
X8448Y10921D01*
X7883Y9982D01*
G37*
G36*
X8448Y10921D02*
X5690Y8173D01*
X7883Y9982D01*
X8448Y10921D01*
G37*
G36*
X7883Y9982D02*
X5690Y8173D01*
X5853Y7962D01*
X7883Y9982D01*
G37*
G36*
X5690Y8173D02*
X5682Y8167D01*
X5853Y7962D01*
X5690Y8173D01*
G37*
G36*
X5682Y8167D02*
X5674Y8161D01*
X5853Y7962D01*
X5682Y8167D01*
G37*
G36*
X5853Y7962D02*
X5674Y8161D01*
X5674Y8161D01*
X5853Y7962D01*
G37*
G36*
X5674Y8161D02*
X5674Y8161D01*
X5674Y8161D01*
X5674Y8161D01*
G37*
G36*
X5674Y8161D02*
X5664Y8157D01*
X5853Y7962D01*
X5674Y8161D01*
G37*
G36*
X5664Y8157D02*
X5655Y8153D01*
X5853Y7962D01*
X5664Y8157D01*
G37*
G36*
X5853Y7962D02*
X5655Y8153D01*
X5655Y8153D01*
X5853Y7962D01*
G37*
G36*
X5655Y8153D02*
X5655Y8153D01*
X5655Y8153D01*
X5655Y8153D01*
G37*
G36*
X5655Y8153D02*
X5645Y8152D01*
X5853Y7962D01*
X5655Y8153D01*
G37*
G36*
X5645Y8152D02*
X5635Y8150D01*
X5853Y7962D01*
X5645Y8152D01*
G37*
G36*
X5635Y8150D02*
X2834Y7962D01*
X5853Y7962D01*
X5635Y8150D01*
G37*
G36*
X5635Y8150D02*
X2834Y7984D01*
X2834Y7962D01*
X5635Y8150D01*
G37*
G36*
X5635Y8150D02*
X2834Y8079D01*
X2834Y7984D01*
X5635Y8150D01*
G37*
G36*
X1989Y8079D02*
X2834Y7984D01*
X2834Y8079D01*
X1989Y8079D01*
G37*
G36*
X1989Y8079D02*
X1989Y7984D01*
X2834Y7984D01*
X1989Y8079D01*
G37*
G36*
X5635Y8150D02*
X2834Y8150D01*
X2834Y8079D01*
X5635Y8150D01*
G37*
G36*
X8682Y10105D02*
X8022Y10069D01*
X8663Y10069D01*
X8682Y10105D01*
G37*
G36*
X8663Y7796D02*
X7533Y7796D01*
X8682Y7759D01*
X8663Y7796D01*
G37*
G36*
X6595Y6920D02*
X2834Y6920D01*
X2834Y6898D01*
X6595Y6920D01*
G37*
G36*
X1989Y10442D02*
X1989Y10346D01*
X2087Y10384D01*
X1989Y10442D01*
G37*
G36*
X2087Y10384D02*
X1989Y10346D01*
X2092Y10346D01*
X2087Y10384D01*
G37*
G36*
X1989Y10442D02*
X2087Y10384D01*
X2095Y10442D01*
X1989Y10442D01*
G37*
G36*
X1989Y11229D02*
X1989Y11133D01*
X2087Y11171D01*
X1989Y11229D01*
G37*
G36*
X2087Y11171D02*
X1989Y11133D01*
X2092Y11133D01*
X2087Y11171D01*
G37*
G36*
X1989Y11229D02*
X2087Y11171D01*
X2095Y11229D01*
X1989Y11229D01*
G37*
%LNSTD*%
%LPD*%
G54D11*
X7874Y2215D03*
X6874Y2215D03*
X5874Y2215D03*
X4874Y2215D03*
G54D17*
X6841Y12008D03*
X7841Y12008D03*
X8908Y12008D03*
X8908Y11008D03*
X8908Y5906D03*
X8908Y4906D03*
X8908Y3906D03*
X8908Y9941D03*
X8908Y8941D03*
X8908Y7923D03*
X8908Y6923D03*
G54D19*
X10236Y787D03*
X10236Y12992D03*
G54D22*
X2411Y2323D03*
X2411Y2717D03*
X2411Y3110D03*
X2411Y3504D03*
X2411Y3898D03*
X2411Y4291D03*
X2411Y4685D03*
X2411Y5079D03*
X2411Y5472D03*
X2411Y5866D03*
X2411Y6260D03*
X2411Y6654D03*
X2411Y7047D03*
X2411Y7441D03*
X2411Y7835D03*
X2411Y8228D03*
X2411Y8622D03*
X2411Y9016D03*
X2411Y9409D03*
X2411Y9803D03*
X2411Y10197D03*
X2411Y10591D03*
X2411Y10984D03*
X2411Y11378D03*
G54D24*
X1309Y1146D03*
X1309Y12555D03*
G54D27*
X4724Y12992D03*
G54D11*
X5724Y12992D03*
X5724Y11992D03*
X4724Y11992D03*
G54D32*
X4724Y12992D02*
X4724Y11343D01*
G54D33*
X4724Y12992D03*
G54D32*
X4724Y11343D02*
X4552Y11171D01*
X2411Y11171D01*
G54D31*
X2411Y11171D02*
X2411Y11378D01*
X2411Y9409D02*
X4847Y9409D01*
X6865Y11417D01*
X6865Y11885D01*
X2411Y9016D02*
X4946Y9016D01*
X7800Y11885D01*
X8858Y11983D02*
X5487Y8622D01*
X2411Y8622D01*
X2411Y8228D02*
X5635Y8228D01*
X8415Y10999D01*
X8883Y10999D01*
G54D34*
X2411Y7835D02*
X5906Y7835D01*
X7973Y9892D01*
X8022Y9941D01*
X8859Y9941D01*
X2411Y7441D02*
X6201Y7441D01*
X7727Y8957D01*
X8908Y8957D01*
X2411Y7047D02*
X6595Y7047D01*
X7481Y7923D01*
X8859Y7923D01*
X2411Y6654D02*
X6988Y6654D01*
X7284Y6939D01*
X8908Y6939D01*
G54D31*
X8908Y5906D02*
X7579Y5906D01*
G54D33*
X8908Y5906D03*
G54D31*
X7579Y5906D02*
X7234Y6260D01*
X2411Y6260D01*
G54D34*
X8908Y4921D02*
X7825Y4921D01*
G54D33*
X8908Y4921D03*
G54D34*
X7825Y4921D02*
X6890Y5866D01*
X2411Y5866D01*
X8908Y3888D02*
X7727Y3888D01*
G54D33*
X8908Y3888D03*
G54D34*
X7727Y3888D02*
X6152Y5472D01*
X2411Y5472D01*
G54D31*
X2411Y4685D02*
X2411Y4872D01*
G54D32*
X2411Y4872D02*
X5266Y4872D01*
X7874Y2264D01*
G54D33*
X7874Y2264D03*
G54D31*
X2411Y3898D02*
X2411Y4085D01*
G54D32*
X2411Y4085D02*
X5020Y4085D01*
X6890Y2215D01*
G54D33*
X6890Y2215D03*
G54D31*
X2411Y3110D02*
X2411Y3297D01*
G54D32*
X2411Y3297D02*
X4774Y3297D01*
X5856Y2215D01*
G54D33*
X5856Y2215D03*
G54D32*
X4872Y2215D02*
X4577Y2510D01*
G54D33*
X4872Y2215D03*
G54D32*
X4577Y2510D02*
X2411Y2510D01*
G54D31*
X2411Y2510D02*
X2411Y2323D01*
G54D32*
X5733Y12992D02*
X5733Y11220D01*
G54D33*
X5733Y12992D03*
G54D32*
X5733Y11220D02*
X4897Y10384D01*
X2411Y10384D01*
G54D31*
X2411Y10384D02*
X2411Y10591D01*
%LNERASE*%
%LPC*%
G54D12*
X7874Y2215D03*
X6874Y2215D03*
X5874Y2215D03*
X4874Y2215D03*
G54D18*
X6841Y12008D03*
X7841Y12008D03*
X8908Y12008D03*
X8908Y11008D03*
X8908Y5906D03*
X8908Y4906D03*
X8908Y3906D03*
X8908Y9941D03*
X8908Y8941D03*
X8908Y7923D03*
X8908Y6923D03*
G54D20*
X10236Y787D03*
X10236Y12992D03*
G54D28*
X4724Y12992D03*
X5724Y12992D03*
X5724Y11992D03*
X4724Y11992D03*
M02*
