M48
M72, LZ
T1C0.0350
T2C0.0280
T3C0.1280
T4C0.0400
T5C0.0135
%
T1
X0.7874Y0.2215
X0.6874Y0.2215
X0.5874Y0.2215
X0.4874Y0.2215
T2
X0.6841Y1.2008
X0.7841Y1.2008
X0.8908Y1.2008
X0.8908Y1.1008
X0.8908Y0.5906
X0.8908Y0.4906
X0.8908Y0.3906
X0.8908Y0.9941
X0.8908Y0.8941
X0.8908Y0.7924
X0.8908Y0.6924
T3
X1.0236Y0.0787
X1.0236Y1.2992
T4
X0.4724Y1.2992
X0.5724Y1.2992
X0.5724Y1.1992
X0.4724Y1.1992
T5
X0.4724Y1.2992
X0.8908Y0.5906
X0.8908Y0.4921
X0.8908Y0.3888
X0.7874Y0.2264
X0.6890Y0.2215
X0.5857Y0.2215
X0.4872Y0.2215
X0.5733Y1.2992
T00
M30
