M48
M72, LZ
T1C0.0280
T2C0.0350
T3C0.1280
T4C0.0118
%
T1
X0.3051Y0.3937
X0.3051Y0.2937
X0.3051Y0.1937
X0.3051Y0.0937
X1.3436Y0.0935
X1.3436Y0.1935
X1.3436Y0.2935
X1.3436Y0.3935
X1.1418Y0.0935
X1.1418Y0.1935
X1.1418Y0.2935
X1.1418Y0.3935
X0.9351Y0.0935
X0.9351Y0.1935
X0.9351Y0.2935
X0.9351Y0.3935
X0.7235Y0.0935
X0.7235Y0.1935
X0.7235Y0.2935
X0.7235Y0.3935
T2
X1.0286Y1.4124
X0.9286Y1.4124
X0.8286Y1.4124
X0.7286Y1.4124
X0.6286Y1.4124
T3
X0.0787Y0.4724
X0.0787Y1.4567
X1.5354Y0.1181
X1.5354Y1.4567
T4
X1.1319Y0.7185
X0.3839Y0.4085
X0.7136Y0.7235
X1.3682Y0.7284
X0.9498Y0.7235
X0.3002Y0.7481
X1.2550Y0.7924
X1.2993Y0.2412
X0.9990Y0.8219
X0.5364Y0.7481
X1.1319Y0.5266
X1.3682Y0.5266
X0.6644Y0.3396
X0.9498Y0.5118
X0.1969Y0.6496
X0.5364Y0.6595
T00
M30
