G04 -- Generated By PCBWeb Designer*
%FSLAX24Y24*%
%MOIN*%
%OFA0B0*%
%SFA1.0B1.0*%
%AMROTRECT*21,1,$1,$2,0,0,$3*%
%AMROTOBLONG*1,1,$7,$1,$2*1,1,$7,$3,$4*21,1,$5,$6,0,0,$8*%
%ADD10C,0.025*%
%ADD11C,0.05*%
%ADD12C,0.028*%
%ADD13C,0.06*%
%ADD14C,0.006*%
%ADD15C,0.008*%
%ADD16C,0.024*%
%ADD17C,0.035*%
%ADD18C,0.07*%
%ADD19R,0.055X0.0433*%
%ADD20R,0.065X0.0533*%
%ADD21C,0.1772*%
%ADD22C,0.128*%
%ADD23C,0.1872*%
%ADD24R,0.0276X0.0236*%
%ADD25R,0.0376X0.0336*%
%ADD26C,0.01*%
%ADD27C,0.0039*%
%ADD28C,0.0199*%
%ADD29R,0.0787X0.0276*%
%ADD30R,0.0887X0.0376*%
%ADD31R,0.0433X0.055*%
%ADD32R,0.0533X0.065*%
%ADD33C,0.0059*%
%ADD34R,0.085X0.07*%
%ADD35R,0.095X0.08*%
%ADD36C,0.0394*%
%ADD37C,0.0*%
%ADD38C,0.0258*%
%ADD39C,0.0059*%
%ADD40C,0.0098*%
%ADD41C,0.0276*%
G01*
%LNERASE*%
%LPC*%
G54D16*
X13330Y5161D02*
X12955Y5161D01*
X12955Y4561D01*
X13330Y4561D01*
X12955Y4861D02*
X13180Y4861D01*
X13480Y4711D02*
X13518Y4636D01*
X13555Y4599D01*
X13630Y4561D01*
X13780Y4561D01*
X13855Y4599D01*
X13893Y4636D01*
X13930Y4711D01*
X13930Y5011D01*
X13893Y5086D01*
X13855Y5124D01*
X13780Y5161D01*
X13630Y5161D01*
X13555Y5124D01*
X13518Y5086D01*
X13480Y5011D01*
X13480Y4711D01*
X13480Y4711D01*
X13480Y4561D02*
X13930Y5161D01*
X11421Y5161D02*
X11046Y5161D01*
X11046Y4561D01*
X11421Y4561D01*
X11046Y4861D02*
X11271Y4861D01*
X11571Y4561D02*
X11796Y4561D01*
X11683Y4561D02*
X11683Y5161D01*
X11571Y5086D01*
X9285Y5190D02*
X8910Y5190D01*
X8910Y4590D01*
X9285Y4590D01*
X8910Y4890D02*
X9135Y4890D01*
X9435Y5077D02*
X9548Y5190D01*
X9660Y5190D01*
X9773Y5077D01*
X9773Y4927D01*
X9698Y4852D01*
X9510Y4852D01*
X9435Y4777D01*
X9435Y4590D01*
X9773Y4590D01*
X7169Y5190D02*
X6794Y5190D01*
X6794Y4590D01*
X7169Y4590D01*
X6794Y4890D02*
X7019Y4890D01*
X7319Y5115D02*
X7394Y5190D01*
X7581Y5190D01*
X7656Y5115D01*
X7656Y4965D01*
X7581Y4890D01*
X7469Y4890D01*
X7581Y4890D02*
X7656Y4815D01*
X7656Y4665D01*
X7581Y4590D01*
X7394Y4590D01*
X7319Y4665D01*
X5039Y12864D02*
X5039Y13179D01*
X5177Y13179D01*
X5236Y13120D01*
X5236Y13061D01*
X5177Y13002D01*
X5039Y13002D01*
X5177Y13002D02*
X5255Y12864D01*
X5334Y12864D02*
X5452Y12864D01*
X5393Y12864D02*
X5393Y13179D01*
X5334Y13140D01*
X9354Y12881D02*
X9354Y13196D01*
X9492Y13196D01*
X9551Y13137D01*
X9551Y13078D01*
X9492Y13019D01*
X9354Y13019D01*
X9492Y13019D02*
X9570Y12881D01*
X9649Y13137D02*
X9708Y13196D01*
X9767Y13196D01*
X9826Y13137D01*
X9826Y13058D01*
X9787Y13019D01*
X9689Y13019D01*
X9649Y12979D01*
X9649Y12881D01*
X9826Y12881D01*
X7067Y15118D02*
X7028Y15158D01*
X6910Y15158D01*
X6870Y15118D01*
X6870Y14882D01*
X6910Y14843D01*
X7028Y14843D01*
X7067Y14882D01*
X7067Y15000D01*
X6929Y15000D01*
X7146Y14843D02*
X7146Y15158D01*
X7343Y14843D01*
X7343Y15158D01*
X7421Y14843D02*
X7421Y15158D01*
X7559Y15158D01*
X7618Y15099D01*
X7618Y14902D01*
X7559Y14843D01*
X7421Y14843D01*
X7421Y14843D01*
X5886Y15108D02*
X6004Y14793D01*
X6122Y15108D01*
X6339Y14931D02*
X6299Y14971D01*
X6240Y14971D01*
X6201Y14931D01*
X6201Y14833D01*
X6240Y14793D01*
X6299Y14793D01*
X6339Y14833D01*
X6555Y14931D02*
X6516Y14971D01*
X6457Y14971D01*
X6417Y14931D01*
X6417Y14833D01*
X6457Y14793D01*
X6516Y14793D01*
X6555Y14833D01*
X9183Y14793D02*
X9183Y15108D01*
X9321Y15108D01*
X9360Y15069D01*
X9360Y14990D01*
X9321Y14951D01*
X9360Y14912D01*
X9360Y14833D01*
X9321Y14793D01*
X9183Y14793D01*
X9321Y14951D02*
X9183Y14951D01*
X8146Y14912D02*
X8291Y14912D01*
X8101Y14793D02*
X8219Y15108D01*
X8337Y14793D01*
X1949Y4026D02*
X2008Y4085D01*
X2067Y4085D01*
X2126Y4026D01*
X2126Y3947D01*
X2087Y3908D01*
X1988Y3908D01*
X1949Y3868D01*
X1949Y3770D01*
X2126Y3770D01*
X2205Y3770D02*
X2205Y4085D01*
X2343Y4085D01*
X2382Y4045D01*
X2382Y3967D01*
X2343Y3927D01*
X2382Y3888D01*
X2382Y3809D01*
X2343Y3770D01*
X2205Y3770D01*
X2343Y3927D02*
X2205Y3927D01*
X1998Y2785D02*
X2116Y2785D01*
X2057Y2785D02*
X2057Y3100D01*
X1998Y3061D01*
X2195Y2785D02*
X2195Y3100D01*
X2333Y3100D01*
X2372Y3061D01*
X2372Y2982D01*
X2333Y2943D01*
X2372Y2904D01*
X2372Y2825D01*
X2333Y2785D01*
X2195Y2785D01*
X2333Y2943D02*
X2195Y2943D01*
X1900Y2057D02*
X1959Y2116D01*
X2018Y2116D01*
X2077Y2057D01*
X2077Y1978D01*
X2037Y1939D01*
X1939Y1939D01*
X1900Y1900D01*
X1900Y1801D01*
X2077Y1801D01*
X2201Y1919D02*
X2347Y1919D01*
X2156Y1801D02*
X2274Y2116D01*
X2392Y1801D01*
X1949Y768D02*
X2067Y768D01*
X2008Y768D02*
X2008Y1083D01*
X1949Y1043D01*
X2191Y886D02*
X2337Y886D01*
X2146Y768D02*
X2264Y1083D01*
X2382Y768D01*
G54D28*
X11054Y10311D02*
X10912Y10170D01*
X11054Y10170D02*
X10912Y10311D01*
X10983Y10146D02*
X10983Y10335D01*
X11077Y10240D02*
X10888Y10240D01*
G54D16*
X10583Y10243D02*
X10643Y10184D01*
X10643Y9987D01*
X10583Y9928D01*
X10465Y9928D01*
X10406Y9987D01*
X10406Y10184D01*
X10465Y10243D01*
X10583Y10243D01*
X10583Y10243D01*
X10406Y10243D02*
X10485Y10164D01*
X10328Y9987D02*
X10268Y9928D01*
X10209Y9928D01*
X10150Y9987D01*
X10150Y10066D01*
X10190Y10105D01*
X10288Y10105D01*
X10328Y10144D01*
X10328Y10243D01*
X10150Y10243D01*
G54D28*
X6723Y10311D02*
X6581Y10170D01*
X6723Y10170D02*
X6581Y10311D01*
X6652Y10146D02*
X6652Y10335D01*
X6746Y10240D02*
X6557Y10240D01*
G54D16*
X6240Y10263D02*
X6300Y10203D01*
X6300Y10007D01*
X6240Y9948D01*
X6122Y9948D01*
X6063Y10007D01*
X6063Y10203D01*
X6122Y10263D01*
X6240Y10263D01*
X6240Y10263D01*
X6063Y10263D02*
X6142Y10184D01*
X5985Y10263D02*
X5866Y10263D01*
X5926Y10263D02*
X5926Y9948D01*
X5985Y9987D01*
X15594Y13195D02*
X16161Y13195D01*
X16161Y12947D01*
X16055Y12841D01*
X15701Y12841D01*
X15594Y12947D01*
X15594Y13195D01*
X15594Y13195D01*
X15665Y12451D02*
X15594Y12522D01*
X15594Y12628D01*
X15665Y12699D01*
X15842Y12699D01*
X15913Y12628D01*
X15913Y12522D01*
X15842Y12451D01*
X15772Y12451D01*
X15772Y12699D01*
X15860Y12079D02*
X15913Y12132D01*
X15913Y12256D01*
X15860Y12309D01*
X15789Y12309D01*
X15754Y12274D01*
X15754Y12114D01*
X15718Y12079D01*
X15648Y12079D01*
X15594Y12132D01*
X15594Y12256D01*
X15648Y12309D01*
X15603Y11910D02*
X16037Y11910D01*
X16055Y11928D02*
X16073Y11910D01*
X16055Y11893D01*
X16037Y11910D01*
X16055Y11928D01*
X15807Y11751D02*
X15842Y11751D01*
X15913Y11680D01*
X15913Y11574D01*
X15842Y11503D01*
X15665Y11503D01*
X15594Y11574D01*
X15594Y11680D01*
X15665Y11751D01*
X15807Y11751D01*
X15913Y11503D02*
X15524Y11503D01*
X15453Y11574D01*
X15453Y11680D01*
X15524Y11751D01*
X15913Y11361D02*
X15594Y11361D01*
X15860Y11361D02*
X15913Y11308D01*
X15913Y11166D01*
X15860Y11113D01*
X15594Y11113D01*
X15665Y10723D02*
X15594Y10794D01*
X15594Y10901D01*
X15665Y10971D01*
X15842Y10971D01*
X15913Y10901D01*
X15913Y10794D01*
X15842Y10723D01*
X15772Y10723D01*
X15772Y10971D01*
X15665Y10582D02*
X15842Y10582D01*
X15913Y10511D01*
X15913Y10405D01*
X15842Y10334D01*
X15665Y10334D01*
X15594Y10405D01*
X15594Y10511D01*
X15665Y10582D01*
X15594Y10334D02*
X16161Y10334D01*
X15594Y10050D02*
X16161Y10050D01*
X15665Y10050D02*
X15594Y9979D01*
X15594Y9873D01*
X15665Y9802D01*
X15842Y9802D01*
X15913Y9873D01*
X15913Y9979D01*
X15842Y10050D01*
X15913Y9660D02*
X15594Y9536D01*
X15913Y9430D01*
X15594Y9536D02*
X15470Y9572D01*
X15453Y9590D01*
X15453Y9625D01*
X14823Y13163D02*
X14823Y12900D01*
X14610Y13244D02*
X15177Y13032D01*
X14610Y12819D01*
X15177Y12642D02*
X14610Y12642D01*
X14681Y12500D02*
X14610Y12429D01*
X14610Y12323D01*
X14681Y12252D01*
X14858Y12252D01*
X14929Y12323D01*
X14929Y12429D01*
X14858Y12500D01*
X14681Y12500D01*
X14610Y12252D02*
X14929Y12252D01*
X14929Y12110D02*
X14610Y12110D01*
X14876Y12110D02*
X14929Y12057D01*
X14929Y11915D01*
X14876Y11862D01*
X14610Y11862D01*
X15177Y11579D02*
X15035Y11579D01*
X15177Y11561D01*
X15177Y11579D01*
X15177Y11579D01*
X15177Y11508D02*
X15035Y11508D01*
X15177Y11490D01*
X15177Y11508D01*
X15177Y11508D01*
X14663Y11348D02*
X14610Y11295D01*
X14610Y11154D01*
X14663Y11100D01*
X14876Y11100D01*
X14929Y11154D01*
X14929Y11295D01*
X14876Y11348D01*
X14468Y11348D01*
X14876Y11348D02*
X14929Y11348D01*
X14929Y10959D02*
X14610Y10835D01*
X14929Y10728D01*
X14610Y10835D02*
X14486Y10870D01*
X14468Y10888D01*
X14468Y10923D01*
X14929Y10587D02*
X14610Y10587D01*
X14876Y10374D02*
X14929Y10427D01*
X14929Y10533D01*
X14876Y10587D01*
X14858Y10587D01*
X14752Y10232D02*
X14681Y10197D01*
X14646Y10161D01*
X14610Y10091D01*
X14610Y9949D01*
X14646Y9878D01*
X14681Y9843D01*
X14752Y9807D01*
X15035Y9807D01*
X15106Y9843D01*
X15142Y9878D01*
X15177Y9949D01*
X15177Y10091D01*
X15142Y10161D01*
X15106Y10197D01*
X15035Y10232D01*
X14752Y10232D01*
X14752Y10232D01*
X14610Y10232D02*
X15177Y9807D01*
X14610Y9665D02*
X15177Y9665D01*
X14681Y9665D02*
X14610Y9594D01*
X14610Y9488D01*
X14681Y9417D01*
X14858Y9417D01*
X14929Y9488D01*
X14929Y9594D01*
X14858Y9665D01*
X14681Y9276D02*
X14610Y9205D01*
X14610Y9098D01*
X14681Y9028D01*
X14858Y9028D01*
X14929Y9098D01*
X14929Y9205D01*
X14858Y9276D01*
X14681Y9276D01*
X14610Y9028D02*
X14929Y9028D01*
X15177Y8850D02*
X14610Y8850D01*
X15177Y8673D02*
X14610Y8673D01*
X15177Y8532D02*
X15035Y8532D01*
X15177Y8514D01*
X15177Y8532D01*
X15177Y8532D01*
X15177Y8461D02*
X15035Y8461D01*
X15177Y8443D01*
X15177Y8461D01*
X15177Y8461D01*
X15177Y8159D02*
X14610Y8053D01*
X15177Y7947D01*
X14610Y7841D01*
X15177Y7734D01*
X14681Y7344D02*
X14610Y7415D01*
X14610Y7522D01*
X14681Y7593D01*
X14858Y7593D01*
X14929Y7522D01*
X14929Y7415D01*
X14858Y7344D01*
X14787Y7344D01*
X14787Y7593D01*
X14619Y7176D02*
X15053Y7176D01*
X15071Y7194D02*
X15088Y7176D01*
X15071Y7158D01*
X15053Y7176D01*
X15071Y7194D01*
X14929Y7017D02*
X14610Y7017D01*
X14876Y7017D02*
X14929Y6964D01*
X14929Y6822D01*
X14876Y6769D01*
X14610Y6769D01*
X14876Y6397D02*
X14929Y6450D01*
X14929Y6574D01*
X14876Y6627D01*
X14805Y6627D01*
X14770Y6592D01*
X14770Y6432D01*
X14734Y6397D01*
X14663Y6397D01*
X14610Y6450D01*
X14610Y6574D01*
X14663Y6627D01*
X14929Y6255D02*
X14929Y6113D01*
X14610Y6113D02*
X14610Y6149D01*
X14646Y6184D01*
X15177Y6184D01*
X14929Y5918D02*
X14876Y5971D01*
X14663Y5971D01*
X14610Y5918D01*
X14610Y5777D01*
X14663Y5723D01*
X14876Y5723D01*
X14929Y5777D01*
X14929Y5918D01*
X14858Y5334D02*
X14929Y5405D01*
X14929Y5511D01*
X14858Y5582D01*
X14681Y5582D01*
X14610Y5511D01*
X14610Y5405D01*
X14681Y5334D01*
X14610Y5192D02*
X15177Y5192D01*
X14787Y5192D02*
X14929Y4926D01*
X14805Y5157D02*
X14610Y4926D01*
X13718Y13244D02*
X14073Y13244D01*
X14144Y13173D01*
X14144Y12925D01*
X14073Y12854D01*
X13648Y12854D01*
X13577Y12925D01*
X13577Y13173D01*
X13648Y13244D01*
X13718Y13244D01*
X13825Y12465D02*
X13896Y12535D01*
X13896Y12642D01*
X13825Y12713D01*
X13648Y12713D01*
X13577Y12642D01*
X13577Y12535D01*
X13648Y12465D01*
X13896Y12323D02*
X13896Y12181D01*
X13577Y12181D02*
X13577Y12217D01*
X13612Y12252D01*
X14144Y12252D01*
X13612Y12039D02*
X13577Y12004D01*
X13612Y11969D01*
X13648Y12004D01*
X13612Y12039D01*
X14037Y11685D02*
X14144Y11579D01*
X14144Y11472D01*
X14037Y11366D01*
X13896Y11366D01*
X13825Y11437D01*
X13825Y11614D01*
X13754Y11685D01*
X13577Y11685D01*
X13577Y11366D01*
X13718Y11224D02*
X13648Y11189D01*
X13612Y11154D01*
X13577Y11083D01*
X13577Y10941D01*
X13612Y10870D01*
X13648Y10835D01*
X13718Y10799D01*
X14002Y10799D01*
X14073Y10835D01*
X14108Y10870D01*
X14144Y10941D01*
X14144Y11083D01*
X14108Y11154D01*
X14073Y11189D01*
X14002Y11224D01*
X13718Y11224D01*
X13718Y11224D01*
X13577Y11224D02*
X14144Y10799D01*
X13577Y10658D02*
X13577Y10445D01*
X13577Y10551D02*
X14144Y10551D01*
X14073Y10658D01*
X14144Y10303D02*
X14144Y9984D01*
X13577Y10303D01*
X3687Y9865D02*
X3687Y10337D01*
X3894Y10337D01*
X3983Y10249D01*
X3983Y10160D01*
X3894Y10072D01*
X3687Y10072D01*
X3894Y10072D02*
X4012Y9865D01*
X4130Y10337D02*
X4130Y9865D01*
X4396Y9865D01*
X4514Y9865D02*
X4691Y9865D01*
X4603Y9865D02*
X4603Y10337D01*
X4514Y10278D01*
X11948Y9865D02*
X11948Y10337D01*
X12155Y10337D01*
X12243Y10249D01*
X12243Y10160D01*
X12155Y10072D01*
X11948Y10072D01*
X12155Y10072D02*
X12273Y9865D01*
X12391Y10337D02*
X12391Y9865D01*
X12657Y9865D01*
X12775Y10249D02*
X12864Y10337D01*
X12952Y10337D01*
X13041Y10249D01*
X13041Y10131D01*
X12982Y10072D01*
X12834Y10072D01*
X12775Y10012D01*
X12775Y9865D01*
X13041Y9865D01*
X7765Y9865D02*
X7765Y10337D01*
X7972Y10337D01*
X8060Y10249D01*
X8060Y10160D01*
X7972Y10072D01*
X7765Y10072D01*
X7972Y10072D02*
X8090Y9865D01*
X8208Y10337D02*
X8208Y9865D01*
X8474Y9865D01*
X8592Y10278D02*
X8651Y10337D01*
X8798Y10337D01*
X8858Y10278D01*
X8858Y10160D01*
X8798Y10101D01*
X8710Y10101D01*
X8798Y10101D02*
X8858Y10042D01*
X8858Y9924D01*
X8798Y9865D01*
X8651Y9865D01*
X8592Y9924D01*
X5761Y12881D02*
X5761Y13196D01*
X5899Y13196D01*
X5958Y13137D01*
X5958Y13078D01*
X5899Y13019D01*
X5761Y13019D01*
X5899Y13019D02*
X5978Y12881D01*
X6057Y13156D02*
X6096Y13196D01*
X6194Y13196D01*
X6234Y13156D01*
X6234Y13078D01*
X6194Y13038D01*
X6135Y13038D01*
X6194Y13038D02*
X6234Y12999D01*
X6234Y12920D01*
X6194Y12881D01*
X6096Y12881D01*
X6057Y12920D01*
X10141Y12900D02*
X10141Y13214D01*
X10279Y13214D01*
X10338Y13155D01*
X10338Y13096D01*
X10279Y13037D01*
X10141Y13037D01*
X10279Y13037D02*
X10358Y12900D01*
X10437Y13214D02*
X10437Y13037D01*
X10594Y13037D01*
X10555Y13175D02*
X10555Y12900D01*
X6593Y12674D02*
X6593Y12359D01*
X6770Y12359D01*
X7046Y12674D02*
X6849Y12674D01*
X6849Y12359D01*
X7046Y12359D01*
X6849Y12517D02*
X6967Y12517D01*
X7125Y12359D02*
X7125Y12674D01*
X7262Y12674D01*
X7321Y12615D01*
X7321Y12418D01*
X7262Y12359D01*
X7125Y12359D01*
X7125Y12359D01*
X7400Y12359D02*
X7518Y12359D01*
X7459Y12359D02*
X7459Y12674D01*
X7400Y12635D01*
X7782Y12898D02*
X7782Y13213D01*
X7920Y13213D01*
X7979Y13154D01*
X7979Y13095D01*
X7920Y13036D01*
X7782Y13036D01*
X7920Y13036D02*
X7999Y12898D01*
X8235Y13213D02*
X8078Y13213D01*
X8078Y13076D01*
X8196Y13076D01*
X8235Y13036D01*
X8235Y12938D01*
X8196Y12898D01*
X8078Y12898D01*
X12113Y12868D02*
X12113Y13183D01*
X12251Y13183D01*
X12310Y13124D01*
X12310Y13065D01*
X12251Y13006D01*
X12113Y13006D01*
X12251Y13006D02*
X12330Y12868D01*
X12468Y13183D02*
X12409Y13124D01*
X12409Y12907D01*
X12448Y12868D01*
X12546Y12868D01*
X12586Y12907D01*
X12586Y12986D01*
X12546Y13026D01*
X12448Y13026D01*
X12409Y12986D01*
X10868Y12625D02*
X10868Y12310D01*
X11045Y12310D01*
X11320Y12625D02*
X11124Y12625D01*
X11124Y12310D01*
X11320Y12310D01*
X11124Y12468D02*
X11242Y12468D01*
X11399Y12310D02*
X11399Y12625D01*
X11537Y12625D01*
X11596Y12566D01*
X11596Y12369D01*
X11537Y12310D01*
X11399Y12310D01*
X11399Y12310D01*
X11675Y12566D02*
X11734Y12625D01*
X11793Y12625D01*
X11852Y12566D01*
X11852Y12487D01*
X11813Y12448D01*
X11714Y12448D01*
X11675Y12409D01*
X11675Y12310D01*
X11852Y12310D01*
%LNSTD*%
%LPD*%
G54D14*
X2551Y4437D02*
X2551Y437D01*
X3551Y437D01*
X3551Y4437D01*
X2551Y4437D01*
X13935Y435D02*
X13935Y4435D01*
X12935Y4435D01*
X12935Y435D01*
X13935Y435D01*
G54D15*
X13330Y5161D02*
X12955Y5161D01*
X12955Y4561D01*
X13330Y4561D01*
X12955Y4861D02*
X13180Y4861D01*
X13480Y4711D02*
X13518Y4636D01*
X13555Y4599D01*
X13630Y4561D01*
X13780Y4561D01*
X13855Y4599D01*
X13893Y4636D01*
X13930Y4711D01*
X13930Y5011D01*
X13893Y5086D01*
X13855Y5124D01*
X13780Y5161D01*
X13630Y5161D01*
X13555Y5124D01*
X13518Y5086D01*
X13480Y5011D01*
X13480Y4711D01*
X13480Y4711D01*
X13480Y4561D02*
X13930Y5161D01*
G54D14*
X11918Y435D02*
X11918Y4435D01*
X10918Y4435D01*
X10918Y435D01*
X11918Y435D01*
G54D15*
X11421Y5161D02*
X11046Y5161D01*
X11046Y4561D01*
X11421Y4561D01*
X11046Y4861D02*
X11271Y4861D01*
X11571Y4561D02*
X11796Y4561D01*
X11683Y4561D02*
X11683Y5161D01*
X11571Y5086D01*
G54D14*
X9851Y435D02*
X9851Y4435D01*
X8851Y4435D01*
X8851Y435D01*
X9851Y435D01*
G54D15*
X9285Y5190D02*
X8910Y5190D01*
X8910Y4590D01*
X9285Y4590D01*
X8910Y4890D02*
X9135Y4890D01*
X9435Y5077D02*
X9548Y5190D01*
X9660Y5190D01*
X9773Y5077D01*
X9773Y4927D01*
X9698Y4852D01*
X9510Y4852D01*
X9435Y4777D01*
X9435Y4590D01*
X9773Y4590D01*
G54D14*
X7735Y435D02*
X7735Y4435D01*
X6735Y4435D01*
X6735Y435D01*
X7735Y435D01*
G54D15*
X7169Y5190D02*
X6794Y5190D01*
X6794Y4590D01*
X7169Y4590D01*
X6794Y4890D02*
X7019Y4890D01*
X7319Y5115D02*
X7394Y5190D01*
X7581Y5190D01*
X7656Y5115D01*
X7656Y4965D01*
X7581Y4890D01*
X7469Y4890D01*
X7581Y4890D02*
X7656Y4815D01*
X7656Y4665D01*
X7581Y4590D01*
X7394Y4590D01*
X7319Y4665D01*
G54D14*
X10786Y14624D02*
X5786Y14624D01*
X5786Y13624D01*
X10786Y13624D01*
X10786Y14624D01*
G54D15*
X5026Y12121D02*
X5026Y12271D01*
X5506Y12121D02*
X5506Y12271D01*
X5039Y12864D02*
X5039Y13179D01*
X5177Y13179D01*
X5236Y13120D01*
X5236Y13061D01*
X5177Y13002D01*
X5039Y13002D01*
X5177Y13002D02*
X5255Y12864D01*
X5334Y12864D02*
X5452Y12864D01*
X5393Y12864D02*
X5393Y13179D01*
X5334Y13140D01*
X9357Y12121D02*
X9357Y12271D01*
X9837Y12121D02*
X9837Y12271D01*
X9354Y12881D02*
X9354Y13196D01*
X9492Y13196D01*
X9551Y13137D01*
X9551Y13078D01*
X9492Y13019D01*
X9354Y13019D01*
X9492Y13019D02*
X9570Y12881D01*
X9649Y13137D02*
X9708Y13196D01*
X9767Y13196D01*
X9826Y13137D01*
X9826Y13058D01*
X9787Y13019D01*
X9689Y13019D01*
X9649Y12979D01*
X9649Y12881D01*
X9826Y12881D01*
X7067Y15118D02*
X7028Y15158D01*
X6910Y15158D01*
X6870Y15118D01*
X6870Y14882D01*
X6910Y14843D01*
X7028Y14843D01*
X7067Y14882D01*
X7067Y15000D01*
X6929Y15000D01*
X7146Y14843D02*
X7146Y15158D01*
X7343Y14843D01*
X7343Y15158D01*
X7421Y14843D02*
X7421Y15158D01*
X7559Y15158D01*
X7618Y15099D01*
X7618Y14902D01*
X7559Y14843D01*
X7421Y14843D01*
X7421Y14843D01*
X5886Y15108D02*
X6004Y14793D01*
X6122Y15108D01*
X6339Y14931D02*
X6299Y14971D01*
X6240Y14971D01*
X6201Y14931D01*
X6201Y14833D01*
X6240Y14793D01*
X6299Y14793D01*
X6339Y14833D01*
X6555Y14931D02*
X6516Y14971D01*
X6457Y14971D01*
X6417Y14931D01*
X6417Y14833D01*
X6457Y14793D01*
X6516Y14793D01*
X6555Y14833D01*
X9183Y14793D02*
X9183Y15108D01*
X9321Y15108D01*
X9360Y15069D01*
X9360Y14990D01*
X9321Y14951D01*
X9360Y14912D01*
X9360Y14833D01*
X9321Y14793D01*
X9183Y14793D01*
X9321Y14951D02*
X9183Y14951D01*
X8146Y14912D02*
X8291Y14912D01*
X8101Y14793D02*
X8219Y15108D01*
X8337Y14793D01*
X1949Y4026D02*
X2008Y4085D01*
X2067Y4085D01*
X2126Y4026D01*
X2126Y3947D01*
X2087Y3908D01*
X1988Y3908D01*
X1949Y3868D01*
X1949Y3770D01*
X2126Y3770D01*
X2205Y3770D02*
X2205Y4085D01*
X2343Y4085D01*
X2382Y4045D01*
X2382Y3967D01*
X2343Y3927D01*
X2382Y3888D01*
X2382Y3809D01*
X2343Y3770D01*
X2205Y3770D01*
X2343Y3927D02*
X2205Y3927D01*
X1998Y2785D02*
X2116Y2785D01*
X2057Y2785D02*
X2057Y3100D01*
X1998Y3061D01*
X2195Y2785D02*
X2195Y3100D01*
X2333Y3100D01*
X2372Y3061D01*
X2372Y2982D01*
X2333Y2943D01*
X2372Y2904D01*
X2372Y2825D01*
X2333Y2785D01*
X2195Y2785D01*
X2333Y2943D02*
X2195Y2943D01*
X1900Y2057D02*
X1959Y2116D01*
X2018Y2116D01*
X2077Y2057D01*
X2077Y1978D01*
X2037Y1939D01*
X1939Y1939D01*
X1900Y1900D01*
X1900Y1801D01*
X2077Y1801D01*
X2201Y1919D02*
X2347Y1919D01*
X2156Y1801D02*
X2274Y2116D01*
X2392Y1801D01*
X1949Y768D02*
X2067Y768D01*
X2008Y768D02*
X2008Y1083D01*
X1949Y1043D01*
X2191Y886D02*
X2337Y886D01*
X2146Y768D02*
X2264Y1083D01*
X2382Y768D01*
G54D26*
X10640Y10788D02*
X10640Y11063D01*
G54D27*
X11054Y10311D02*
X10912Y10170D01*
X11054Y10170D02*
X10912Y10311D01*
X10983Y10146D02*
X10983Y10335D01*
X11077Y10240D02*
X10888Y10240D01*
G54D26*
X10601Y10355D02*
X10128Y10355D01*
X10128Y10670D01*
X10128Y11181D02*
X10128Y11496D01*
X10601Y11496D01*
G54D15*
X10583Y10243D02*
X10643Y10184D01*
X10643Y9987D01*
X10583Y9928D01*
X10465Y9928D01*
X10406Y9987D01*
X10406Y10184D01*
X10465Y10243D01*
X10583Y10243D01*
X10583Y10243D01*
X10406Y10243D02*
X10485Y10164D01*
X10328Y9987D02*
X10268Y9928D01*
X10209Y9928D01*
X10150Y9987D01*
X10150Y10066D01*
X10190Y10105D01*
X10288Y10105D01*
X10328Y10144D01*
X10328Y10243D01*
X10150Y10243D01*
G54D26*
X6309Y10788D02*
X6309Y11063D01*
G54D27*
X6723Y10311D02*
X6581Y10170D01*
X6723Y10170D02*
X6581Y10311D01*
X6652Y10146D02*
X6652Y10335D01*
X6746Y10240D02*
X6557Y10240D01*
G54D26*
X6270Y10355D02*
X5797Y10355D01*
X5797Y10670D01*
X5797Y11181D02*
X5797Y11496D01*
X6270Y11496D01*
G54D15*
X6240Y10263D02*
X6300Y10203D01*
X6300Y10007D01*
X6240Y9948D01*
X6122Y9948D01*
X6063Y10007D01*
X6063Y10203D01*
X6122Y10263D01*
X6240Y10263D01*
X6240Y10263D01*
X6063Y10263D02*
X6142Y10184D01*
X5985Y10263D02*
X5866Y10263D01*
X5926Y10263D02*
X5926Y9948D01*
X5985Y9987D01*
X15594Y13195D02*
X16161Y13195D01*
X16161Y12947D01*
X16055Y12841D01*
X15701Y12841D01*
X15594Y12947D01*
X15594Y13195D01*
X15594Y13195D01*
X15665Y12451D02*
X15594Y12522D01*
X15594Y12628D01*
X15665Y12699D01*
X15842Y12699D01*
X15913Y12628D01*
X15913Y12522D01*
X15842Y12451D01*
X15772Y12451D01*
X15772Y12699D01*
X15860Y12079D02*
X15913Y12132D01*
X15913Y12256D01*
X15860Y12309D01*
X15789Y12309D01*
X15754Y12274D01*
X15754Y12114D01*
X15718Y12079D01*
X15648Y12079D01*
X15594Y12132D01*
X15594Y12256D01*
X15648Y12309D01*
X15603Y11910D02*
X16037Y11910D01*
X16055Y11928D02*
X16073Y11910D01*
X16055Y11893D01*
X16037Y11910D01*
X16055Y11928D01*
X15807Y11751D02*
X15842Y11751D01*
X15913Y11680D01*
X15913Y11574D01*
X15842Y11503D01*
X15665Y11503D01*
X15594Y11574D01*
X15594Y11680D01*
X15665Y11751D01*
X15807Y11751D01*
X15913Y11503D02*
X15524Y11503D01*
X15453Y11574D01*
X15453Y11680D01*
X15524Y11751D01*
X15913Y11361D02*
X15594Y11361D01*
X15860Y11361D02*
X15913Y11308D01*
X15913Y11166D01*
X15860Y11113D01*
X15594Y11113D01*
X15665Y10723D02*
X15594Y10794D01*
X15594Y10901D01*
X15665Y10971D01*
X15842Y10971D01*
X15913Y10901D01*
X15913Y10794D01*
X15842Y10723D01*
X15772Y10723D01*
X15772Y10971D01*
X15665Y10582D02*
X15842Y10582D01*
X15913Y10511D01*
X15913Y10405D01*
X15842Y10334D01*
X15665Y10334D01*
X15594Y10405D01*
X15594Y10511D01*
X15665Y10582D01*
X15594Y10334D02*
X16161Y10334D01*
X15594Y10050D02*
X16161Y10050D01*
X15665Y10050D02*
X15594Y9979D01*
X15594Y9873D01*
X15665Y9802D01*
X15842Y9802D01*
X15913Y9873D01*
X15913Y9979D01*
X15842Y10050D01*
X15913Y9660D02*
X15594Y9536D01*
X15913Y9430D01*
X15594Y9536D02*
X15470Y9572D01*
X15453Y9590D01*
X15453Y9625D01*
X14823Y13163D02*
X14823Y12900D01*
X14610Y13244D02*
X15177Y13032D01*
X14610Y12819D01*
X15177Y12642D02*
X14610Y12642D01*
X14681Y12500D02*
X14610Y12429D01*
X14610Y12323D01*
X14681Y12252D01*
X14858Y12252D01*
X14929Y12323D01*
X14929Y12429D01*
X14858Y12500D01*
X14681Y12500D01*
X14610Y12252D02*
X14929Y12252D01*
X14929Y12110D02*
X14610Y12110D01*
X14876Y12110D02*
X14929Y12057D01*
X14929Y11915D01*
X14876Y11862D01*
X14610Y11862D01*
X15177Y11579D02*
X15035Y11579D01*
X15177Y11561D01*
X15177Y11579D01*
X15177Y11579D01*
X15177Y11508D02*
X15035Y11508D01*
X15177Y11490D01*
X15177Y11508D01*
X15177Y11508D01*
X14663Y11348D02*
X14610Y11295D01*
X14610Y11154D01*
X14663Y11100D01*
X14876Y11100D01*
X14929Y11154D01*
X14929Y11295D01*
X14876Y11348D01*
X14468Y11348D01*
X14876Y11348D02*
X14929Y11348D01*
X14929Y10959D02*
X14610Y10835D01*
X14929Y10728D01*
X14610Y10835D02*
X14486Y10870D01*
X14468Y10888D01*
X14468Y10923D01*
X14929Y10587D02*
X14610Y10587D01*
X14876Y10374D02*
X14929Y10427D01*
X14929Y10533D01*
X14876Y10587D01*
X14858Y10587D01*
X14752Y10232D02*
X14681Y10197D01*
X14646Y10161D01*
X14610Y10091D01*
X14610Y9949D01*
X14646Y9878D01*
X14681Y9843D01*
X14752Y9807D01*
X15035Y9807D01*
X15106Y9843D01*
X15142Y9878D01*
X15177Y9949D01*
X15177Y10091D01*
X15142Y10161D01*
X15106Y10197D01*
X15035Y10232D01*
X14752Y10232D01*
X14752Y10232D01*
X14610Y10232D02*
X15177Y9807D01*
X14610Y9665D02*
X15177Y9665D01*
X14681Y9665D02*
X14610Y9594D01*
X14610Y9488D01*
X14681Y9417D01*
X14858Y9417D01*
X14929Y9488D01*
X14929Y9594D01*
X14858Y9665D01*
X14681Y9276D02*
X14610Y9205D01*
X14610Y9098D01*
X14681Y9028D01*
X14858Y9028D01*
X14929Y9098D01*
X14929Y9205D01*
X14858Y9276D01*
X14681Y9276D01*
X14610Y9028D02*
X14929Y9028D01*
X15177Y8850D02*
X14610Y8850D01*
X15177Y8673D02*
X14610Y8673D01*
X15177Y8532D02*
X15035Y8532D01*
X15177Y8514D01*
X15177Y8532D01*
X15177Y8532D01*
X15177Y8461D02*
X15035Y8461D01*
X15177Y8443D01*
X15177Y8461D01*
X15177Y8461D01*
X15177Y8159D02*
X14610Y8053D01*
X15177Y7947D01*
X14610Y7841D01*
X15177Y7734D01*
X14681Y7344D02*
X14610Y7415D01*
X14610Y7522D01*
X14681Y7593D01*
X14858Y7593D01*
X14929Y7522D01*
X14929Y7415D01*
X14858Y7344D01*
X14787Y7344D01*
X14787Y7593D01*
X14619Y7176D02*
X15053Y7176D01*
X15071Y7194D02*
X15088Y7176D01*
X15071Y7158D01*
X15053Y7176D01*
X15071Y7194D01*
X14929Y7017D02*
X14610Y7017D01*
X14876Y7017D02*
X14929Y6964D01*
X14929Y6822D01*
X14876Y6769D01*
X14610Y6769D01*
X14876Y6397D02*
X14929Y6450D01*
X14929Y6574D01*
X14876Y6627D01*
X14805Y6627D01*
X14770Y6592D01*
X14770Y6432D01*
X14734Y6397D01*
X14663Y6397D01*
X14610Y6450D01*
X14610Y6574D01*
X14663Y6627D01*
X14929Y6255D02*
X14929Y6113D01*
X14610Y6113D02*
X14610Y6149D01*
X14646Y6184D01*
X15177Y6184D01*
X14929Y5918D02*
X14876Y5971D01*
X14663Y5971D01*
X14610Y5918D01*
X14610Y5777D01*
X14663Y5723D01*
X14876Y5723D01*
X14929Y5777D01*
X14929Y5918D01*
X14858Y5334D02*
X14929Y5405D01*
X14929Y5511D01*
X14858Y5582D01*
X14681Y5582D01*
X14610Y5511D01*
X14610Y5405D01*
X14681Y5334D01*
X14610Y5192D02*
X15177Y5192D01*
X14787Y5192D02*
X14929Y4926D01*
X14805Y5157D02*
X14610Y4926D01*
X13718Y13244D02*
X14073Y13244D01*
X14144Y13173D01*
X14144Y12925D01*
X14073Y12854D01*
X13648Y12854D01*
X13577Y12925D01*
X13577Y13173D01*
X13648Y13244D01*
X13718Y13244D01*
X13825Y12465D02*
X13896Y12535D01*
X13896Y12642D01*
X13825Y12713D01*
X13648Y12713D01*
X13577Y12642D01*
X13577Y12535D01*
X13648Y12465D01*
X13896Y12323D02*
X13896Y12181D01*
X13577Y12181D02*
X13577Y12217D01*
X13612Y12252D01*
X14144Y12252D01*
X13612Y12039D02*
X13577Y12004D01*
X13612Y11969D01*
X13648Y12004D01*
X13612Y12039D01*
X14037Y11685D02*
X14144Y11579D01*
X14144Y11472D01*
X14037Y11366D01*
X13896Y11366D01*
X13825Y11437D01*
X13825Y11614D01*
X13754Y11685D01*
X13577Y11685D01*
X13577Y11366D01*
X13718Y11224D02*
X13648Y11189D01*
X13612Y11154D01*
X13577Y11083D01*
X13577Y10941D01*
X13612Y10870D01*
X13648Y10835D01*
X13718Y10799D01*
X14002Y10799D01*
X14073Y10835D01*
X14108Y10870D01*
X14144Y10941D01*
X14144Y11083D01*
X14108Y11154D01*
X14073Y11189D01*
X14002Y11224D01*
X13718Y11224D01*
X13718Y11224D01*
X13577Y11224D02*
X14144Y10799D01*
X13577Y10658D02*
X13577Y10445D01*
X13577Y10551D02*
X14144Y10551D01*
X14073Y10658D01*
X14144Y10303D02*
X14144Y9984D01*
X13577Y10303D01*
G54D26*
X3101Y9351D02*
X3101Y9646D01*
X5266Y9646D01*
X5266Y9351D01*
X3101Y8760D02*
X3101Y8071D01*
X5266Y8760D02*
X5266Y8071D01*
X5266Y7530D02*
X5266Y7185D01*
X5266Y6693D02*
X5266Y6299D01*
X3101Y7185D02*
X3101Y7530D01*
X3101Y6693D02*
X3101Y6299D01*
X3101Y5807D02*
X3101Y5610D01*
X5266Y5610D01*
X5266Y5807D01*
X3593Y9055D02*
X3986Y9055D01*
X3986Y8859D02*
X3986Y9252D01*
X4331Y9055D01*
X3986Y8859D01*
X3986Y8859D01*
X4331Y9252D02*
X4331Y8859D01*
X4331Y9055D02*
X4774Y9055D01*
X3494Y7727D02*
X3888Y7727D01*
X3888Y7185D01*
X3494Y6152D02*
X3888Y6152D01*
X3888Y6693D01*
X4872Y7727D02*
X4479Y7727D01*
X4479Y7185D01*
X4872Y6152D02*
X4479Y6152D01*
X4479Y6693D01*
X4872Y6939D02*
X4725Y6939D01*
X4380Y7234D01*
X3494Y6939D02*
X3642Y6939D01*
X3986Y7234D01*
G54D15*
X3687Y9865D02*
X3687Y10337D01*
X3894Y10337D01*
X3983Y10249D01*
X3983Y10160D01*
X3894Y10072D01*
X3687Y10072D01*
X3894Y10072D02*
X4012Y9865D01*
X4130Y10337D02*
X4130Y9865D01*
X4396Y9865D01*
X4514Y9865D02*
X4691Y9865D01*
X4603Y9865D02*
X4603Y10337D01*
X4514Y10278D01*
G54D26*
X11418Y9351D02*
X11418Y9646D01*
X13583Y9646D01*
X13583Y9351D01*
X11418Y8760D02*
X11418Y8071D01*
X13583Y8760D02*
X13583Y8071D01*
X13583Y7530D02*
X13583Y7185D01*
X13583Y6693D02*
X13583Y6299D01*
X11418Y7185D02*
X11418Y7530D01*
X11418Y6693D02*
X11418Y6299D01*
X11418Y5807D02*
X11418Y5610D01*
X13583Y5610D01*
X13583Y5807D01*
X11910Y9055D02*
X12304Y9055D01*
X12304Y8859D02*
X12304Y9252D01*
X12648Y9055D01*
X12304Y8859D01*
X12304Y8859D01*
X12648Y9252D02*
X12648Y8859D01*
X12648Y9055D02*
X13091Y9055D01*
X11811Y7727D02*
X12205Y7727D01*
X12205Y7185D01*
X11811Y6152D02*
X12205Y6152D01*
X12205Y6693D01*
X13189Y7727D02*
X12796Y7727D01*
X12796Y7185D01*
X13189Y6152D02*
X12796Y6152D01*
X12796Y6693D01*
X13189Y6939D02*
X13042Y6939D01*
X12697Y7234D01*
X11811Y6939D02*
X11959Y6939D01*
X12304Y7234D01*
G54D15*
X11948Y9865D02*
X11948Y10337D01*
X12155Y10337D01*
X12243Y10249D01*
X12243Y10160D01*
X12155Y10072D01*
X11948Y10072D01*
X12155Y10072D02*
X12273Y9865D01*
X12391Y10337D02*
X12391Y9865D01*
X12657Y9865D01*
X12775Y10249D02*
X12864Y10337D01*
X12952Y10337D01*
X13041Y10249D01*
X13041Y10131D01*
X12982Y10072D01*
X12834Y10072D01*
X12775Y10012D01*
X12775Y9865D01*
X13041Y9865D01*
G54D26*
X7235Y9351D02*
X7235Y9646D01*
X9400Y9646D01*
X9400Y9351D01*
X7235Y8760D02*
X7235Y8071D01*
X9400Y8760D02*
X9400Y8071D01*
X9400Y7530D02*
X9400Y7185D01*
X9400Y6693D02*
X9400Y6299D01*
X7235Y7185D02*
X7235Y7530D01*
X7235Y6693D02*
X7235Y6299D01*
X7235Y5807D02*
X7235Y5610D01*
X9400Y5610D01*
X9400Y5807D01*
X7727Y9055D02*
X8120Y9055D01*
X8120Y8859D02*
X8120Y9252D01*
X8465Y9055D01*
X8120Y8859D01*
X8120Y8859D01*
X8465Y9252D02*
X8465Y8859D01*
X8465Y9055D02*
X8908Y9055D01*
X7628Y7727D02*
X8022Y7727D01*
X8022Y7185D01*
X7628Y6152D02*
X8022Y6152D01*
X8022Y6693D01*
X9006Y7727D02*
X8613Y7727D01*
X8613Y7185D01*
X9006Y6152D02*
X8613Y6152D01*
X8613Y6693D01*
X9006Y6939D02*
X8859Y6939D01*
X8514Y7234D01*
X7628Y6939D02*
X7776Y6939D01*
X8120Y7234D01*
G54D15*
X7765Y9865D02*
X7765Y10337D01*
X7972Y10337D01*
X8060Y10249D01*
X8060Y10160D01*
X7972Y10072D01*
X7765Y10072D01*
X7972Y10072D02*
X8090Y9865D01*
X8208Y10337D02*
X8208Y9865D01*
X8474Y9865D01*
X8592Y10278D02*
X8651Y10337D01*
X8798Y10337D01*
X8858Y10278D01*
X8858Y10160D01*
X8798Y10101D01*
X8710Y10101D01*
X8798Y10101D02*
X8858Y10042D01*
X8858Y9924D01*
X8798Y9865D01*
X8651Y9865D01*
X8592Y9924D01*
X5764Y12121D02*
X5764Y12271D01*
X6244Y12121D02*
X6244Y12271D01*
X5761Y12881D02*
X5761Y13196D01*
X5899Y13196D01*
X5958Y13137D01*
X5958Y13078D01*
X5899Y13019D01*
X5761Y13019D01*
X5899Y13019D02*
X5978Y12881D01*
X6057Y13156D02*
X6096Y13196D01*
X6194Y13196D01*
X6234Y13156D01*
X6234Y13078D01*
X6194Y13038D01*
X6135Y13038D01*
X6194Y13038D02*
X6234Y12999D01*
X6234Y12920D01*
X6194Y12881D01*
X6096Y12881D01*
X6057Y12920D01*
X10095Y12121D02*
X10095Y12271D01*
X10575Y12121D02*
X10575Y12271D01*
X10141Y12900D02*
X10141Y13214D01*
X10279Y13214D01*
X10338Y13155D01*
X10338Y13096D01*
X10279Y13037D01*
X10141Y13037D01*
X10279Y13037D02*
X10358Y12900D01*
X10437Y13214D02*
X10437Y13037D01*
X10594Y13037D01*
X10555Y13175D02*
X10555Y12900D01*
G54D33*
X7067Y11634D02*
X7067Y12185D01*
X7067Y11831D02*
X6988Y11831D01*
X6988Y11989D01*
X7067Y11989D01*
G54D15*
X6593Y12674D02*
X6593Y12359D01*
X6770Y12359D01*
X7046Y12674D02*
X6849Y12674D01*
X6849Y12359D01*
X7046Y12359D01*
X6849Y12517D02*
X6967Y12517D01*
X7125Y12359D02*
X7125Y12674D01*
X7262Y12674D01*
X7321Y12615D01*
X7321Y12418D01*
X7262Y12359D01*
X7125Y12359D01*
X7125Y12359D01*
X7400Y12359D02*
X7518Y12359D01*
X7459Y12359D02*
X7459Y12674D01*
X7400Y12635D01*
X8262Y12290D02*
X8262Y12140D01*
X7782Y12290D02*
X7782Y12140D01*
X7782Y12898D02*
X7782Y13213D01*
X7920Y13213D01*
X7979Y13154D01*
X7979Y13095D01*
X7920Y13036D01*
X7782Y13036D01*
X7920Y13036D02*
X7999Y12898D01*
X8235Y13213D02*
X8078Y13213D01*
X8078Y13076D01*
X8196Y13076D01*
X8235Y13036D01*
X8235Y12938D01*
X8196Y12898D01*
X8078Y12898D01*
X12593Y12240D02*
X12593Y12090D01*
X12113Y12240D02*
X12113Y12090D01*
X12113Y12868D02*
X12113Y13183D01*
X12251Y13183D01*
X12310Y13124D01*
X12310Y13065D01*
X12251Y13006D01*
X12113Y13006D01*
X12251Y13006D02*
X12330Y12868D01*
X12468Y13183D02*
X12409Y13124D01*
X12409Y12907D01*
X12448Y12868D01*
X12546Y12868D01*
X12586Y12907D01*
X12586Y12986D01*
X12546Y13026D01*
X12448Y13026D01*
X12409Y12986D01*
G54D33*
X11398Y11634D02*
X11398Y12185D01*
X11398Y11831D02*
X11319Y11831D01*
X11319Y11989D01*
X11398Y11989D01*
G54D15*
X10868Y12625D02*
X10868Y12310D01*
X11045Y12310D01*
X11320Y12625D02*
X11124Y12625D01*
X11124Y12310D01*
X11320Y12310D01*
X11124Y12468D02*
X11242Y12468D01*
X11399Y12310D02*
X11399Y12625D01*
X11537Y12625D01*
X11596Y12566D01*
X11596Y12369D01*
X11537Y12310D01*
X11399Y12310D01*
X11399Y12310D01*
X11675Y12566D02*
X11734Y12625D01*
X11793Y12625D01*
X11852Y12566D01*
X11852Y12487D01*
X11813Y12448D01*
X11714Y12448D01*
X11675Y12409D01*
X11675Y12310D01*
X11852Y12310D01*
M02*
