G04 -- Generated By PCBWeb Designer*
%FSLAX24Y24*%
%MOIN*%
%OFA0B0*%
%SFA1.0B1.0*%
%AMROTRECT*21,1,$1,$2,0,0,$3*%
%AMROTOBLONG*1,1,$7,$1,$2*1,1,$7,$3,$4*21,1,$5,$6,0,0,$8*%
%ADD10C,0.025*%
%ADD11R,0.022X0.085*%
%ADD12R,0.032X0.095*%
%ADD13C,0.006*%
%ADD14C,0.0075*%
%ADD15C,0.0235*%
%ADD16C,0.008*%
%ADD17C,0.024*%
%ADD18C,0.05*%
%ADD19C,0.028*%
%ADD20C,0.06*%
%ADD21C,0.035*%
%ADD22C,0.07*%
%ADD23R,0.0433X0.055*%
%ADD24R,0.0533X0.065*%
%ADD25R,0.055X0.0433*%
%ADD26R,0.065X0.0533*%
%ADD27C,0.1772*%
%ADD28C,0.128*%
%ADD29C,0.1872*%
%ADD30C,0.0059*%
%ADD31R,0.0276X0.0236*%
%ADD32R,0.0376X0.0336*%
%ADD33C,0.01*%
%ADD34C,0.0039*%
%ADD35C,0.0199*%
%ADD36R,0.07X0.085*%
%ADD37R,0.08X0.095*%
%ADD38R,0.0276X0.0787*%
%ADD39R,0.0376X0.0887*%
%ADD40R,0.0236X0.0276*%
%ADD41R,0.0336X0.0376*%
%ADD42C,0.0*%
%ADD43C,0.0394*%
%ADD44C,0.0258*%
%ADD45C,0.0098*%
G01*
%LNBASEFILL*%
%LPD*%
G36*
X1575Y14961D02*
X787Y15748D01*
X2884Y5992D01*
X1575Y14961D01*
G37*
G36*
X2884Y5992D02*
X787Y15748D01*
X787Y1575D01*
X2884Y5992D01*
G37*
G36*
X2884Y5992D02*
X787Y1575D01*
X2871Y5906D01*
X2884Y5992D01*
G37*
G36*
X2871Y5906D02*
X787Y1575D01*
X1575Y2362D01*
X2871Y5906D01*
G37*
G36*
X1575Y2362D02*
X2871Y4906D01*
X2871Y5906D01*
X1575Y2362D01*
G37*
G36*
X2871Y5906D02*
X2871Y4906D01*
X2884Y5819D01*
X2871Y5906D01*
G37*
G36*
X2871Y4906D02*
X2884Y4992D01*
X2884Y5819D01*
X2871Y4906D01*
G37*
G36*
X2884Y5819D02*
X2884Y4992D01*
X2924Y5069D01*
X2884Y5819D01*
G37*
G36*
X2924Y5742D02*
X2884Y5819D01*
X2924Y5069D01*
X2924Y5742D01*
G37*
G36*
X2924Y5742D02*
X2924Y5069D01*
X2986Y5680D01*
X2924Y5742D01*
G37*
G36*
X2924Y5069D02*
X2986Y5131D01*
X2986Y5680D01*
X2924Y5069D01*
G37*
G36*
X2986Y5680D02*
X2986Y5131D01*
X3063Y5640D01*
X2986Y5680D01*
G37*
G36*
X2986Y5131D02*
X3063Y5171D01*
X3063Y5640D01*
X2986Y5131D01*
G37*
G36*
X3063Y5640D02*
X3063Y5171D01*
X3150Y5627D01*
X3063Y5640D01*
G37*
G36*
X3063Y5171D02*
X3150Y5184D01*
X3150Y5627D01*
X3063Y5171D01*
G37*
G36*
X3150Y5627D02*
X3150Y5184D01*
X3236Y5171D01*
X3150Y5627D01*
G37*
G36*
X3150Y5627D02*
X3236Y5171D01*
X3236Y5640D01*
X3150Y5627D01*
G37*
G36*
X3236Y5640D02*
X3236Y5171D01*
X3314Y5131D01*
X3236Y5640D01*
G37*
G36*
X3236Y5640D02*
X3314Y5131D01*
X3314Y5680D01*
X3236Y5640D01*
G37*
G36*
X3375Y5742D02*
X3314Y5680D01*
X3314Y5131D01*
X3375Y5742D01*
G37*
G36*
X3375Y5742D02*
X3314Y5131D01*
X3375Y5069D01*
X3375Y5742D01*
G37*
G36*
X3415Y5819D02*
X3375Y5742D01*
X3375Y5069D01*
X3415Y5819D01*
G37*
G36*
X3415Y5819D02*
X3375Y5069D01*
X3415Y4992D01*
X3415Y5819D01*
G37*
G36*
X5233Y4906D02*
X3415Y5819D01*
X3415Y4992D01*
X5233Y4906D01*
G37*
G36*
X3429Y4906D02*
X5233Y4906D01*
X3415Y4992D01*
X3429Y4906D01*
G37*
G36*
X5233Y4906D02*
X3429Y4906D01*
X5246Y4819D01*
X5233Y4906D01*
G37*
G36*
X5246Y4819D02*
X3429Y4906D01*
X5246Y3992D01*
X5246Y4819D01*
G37*
G36*
X5246Y3992D02*
X3429Y4906D01*
X3415Y4819D01*
X5246Y3992D01*
G37*
G36*
X5246Y3992D02*
X3415Y4819D01*
X5233Y3906D01*
X5246Y3992D01*
G37*
G36*
X5233Y3906D02*
X3415Y4819D01*
X3415Y3992D01*
X5233Y3906D01*
G37*
G36*
X3415Y4819D02*
X3375Y4069D01*
X3415Y3992D01*
X3415Y4819D01*
G37*
G36*
X3415Y4819D02*
X3375Y4742D01*
X3375Y4069D01*
X3415Y4819D01*
G37*
G36*
X3375Y4742D02*
X3314Y4131D01*
X3375Y4069D01*
X3375Y4742D01*
G37*
G36*
X3375Y4742D02*
X3314Y4680D01*
X3314Y4131D01*
X3375Y4742D01*
G37*
G36*
X3236Y4640D02*
X3314Y4131D01*
X3314Y4680D01*
X3236Y4640D01*
G37*
G36*
X3236Y4640D02*
X3236Y4171D01*
X3314Y4131D01*
X3236Y4640D01*
G37*
G36*
X3150Y4627D02*
X3236Y4171D01*
X3236Y4640D01*
X3150Y4627D01*
G37*
G36*
X3150Y4627D02*
X3150Y4184D01*
X3236Y4171D01*
X3150Y4627D01*
G37*
G36*
X3063Y4171D02*
X3150Y4184D01*
X3150Y4627D01*
X3063Y4171D01*
G37*
G36*
X3063Y4640D02*
X3063Y4171D01*
X3150Y4627D01*
X3063Y4640D01*
G37*
G36*
X2986Y4131D02*
X3063Y4171D01*
X3063Y4640D01*
X2986Y4131D01*
G37*
G36*
X2986Y4680D02*
X2986Y4131D01*
X3063Y4640D01*
X2986Y4680D01*
G37*
G36*
X2924Y4069D02*
X2986Y4131D01*
X2986Y4680D01*
X2924Y4069D01*
G37*
G36*
X2924Y4742D02*
X2924Y4069D01*
X2986Y4680D01*
X2924Y4742D01*
G37*
G36*
X2924Y4742D02*
X2884Y4819D01*
X2924Y4069D01*
X2924Y4742D01*
G37*
G36*
X2884Y4819D02*
X2884Y3992D01*
X2924Y4069D01*
X2884Y4819D01*
G37*
G36*
X2884Y3992D02*
X2884Y4819D01*
X1575Y2362D01*
X2884Y3992D01*
G37*
G36*
X2871Y4906D02*
X1575Y2362D01*
X2884Y4819D01*
X2871Y4906D01*
G37*
G36*
X1575Y2362D02*
X2871Y3906D01*
X2884Y3992D01*
X1575Y2362D01*
G37*
G36*
X2871Y3906D02*
X1575Y2362D01*
X2884Y3819D01*
X2871Y3906D01*
G37*
G36*
X2884Y2992D02*
X2884Y3819D01*
X1575Y2362D01*
X2884Y2992D01*
G37*
G36*
X1575Y2362D02*
X2871Y2906D01*
X2884Y2992D01*
X1575Y2362D01*
G37*
G36*
X2871Y2906D02*
X1575Y2362D01*
X2884Y2819D01*
X2871Y2906D01*
G37*
G36*
X2884Y2819D02*
X1575Y2362D01*
X2924Y2742D01*
X2884Y2819D01*
G37*
G36*
X1575Y2362D02*
X2362Y1575D01*
X2924Y2742D01*
X1575Y2362D01*
G37*
G36*
X2986Y2680D02*
X2924Y2742D01*
X2362Y1575D01*
X2986Y2680D01*
G37*
G36*
X3063Y2640D02*
X2986Y2680D01*
X2362Y1575D01*
X3063Y2640D01*
G37*
G36*
X3150Y2627D02*
X3063Y2640D01*
X2362Y1575D01*
X3150Y2627D01*
G37*
G36*
X9411Y2151D02*
X3150Y2627D01*
X2362Y1575D01*
X9411Y2151D01*
G37*
G36*
X9411Y2151D02*
X2362Y1575D01*
X9447Y2104D01*
X9411Y2151D01*
G37*
G36*
X9447Y2104D02*
X2362Y1575D01*
X9493Y2068D01*
X9447Y2104D01*
G37*
G36*
X2362Y1575D02*
X1575Y787D01*
X9493Y2068D01*
X2362Y1575D01*
G37*
G36*
X9548Y2046D02*
X9493Y2068D01*
X1575Y787D01*
X9548Y2046D01*
G37*
G36*
X9606Y2038D02*
X9548Y2046D01*
X1575Y787D01*
X9606Y2038D01*
G37*
G36*
X1575Y787D02*
X30709Y787D01*
X9606Y2038D01*
X1575Y787D01*
G37*
G36*
X30709Y787D02*
X15610Y2038D01*
X9606Y2038D01*
X30709Y787D01*
G37*
G36*
X9665Y2046D02*
X9606Y2038D01*
X15610Y2038D01*
X9665Y2046D01*
G37*
G36*
X15552Y2046D02*
X9665Y2046D01*
X15610Y2038D01*
X15552Y2046D01*
G37*
G36*
X9719Y2068D02*
X9665Y2046D01*
X15552Y2046D01*
X9719Y2068D01*
G37*
G36*
X15497Y2068D02*
X9719Y2068D01*
X15552Y2046D01*
X15497Y2068D01*
G37*
G36*
X9719Y2068D02*
X15497Y2068D01*
X12008Y2674D01*
X9719Y2068D01*
G37*
G36*
X12008Y2674D02*
X15497Y2068D01*
X15451Y2104D01*
X12008Y2674D01*
G37*
G36*
X15451Y2104D02*
X12094Y2687D01*
X12008Y2674D01*
X15451Y2104D01*
G37*
G36*
X15451Y2104D02*
X15415Y2151D01*
X12094Y2687D01*
X15451Y2104D01*
G37*
G36*
X15415Y2151D02*
X15392Y2205D01*
X12094Y2687D01*
X15415Y2151D01*
G37*
G36*
X13318Y2825D02*
X12094Y2687D01*
X15392Y2205D01*
X13318Y2825D01*
G37*
G36*
X15392Y2205D02*
X13651Y2825D01*
X13318Y2825D01*
X15392Y2205D01*
G37*
G36*
X15392Y2205D02*
X14577Y2825D01*
X13651Y2825D01*
X15392Y2205D01*
G37*
G36*
X13651Y3563D02*
X13651Y2825D01*
X14577Y2825D01*
X13651Y3563D01*
G37*
G36*
X13651Y3563D02*
X14577Y2825D01*
X14577Y3671D01*
X13651Y3563D01*
G37*
G36*
X14222Y4134D02*
X13651Y3563D01*
X14577Y3671D01*
X14222Y4134D01*
G37*
G36*
X14233Y4149D02*
X14222Y4134D01*
X14577Y3671D01*
X14233Y4149D01*
G37*
G36*
X14240Y4165D02*
X14233Y4149D01*
X14577Y3671D01*
X14240Y4165D01*
G37*
G36*
X14243Y4183D02*
X14240Y4165D01*
X14577Y3671D01*
X14243Y4183D01*
G37*
G36*
X14911Y3671D02*
X14243Y4183D01*
X14577Y3671D01*
X14911Y3671D01*
G37*
G36*
X14911Y5188D02*
X14243Y4183D01*
X14911Y3671D01*
X14911Y5188D01*
G37*
G36*
X14911Y5188D02*
X14911Y3671D01*
X15444Y3671D01*
X14911Y5188D01*
G37*
G36*
X14911Y3671D02*
X15415Y3361D01*
X15444Y3671D01*
X14911Y3671D01*
G37*
G36*
X15415Y3361D02*
X15444Y3399D01*
X15444Y3671D01*
X15415Y3361D01*
G37*
G36*
X15415Y3361D02*
X14911Y3671D01*
X15392Y3307D01*
X15415Y3361D01*
G37*
G36*
X15392Y3307D02*
X14911Y3671D01*
X15384Y3248D01*
X15392Y3307D01*
G37*
G36*
X15384Y3248D02*
X14911Y3671D01*
X14911Y2825D01*
X15384Y3248D01*
G37*
G36*
X14911Y2825D02*
X15384Y2264D01*
X15384Y3248D01*
X14911Y2825D01*
G37*
G36*
X14911Y2825D02*
X14577Y2825D01*
X15384Y2264D01*
X14911Y2825D01*
G37*
G36*
X15384Y2264D02*
X14577Y2825D01*
X15392Y2205D01*
X15384Y2264D01*
G37*
G36*
X15444Y3671D02*
X15444Y5188D01*
X14911Y5188D01*
X15444Y3671D01*
G37*
G36*
X15415Y5497D02*
X14911Y5188D01*
X15444Y5188D01*
X15415Y5497D01*
G37*
G36*
X15444Y5460D02*
X15415Y5497D01*
X15444Y5188D01*
X15444Y5460D01*
G37*
G36*
X15392Y5552D02*
X14911Y5188D01*
X15415Y5497D01*
X15392Y5552D01*
G37*
G36*
X15384Y5610D02*
X14911Y5188D01*
X15392Y5552D01*
X15384Y5610D01*
G37*
G36*
X15384Y5610D02*
X14911Y6033D01*
X14911Y5188D01*
X15384Y5610D01*
G37*
G36*
X14911Y6033D02*
X15384Y5610D01*
X15384Y6594D01*
X14911Y6033D01*
G37*
G36*
X15060Y6723D02*
X14911Y6033D01*
X15384Y6594D01*
X15060Y6723D01*
G37*
G36*
X15354Y6723D02*
X15060Y6723D01*
X15384Y6594D01*
X15354Y6723D01*
G37*
G36*
X15392Y6653D02*
X15354Y6723D01*
X15384Y6594D01*
X15392Y6653D01*
G37*
G36*
X15354Y6723D02*
X15392Y6653D01*
X15415Y6707D01*
X15354Y6723D01*
G37*
G36*
X15451Y6754D02*
X15354Y6723D01*
X15415Y6707D01*
X15451Y6754D01*
G37*
G36*
X15451Y6754D02*
X15354Y7057D01*
X15354Y6723D01*
X15451Y6754D01*
G37*
G36*
X15354Y7057D02*
X15451Y6754D01*
X15497Y6790D01*
X15354Y7057D01*
G37*
G36*
X15354Y7057D02*
X15497Y6790D01*
X15552Y6813D01*
X15354Y7057D01*
G37*
G36*
X15354Y7057D02*
X15552Y6813D01*
X15610Y6820D01*
X15354Y7057D01*
G37*
G36*
X15966Y7308D02*
X15354Y7057D01*
X15610Y6820D01*
X15966Y7308D01*
G37*
G36*
X15966Y7308D02*
X15610Y6820D01*
X15966Y6980D01*
X15966Y7308D01*
G37*
G36*
X15966Y6980D02*
X15610Y6820D01*
X15669Y6813D01*
X15966Y6980D01*
G37*
G36*
X15966Y6980D02*
X15669Y6813D01*
X15723Y6790D01*
X15966Y6980D01*
G37*
G36*
X15723Y6790D02*
X15770Y6754D01*
X15966Y6980D01*
X15723Y6790D01*
G37*
G36*
X15770Y6754D02*
X15806Y6707D01*
X15966Y6980D01*
X15770Y6754D01*
G37*
G36*
X15806Y6707D02*
X15828Y6653D01*
X15966Y6980D01*
X15806Y6707D01*
G37*
G36*
X15966Y6980D02*
X15828Y6653D01*
X16457Y6980D01*
X15966Y6980D01*
G37*
G36*
X15836Y6594D02*
X16457Y6980D01*
X15828Y6653D01*
X15836Y6594D01*
G37*
G36*
X16457Y6980D02*
X15836Y6594D01*
X16310Y6033D01*
X16457Y6980D01*
G37*
G36*
X15836Y6594D02*
X15836Y5610D01*
X16310Y6033D01*
X15836Y6594D01*
G37*
G36*
X16310Y6033D02*
X15836Y5610D01*
X16281Y5723D01*
X16310Y6033D01*
G37*
G36*
X16281Y5723D02*
X15836Y5610D01*
X16258Y5669D01*
X16281Y5723D01*
G37*
G36*
X16258Y5669D02*
X15836Y5610D01*
X16251Y5610D01*
X16258Y5669D01*
G37*
G36*
X15836Y5610D02*
X15828Y5552D01*
X16251Y5610D01*
X15836Y5610D01*
G37*
G36*
X16251Y5610D02*
X15828Y5552D01*
X15806Y5497D01*
X16251Y5610D01*
G37*
G36*
X16251Y5610D02*
X15806Y5497D01*
X16251Y5217D01*
X16251Y5610D01*
G37*
G36*
X16251Y5217D02*
X15806Y5497D01*
X15777Y5188D01*
X16251Y5217D01*
G37*
G36*
X15806Y5497D02*
X15777Y5460D01*
X15777Y5188D01*
X15806Y5497D01*
G37*
G36*
X16251Y5217D02*
X15777Y5188D01*
X16258Y5158D01*
X16251Y5217D01*
G37*
G36*
X16258Y5158D02*
X15777Y5188D01*
X16281Y5104D01*
X16258Y5158D01*
G37*
G36*
X16281Y5104D02*
X15777Y5188D01*
X15444Y5188D01*
X16281Y5104D01*
G37*
G36*
X15444Y3671D02*
X16281Y5104D01*
X15444Y5188D01*
X15444Y3671D01*
G37*
G36*
X15444Y3671D02*
X16317Y5057D01*
X16281Y5104D01*
X15444Y3671D01*
G37*
G36*
X16317Y5057D02*
X15444Y3671D01*
X15777Y3671D01*
X16317Y5057D01*
G37*
G36*
X16317Y3802D02*
X16317Y5057D01*
X15777Y3671D01*
X16317Y3802D01*
G37*
G36*
X16317Y3802D02*
X15777Y3671D01*
X16281Y3755D01*
X16317Y3802D01*
G37*
G36*
X15777Y3671D02*
X16258Y3700D01*
X16281Y3755D01*
X15777Y3671D01*
G37*
G36*
X15777Y3671D02*
X16251Y3642D01*
X16258Y3700D01*
X15777Y3671D01*
G37*
G36*
X15777Y3671D02*
X15806Y3361D01*
X16251Y3642D01*
X15777Y3671D01*
G37*
G36*
X16251Y3642D02*
X15806Y3361D01*
X16251Y3248D01*
X16251Y3642D01*
G37*
G36*
X16251Y3248D02*
X15806Y3361D01*
X15828Y3307D01*
X16251Y3248D01*
G37*
G36*
X15828Y3307D02*
X15836Y3248D01*
X16251Y3248D01*
X15828Y3307D01*
G37*
G36*
X16251Y3248D02*
X15836Y3248D01*
X16258Y3190D01*
X16251Y3248D01*
G37*
G36*
X16258Y3190D02*
X15836Y3248D01*
X16281Y3135D01*
X16258Y3190D01*
G37*
G36*
X15836Y3248D02*
X16310Y2825D01*
X16281Y3135D01*
X15836Y3248D01*
G37*
G36*
X16310Y3098D02*
X16281Y3135D01*
X16310Y2825D01*
X16310Y3098D01*
G37*
G36*
X15836Y3248D02*
X15836Y2264D01*
X16310Y2825D01*
X15836Y3248D01*
G37*
G36*
X15836Y2264D02*
X15828Y2205D01*
X16310Y2825D01*
X15836Y2264D01*
G37*
G36*
X16310Y2825D02*
X15828Y2205D01*
X16643Y2825D01*
X16310Y2825D01*
G37*
G36*
X16643Y2825D02*
X15828Y2205D01*
X17553Y2727D01*
X16643Y2825D01*
G37*
G36*
X17630Y2687D02*
X17553Y2727D01*
X15828Y2205D01*
X17630Y2687D01*
G37*
G36*
X17717Y2674D02*
X17630Y2687D01*
X15828Y2205D01*
X17717Y2674D01*
G37*
G36*
X15806Y2151D02*
X17717Y2674D01*
X15828Y2205D01*
X15806Y2151D01*
G37*
G36*
X15770Y2104D02*
X17717Y2674D01*
X15806Y2151D01*
X15770Y2104D01*
G37*
G36*
X17717Y2674D02*
X15770Y2104D01*
X15723Y2068D01*
X17717Y2674D01*
G37*
G36*
X15723Y2068D02*
X21108Y2068D01*
X17717Y2674D01*
X15723Y2068D01*
G37*
G36*
X17717Y2674D02*
X21108Y2068D01*
X21061Y2104D01*
X17717Y2674D01*
G37*
G36*
X21061Y2104D02*
X17803Y2687D01*
X17717Y2674D01*
X21061Y2104D01*
G37*
G36*
X21061Y2104D02*
X21025Y2151D01*
X17803Y2687D01*
X21061Y2104D01*
G37*
G36*
X17803Y2687D02*
X21025Y2151D01*
X21002Y2205D01*
X17803Y2687D01*
G37*
G36*
X18928Y2825D02*
X17803Y2687D01*
X21002Y2205D01*
X18928Y2825D01*
G37*
G36*
X21002Y2205D02*
X19261Y2825D01*
X18928Y2825D01*
X21002Y2205D01*
G37*
G36*
X21002Y2205D02*
X20188Y2825D01*
X19261Y2825D01*
X21002Y2205D01*
G37*
G36*
X19261Y3550D02*
X19261Y2825D01*
X20188Y2825D01*
X19261Y3550D01*
G37*
G36*
X19261Y3550D02*
X20188Y2825D01*
X20188Y3671D01*
X19261Y3550D01*
G37*
G36*
X19741Y4029D02*
X19261Y3550D01*
X20188Y3671D01*
X19741Y4029D01*
G37*
G36*
X19753Y4046D02*
X19741Y4029D01*
X20188Y3671D01*
X19753Y4046D01*
G37*
G36*
X19761Y4065D02*
X19753Y4046D01*
X20188Y3671D01*
X19761Y4065D01*
G37*
G36*
X19764Y4085D02*
X19761Y4065D01*
X20188Y3671D01*
X19764Y4085D01*
G37*
G36*
X20521Y3671D02*
X19764Y4085D01*
X20188Y3671D01*
X20521Y3671D01*
G37*
G36*
X20521Y5188D02*
X19764Y4085D01*
X20521Y3671D01*
X20521Y5188D01*
G37*
G36*
X20521Y5188D02*
X20521Y3671D01*
X21054Y3671D01*
X20521Y5188D01*
G37*
G36*
X20521Y3671D02*
X21025Y3361D01*
X21054Y3671D01*
X20521Y3671D01*
G37*
G36*
X21025Y3361D02*
X21054Y3399D01*
X21054Y3671D01*
X21025Y3361D01*
G37*
G36*
X21025Y3361D02*
X20521Y3671D01*
X21002Y3307D01*
X21025Y3361D01*
G37*
G36*
X21002Y3307D02*
X20521Y3671D01*
X20995Y3248D01*
X21002Y3307D01*
G37*
G36*
X20995Y3248D02*
X20521Y3671D01*
X20521Y2825D01*
X20995Y3248D01*
G37*
G36*
X20521Y2825D02*
X20995Y2264D01*
X20995Y3248D01*
X20521Y2825D01*
G37*
G36*
X20521Y2825D02*
X20188Y2825D01*
X20995Y2264D01*
X20521Y2825D01*
G37*
G36*
X20995Y2264D02*
X20188Y2825D01*
X21002Y2205D01*
X20995Y2264D01*
G37*
G36*
X21054Y3671D02*
X21054Y5188D01*
X20521Y5188D01*
X21054Y3671D01*
G37*
G36*
X21025Y5497D02*
X20521Y5188D01*
X21054Y5188D01*
X21025Y5497D01*
G37*
G36*
X21054Y5460D02*
X21025Y5497D01*
X21054Y5188D01*
X21054Y5460D01*
G37*
G36*
X21002Y5552D02*
X20521Y5188D01*
X21025Y5497D01*
X21002Y5552D01*
G37*
G36*
X20995Y5610D02*
X20521Y5188D01*
X21002Y5552D01*
X20995Y5610D01*
G37*
G36*
X20995Y5610D02*
X20521Y6033D01*
X20521Y5188D01*
X20995Y5610D01*
G37*
G36*
X20521Y6033D02*
X20995Y5610D01*
X20995Y6594D01*
X20521Y6033D01*
G37*
G36*
X20621Y6723D02*
X20521Y6033D01*
X20995Y6594D01*
X20621Y6723D01*
G37*
G36*
X20915Y6723D02*
X20621Y6723D01*
X20995Y6594D01*
X20915Y6723D01*
G37*
G36*
X21002Y6653D02*
X20915Y6723D01*
X20995Y6594D01*
X21002Y6653D01*
G37*
G36*
X20915Y6723D02*
X21002Y6653D01*
X21025Y6707D01*
X20915Y6723D01*
G37*
G36*
X21061Y6754D02*
X20915Y6723D01*
X21025Y6707D01*
X21061Y6754D01*
G37*
G36*
X21061Y6754D02*
X20915Y7057D01*
X20915Y6723D01*
X21061Y6754D01*
G37*
G36*
X20915Y7057D02*
X21061Y6754D01*
X21108Y6790D01*
X20915Y7057D01*
G37*
G36*
X20915Y7057D02*
X21108Y6790D01*
X21162Y6813D01*
X20915Y7057D01*
G37*
G36*
X20915Y7057D02*
X21162Y6813D01*
X21221Y6820D01*
X20915Y7057D01*
G37*
G36*
X21487Y6979D02*
X20915Y7057D01*
X21221Y6820D01*
X21487Y6979D01*
G37*
G36*
X21487Y6979D02*
X21221Y6820D01*
X21279Y6813D01*
X21487Y6979D01*
G37*
G36*
X21279Y6813D02*
X21334Y6790D01*
X21487Y6979D01*
X21279Y6813D01*
G37*
G36*
X21334Y6790D02*
X21380Y6754D01*
X21487Y6979D01*
X21334Y6790D01*
G37*
G36*
X21380Y6754D02*
X21416Y6707D01*
X21487Y6979D01*
X21380Y6754D01*
G37*
G36*
X21416Y6707D02*
X21439Y6653D01*
X21487Y6979D01*
X21416Y6707D01*
G37*
G36*
X21487Y6979D02*
X21439Y6653D01*
X21978Y6979D01*
X21487Y6979D01*
G37*
G36*
X21446Y6594D02*
X21978Y6979D01*
X21439Y6653D01*
X21446Y6594D01*
G37*
G36*
X21978Y6979D02*
X21446Y6594D01*
X21920Y6033D01*
X21978Y6979D01*
G37*
G36*
X21446Y6594D02*
X21446Y5610D01*
X21920Y6033D01*
X21446Y6594D01*
G37*
G36*
X21920Y6033D02*
X21446Y5610D01*
X21891Y5723D01*
X21920Y6033D01*
G37*
G36*
X21891Y5723D02*
X21446Y5610D01*
X21869Y5669D01*
X21891Y5723D01*
G37*
G36*
X21869Y5669D02*
X21446Y5610D01*
X21861Y5610D01*
X21869Y5669D01*
G37*
G36*
X21446Y5610D02*
X21439Y5552D01*
X21861Y5610D01*
X21446Y5610D01*
G37*
G36*
X21861Y5610D02*
X21439Y5552D01*
X21416Y5497D01*
X21861Y5610D01*
G37*
G36*
X21861Y5610D02*
X21416Y5497D01*
X21861Y5217D01*
X21861Y5610D01*
G37*
G36*
X21861Y5217D02*
X21416Y5497D01*
X21387Y5188D01*
X21861Y5217D01*
G37*
G36*
X21416Y5497D02*
X21387Y5460D01*
X21387Y5188D01*
X21416Y5497D01*
G37*
G36*
X21861Y5217D02*
X21387Y5188D01*
X21869Y5158D01*
X21861Y5217D01*
G37*
G36*
X21869Y5158D02*
X21387Y5188D01*
X21891Y5104D01*
X21869Y5158D01*
G37*
G36*
X21891Y5104D02*
X21387Y5188D01*
X21054Y5188D01*
X21891Y5104D01*
G37*
G36*
X21054Y3671D02*
X21891Y5104D01*
X21054Y5188D01*
X21054Y3671D01*
G37*
G36*
X21054Y3671D02*
X21927Y5057D01*
X21891Y5104D01*
X21054Y3671D01*
G37*
G36*
X21927Y5057D02*
X21054Y3671D01*
X21387Y3671D01*
X21927Y5057D01*
G37*
G36*
X21927Y3802D02*
X21927Y5057D01*
X21387Y3671D01*
X21927Y3802D01*
G37*
G36*
X21927Y3802D02*
X21387Y3671D01*
X21891Y3755D01*
X21927Y3802D01*
G37*
G36*
X21387Y3671D02*
X21869Y3700D01*
X21891Y3755D01*
X21387Y3671D01*
G37*
G36*
X21387Y3671D02*
X21861Y3642D01*
X21869Y3700D01*
X21387Y3671D01*
G37*
G36*
X21387Y3671D02*
X21416Y3361D01*
X21861Y3642D01*
X21387Y3671D01*
G37*
G36*
X21861Y3642D02*
X21416Y3361D01*
X21861Y3248D01*
X21861Y3642D01*
G37*
G36*
X21861Y3248D02*
X21416Y3361D01*
X21439Y3307D01*
X21861Y3248D01*
G37*
G36*
X21439Y3307D02*
X21446Y3248D01*
X21861Y3248D01*
X21439Y3307D01*
G37*
G36*
X21861Y3248D02*
X21446Y3248D01*
X21869Y3190D01*
X21861Y3248D01*
G37*
G36*
X21869Y3190D02*
X21446Y3248D01*
X21891Y3135D01*
X21869Y3190D01*
G37*
G36*
X21446Y3248D02*
X21920Y2825D01*
X21891Y3135D01*
X21446Y3248D01*
G37*
G36*
X21920Y3098D02*
X21891Y3135D01*
X21920Y2825D01*
X21920Y3098D01*
G37*
G36*
X21446Y3248D02*
X21446Y2264D01*
X21920Y2825D01*
X21446Y3248D01*
G37*
G36*
X21439Y2205D02*
X21920Y2825D01*
X21446Y2264D01*
X21439Y2205D01*
G37*
G36*
X21920Y2825D02*
X21439Y2205D01*
X22254Y2825D01*
X21920Y2825D01*
G37*
G36*
X22254Y2825D02*
X21439Y2205D01*
X23064Y2727D01*
X22254Y2825D01*
G37*
G36*
X23142Y2687D02*
X23064Y2727D01*
X21439Y2205D01*
X23142Y2687D01*
G37*
G36*
X23228Y2674D02*
X23142Y2687D01*
X21439Y2205D01*
X23228Y2674D01*
G37*
G36*
X21416Y2151D02*
X23228Y2674D01*
X21439Y2205D01*
X21416Y2151D01*
G37*
G36*
X21380Y2104D02*
X23228Y2674D01*
X21416Y2151D01*
X21380Y2104D01*
G37*
G36*
X21334Y2068D02*
X23228Y2674D01*
X21380Y2104D01*
X21334Y2068D01*
G37*
G36*
X21334Y2068D02*
X26265Y2068D01*
X23228Y2674D01*
X21334Y2068D01*
G37*
G36*
X26265Y2068D02*
X23315Y2687D01*
X23228Y2674D01*
X26265Y2068D01*
G37*
G36*
X26265Y2068D02*
X26218Y2104D01*
X23315Y2687D01*
X26265Y2068D01*
G37*
G36*
X26183Y2151D02*
X23315Y2687D01*
X26218Y2104D01*
X26183Y2151D01*
G37*
G36*
X23315Y2687D02*
X26183Y2151D01*
X26160Y2205D01*
X23315Y2687D01*
G37*
G36*
X26152Y2264D02*
X23315Y2687D01*
X26160Y2205D01*
X26152Y2264D01*
G37*
G36*
X24440Y2825D02*
X23315Y2687D01*
X26152Y2264D01*
X24440Y2825D01*
G37*
G36*
X26152Y2264D02*
X24773Y2825D01*
X24440Y2825D01*
X26152Y2264D01*
G37*
G36*
X26152Y2264D02*
X25700Y2825D01*
X24773Y2825D01*
X26152Y2264D01*
G37*
G36*
X24773Y3500D02*
X24773Y2825D01*
X25700Y2825D01*
X24773Y3500D01*
G37*
G36*
X25700Y3671D02*
X24773Y3500D01*
X25700Y2825D01*
X25700Y3671D01*
G37*
G36*
X25700Y3671D02*
X24774Y3501D01*
X24773Y3500D01*
X25700Y3671D01*
G37*
G36*
X25253Y3980D02*
X24774Y3501D01*
X25700Y3671D01*
X25253Y3980D01*
G37*
G36*
X25265Y3996D02*
X25253Y3980D01*
X25700Y3671D01*
X25265Y3996D01*
G37*
G36*
X25273Y4015D02*
X25265Y3996D01*
X25700Y3671D01*
X25273Y4015D01*
G37*
G36*
X25276Y4036D02*
X25273Y4015D01*
X25700Y3671D01*
X25276Y4036D01*
G37*
G36*
X26033Y3671D02*
X25276Y4036D01*
X25700Y3671D01*
X26033Y3671D01*
G37*
G36*
X26033Y5188D02*
X25276Y4036D01*
X26033Y3671D01*
X26033Y5188D01*
G37*
G36*
X26033Y5188D02*
X26033Y3671D01*
X26566Y3671D01*
X26033Y5188D01*
G37*
G36*
X26033Y3671D02*
X26566Y3335D01*
X26566Y3671D01*
X26033Y3671D01*
G37*
G36*
X26566Y3335D02*
X26033Y3671D01*
X26554Y3307D01*
X26566Y3335D01*
G37*
G36*
X26554Y3307D02*
X26033Y3671D01*
X26546Y3248D01*
X26554Y3307D01*
G37*
G36*
X26546Y3248D02*
X26033Y3671D01*
X26033Y2825D01*
X26546Y3248D01*
G37*
G36*
X26033Y2825D02*
X26546Y2751D01*
X26546Y3248D01*
X26033Y2825D01*
G37*
G36*
X26033Y2825D02*
X26219Y2424D01*
X26546Y2751D01*
X26033Y2825D01*
G37*
G36*
X26219Y2424D02*
X26033Y2825D01*
X26183Y2377D01*
X26219Y2424D01*
G37*
G36*
X26033Y2825D02*
X25700Y2825D01*
X26183Y2377D01*
X26033Y2825D01*
G37*
G36*
X25700Y2825D02*
X26160Y2322D01*
X26183Y2377D01*
X25700Y2825D01*
G37*
G36*
X26160Y2322D02*
X25700Y2825D01*
X26152Y2264D01*
X26160Y2322D01*
G37*
G36*
X26033Y5188D02*
X26566Y3671D01*
X26566Y5188D01*
X26033Y5188D01*
G37*
G36*
X26566Y5188D02*
X26566Y3671D01*
X26899Y3671D01*
X26566Y5188D01*
G37*
G36*
X27439Y5057D02*
X26566Y5188D01*
X26899Y3671D01*
X27439Y5057D01*
G37*
G36*
X27439Y3802D02*
X27439Y5057D01*
X26899Y3671D01*
X27439Y3802D01*
G37*
G36*
X27439Y3802D02*
X26899Y3671D01*
X27403Y3755D01*
X27439Y3802D01*
G37*
G36*
X26899Y3671D02*
X27380Y3700D01*
X27403Y3755D01*
X26899Y3671D01*
G37*
G36*
X26899Y3671D02*
X27373Y3642D01*
X27380Y3700D01*
X26899Y3671D01*
G37*
G36*
X26899Y3671D02*
X26932Y3408D01*
X27373Y3642D01*
X26899Y3671D01*
G37*
G36*
X26932Y3408D02*
X26967Y3361D01*
X27373Y3642D01*
X26932Y3408D01*
G37*
G36*
X27373Y3642D02*
X26967Y3361D01*
X27373Y3248D01*
X27373Y3642D01*
G37*
G36*
X27373Y3248D02*
X26967Y3361D01*
X26990Y3307D01*
X27373Y3248D01*
G37*
G36*
X26990Y3307D02*
X26998Y3248D01*
X27373Y3248D01*
X26990Y3307D01*
G37*
G36*
X27373Y3248D02*
X26998Y3248D01*
X27380Y3190D01*
X27373Y3248D01*
G37*
G36*
X27403Y3135D02*
X27380Y3190D01*
X26998Y3248D01*
X27403Y3135D01*
G37*
G36*
X27432Y2825D02*
X27403Y3135D01*
X26998Y3248D01*
X27432Y2825D01*
G37*
G36*
X27432Y2825D02*
X26998Y3248D01*
X26998Y2658D01*
X27432Y2825D01*
G37*
G36*
X26990Y2599D02*
X27432Y2825D01*
X26998Y2658D01*
X26990Y2599D01*
G37*
G36*
X27432Y2825D02*
X26990Y2599D01*
X27765Y2825D01*
X27432Y2825D01*
G37*
G36*
X26990Y2599D02*
X28654Y2687D01*
X27765Y2825D01*
X26990Y2599D01*
G37*
G36*
X28576Y2727D02*
X27765Y2825D01*
X28654Y2687D01*
X28576Y2727D01*
G37*
G36*
X28514Y2789D02*
X27765Y2825D01*
X28576Y2727D01*
X28514Y2789D01*
G37*
G36*
X28475Y2867D02*
X27765Y2825D01*
X28514Y2789D01*
X28475Y2867D01*
G37*
G36*
X28461Y2953D02*
X27765Y2825D01*
X28475Y2867D01*
X28461Y2953D01*
G37*
G36*
X28461Y2953D02*
X27794Y3135D01*
X27765Y2825D01*
X28461Y2953D01*
G37*
G36*
X27794Y3135D02*
X27765Y3098D01*
X27765Y2825D01*
X27794Y3135D01*
G37*
G36*
X28461Y2953D02*
X27817Y3190D01*
X27794Y3135D01*
X28461Y2953D01*
G37*
G36*
X28475Y3039D02*
X27817Y3190D01*
X28461Y2953D01*
X28475Y3039D01*
G37*
G36*
X27824Y3248D02*
X27817Y3190D01*
X28475Y3039D01*
X27824Y3248D01*
G37*
G36*
X28514Y3117D02*
X27824Y3248D01*
X28475Y3039D01*
X28514Y3117D01*
G37*
G36*
X28514Y3117D02*
X28003Y3727D01*
X27824Y3248D01*
X28514Y3117D01*
G37*
G36*
X27824Y3248D02*
X28003Y3727D01*
X27824Y3548D01*
X27824Y3248D01*
G37*
G36*
X28003Y3727D02*
X28514Y3117D01*
X28576Y3178D01*
X28003Y3727D01*
G37*
G36*
X28576Y3727D02*
X28003Y3727D01*
X28576Y3178D01*
X28576Y3727D01*
G37*
G36*
X28576Y3727D02*
X28576Y3178D01*
X28654Y3218D01*
X28576Y3727D01*
G37*
G36*
X28654Y3218D02*
X28654Y3687D01*
X28576Y3727D01*
X28654Y3218D01*
G37*
G36*
X28654Y3687D02*
X28654Y3218D01*
X28740Y3674D01*
X28654Y3687D01*
G37*
G36*
X28654Y3218D02*
X28740Y3232D01*
X28740Y3674D01*
X28654Y3218D01*
G37*
G36*
X28740Y3674D02*
X28740Y3232D01*
X28826Y3218D01*
X28740Y3674D01*
G37*
G36*
X28740Y3674D02*
X28826Y3218D01*
X28826Y3687D01*
X28740Y3674D01*
G37*
G36*
X28826Y3687D02*
X28826Y3218D01*
X28904Y3178D01*
X28826Y3687D01*
G37*
G36*
X28826Y3687D02*
X28904Y3178D01*
X28904Y3727D01*
X28826Y3687D01*
G37*
G36*
X28966Y3789D02*
X28904Y3727D01*
X28904Y3178D01*
X28966Y3789D01*
G37*
G36*
X28966Y3789D02*
X28904Y3178D01*
X28966Y3117D01*
X28966Y3789D01*
G37*
G36*
X29005Y3867D02*
X28966Y3789D01*
X28966Y3117D01*
X29005Y3867D01*
G37*
G36*
X29005Y3867D02*
X28966Y3117D01*
X29005Y3039D01*
X29005Y3867D01*
G37*
G36*
X30709Y2362D02*
X29005Y3867D01*
X29005Y3039D01*
X30709Y2362D01*
G37*
G36*
X29019Y2953D02*
X30709Y2362D01*
X29005Y3039D01*
X29019Y2953D01*
G37*
G36*
X29019Y2953D02*
X29005Y2867D01*
X30709Y2362D01*
X29019Y2953D01*
G37*
G36*
X30709Y2362D02*
X29005Y2867D01*
X29921Y1575D01*
X30709Y2362D01*
G37*
G36*
X29921Y1575D02*
X29005Y2867D01*
X28966Y2789D01*
X29921Y1575D01*
G37*
G36*
X29921Y1575D02*
X28966Y2789D01*
X28904Y2727D01*
X29921Y1575D01*
G37*
G36*
X28904Y2727D02*
X28826Y2687D01*
X29921Y1575D01*
X28904Y2727D01*
G37*
G36*
X28826Y2687D02*
X28740Y2674D01*
X29921Y1575D01*
X28826Y2687D01*
G37*
G36*
X29921Y1575D02*
X28740Y2674D01*
X26538Y2104D01*
X29921Y1575D01*
G37*
G36*
X28740Y2674D02*
X26932Y2498D01*
X26538Y2104D01*
X28740Y2674D01*
G37*
G36*
X28740Y2674D02*
X26967Y2545D01*
X26932Y2498D01*
X28740Y2674D01*
G37*
G36*
X28740Y2674D02*
X26990Y2599D01*
X26967Y2545D01*
X28740Y2674D01*
G37*
G36*
X28740Y2674D02*
X28654Y2687D01*
X26990Y2599D01*
X28740Y2674D01*
G37*
G36*
X26538Y2104D02*
X26491Y2068D01*
X29921Y1575D01*
X26538Y2104D01*
G37*
G36*
X26491Y2068D02*
X26437Y2046D01*
X29921Y1575D01*
X26491Y2068D01*
G37*
G36*
X29921Y1575D02*
X26437Y2046D01*
X30709Y787D01*
X29921Y1575D01*
G37*
G36*
X30709Y787D02*
X26437Y2046D01*
X26378Y2038D01*
X30709Y787D01*
G37*
G36*
X26378Y2038D02*
X26320Y2046D01*
X30709Y787D01*
X26378Y2038D01*
G37*
G36*
X30709Y787D02*
X26320Y2046D01*
X21279Y2046D01*
X30709Y787D01*
G37*
G36*
X21334Y2068D02*
X21279Y2046D01*
X26320Y2046D01*
X21334Y2068D01*
G37*
G36*
X26265Y2068D02*
X21334Y2068D01*
X26320Y2046D01*
X26265Y2068D01*
G37*
G36*
X21221Y2038D02*
X30709Y787D01*
X21279Y2046D01*
X21221Y2038D01*
G37*
G36*
X30709Y787D02*
X21221Y2038D01*
X15610Y2038D01*
X30709Y787D01*
G37*
G36*
X15669Y2046D02*
X15610Y2038D01*
X21221Y2038D01*
X15669Y2046D01*
G37*
G36*
X21162Y2046D02*
X15669Y2046D01*
X21221Y2038D01*
X21162Y2046D01*
G37*
G36*
X15723Y2068D02*
X15669Y2046D01*
X21162Y2046D01*
X15723Y2068D01*
G37*
G36*
X21108Y2068D02*
X15723Y2068D01*
X21162Y2046D01*
X21108Y2068D01*
G37*
G36*
X29019Y3953D02*
X29005Y3867D01*
X30709Y2362D01*
X29019Y3953D01*
G37*
G36*
X29019Y3953D02*
X30709Y2362D01*
X29005Y4039D01*
X29019Y3953D01*
G37*
G36*
X30709Y2362D02*
X29005Y4867D01*
X29005Y4039D01*
X30709Y2362D01*
G37*
G36*
X29005Y4867D02*
X28966Y4117D01*
X29005Y4039D01*
X29005Y4867D01*
G37*
G36*
X29005Y4867D02*
X28966Y4789D01*
X28966Y4117D01*
X29005Y4867D01*
G37*
G36*
X28966Y4789D02*
X28904Y4178D01*
X28966Y4117D01*
X28966Y4789D01*
G37*
G36*
X28966Y4789D02*
X28904Y4727D01*
X28904Y4178D01*
X28966Y4789D01*
G37*
G36*
X28826Y4687D02*
X28904Y4178D01*
X28904Y4727D01*
X28826Y4687D01*
G37*
G36*
X28826Y4687D02*
X28826Y4218D01*
X28904Y4178D01*
X28826Y4687D01*
G37*
G36*
X28740Y4674D02*
X28826Y4218D01*
X28826Y4687D01*
X28740Y4674D01*
G37*
G36*
X28740Y4674D02*
X28740Y4232D01*
X28826Y4218D01*
X28740Y4674D01*
G37*
G36*
X28654Y4218D02*
X28740Y4232D01*
X28740Y4674D01*
X28654Y4218D01*
G37*
G36*
X28654Y4687D02*
X28654Y4218D01*
X28740Y4674D01*
X28654Y4687D01*
G37*
G36*
X28654Y4687D02*
X28576Y4727D01*
X28654Y4218D01*
X28654Y4687D01*
G37*
G36*
X28576Y4727D02*
X28576Y4179D01*
X28654Y4218D01*
X28576Y4727D01*
G37*
G36*
X27910Y4179D02*
X28576Y4179D01*
X28576Y4727D01*
X27910Y4179D01*
G37*
G36*
X27863Y4727D02*
X27910Y4179D01*
X28576Y4727D01*
X27863Y4727D01*
G37*
G36*
X27863Y4727D02*
X27851Y4171D01*
X27910Y4179D01*
X27863Y4727D01*
G37*
G36*
X27804Y4735D02*
X27851Y4171D01*
X27863Y4727D01*
X27804Y4735D01*
G37*
G36*
X27804Y4735D02*
X27797Y4148D01*
X27851Y4171D01*
X27804Y4735D01*
G37*
G36*
X27750Y4757D02*
X27797Y4148D01*
X27804Y4735D01*
X27750Y4757D01*
G37*
G36*
X27750Y4757D02*
X27750Y4112D01*
X27797Y4148D01*
X27750Y4757D01*
G37*
G36*
X27750Y4757D02*
X27703Y4793D01*
X27750Y4112D01*
X27750Y4757D01*
G37*
G36*
X27750Y4112D02*
X27703Y4793D01*
X27439Y3802D01*
X27750Y4112D01*
G37*
G36*
X27439Y5057D02*
X27439Y3802D01*
X27703Y4793D01*
X27439Y5057D01*
G37*
G36*
X29019Y4953D02*
X29005Y4867D01*
X30709Y2362D01*
X29019Y4953D01*
G37*
G36*
X30709Y2362D02*
X29340Y6979D01*
X29019Y4953D01*
X30709Y2362D01*
G37*
G36*
X29340Y6979D02*
X29019Y5953D01*
X29019Y4953D01*
X29340Y6979D01*
G37*
G36*
X29005Y5867D02*
X29019Y4953D01*
X29019Y5953D01*
X29005Y5867D01*
G37*
G36*
X29005Y5867D02*
X29005Y5039D01*
X29019Y4953D01*
X29005Y5867D01*
G37*
G36*
X29005Y5867D02*
X28966Y5117D01*
X29005Y5039D01*
X29005Y5867D01*
G37*
G36*
X29005Y5867D02*
X28966Y5789D01*
X28966Y5117D01*
X29005Y5867D01*
G37*
G36*
X28966Y5789D02*
X28904Y5178D01*
X28966Y5117D01*
X28966Y5789D01*
G37*
G36*
X28966Y5789D02*
X28904Y5727D01*
X28904Y5178D01*
X28966Y5789D01*
G37*
G36*
X28826Y5687D02*
X28904Y5178D01*
X28904Y5727D01*
X28826Y5687D01*
G37*
G36*
X28826Y5687D02*
X28826Y5218D01*
X28904Y5178D01*
X28826Y5687D01*
G37*
G36*
X28740Y5674D02*
X28826Y5218D01*
X28826Y5687D01*
X28740Y5674D01*
G37*
G36*
X28740Y5674D02*
X28740Y5232D01*
X28826Y5218D01*
X28740Y5674D01*
G37*
G36*
X28654Y5218D02*
X28740Y5232D01*
X28740Y5674D01*
X28654Y5218D01*
G37*
G36*
X28654Y5687D02*
X28654Y5218D01*
X28740Y5674D01*
X28654Y5687D01*
G37*
G36*
X28576Y5179D02*
X28654Y5218D01*
X28654Y5687D01*
X28576Y5179D01*
G37*
G36*
X28576Y5727D02*
X28576Y5179D01*
X28654Y5687D01*
X28576Y5727D01*
G37*
G36*
X28576Y5727D02*
X27956Y5179D01*
X28576Y5179D01*
X28576Y5727D01*
G37*
G36*
X27956Y5179D02*
X28576Y5727D01*
X28514Y5789D01*
X27956Y5179D01*
G37*
G36*
X28514Y5789D02*
X27824Y5610D01*
X27956Y5179D01*
X28514Y5789D01*
G37*
G36*
X27824Y5610D02*
X27824Y5310D01*
X27956Y5179D01*
X27824Y5610D01*
G37*
G36*
X28514Y5789D02*
X28475Y5867D01*
X27824Y5610D01*
X28514Y5789D01*
G37*
G36*
X27824Y5610D02*
X28475Y5867D01*
X27817Y5669D01*
X27824Y5610D01*
G37*
G36*
X28475Y5867D02*
X27794Y5723D01*
X27817Y5669D01*
X28475Y5867D01*
G37*
G36*
X28461Y5953D02*
X27794Y5723D01*
X28475Y5867D01*
X28461Y5953D01*
G37*
G36*
X27765Y6033D02*
X27794Y5723D01*
X28461Y5953D01*
X27765Y6033D01*
G37*
G36*
X28475Y6039D02*
X27765Y6033D01*
X28461Y5953D01*
X28475Y6039D01*
G37*
G36*
X28514Y6117D02*
X27765Y6033D01*
X28475Y6039D01*
X28514Y6117D01*
G37*
G36*
X27765Y6033D02*
X28514Y6117D01*
X28159Y6979D01*
X27765Y6033D01*
G37*
G36*
X28180Y6979D02*
X28159Y6979D01*
X28514Y6117D01*
X28180Y6979D01*
G37*
G36*
X28576Y6178D02*
X28180Y6979D01*
X28514Y6117D01*
X28576Y6178D01*
G37*
G36*
X28654Y6218D02*
X28180Y6979D01*
X28576Y6178D01*
X28654Y6218D01*
G37*
G36*
X28671Y6979D02*
X28180Y6979D01*
X28654Y6218D01*
X28671Y6979D01*
G37*
G36*
X28740Y6232D02*
X28671Y6979D01*
X28654Y6218D01*
X28740Y6232D01*
G37*
G36*
X28671Y6979D02*
X28740Y6232D01*
X28849Y6979D01*
X28671Y6979D01*
G37*
G36*
X28740Y6232D02*
X28826Y6218D01*
X28849Y6979D01*
X28740Y6232D01*
G37*
G36*
X28849Y6979D02*
X28826Y6218D01*
X28904Y6178D01*
X28849Y6979D01*
G37*
G36*
X28849Y6979D02*
X28904Y6178D01*
X29340Y6979D01*
X28849Y6979D01*
G37*
G36*
X28904Y6178D02*
X28966Y6117D01*
X29340Y6979D01*
X28904Y6178D01*
G37*
G36*
X28966Y6117D02*
X29005Y6039D01*
X29340Y6979D01*
X28966Y6117D01*
G37*
G36*
X29005Y6039D02*
X29019Y5953D01*
X29340Y6979D01*
X29005Y6039D01*
G37*
G36*
X28671Y7014D02*
X28671Y6979D01*
X28849Y6979D01*
X28671Y7014D01*
G37*
G36*
X28671Y7014D02*
X28849Y6979D01*
X28849Y7014D01*
X28671Y7014D01*
G37*
G36*
X28180Y7205D02*
X28159Y6979D01*
X28180Y6979D01*
X28180Y7205D01*
G37*
G36*
X28180Y7205D02*
X28159Y7205D01*
X28159Y6979D01*
X28180Y7205D01*
G37*
G36*
X27668Y6979D02*
X27765Y6033D01*
X28159Y6979D01*
X27668Y6979D01*
G37*
G36*
X27765Y6033D02*
X27668Y6979D01*
X27432Y6033D01*
X27765Y6033D01*
G37*
G36*
X27668Y6979D02*
X27490Y6979D01*
X27432Y6033D01*
X27668Y6979D01*
G37*
G36*
X27490Y6979D02*
X26949Y6597D01*
X27432Y6033D01*
X27490Y6979D01*
G37*
G36*
X27432Y6033D02*
X26949Y6597D01*
X26958Y5612D01*
X27432Y6033D01*
G37*
G36*
X27432Y6033D02*
X26958Y5612D01*
X27403Y5723D01*
X27432Y6033D01*
G37*
G36*
X27403Y5723D02*
X26958Y5612D01*
X27380Y5669D01*
X27403Y5723D01*
G37*
G36*
X26958Y5612D02*
X27373Y5610D01*
X27380Y5669D01*
X26958Y5612D01*
G37*
G36*
X26958Y5612D02*
X26951Y5554D01*
X27373Y5610D01*
X26958Y5612D01*
G37*
G36*
X27373Y5610D02*
X26951Y5554D01*
X26929Y5499D01*
X27373Y5610D01*
G37*
G36*
X27373Y5610D02*
X26929Y5499D01*
X27373Y5217D01*
X27373Y5610D01*
G37*
G36*
X27373Y5217D02*
X26929Y5499D01*
X26899Y5188D01*
X27373Y5217D01*
G37*
G36*
X26929Y5499D02*
X26899Y5460D01*
X26899Y5188D01*
X26929Y5499D01*
G37*
G36*
X27373Y5217D02*
X26899Y5188D01*
X27380Y5158D01*
X27373Y5217D01*
G37*
G36*
X27380Y5158D02*
X26899Y5188D01*
X27403Y5104D01*
X27380Y5158D01*
G37*
G36*
X27403Y5104D02*
X26899Y5188D01*
X26566Y5188D01*
X27403Y5104D01*
G37*
G36*
X26566Y5188D02*
X27439Y5057D01*
X27403Y5104D01*
X26566Y5188D01*
G37*
G36*
X27403Y5723D02*
X27432Y5761D01*
X27432Y6033D01*
X27403Y5723D01*
G37*
G36*
X26949Y6597D02*
X27490Y6979D01*
X26945Y6625D01*
X26949Y6597D01*
G37*
G36*
X27490Y6979D02*
X26941Y6653D01*
X26945Y6625D01*
X27490Y6979D01*
G37*
G36*
X27490Y6979D02*
X26941Y6655D01*
X26941Y6653D01*
X27490Y6979D01*
G37*
G36*
X26941Y6655D02*
X26941Y6654D01*
X26941Y6653D01*
X26941Y6655D01*
G37*
G36*
X27490Y6979D02*
X26999Y6979D01*
X26941Y6655D01*
X27490Y6979D01*
G37*
G36*
X26930Y6681D02*
X26941Y6655D01*
X26999Y6979D01*
X26930Y6681D01*
G37*
G36*
X26919Y6708D02*
X26930Y6681D01*
X26999Y6979D01*
X26919Y6708D01*
G37*
G36*
X26999Y6979D02*
X26918Y6709D01*
X26919Y6708D01*
X26999Y6979D01*
G37*
G36*
X26918Y6709D02*
X26918Y6708D01*
X26919Y6708D01*
X26918Y6709D01*
G37*
G36*
X26900Y6732D02*
X26918Y6709D01*
X26999Y6979D01*
X26900Y6732D01*
G37*
G36*
X26883Y6754D02*
X26900Y6732D01*
X26999Y6979D01*
X26883Y6754D01*
G37*
G36*
X26999Y6979D02*
X26881Y6756D01*
X26883Y6754D01*
X26999Y6979D01*
G37*
G36*
X26881Y6756D02*
X26882Y6755D01*
X26883Y6754D01*
X26881Y6756D01*
G37*
G36*
X26859Y6773D02*
X26881Y6756D01*
X26999Y6979D01*
X26859Y6773D01*
G37*
G36*
X26836Y6790D02*
X26859Y6773D01*
X26999Y6979D01*
X26836Y6790D01*
G37*
G36*
X26836Y6790D02*
X26999Y6979D01*
X26834Y6791D01*
X26836Y6790D01*
G37*
G36*
X26999Y6979D02*
X26808Y6802D01*
X26834Y6791D01*
X26999Y6979D01*
G37*
G36*
X26999Y6979D02*
X26782Y6813D01*
X26808Y6802D01*
X26999Y6979D01*
G37*
G36*
X26782Y6813D02*
X26999Y6979D01*
X26780Y6813D01*
X26782Y6813D01*
G37*
G36*
X26999Y6979D02*
X26751Y6817D01*
X26780Y6813D01*
X26999Y6979D01*
G37*
G36*
X26999Y6979D02*
X26723Y6821D01*
X26751Y6817D01*
X26999Y6979D01*
G37*
G36*
X26999Y7213D02*
X26723Y6821D01*
X26999Y6979D01*
X26999Y7213D01*
G37*
G36*
X26999Y7213D02*
X26721Y6821D01*
X26723Y6821D01*
X26999Y7213D01*
G37*
G36*
X26721Y6821D02*
X26722Y6820D01*
X26723Y6821D01*
X26721Y6821D01*
G37*
G36*
X26378Y7057D02*
X26721Y6821D01*
X26999Y7213D01*
X26378Y7057D01*
G37*
G36*
X26240Y7213D02*
X26378Y7057D01*
X26999Y7213D01*
X26240Y7213D01*
G37*
G36*
X26240Y7213D02*
X26084Y7057D01*
X26378Y7057D01*
X26240Y7213D01*
G37*
G36*
X26220Y7216D02*
X26084Y7057D01*
X26240Y7213D01*
X26220Y7216D01*
G37*
G36*
X26200Y7224D02*
X26084Y7057D01*
X26220Y7216D01*
X26200Y7224D01*
G37*
G36*
X26184Y7237D02*
X26084Y7057D01*
X26200Y7224D01*
X26184Y7237D01*
G37*
G36*
X26184Y7237D02*
X25910Y7511D01*
X26084Y7057D01*
X26184Y7237D01*
G37*
G36*
X26084Y7057D02*
X25910Y7511D01*
X25710Y7511D01*
X26084Y7057D01*
G37*
G36*
X26084Y7057D02*
X25710Y7511D01*
X25502Y7205D01*
X26084Y7057D01*
G37*
G36*
X25710Y7511D02*
X25502Y7383D01*
X25502Y7205D01*
X25710Y7511D01*
G37*
G36*
X25502Y7383D02*
X25467Y7205D01*
X25502Y7205D01*
X25502Y7383D01*
G37*
G36*
X25502Y7383D02*
X25467Y7383D01*
X25467Y7205D01*
X25502Y7383D01*
G37*
G36*
X25502Y7383D02*
X25710Y7511D01*
X25710Y7711D01*
X25502Y7383D01*
G37*
G36*
X25710Y7711D02*
X25502Y7874D01*
X25502Y7383D01*
X25710Y7711D01*
G37*
G36*
X25413Y8007D02*
X25502Y7874D01*
X25710Y7711D01*
X25413Y8007D01*
G37*
G36*
X25413Y8007D02*
X24894Y7874D01*
X25502Y7874D01*
X25413Y8007D01*
G37*
G36*
X23691Y8007D02*
X24894Y7874D01*
X25413Y8007D01*
X23691Y8007D01*
G37*
G36*
X23691Y8007D02*
X23828Y7587D01*
X24894Y7874D01*
X23691Y8007D01*
G37*
G36*
X23828Y7587D02*
X24894Y7383D01*
X24894Y7874D01*
X23828Y7587D01*
G37*
G36*
X24894Y7205D02*
X24894Y7383D01*
X23828Y7587D01*
X24894Y7205D01*
G37*
G36*
X24894Y7205D02*
X23828Y7587D01*
X23828Y6979D01*
X24894Y7205D01*
G37*
G36*
X24894Y7205D02*
X23828Y6979D01*
X24440Y6033D01*
X24894Y7205D01*
G37*
G36*
X23828Y6979D02*
X23454Y6117D01*
X24440Y6033D01*
X23828Y6979D01*
G37*
G36*
X24440Y6033D02*
X23454Y6117D01*
X23494Y6039D01*
X24440Y6033D01*
G37*
G36*
X24440Y6033D02*
X23494Y6039D01*
X23507Y5953D01*
X24440Y6033D01*
G37*
G36*
X24440Y6033D02*
X23507Y5953D01*
X23494Y5867D01*
X24440Y6033D01*
G37*
G36*
X24440Y6033D02*
X23494Y5867D01*
X24440Y5188D01*
X24440Y6033D01*
G37*
G36*
X23494Y5867D02*
X23454Y5789D01*
X24440Y5188D01*
X23494Y5867D01*
G37*
G36*
X24440Y5188D02*
X23454Y5789D01*
X23454Y5117D01*
X24440Y5188D01*
G37*
G36*
X23454Y5789D02*
X23392Y5178D01*
X23454Y5117D01*
X23454Y5789D01*
G37*
G36*
X23454Y5789D02*
X23392Y5727D01*
X23392Y5178D01*
X23454Y5789D01*
G37*
G36*
X23315Y5687D02*
X23392Y5178D01*
X23392Y5727D01*
X23315Y5687D01*
G37*
G36*
X23315Y5687D02*
X23315Y5218D01*
X23392Y5178D01*
X23315Y5687D01*
G37*
G36*
X23228Y5674D02*
X23315Y5218D01*
X23315Y5687D01*
X23228Y5674D01*
G37*
G36*
X23228Y5674D02*
X23228Y5232D01*
X23315Y5218D01*
X23228Y5674D01*
G37*
G36*
X23142Y5218D02*
X23228Y5232D01*
X23228Y5674D01*
X23142Y5218D01*
G37*
G36*
X23142Y5687D02*
X23142Y5218D01*
X23228Y5674D01*
X23142Y5687D01*
G37*
G36*
X23065Y5179D02*
X23142Y5218D01*
X23142Y5687D01*
X23065Y5179D01*
G37*
G36*
X23064Y5727D02*
X23065Y5179D01*
X23142Y5687D01*
X23064Y5727D01*
G37*
G36*
X23064Y5727D02*
X22444Y5179D01*
X23065Y5179D01*
X23064Y5727D01*
G37*
G36*
X22444Y5179D02*
X23064Y5727D01*
X23003Y5789D01*
X22444Y5179D01*
G37*
G36*
X23003Y5789D02*
X22313Y5610D01*
X22444Y5179D01*
X23003Y5789D01*
G37*
G36*
X22313Y5610D02*
X22313Y5310D01*
X22444Y5179D01*
X22313Y5610D01*
G37*
G36*
X23003Y5789D02*
X22963Y5867D01*
X22313Y5610D01*
X23003Y5789D01*
G37*
G36*
X22313Y5610D02*
X22963Y5867D01*
X22305Y5669D01*
X22313Y5610D01*
G37*
G36*
X22963Y5867D02*
X22282Y5723D01*
X22305Y5669D01*
X22963Y5867D01*
G37*
G36*
X22949Y5953D02*
X22282Y5723D01*
X22963Y5867D01*
X22949Y5953D01*
G37*
G36*
X22254Y6033D02*
X22282Y5723D01*
X22949Y5953D01*
X22254Y6033D01*
G37*
G36*
X22963Y6039D02*
X22254Y6033D01*
X22949Y5953D01*
X22963Y6039D01*
G37*
G36*
X23003Y6117D02*
X22254Y6033D01*
X22963Y6039D01*
X23003Y6117D01*
G37*
G36*
X22254Y6033D02*
X23003Y6117D01*
X22647Y6979D01*
X22254Y6033D01*
G37*
G36*
X22668Y6979D02*
X22647Y6979D01*
X23003Y6117D01*
X22668Y6979D01*
G37*
G36*
X23064Y6178D02*
X22668Y6979D01*
X23003Y6117D01*
X23064Y6178D01*
G37*
G36*
X23142Y6218D02*
X22668Y6979D01*
X23064Y6178D01*
X23142Y6218D01*
G37*
G36*
X23159Y6979D02*
X22668Y6979D01*
X23142Y6218D01*
X23159Y6979D01*
G37*
G36*
X23228Y6232D02*
X23159Y6979D01*
X23142Y6218D01*
X23228Y6232D01*
G37*
G36*
X23159Y6979D02*
X23228Y6232D01*
X23337Y6979D01*
X23159Y6979D01*
G37*
G36*
X23228Y6232D02*
X23315Y6218D01*
X23337Y6979D01*
X23228Y6232D01*
G37*
G36*
X23337Y6979D02*
X23315Y6218D01*
X23392Y6178D01*
X23337Y6979D01*
G37*
G36*
X23337Y6979D02*
X23392Y6178D01*
X23828Y6979D01*
X23337Y6979D01*
G37*
G36*
X23392Y6178D02*
X23454Y6117D01*
X23828Y6979D01*
X23392Y6178D01*
G37*
G36*
X23159Y7014D02*
X23159Y6979D01*
X23337Y6979D01*
X23159Y7014D01*
G37*
G36*
X23159Y7014D02*
X23337Y6979D01*
X23337Y7014D01*
X23159Y7014D01*
G37*
G36*
X22668Y7205D02*
X22647Y6979D01*
X22668Y6979D01*
X22668Y7205D01*
G37*
G36*
X22668Y7205D02*
X22647Y7205D01*
X22647Y6979D01*
X22668Y7205D01*
G37*
G36*
X22156Y6979D02*
X22254Y6033D01*
X22647Y6979D01*
X22156Y6979D01*
G37*
G36*
X22254Y6033D02*
X22156Y6979D01*
X21920Y6033D01*
X22254Y6033D01*
G37*
G36*
X22156Y6979D02*
X21978Y6979D01*
X21920Y6033D01*
X22156Y6979D01*
G37*
G36*
X21978Y7014D02*
X21978Y6979D01*
X22156Y6979D01*
X21978Y7014D01*
G37*
G36*
X21978Y7014D02*
X22156Y6979D01*
X22156Y7014D01*
X21978Y7014D01*
G37*
G36*
X22254Y6033D02*
X22254Y5761D01*
X22282Y5723D01*
X22254Y6033D01*
G37*
G36*
X24440Y5188D02*
X23454Y5117D01*
X23494Y5039D01*
X24440Y5188D01*
G37*
G36*
X23494Y5039D02*
X23507Y4953D01*
X24440Y5188D01*
X23494Y5039D01*
G37*
G36*
X24440Y5188D02*
X23507Y4953D01*
X23494Y4867D01*
X24440Y5188D01*
G37*
G36*
X24440Y5188D02*
X23494Y4867D01*
X24440Y3671D01*
X24440Y5188D01*
G37*
G36*
X24440Y3671D02*
X23494Y4867D01*
X23454Y4789D01*
X24440Y3671D01*
G37*
G36*
X23454Y4117D02*
X24440Y3671D01*
X23454Y4789D01*
X23454Y4117D01*
G37*
G36*
X23454Y4789D02*
X23392Y4178D01*
X23454Y4117D01*
X23454Y4789D01*
G37*
G36*
X23454Y4789D02*
X23392Y4727D01*
X23392Y4178D01*
X23454Y4789D01*
G37*
G36*
X23315Y4687D02*
X23392Y4178D01*
X23392Y4727D01*
X23315Y4687D01*
G37*
G36*
X23315Y4687D02*
X23315Y4218D01*
X23392Y4178D01*
X23315Y4687D01*
G37*
G36*
X23228Y4674D02*
X23315Y4218D01*
X23315Y4687D01*
X23228Y4674D01*
G37*
G36*
X23228Y4674D02*
X23228Y4232D01*
X23315Y4218D01*
X23228Y4674D01*
G37*
G36*
X23142Y4218D02*
X23228Y4232D01*
X23228Y4674D01*
X23142Y4218D01*
G37*
G36*
X23142Y4687D02*
X23142Y4218D01*
X23228Y4674D01*
X23142Y4687D01*
G37*
G36*
X23142Y4687D02*
X23065Y4727D01*
X23142Y4218D01*
X23142Y4687D01*
G37*
G36*
X23065Y4727D02*
X23065Y4179D01*
X23142Y4218D01*
X23065Y4727D01*
G37*
G36*
X22398Y4179D02*
X23065Y4179D01*
X23065Y4727D01*
X22398Y4179D01*
G37*
G36*
X22351Y4727D02*
X22398Y4179D01*
X23065Y4727D01*
X22351Y4727D01*
G37*
G36*
X22351Y4727D02*
X22339Y4171D01*
X22398Y4179D01*
X22351Y4727D01*
G37*
G36*
X22292Y4735D02*
X22339Y4171D01*
X22351Y4727D01*
X22292Y4735D01*
G37*
G36*
X22292Y4735D02*
X22285Y4148D01*
X22339Y4171D01*
X22292Y4735D01*
G37*
G36*
X22238Y4757D02*
X22285Y4148D01*
X22292Y4735D01*
X22238Y4757D01*
G37*
G36*
X22238Y4757D02*
X22238Y4112D01*
X22285Y4148D01*
X22238Y4757D01*
G37*
G36*
X22238Y4757D02*
X22191Y4793D01*
X22238Y4112D01*
X22238Y4757D01*
G37*
G36*
X22238Y4112D02*
X22191Y4793D01*
X21927Y3802D01*
X22238Y4112D01*
G37*
G36*
X21927Y5057D02*
X21927Y3802D01*
X22191Y4793D01*
X21927Y5057D01*
G37*
G36*
X23494Y4039D02*
X24440Y3671D01*
X23454Y4117D01*
X23494Y4039D01*
G37*
G36*
X23507Y3953D02*
X24440Y3671D01*
X23494Y4039D01*
X23507Y3953D01*
G37*
G36*
X23507Y3953D02*
X23494Y3867D01*
X24440Y3671D01*
X23507Y3953D01*
G37*
G36*
X23494Y3867D02*
X23454Y3789D01*
X24440Y3671D01*
X23494Y3867D01*
G37*
G36*
X24440Y3671D02*
X23454Y3789D01*
X23454Y3117D01*
X24440Y3671D01*
G37*
G36*
X23454Y3117D02*
X23454Y3789D01*
X23392Y3178D01*
X23454Y3117D01*
G37*
G36*
X23454Y3789D02*
X23392Y3727D01*
X23392Y3178D01*
X23454Y3789D01*
G37*
G36*
X23315Y3687D02*
X23392Y3178D01*
X23392Y3727D01*
X23315Y3687D01*
G37*
G36*
X23315Y3687D02*
X23315Y3218D01*
X23392Y3178D01*
X23315Y3687D01*
G37*
G36*
X23228Y3674D02*
X23315Y3218D01*
X23315Y3687D01*
X23228Y3674D01*
G37*
G36*
X23228Y3674D02*
X23228Y3232D01*
X23315Y3218D01*
X23228Y3674D01*
G37*
G36*
X23142Y3218D02*
X23228Y3232D01*
X23228Y3674D01*
X23142Y3218D01*
G37*
G36*
X23142Y3687D02*
X23142Y3218D01*
X23228Y3674D01*
X23142Y3687D01*
G37*
G36*
X23142Y3218D02*
X23142Y3687D01*
X23065Y3727D01*
X23142Y3218D01*
G37*
G36*
X23065Y3727D02*
X23064Y3178D01*
X23142Y3218D01*
X23065Y3727D01*
G37*
G36*
X23065Y3727D02*
X22491Y3727D01*
X23064Y3178D01*
X23065Y3727D01*
G37*
G36*
X22491Y3727D02*
X23003Y3117D01*
X23064Y3178D01*
X22491Y3727D01*
G37*
G36*
X23003Y3117D02*
X22491Y3727D01*
X22313Y3248D01*
X23003Y3117D01*
G37*
G36*
X22313Y3248D02*
X22491Y3727D01*
X22313Y3548D01*
X22313Y3248D01*
G37*
G36*
X23003Y3117D02*
X22313Y3248D01*
X22963Y3039D01*
X23003Y3117D01*
G37*
G36*
X22313Y3248D02*
X22305Y3190D01*
X22963Y3039D01*
X22313Y3248D01*
G37*
G36*
X22963Y3039D02*
X22305Y3190D01*
X22949Y2953D01*
X22963Y3039D01*
G37*
G36*
X22949Y2953D02*
X22305Y3190D01*
X22282Y3135D01*
X22949Y2953D01*
G37*
G36*
X22949Y2953D02*
X22282Y3135D01*
X22254Y2825D01*
X22949Y2953D01*
G37*
G36*
X22282Y3135D02*
X22254Y3098D01*
X22254Y2825D01*
X22282Y3135D01*
G37*
G36*
X22949Y2953D02*
X22254Y2825D01*
X22963Y2867D01*
X22949Y2953D01*
G37*
G36*
X22963Y2867D02*
X22254Y2825D01*
X23003Y2789D01*
X22963Y2867D01*
G37*
G36*
X23003Y2789D02*
X22254Y2825D01*
X23064Y2727D01*
X23003Y2789D01*
G37*
G36*
X23454Y3117D02*
X23494Y3039D01*
X24440Y3671D01*
X23454Y3117D01*
G37*
G36*
X24440Y3671D02*
X23494Y3039D01*
X24440Y2825D01*
X24440Y3671D01*
G37*
G36*
X23494Y3039D02*
X23507Y2953D01*
X24440Y2825D01*
X23494Y3039D01*
G37*
G36*
X23507Y2953D02*
X23494Y2867D01*
X24440Y2825D01*
X23507Y2953D01*
G37*
G36*
X23494Y2867D02*
X23454Y2789D01*
X24440Y2825D01*
X23494Y2867D01*
G37*
G36*
X23392Y2727D02*
X24440Y2825D01*
X23454Y2789D01*
X23392Y2727D01*
G37*
G36*
X23315Y2687D02*
X24440Y2825D01*
X23392Y2727D01*
X23315Y2687D01*
G37*
G36*
X25119Y4068D02*
X24440Y5188D01*
X24440Y3671D01*
X25119Y4068D01*
G37*
G36*
X25119Y4068D02*
X24440Y3671D01*
X24722Y3671D01*
X25119Y4068D01*
G37*
G36*
X24773Y5188D02*
X24440Y5188D01*
X25119Y4068D01*
X24773Y5188D01*
G37*
G36*
X24773Y5188D02*
X25119Y4068D01*
X25119Y6714D01*
X24773Y5188D01*
G37*
G36*
X25119Y6714D02*
X24773Y6033D01*
X24773Y5188D01*
X25119Y6714D01*
G37*
G36*
X25119Y6714D02*
X24894Y6714D01*
X24773Y6033D01*
X25119Y6714D01*
G37*
G36*
X24440Y6033D02*
X24773Y6033D01*
X24894Y6714D01*
X24440Y6033D01*
G37*
G36*
X24894Y7205D02*
X24440Y6033D01*
X24894Y6714D01*
X24894Y7205D01*
G37*
G36*
X24929Y7383D02*
X24894Y7383D01*
X24894Y7205D01*
X24929Y7383D01*
G37*
G36*
X24929Y7383D02*
X24894Y7205D01*
X24929Y7205D01*
X24929Y7383D01*
G37*
G36*
X23691Y8007D02*
X23661Y7874D01*
X23828Y7587D01*
X23691Y8007D01*
G37*
G36*
X23661Y7874D02*
X23661Y7587D01*
X23828Y7587D01*
X23661Y7874D01*
G37*
G36*
X23658Y7894D02*
X23661Y7874D01*
X23691Y8007D01*
X23658Y7894D01*
G37*
G36*
X23650Y7913D02*
X23658Y7894D01*
X23691Y8007D01*
X23650Y7913D01*
G37*
G36*
X23638Y7929D02*
X23650Y7913D01*
X23691Y8007D01*
X23638Y7929D01*
G37*
G36*
X23670Y8010D02*
X23638Y7929D01*
X23691Y8007D01*
X23670Y8010D01*
G37*
G36*
X23651Y8018D02*
X23638Y7929D01*
X23670Y8010D01*
X23651Y8018D01*
G37*
G36*
X23635Y8031D02*
X23638Y7929D01*
X23651Y8018D01*
X23635Y8031D01*
G37*
G36*
X23638Y7929D02*
X23635Y8031D01*
X23461Y8106D01*
X23638Y7929D01*
G37*
G36*
X23635Y8031D02*
X23370Y8296D01*
X23461Y8106D01*
X23635Y8031D01*
G37*
G36*
X23461Y8106D02*
X23370Y8296D01*
X23445Y8119D01*
X23461Y8106D01*
G37*
G36*
X23370Y8296D02*
X23426Y8127D01*
X23445Y8119D01*
X23370Y8296D01*
G37*
G36*
X23370Y8296D02*
X23405Y8129D01*
X23426Y8127D01*
X23370Y8296D01*
G37*
G36*
X23370Y8296D02*
X23238Y8198D01*
X23405Y8129D01*
X23370Y8296D01*
G37*
G36*
X23238Y8198D02*
X23238Y8129D01*
X23405Y8129D01*
X23238Y8198D01*
G37*
G36*
X22904Y8198D02*
X23238Y8198D01*
X23370Y8296D01*
X22904Y8198D01*
G37*
G36*
X22599Y8296D02*
X22904Y8198D01*
X23370Y8296D01*
X22599Y8296D01*
G37*
G36*
X22904Y8198D02*
X22599Y8296D01*
X22904Y7904D01*
X22904Y8198D01*
G37*
G36*
X22904Y7904D02*
X22599Y8296D01*
X22647Y7587D01*
X22904Y7904D01*
G37*
G36*
X22599Y8296D02*
X22156Y7587D01*
X22647Y7587D01*
X22599Y8296D01*
G37*
G36*
X21978Y7587D02*
X22156Y7587D01*
X22599Y8296D01*
X21978Y7587D01*
G37*
G36*
X22599Y8296D02*
X21892Y7589D01*
X21978Y7587D01*
X22599Y8296D01*
G37*
G36*
X21892Y7589D02*
X21893Y7587D01*
X21978Y7587D01*
X21892Y7589D01*
G37*
G36*
X21978Y7587D02*
X22156Y7552D01*
X22156Y7587D01*
X21978Y7587D01*
G37*
G36*
X21978Y7587D02*
X21978Y7552D01*
X22156Y7552D01*
X21978Y7587D01*
G37*
G36*
X22647Y7587D02*
X22668Y7587D01*
X22904Y7904D01*
X22647Y7587D01*
G37*
G36*
X22904Y7904D02*
X22668Y7587D01*
X23159Y7587D01*
X22904Y7904D01*
G37*
G36*
X22904Y7904D02*
X23159Y7587D01*
X23238Y7904D01*
X22904Y7904D01*
G37*
G36*
X23238Y7904D02*
X23159Y7587D01*
X23337Y7587D01*
X23238Y7904D01*
G37*
G36*
X23159Y7587D02*
X23337Y7552D01*
X23337Y7587D01*
X23159Y7587D01*
G37*
G36*
X23159Y7587D02*
X23159Y7552D01*
X23337Y7552D01*
X23159Y7587D01*
G37*
G36*
X23238Y7904D02*
X23337Y7587D01*
X23504Y7842D01*
X23238Y7904D01*
G37*
G36*
X23337Y7587D02*
X23504Y7587D01*
X23504Y7842D01*
X23337Y7587D01*
G37*
G36*
X23504Y7842D02*
X23373Y7973D01*
X23238Y7904D01*
X23504Y7842D01*
G37*
G36*
X23373Y7973D02*
X23238Y7973D01*
X23238Y7904D01*
X23373Y7973D01*
G37*
G36*
X22668Y7587D02*
X22647Y7587D01*
X22647Y7362D01*
X22668Y7587D01*
G37*
G36*
X22668Y7362D02*
X22668Y7587D01*
X22647Y7362D01*
X22668Y7362D01*
G37*
G36*
X26084Y7057D02*
X25502Y7205D01*
X25502Y6968D01*
X26084Y7057D01*
G37*
G36*
X25502Y6968D02*
X26084Y6968D01*
X26084Y7057D01*
X25502Y6968D01*
G37*
G36*
X26378Y7057D02*
X26693Y6817D01*
X26721Y6821D01*
X26378Y7057D01*
G37*
G36*
X26378Y7057D02*
X26665Y6813D01*
X26693Y6817D01*
X26378Y7057D01*
G37*
G36*
X26665Y6813D02*
X26378Y7057D01*
X26663Y6812D01*
X26665Y6813D01*
G37*
G36*
X26378Y7057D02*
X26637Y6801D01*
X26663Y6812D01*
X26378Y7057D01*
G37*
G36*
X26378Y7057D02*
X26610Y6790D01*
X26637Y6801D01*
X26378Y7057D01*
G37*
G36*
X26610Y6790D02*
X26378Y7057D01*
X26608Y6789D01*
X26610Y6790D01*
G37*
G36*
X26378Y7057D02*
X26586Y6772D01*
X26608Y6789D01*
X26378Y7057D01*
G37*
G36*
X26378Y7057D02*
X26564Y6754D01*
X26586Y6772D01*
X26378Y7057D01*
G37*
G36*
X26378Y7057D02*
X26378Y6723D01*
X26564Y6754D01*
X26378Y7057D01*
G37*
G36*
X26562Y6753D02*
X26564Y6754D01*
X26378Y6723D01*
X26562Y6753D01*
G37*
G36*
X26562Y6753D02*
X26378Y6723D01*
X26545Y6730D01*
X26562Y6753D01*
G37*
G36*
X26545Y6730D02*
X26378Y6723D01*
X26528Y6708D01*
X26545Y6730D01*
G37*
G36*
X26527Y6706D02*
X26528Y6708D01*
X26378Y6723D01*
X26527Y6706D01*
G37*
G36*
X26527Y6706D02*
X26378Y6723D01*
X26516Y6679D01*
X26527Y6706D01*
G37*
G36*
X26378Y6723D02*
X26505Y6653D01*
X26516Y6679D01*
X26378Y6723D01*
G37*
G36*
X26505Y6653D02*
X26378Y6723D01*
X26505Y6651D01*
X26505Y6653D01*
G37*
G36*
X26505Y6651D02*
X26378Y6723D01*
X26501Y6623D01*
X26505Y6651D01*
G37*
G36*
X26501Y6623D02*
X26378Y6723D01*
X26497Y6595D01*
X26501Y6623D01*
G37*
G36*
X26497Y6595D02*
X26378Y6723D01*
X26497Y6592D01*
X26497Y6595D01*
G37*
G36*
X26497Y6592D02*
X26378Y6723D01*
X26084Y6723D01*
X26497Y6592D01*
G37*
G36*
X26497Y6592D02*
X26084Y6723D01*
X26033Y6033D01*
X26497Y6592D01*
G37*
G36*
X25700Y6033D02*
X26033Y6033D01*
X26084Y6723D01*
X25700Y6033D01*
G37*
G36*
X26084Y6723D02*
X25502Y6714D01*
X25700Y6033D01*
X26084Y6723D01*
G37*
G36*
X25502Y6714D02*
X25276Y6714D01*
X25700Y6033D01*
X25502Y6714D01*
G37*
G36*
X25700Y6033D02*
X25276Y6714D01*
X25700Y5188D01*
X25700Y6033D01*
G37*
G36*
X25700Y5188D02*
X25276Y6714D01*
X25276Y4036D01*
X25700Y5188D01*
G37*
G36*
X26033Y5188D02*
X25700Y5188D01*
X25276Y4036D01*
X26033Y5188D01*
G37*
G36*
X26084Y6723D02*
X25502Y6812D01*
X25502Y6714D01*
X26084Y6723D01*
G37*
G36*
X25502Y6812D02*
X26084Y6723D01*
X26084Y6812D01*
X25502Y6812D01*
G37*
G36*
X26497Y6592D02*
X26033Y6033D01*
X26507Y5608D01*
X26497Y6592D01*
G37*
G36*
X26507Y5608D02*
X26033Y6033D01*
X26033Y5188D01*
X26507Y5608D01*
G37*
G36*
X26507Y5608D02*
X26033Y5188D01*
X26515Y5550D01*
X26507Y5608D01*
G37*
G36*
X26515Y5550D02*
X26033Y5188D01*
X26538Y5496D01*
X26515Y5550D01*
G37*
G36*
X26538Y5496D02*
X26033Y5188D01*
X26566Y5188D01*
X26538Y5496D01*
G37*
G36*
X26566Y5460D02*
X26538Y5496D01*
X26566Y5188D01*
X26566Y5460D01*
G37*
G36*
X26497Y6595D02*
X26497Y6592D01*
X26498Y6594D01*
X26497Y6595D01*
G37*
G36*
X26505Y6653D02*
X26505Y6651D01*
X26505Y6652D01*
X26505Y6653D01*
G37*
G36*
X26527Y6707D02*
X26528Y6708D01*
X26527Y6706D01*
X26527Y6707D01*
G37*
G36*
X26564Y6754D02*
X26562Y6753D01*
X26563Y6754D01*
X26564Y6754D01*
G37*
G36*
X26608Y6789D02*
X26609Y6790D01*
X26610Y6790D01*
X26608Y6789D01*
G37*
G36*
X26663Y6812D02*
X26664Y6812D01*
X26665Y6813D01*
X26663Y6812D01*
G37*
G36*
X26782Y6813D02*
X26780Y6813D01*
X26781Y6813D01*
X26782Y6813D01*
G37*
G36*
X26834Y6791D02*
X26835Y6791D01*
X26836Y6790D01*
X26834Y6791D01*
G37*
G36*
X27490Y7014D02*
X27490Y6979D01*
X27668Y6979D01*
X27490Y7014D01*
G37*
G36*
X27490Y7014D02*
X27668Y6979D01*
X27668Y7014D01*
X27490Y7014D01*
G37*
G36*
X27765Y6033D02*
X27765Y5761D01*
X27794Y5723D01*
X27765Y6033D01*
G37*
G36*
X29340Y6979D02*
X30709Y2362D01*
X31496Y1575D01*
X29340Y6979D01*
G37*
G36*
X29340Y6979D02*
X31496Y1575D01*
X29537Y8278D01*
X29340Y6979D01*
G37*
G36*
X31496Y1575D02*
X29537Y8572D01*
X29537Y8278D01*
X31496Y1575D01*
G37*
G36*
X31496Y1575D02*
X31496Y15748D01*
X29537Y8572D01*
X31496Y1575D01*
G37*
G36*
X31496Y15748D02*
X30709Y14961D01*
X29537Y8572D01*
X31496Y15748D01*
G37*
G36*
X30709Y14961D02*
X29133Y15157D01*
X29537Y8572D01*
X30709Y14961D01*
G37*
G36*
X29537Y8572D02*
X29133Y15157D01*
X29133Y14666D01*
X29537Y8572D01*
G37*
G36*
X29537Y8572D02*
X29133Y14666D01*
X29035Y14568D01*
X29537Y8572D01*
G37*
G36*
X29537Y8572D02*
X29035Y14568D01*
X28749Y8946D01*
X29537Y8572D01*
G37*
G36*
X29035Y14568D02*
X28159Y9340D01*
X28749Y8946D01*
X29035Y14568D01*
G37*
G36*
X28159Y9340D02*
X28553Y8946D01*
X28749Y8946D01*
X28159Y9340D01*
G37*
G36*
X28145Y9351D02*
X28159Y9340D01*
X29035Y14568D01*
X28145Y9351D01*
G37*
G36*
X28128Y9358D02*
X28145Y9351D01*
X29035Y14568D01*
X28128Y9358D01*
G37*
G36*
X29035Y14568D02*
X27706Y9537D01*
X28128Y9358D01*
X29035Y14568D01*
G37*
G36*
X27706Y9537D02*
X28110Y9360D01*
X28128Y9358D01*
X27706Y9537D01*
G37*
G36*
X27706Y9537D02*
X27706Y9360D01*
X28110Y9360D01*
X27706Y9537D01*
G37*
G36*
X27098Y9537D02*
X27706Y9537D01*
X29035Y14568D01*
X27098Y9537D01*
G37*
G36*
X29035Y14568D02*
X24015Y13781D01*
X27098Y9537D01*
X29035Y14568D01*
G37*
G36*
X26724Y9055D02*
X27098Y9537D01*
X24015Y13781D01*
X26724Y9055D01*
G37*
G36*
X26724Y9055D02*
X24015Y13781D01*
X26713Y9041D01*
X26724Y9055D01*
G37*
G36*
X24015Y13781D02*
X25542Y8829D01*
X26713Y9041D01*
X24015Y13781D01*
G37*
G36*
X26706Y9024D02*
X26713Y9041D01*
X25542Y8829D01*
X26706Y9024D01*
G37*
G36*
X26706Y9024D02*
X25542Y8829D01*
X25560Y8827D01*
X26706Y9024D01*
G37*
G36*
X26706Y9024D02*
X25560Y8827D01*
X25577Y8820D01*
X26706Y9024D01*
G37*
G36*
X26706Y9024D02*
X25577Y8820D01*
X25591Y8809D01*
X26706Y9024D01*
G37*
G36*
X26706Y9024D02*
X25591Y8809D01*
X26703Y9006D01*
X26706Y9024D01*
G37*
G36*
X25591Y8809D02*
X26556Y7844D01*
X26703Y9006D01*
X25591Y8809D01*
G37*
G36*
X26703Y9006D02*
X26556Y7844D01*
X26703Y7903D01*
X26703Y9006D01*
G37*
G36*
X26556Y7844D02*
X26645Y7844D01*
X26703Y7903D01*
X26556Y7844D01*
G37*
G36*
X25542Y8829D02*
X24015Y13781D01*
X23475Y9744D01*
X25542Y8829D01*
G37*
G36*
X23460Y9755D02*
X23475Y9744D01*
X24015Y13781D01*
X23460Y9755D01*
G37*
G36*
X23444Y9762D02*
X23460Y9755D01*
X24015Y13781D01*
X23444Y9762D01*
G37*
G36*
X23426Y9764D02*
X23444Y9762D01*
X24015Y13781D01*
X23426Y9764D01*
G37*
G36*
X24015Y13781D02*
X21555Y13584D01*
X23426Y9764D01*
X24015Y13781D01*
G37*
G36*
X23426Y9764D02*
X21555Y13584D01*
X20452Y9764D01*
X23426Y9764D01*
G37*
G36*
X20452Y9764D02*
X21555Y13584D01*
X19558Y12107D01*
X20452Y9764D01*
G37*
G36*
X21457Y13584D02*
X19558Y12107D01*
X21555Y13584D01*
X21457Y13584D01*
G37*
G36*
X19555Y12124D02*
X19558Y12107D01*
X21457Y13584D01*
X19555Y12124D01*
G37*
G36*
X21457Y13584D02*
X20670Y13781D01*
X19555Y12124D01*
X21457Y13584D01*
G37*
G36*
X20670Y13781D02*
X19548Y12141D01*
X19555Y12124D01*
X20670Y13781D01*
G37*
G36*
X19537Y12155D02*
X19548Y12141D01*
X20670Y13781D01*
X19537Y12155D01*
G37*
G36*
X19045Y12648D02*
X19537Y12155D01*
X20670Y13781D01*
X19045Y12648D01*
G37*
G36*
X20474Y13977D02*
X19045Y12648D01*
X20670Y13781D01*
X20474Y13977D01*
G37*
G36*
X19031Y12659D02*
X19045Y12648D01*
X20474Y13977D01*
X19031Y12659D01*
G37*
G36*
X20474Y13977D02*
X19014Y12665D01*
X19031Y12659D01*
X20474Y13977D01*
G37*
G36*
X20474Y13977D02*
X18997Y12668D01*
X19014Y12665D01*
X20474Y13977D01*
G37*
G36*
X18997Y12668D02*
X20474Y13977D01*
X17243Y14120D01*
X18997Y12668D01*
G37*
G36*
X20474Y13977D02*
X17243Y15028D01*
X17243Y14120D01*
X20474Y13977D01*
G37*
G36*
X20474Y16141D02*
X17243Y15028D01*
X20474Y13977D01*
X20474Y16141D01*
G37*
G36*
X17243Y15028D02*
X20474Y16141D01*
X20571Y16239D01*
X17243Y15028D01*
G37*
G36*
X20571Y16239D02*
X16965Y15028D01*
X17243Y15028D01*
X20571Y16239D01*
G37*
G36*
X20571Y16239D02*
X16743Y15028D01*
X16965Y15028D01*
X20571Y16239D01*
G37*
G36*
X16965Y15028D02*
X16743Y15028D01*
X16743Y14120D01*
X16965Y15028D01*
G37*
G36*
X16965Y15028D02*
X16743Y14120D01*
X16965Y14120D01*
X16965Y15028D01*
G37*
G36*
X15256Y12668D02*
X16965Y14120D01*
X16743Y14120D01*
X15256Y12668D01*
G37*
G36*
X15256Y12668D02*
X16743Y14120D01*
X16465Y14120D01*
X15256Y12668D01*
G37*
G36*
X15256Y12668D02*
X16465Y14120D01*
X16243Y14120D01*
X15256Y12668D01*
G37*
G36*
X16465Y15028D02*
X16243Y14120D01*
X16465Y14120D01*
X16465Y15028D01*
G37*
G36*
X16465Y15028D02*
X16243Y15028D01*
X16243Y14120D01*
X16465Y15028D01*
G37*
G36*
X20571Y16239D02*
X16243Y15028D01*
X16465Y15028D01*
X20571Y16239D01*
G37*
G36*
X20571Y16239D02*
X16465Y15028D01*
X16743Y15028D01*
X20571Y16239D01*
G37*
G36*
X20571Y16239D02*
X15965Y15028D01*
X16243Y15028D01*
X20571Y16239D01*
G37*
G36*
X20571Y16239D02*
X15743Y15028D01*
X15965Y15028D01*
X20571Y16239D01*
G37*
G36*
X15965Y15028D02*
X15743Y15028D01*
X15743Y14120D01*
X15965Y15028D01*
G37*
G36*
X15965Y15028D02*
X15743Y14120D01*
X15965Y14120D01*
X15965Y15028D01*
G37*
G36*
X15256Y12668D02*
X15965Y14120D01*
X15743Y14120D01*
X15256Y12668D01*
G37*
G36*
X15743Y14120D02*
X15465Y14120D01*
X15256Y12668D01*
X15743Y14120D01*
G37*
G36*
X15243Y14120D02*
X15256Y12668D01*
X15465Y14120D01*
X15243Y14120D01*
G37*
G36*
X15465Y15028D02*
X15243Y14120D01*
X15465Y14120D01*
X15465Y15028D01*
G37*
G36*
X15465Y15028D02*
X15243Y15028D01*
X15243Y14120D01*
X15465Y15028D01*
G37*
G36*
X20571Y16239D02*
X15243Y15028D01*
X15465Y15028D01*
X20571Y16239D01*
G37*
G36*
X20571Y16239D02*
X15465Y15028D01*
X15743Y15028D01*
X20571Y16239D01*
G37*
G36*
X20571Y16239D02*
X14965Y15028D01*
X15243Y15028D01*
X20571Y16239D01*
G37*
G36*
X20571Y16239D02*
X14743Y15028D01*
X14965Y15028D01*
X20571Y16239D01*
G37*
G36*
X14965Y15028D02*
X14743Y15028D01*
X14743Y14120D01*
X14965Y15028D01*
G37*
G36*
X14965Y15028D02*
X14743Y14120D01*
X14965Y14120D01*
X14965Y15028D01*
G37*
G36*
X14743Y14120D02*
X14653Y13003D01*
X14965Y14120D01*
X14743Y14120D01*
G37*
G36*
X14664Y12989D02*
X14965Y14120D01*
X14653Y13003D01*
X14664Y12989D01*
G37*
G36*
X14664Y12989D02*
X15243Y14120D01*
X14965Y14120D01*
X14664Y12989D01*
G37*
G36*
X15256Y12668D02*
X15243Y14120D01*
X14664Y12989D01*
X15256Y12668D01*
G37*
G36*
X15256Y12668D02*
X14664Y12989D01*
X14671Y12973D01*
X15256Y12668D01*
G37*
G36*
X15238Y12665D02*
X15256Y12668D01*
X14671Y12973D01*
X15238Y12665D01*
G37*
G36*
X15238Y12665D02*
X14671Y12973D01*
X15222Y12659D01*
X15238Y12665D01*
G37*
G36*
X14671Y12973D02*
X14673Y12955D01*
X15222Y12659D01*
X14671Y12973D01*
G37*
G36*
X14673Y12955D02*
X15208Y12648D01*
X15222Y12659D01*
X14673Y12955D01*
G37*
G36*
X14673Y12955D02*
X15110Y12550D01*
X15208Y12648D01*
X14673Y12955D01*
G37*
G36*
X14673Y12955D02*
X15058Y12502D01*
X15110Y12550D01*
X14673Y12955D01*
G37*
G36*
X15058Y12502D02*
X14673Y12955D01*
X15056Y12500D01*
X15058Y12502D01*
G37*
G36*
X15056Y12500D02*
X14673Y12955D01*
X15046Y12488D01*
X15056Y12500D01*
G37*
G36*
X14743Y12368D02*
X15046Y12488D01*
X14673Y12955D01*
X14743Y12368D01*
G37*
G36*
X14673Y12955D02*
X14673Y12368D01*
X14743Y12368D01*
X14673Y12955D01*
G37*
G36*
X15045Y12486D02*
X15046Y12488D01*
X14743Y12368D01*
X15045Y12486D01*
G37*
G36*
X15039Y12472D02*
X15045Y12486D01*
X14743Y12368D01*
X15039Y12472D01*
G37*
G36*
X15038Y12469D02*
X15039Y12472D01*
X14743Y12368D01*
X15038Y12469D01*
G37*
G36*
X15038Y12469D02*
X14743Y12368D01*
X15037Y12461D01*
X15038Y12469D01*
G37*
G36*
X15037Y12461D02*
X14743Y12368D01*
X15035Y12454D01*
X15037Y12461D01*
G37*
G36*
X15035Y12454D02*
X14743Y12368D01*
X14965Y12368D01*
X15035Y12454D01*
G37*
G36*
X14965Y12368D02*
X14743Y12368D01*
X14743Y11460D01*
X14965Y12368D01*
G37*
G36*
X14965Y12368D02*
X14743Y11460D01*
X14965Y11460D01*
X14965Y12368D01*
G37*
G36*
X14965Y11460D02*
X14743Y11460D01*
X15535Y10659D01*
X14965Y11460D01*
G37*
G36*
X14743Y11460D02*
X14465Y11460D01*
X15535Y10659D01*
X14743Y11460D01*
G37*
G36*
X14465Y11460D02*
X14243Y11460D01*
X15535Y10659D01*
X14465Y11460D01*
G37*
G36*
X15535Y10659D02*
X14243Y11460D01*
X13745Y8868D01*
X15535Y10659D01*
G37*
G36*
X13745Y8868D02*
X14243Y11460D01*
X13965Y11460D01*
X13745Y8868D01*
G37*
G36*
X13745Y8868D02*
X13965Y11460D01*
X13743Y11460D01*
X13745Y8868D01*
G37*
G36*
X13965Y12368D02*
X13743Y11460D01*
X13965Y11460D01*
X13965Y12368D01*
G37*
G36*
X13965Y12368D02*
X13743Y12368D01*
X13743Y11460D01*
X13965Y12368D01*
G37*
G36*
X14035Y12836D02*
X13743Y12368D01*
X13965Y12368D01*
X14035Y12836D01*
G37*
G36*
X13965Y12368D02*
X14035Y12368D01*
X14035Y12836D01*
X13965Y12368D01*
G37*
G36*
X13743Y12368D02*
X14035Y12836D01*
X13671Y12398D01*
X13743Y12368D01*
G37*
G36*
X14035Y12836D02*
X13664Y12414D01*
X13671Y12398D01*
X14035Y12836D01*
G37*
G36*
X14035Y12836D02*
X13653Y12429D01*
X13664Y12414D01*
X14035Y12836D01*
G37*
G36*
X14035Y12836D02*
X13435Y12647D01*
X13653Y12429D01*
X14035Y12836D01*
G37*
G36*
X13751Y13120D02*
X13435Y12647D01*
X14035Y12836D01*
X13751Y13120D01*
G37*
G36*
X13420Y12658D02*
X13435Y12647D01*
X13751Y13120D01*
X13420Y12658D01*
G37*
G36*
X13404Y12665D02*
X13420Y12658D01*
X13751Y13120D01*
X13404Y12665D01*
G37*
G36*
X13386Y12667D02*
X13404Y12665D01*
X13751Y13120D01*
X13386Y12667D01*
G37*
G36*
X12935Y13120D02*
X13386Y12667D01*
X13751Y13120D01*
X12935Y13120D01*
G37*
G36*
X12935Y13120D02*
X12923Y13096D01*
X13386Y12667D01*
X12935Y13120D01*
G37*
G36*
X13386Y12667D02*
X12923Y13096D01*
X12923Y12691D01*
X13386Y12667D01*
G37*
G36*
X12888Y13061D02*
X12923Y12691D01*
X12923Y13096D01*
X12888Y13061D01*
G37*
G36*
X12888Y13061D02*
X12888Y12726D01*
X12923Y12691D01*
X12888Y13061D01*
G37*
G36*
X12888Y13061D02*
X12844Y12749D01*
X12888Y12726D01*
X12888Y13061D01*
G37*
G36*
X12888Y13061D02*
X12844Y13039D01*
X12844Y12749D01*
X12888Y13061D01*
G37*
G36*
X12844Y13039D02*
X12795Y12756D01*
X12844Y12749D01*
X12844Y13039D01*
G37*
G36*
X12844Y13039D02*
X12795Y13031D01*
X12795Y12756D01*
X12844Y13039D01*
G37*
G36*
X12795Y13031D02*
X12746Y13039D01*
X12795Y12756D01*
X12795Y13031D01*
G37*
G36*
X12746Y13039D02*
X12746Y12749D01*
X12795Y12756D01*
X12746Y13039D01*
G37*
G36*
X12746Y13039D02*
X12529Y12902D01*
X12746Y12749D01*
X12746Y13039D01*
G37*
G36*
X12529Y12902D02*
X12702Y12726D01*
X12746Y12749D01*
X12529Y12902D01*
G37*
G36*
X12529Y12902D02*
X12667Y12691D01*
X12702Y12726D01*
X12529Y12902D01*
G37*
G36*
X12667Y12691D02*
X12529Y12902D01*
X12529Y12667D01*
X12667Y12691D01*
G37*
G36*
X12667Y12691D02*
X12529Y12667D01*
X12655Y12667D01*
X12667Y12691D01*
G37*
G36*
X12702Y13061D02*
X12529Y12902D01*
X12746Y13039D01*
X12702Y13061D01*
G37*
G36*
X12529Y13082D02*
X12529Y12902D01*
X12702Y13061D01*
X12529Y13082D01*
G37*
G36*
X12667Y13096D02*
X12529Y13082D01*
X12702Y13061D01*
X12667Y13096D01*
G37*
G36*
X12598Y13120D02*
X12529Y13082D01*
X12667Y13096D01*
X12598Y13120D01*
G37*
G36*
X12655Y13120D02*
X12598Y13120D01*
X12667Y13096D01*
X12655Y13120D01*
G37*
G36*
X12581Y13122D02*
X12529Y13082D01*
X12598Y13120D01*
X12581Y13122D01*
G37*
G36*
X12564Y13129D02*
X12529Y13082D01*
X12581Y13122D01*
X12564Y13129D01*
G37*
G36*
X12550Y13140D02*
X12529Y13082D01*
X12564Y13129D01*
X12550Y13140D01*
G37*
G36*
X12529Y13159D02*
X12529Y13082D01*
X12550Y13140D01*
X12529Y13159D01*
G37*
G36*
X12530Y13160D02*
X12529Y13159D01*
X12550Y13140D01*
X12530Y13160D01*
G37*
G36*
X12038Y13082D02*
X12529Y12902D01*
X12529Y13082D01*
X12038Y13082D01*
G37*
G36*
X12038Y13082D02*
X12038Y12902D01*
X12529Y12902D01*
X12038Y13082D01*
G37*
G36*
X11860Y13082D02*
X12038Y12902D01*
X12038Y13082D01*
X11860Y13082D01*
G37*
G36*
X11860Y13117D02*
X11860Y13082D01*
X12038Y13082D01*
X11860Y13117D01*
G37*
G36*
X11860Y13117D02*
X12038Y13082D01*
X12038Y13117D01*
X11860Y13117D01*
G37*
G36*
X11860Y13082D02*
X11860Y12902D01*
X12038Y12902D01*
X11860Y13082D01*
G37*
G36*
X11860Y12902D02*
X12038Y12867D01*
X12038Y12902D01*
X11860Y12902D01*
G37*
G36*
X11860Y12902D02*
X11860Y12867D01*
X12038Y12867D01*
X11860Y12902D01*
G37*
G36*
X11860Y13082D02*
X11692Y12902D01*
X11860Y12902D01*
X11860Y13082D01*
G37*
G36*
X11860Y13082D02*
X11692Y13082D01*
X11692Y12902D01*
X11860Y13082D01*
G37*
G36*
X12935Y12667D02*
X13386Y12667D01*
X12923Y12691D01*
X12935Y12667D01*
G37*
G36*
X13673Y12380D02*
X13743Y12368D01*
X13671Y12398D01*
X13673Y12380D01*
G37*
G36*
X13673Y12380D02*
X13673Y12368D01*
X13743Y12368D01*
X13673Y12380D01*
G37*
G36*
X13743Y11460D02*
X13465Y11460D01*
X13745Y8868D01*
X13743Y11460D01*
G37*
G36*
X13465Y11460D02*
X12017Y8946D01*
X13745Y8868D01*
X13465Y11460D01*
G37*
G36*
X12017Y8946D02*
X12017Y8868D01*
X13745Y8868D01*
X12017Y8946D01*
G37*
G36*
X13465Y11460D02*
X11427Y9340D01*
X12017Y8946D01*
X13465Y11460D01*
G37*
G36*
X12017Y8946D02*
X11427Y9340D01*
X11821Y8946D01*
X12017Y8946D01*
G37*
G36*
X13465Y11460D02*
X11909Y11710D01*
X11427Y9340D01*
X13465Y11460D01*
G37*
G36*
X11412Y9351D02*
X11427Y9340D01*
X11909Y11710D01*
X11412Y9351D01*
G37*
G36*
X11861Y11703D02*
X11412Y9351D01*
X11909Y11710D01*
X11861Y11703D01*
G37*
G36*
X11396Y9358D02*
X11412Y9351D01*
X11861Y11703D01*
X11396Y9358D01*
G37*
G36*
X11812Y11710D02*
X11396Y9358D01*
X11861Y11703D01*
X11812Y11710D01*
G37*
G36*
X11812Y11710D02*
X11378Y9360D01*
X11396Y9358D01*
X11812Y11710D01*
G37*
G36*
X11812Y11710D02*
X11768Y11733D01*
X11378Y9360D01*
X11812Y11710D01*
G37*
G36*
X11768Y11733D02*
X11733Y11768D01*
X11378Y9360D01*
X11768Y11733D01*
G37*
G36*
X11733Y11768D02*
X10973Y9537D01*
X11378Y9360D01*
X11733Y11768D01*
G37*
G36*
X10973Y9537D02*
X10973Y9360D01*
X11378Y9360D01*
X10973Y9537D01*
G37*
G36*
X11733Y11768D02*
X10365Y9537D01*
X10973Y9537D01*
X11733Y11768D01*
G37*
G36*
X11733Y11768D02*
X11710Y11812D01*
X10365Y9537D01*
X11733Y11768D01*
G37*
G36*
X11710Y11812D02*
X11559Y12051D01*
X10365Y9537D01*
X11710Y11812D01*
G37*
G36*
X10365Y9537D02*
X11559Y12051D01*
X11553Y12059D01*
X10365Y9537D01*
G37*
G36*
X11546Y12067D02*
X10365Y9537D01*
X11553Y12059D01*
X11546Y12067D01*
G37*
G36*
X11369Y12294D02*
X10365Y9537D01*
X11546Y12067D01*
X11369Y12294D01*
G37*
G36*
X11546Y12067D02*
X11546Y12068D01*
X11369Y12294D01*
X11546Y12067D01*
G37*
G36*
X11546Y12068D02*
X11543Y12076D01*
X11369Y12294D01*
X11546Y12068D01*
G37*
G36*
X11369Y12294D02*
X11543Y12076D01*
X11539Y12086D01*
X11369Y12294D01*
G37*
G36*
X11539Y12086D02*
X11539Y12086D01*
X11369Y12294D01*
X11539Y12086D01*
G37*
G36*
X11539Y12086D02*
X11537Y12098D01*
X11369Y12294D01*
X11539Y12086D01*
G37*
G36*
X11537Y12098D02*
X11536Y12107D01*
X11369Y12294D01*
X11537Y12098D01*
G37*
G36*
X11536Y12107D02*
X11369Y12294D01*
X11536Y12107D01*
X11536Y12107D01*
G37*
G36*
X11536Y12107D02*
X11536Y12107D01*
X11536Y12107D01*
X11536Y12107D01*
G37*
G36*
X11369Y12294D02*
X11536Y12107D01*
X11536Y12294D01*
X11369Y12294D01*
G37*
G36*
X11539Y12086D02*
X11539Y12086D01*
X11539Y12086D01*
X11539Y12086D01*
G37*
G36*
X11546Y12068D02*
X11546Y12068D01*
X11546Y12067D01*
X11546Y12068D01*
G37*
G36*
X11369Y12902D02*
X10365Y9537D01*
X11369Y12294D01*
X11369Y12902D01*
G37*
G36*
X11369Y12902D02*
X8229Y11220D01*
X10365Y9537D01*
X11369Y12902D01*
G37*
G36*
X8229Y11220D02*
X8229Y10827D01*
X10365Y9537D01*
X8229Y11220D01*
G37*
G36*
X10202Y9351D02*
X10365Y9537D01*
X8229Y10827D01*
X10202Y9351D01*
G37*
G36*
X8229Y10433D02*
X10202Y9351D01*
X8229Y10827D01*
X8229Y10433D01*
G37*
G36*
X8229Y10827D02*
X8221Y10482D01*
X8229Y10433D01*
X8229Y10827D01*
G37*
G36*
X8229Y10827D02*
X8221Y10778D01*
X8221Y10482D01*
X8229Y10827D01*
G37*
G36*
X8221Y10778D02*
X8199Y10526D01*
X8221Y10482D01*
X8221Y10778D01*
G37*
G36*
X8221Y10778D02*
X8199Y10734D01*
X8199Y10526D01*
X8221Y10778D01*
G37*
G36*
X8164Y10699D02*
X8199Y10526D01*
X8199Y10734D01*
X8164Y10699D01*
G37*
G36*
X8164Y10699D02*
X8164Y10561D01*
X8199Y10526D01*
X8164Y10699D01*
G37*
G36*
X8120Y10676D02*
X8164Y10561D01*
X8164Y10699D01*
X8120Y10676D01*
G37*
G36*
X8120Y10676D02*
X8120Y10583D01*
X8164Y10561D01*
X8120Y10676D01*
G37*
G36*
X8120Y10676D02*
X8071Y10591D01*
X8120Y10583D01*
X8120Y10676D01*
G37*
G36*
X8120Y10676D02*
X8071Y10669D01*
X8071Y10591D01*
X8120Y10676D01*
G37*
G36*
X8071Y10669D02*
X8022Y10676D01*
X8071Y10591D01*
X8071Y10669D01*
G37*
G36*
X8022Y10676D02*
X8022Y10583D01*
X8071Y10591D01*
X8022Y10676D01*
G37*
G36*
X7978Y10561D02*
X8022Y10583D01*
X8022Y10676D01*
X7978Y10561D01*
G37*
G36*
X7978Y10699D02*
X7978Y10561D01*
X8022Y10676D01*
X7978Y10699D01*
G37*
G36*
X7943Y10526D02*
X7978Y10561D01*
X7978Y10699D01*
X7943Y10526D01*
G37*
G36*
X7943Y10734D02*
X7943Y10526D01*
X7978Y10699D01*
X7943Y10734D01*
G37*
G36*
X7943Y10526D02*
X7943Y10734D01*
X7931Y10758D01*
X7943Y10526D01*
G37*
G36*
X7931Y10758D02*
X7931Y10502D01*
X7943Y10526D01*
X7931Y10758D01*
G37*
G36*
X7931Y10758D02*
X6890Y10758D01*
X7931Y10502D01*
X7931Y10758D01*
G37*
G36*
X6890Y10758D02*
X6525Y10502D01*
X7931Y10502D01*
X6890Y10758D01*
G37*
G36*
X6872Y10760D02*
X6525Y10502D01*
X6890Y10758D01*
X6872Y10760D01*
G37*
G36*
X6855Y10767D02*
X6525Y10502D01*
X6872Y10760D01*
X6855Y10767D01*
G37*
G36*
X6841Y10778D02*
X6525Y10502D01*
X6855Y10767D01*
X6841Y10778D01*
G37*
G36*
X6250Y11368D02*
X6525Y10502D01*
X6841Y10778D01*
X6250Y11368D01*
G37*
G36*
X6525Y10502D02*
X6250Y11368D01*
X5384Y11643D01*
X6525Y10502D01*
G37*
G36*
X6239Y11383D02*
X5384Y11643D01*
X6250Y11368D01*
X6239Y11383D01*
G37*
G36*
X6239Y11383D02*
X6233Y11399D01*
X5384Y11643D01*
X6239Y11383D01*
G37*
G36*
X6233Y11399D02*
X5619Y11684D01*
X5384Y11643D01*
X6233Y11399D01*
G37*
G36*
X5619Y11684D02*
X5384Y11684D01*
X5384Y11643D01*
X5619Y11684D01*
G37*
G36*
X5619Y11684D02*
X6233Y11399D01*
X5995Y11684D01*
X5619Y11684D01*
G37*
G36*
X6230Y11417D02*
X5995Y11684D01*
X6233Y11399D01*
X6230Y11417D01*
G37*
G36*
X5995Y11684D02*
X6230Y11417D01*
X6230Y11684D01*
X5995Y11684D01*
G37*
G36*
X5619Y12175D02*
X5619Y11684D01*
X5995Y11684D01*
X5619Y12175D01*
G37*
G36*
X5619Y12175D02*
X5995Y11684D01*
X5995Y12175D01*
X5619Y12175D01*
G37*
G36*
X5619Y12353D02*
X5619Y12175D01*
X5995Y12175D01*
X5619Y12353D01*
G37*
G36*
X5619Y12353D02*
X5995Y12175D01*
X5995Y12353D01*
X5619Y12353D01*
G37*
G36*
X6030Y12353D02*
X5995Y12353D01*
X5995Y12175D01*
X6030Y12353D01*
G37*
G36*
X6030Y12353D02*
X5995Y12175D01*
X6030Y12175D01*
X6030Y12353D01*
G37*
G36*
X5619Y12844D02*
X5619Y12353D01*
X5995Y12353D01*
X5619Y12844D01*
G37*
G36*
X5619Y12844D02*
X5995Y12353D01*
X5995Y12844D01*
X5619Y12844D01*
G37*
G36*
X6052Y13612D02*
X5619Y12844D01*
X5995Y12844D01*
X6052Y13612D01*
G37*
G36*
X6052Y13612D02*
X5995Y12844D01*
X6154Y13596D01*
X6052Y13612D01*
G37*
G36*
X6154Y13596D02*
X5995Y12844D01*
X6230Y12844D01*
X6154Y13596D01*
G37*
G36*
X6154Y13596D02*
X6230Y12844D01*
X6230Y13608D01*
X6154Y13596D01*
G37*
G36*
X6052Y13612D02*
X5960Y13659D01*
X5619Y12844D01*
X6052Y13612D01*
G37*
G36*
X5384Y13696D02*
X5619Y12844D01*
X5960Y13659D01*
X5384Y13696D01*
G37*
G36*
X5960Y13659D02*
X5887Y13732D01*
X5384Y13696D01*
X5960Y13659D01*
G37*
G36*
X5887Y13732D02*
X5420Y13732D01*
X5384Y13696D01*
X5887Y13732D01*
G37*
G36*
X5466Y13824D02*
X5420Y13732D01*
X5887Y13732D01*
X5466Y13824D01*
G37*
G36*
X5841Y13824D02*
X5466Y13824D01*
X5887Y13732D01*
X5841Y13824D01*
G37*
G36*
X5841Y13824D02*
X5825Y13925D01*
X5466Y13824D01*
X5841Y13824D01*
G37*
G36*
X5825Y13925D02*
X5483Y13925D01*
X5466Y13824D01*
X5825Y13925D01*
G37*
G36*
X5483Y13925D02*
X5825Y13925D01*
X5841Y14027D01*
X5483Y13925D01*
G37*
G36*
X5466Y14027D02*
X5483Y13925D01*
X5841Y14027D01*
X5466Y14027D01*
G37*
G36*
X5420Y14119D02*
X5466Y14027D01*
X5841Y14027D01*
X5420Y14119D01*
G37*
G36*
X5841Y14027D02*
X5887Y14119D01*
X5420Y14119D01*
X5841Y14027D01*
G37*
G36*
X5887Y14119D02*
X5347Y14191D01*
X5420Y14119D01*
X5887Y14119D01*
G37*
G36*
X5960Y14191D02*
X5347Y14191D01*
X5887Y14119D01*
X5960Y14191D01*
G37*
G36*
X5960Y14191D02*
X6052Y14238D01*
X5347Y14191D01*
X5960Y14191D01*
G37*
G36*
X5255Y14238D02*
X5347Y14191D01*
X6052Y14238D01*
X5255Y14238D01*
G37*
G36*
X6052Y14238D02*
X5154Y14254D01*
X5255Y14238D01*
X6052Y14238D01*
G37*
G36*
X5154Y14254D02*
X6052Y14238D01*
X6154Y14254D01*
X5154Y14254D01*
G37*
G36*
X4363Y14391D02*
X5154Y14254D01*
X6154Y14254D01*
X4363Y14391D01*
G37*
G36*
X4363Y14391D02*
X6154Y14254D01*
X7154Y14254D01*
X4363Y14391D01*
G37*
G36*
X6154Y14254D02*
X7052Y14238D01*
X7154Y14254D01*
X6154Y14254D01*
G37*
G36*
X7052Y14238D02*
X6154Y14254D01*
X6255Y14238D01*
X7052Y14238D01*
G37*
G36*
X6255Y14238D02*
X6347Y14191D01*
X7052Y14238D01*
X6255Y14238D01*
G37*
G36*
X6960Y14191D02*
X7052Y14238D01*
X6347Y14191D01*
X6960Y14191D01*
G37*
G36*
X6960Y14191D02*
X6347Y14191D01*
X6887Y14119D01*
X6960Y14191D01*
G37*
G36*
X6887Y14119D02*
X6347Y14191D01*
X6420Y14119D01*
X6887Y14119D01*
G37*
G36*
X6841Y14027D02*
X6887Y14119D01*
X6420Y14119D01*
X6841Y14027D01*
G37*
G36*
X6420Y14119D02*
X6466Y14027D01*
X6841Y14027D01*
X6420Y14119D01*
G37*
G36*
X6466Y14027D02*
X6483Y13925D01*
X6841Y14027D01*
X6466Y14027D01*
G37*
G36*
X6483Y13925D02*
X6825Y13925D01*
X6841Y14027D01*
X6483Y13925D01*
G37*
G36*
X6825Y13925D02*
X6483Y13925D01*
X6466Y13824D01*
X6825Y13925D01*
G37*
G36*
X6841Y13824D02*
X6825Y13925D01*
X6466Y13824D01*
X6841Y13824D01*
G37*
G36*
X6841Y13824D02*
X6466Y13824D01*
X6887Y13732D01*
X6841Y13824D01*
G37*
G36*
X6466Y13824D02*
X6420Y13732D01*
X6887Y13732D01*
X6466Y13824D01*
G37*
G36*
X6887Y13732D02*
X6420Y13732D01*
X6368Y13680D01*
X6887Y13732D01*
G37*
G36*
X6960Y13659D02*
X6887Y13732D01*
X6368Y13680D01*
X6960Y13659D01*
G37*
G36*
X6368Y13680D02*
X6603Y12844D01*
X6960Y13659D01*
X6368Y13680D01*
G37*
G36*
X6960Y13659D02*
X6603Y12844D01*
X6979Y12844D01*
X6960Y13659D01*
G37*
G36*
X6603Y12844D02*
X6979Y12353D01*
X6979Y12844D01*
X6603Y12844D01*
G37*
G36*
X6603Y12844D02*
X6603Y12353D01*
X6979Y12353D01*
X6603Y12844D01*
G37*
G36*
X6603Y12353D02*
X6979Y12175D01*
X6979Y12353D01*
X6603Y12353D01*
G37*
G36*
X7014Y12353D02*
X6979Y12353D01*
X6979Y12175D01*
X7014Y12353D01*
G37*
G36*
X7014Y12353D02*
X6979Y12175D01*
X7014Y12175D01*
X7014Y12353D01*
G37*
G36*
X6603Y12353D02*
X6603Y12175D01*
X6979Y12175D01*
X6603Y12353D01*
G37*
G36*
X6603Y12175D02*
X6979Y11684D01*
X6979Y12175D01*
X6603Y12175D01*
G37*
G36*
X6603Y12175D02*
X6603Y11684D01*
X6979Y11684D01*
X6603Y12175D01*
G37*
G36*
X6979Y11684D02*
X6603Y11684D01*
X7214Y11417D01*
X6979Y11684D01*
G37*
G36*
X7214Y11417D02*
X6603Y11684D01*
X6368Y11446D01*
X7214Y11417D01*
G37*
G36*
X6368Y11446D02*
X6603Y11684D01*
X6368Y11684D01*
X6368Y11446D01*
G37*
G36*
X7217Y11399D02*
X7214Y11417D01*
X6368Y11446D01*
X7217Y11399D01*
G37*
G36*
X7217Y11399D02*
X6368Y11446D01*
X6918Y10896D01*
X7217Y11399D01*
G37*
G36*
X7217Y11399D02*
X6918Y10896D01*
X7224Y11383D01*
X7217Y11399D01*
G37*
G36*
X7224Y11383D02*
X6918Y10896D01*
X7235Y11368D01*
X7224Y11383D01*
G37*
G36*
X7235Y11368D02*
X6918Y10896D01*
X7431Y11172D01*
X7235Y11368D01*
G37*
G36*
X7431Y11172D02*
X6918Y10896D01*
X7446Y11161D01*
X7431Y11172D01*
G37*
G36*
X7446Y11161D02*
X6918Y10896D01*
X7462Y11154D01*
X7446Y11161D01*
G37*
G36*
X7462Y11154D02*
X6918Y10896D01*
X7480Y11151D01*
X7462Y11154D01*
G37*
G36*
X7480Y11151D02*
X6918Y10896D01*
X7931Y10896D01*
X7480Y11151D01*
G37*
G36*
X7931Y11151D02*
X7480Y11151D01*
X7931Y10896D01*
X7931Y11151D01*
G37*
G36*
X7931Y11151D02*
X7931Y10896D01*
X7943Y10920D01*
X7931Y11151D01*
G37*
G36*
X7943Y10920D02*
X7943Y11128D01*
X7931Y11151D01*
X7943Y10920D01*
G37*
G36*
X7943Y11128D02*
X7943Y10920D01*
X7978Y11093D01*
X7943Y11128D01*
G37*
G36*
X7943Y10920D02*
X7978Y10955D01*
X7978Y11093D01*
X7943Y10920D01*
G37*
G36*
X7978Y11093D02*
X7978Y10955D01*
X8022Y11070D01*
X7978Y11093D01*
G37*
G36*
X7978Y10955D02*
X8022Y10977D01*
X8022Y11070D01*
X7978Y10955D01*
G37*
G36*
X8022Y11070D02*
X8022Y10977D01*
X8071Y10985D01*
X8022Y11070D01*
G37*
G36*
X8071Y11062D02*
X8022Y11070D01*
X8071Y10985D01*
X8071Y11062D01*
G37*
G36*
X8120Y11070D02*
X8071Y11062D01*
X8071Y10985D01*
X8120Y11070D01*
G37*
G36*
X8120Y11070D02*
X8071Y10985D01*
X8120Y10977D01*
X8120Y11070D01*
G37*
G36*
X8120Y11070D02*
X8120Y10977D01*
X8164Y10955D01*
X8120Y11070D01*
G37*
G36*
X8120Y11070D02*
X8164Y10955D01*
X8164Y11093D01*
X8120Y11070D01*
G37*
G36*
X8164Y11093D02*
X8164Y10955D01*
X8199Y10920D01*
X8164Y11093D01*
G37*
G36*
X8164Y11093D02*
X8199Y10920D01*
X8199Y11128D01*
X8164Y11093D01*
G37*
G36*
X8221Y11172D02*
X8199Y11128D01*
X8199Y10920D01*
X8221Y11172D01*
G37*
G36*
X8221Y11172D02*
X8199Y10920D01*
X8221Y10876D01*
X8221Y11172D01*
G37*
G36*
X8229Y11220D02*
X8221Y11172D01*
X8221Y10876D01*
X8229Y11220D01*
G37*
G36*
X8229Y11220D02*
X8221Y10876D01*
X8229Y10827D01*
X8229Y11220D01*
G37*
G36*
X6979Y11684D02*
X7214Y11417D01*
X7214Y11684D01*
X6979Y11684D01*
G37*
G36*
X6603Y12353D02*
X6568Y12175D01*
X6603Y12175D01*
X6603Y12353D01*
G37*
G36*
X6603Y12353D02*
X6568Y12353D01*
X6568Y12175D01*
X6603Y12353D01*
G37*
G36*
X6960Y13659D02*
X6979Y12844D01*
X7052Y13612D01*
X6960Y13659D01*
G37*
G36*
X7052Y13612D02*
X6979Y12844D01*
X7154Y13596D01*
X7052Y13612D01*
G37*
G36*
X7154Y13596D02*
X6979Y12844D01*
X7214Y12844D01*
X7154Y13596D01*
G37*
G36*
X7154Y13596D02*
X7214Y12844D01*
X7214Y13606D01*
X7154Y13596D01*
G37*
G36*
X6603Y12844D02*
X6368Y13680D01*
X6368Y12844D01*
X6603Y12844D01*
G37*
G36*
X7154Y14254D02*
X11287Y14391D01*
X4363Y14391D01*
X7154Y14254D01*
G37*
G36*
X7154Y14254D02*
X7255Y14238D01*
X11287Y14391D01*
X7154Y14254D01*
G37*
G36*
X7255Y14238D02*
X7347Y14191D01*
X11287Y14391D01*
X7255Y14238D01*
G37*
G36*
X7347Y14191D02*
X7420Y14119D01*
X11287Y14391D01*
X7347Y14191D01*
G37*
G36*
X7420Y14119D02*
X7466Y14027D01*
X11287Y14391D01*
X7420Y14119D01*
G37*
G36*
X7466Y14027D02*
X7483Y13925D01*
X11287Y14391D01*
X7466Y14027D01*
G37*
G36*
X11287Y14391D02*
X7483Y13925D01*
X11369Y13869D01*
X11287Y14391D01*
G37*
G36*
X11369Y13869D02*
X7483Y13925D01*
X11369Y13690D01*
X11369Y13869D01*
G37*
G36*
X11369Y13690D02*
X7483Y13925D01*
X7466Y13824D01*
X11369Y13690D01*
G37*
G36*
X7466Y13824D02*
X7587Y12844D01*
X11369Y13690D01*
X7466Y13824D01*
G37*
G36*
X8164Y11348D02*
X11369Y13690D01*
X7587Y12844D01*
X8164Y11348D01*
G37*
G36*
X8164Y11348D02*
X7587Y12844D01*
X8120Y11371D01*
X8164Y11348D01*
G37*
G36*
X8120Y11371D02*
X7587Y12844D01*
X7587Y12353D01*
X8120Y11371D01*
G37*
G36*
X8120Y11371D02*
X7587Y12353D01*
X7587Y12175D01*
X8120Y11371D01*
G37*
G36*
X7587Y12353D02*
X7552Y12175D01*
X7587Y12175D01*
X7587Y12353D01*
G37*
G36*
X7587Y12353D02*
X7552Y12353D01*
X7552Y12175D01*
X7587Y12353D01*
G37*
G36*
X8071Y11378D02*
X8120Y11371D01*
X7587Y12175D01*
X8071Y11378D01*
G37*
G36*
X7587Y12175D02*
X7587Y11684D01*
X8071Y11378D01*
X7587Y12175D01*
G37*
G36*
X7587Y11684D02*
X8022Y11371D01*
X8071Y11378D01*
X7587Y11684D01*
G37*
G36*
X7587Y11684D02*
X7978Y11348D01*
X8022Y11371D01*
X7587Y11684D01*
G37*
G36*
X7587Y11684D02*
X7943Y11313D01*
X7978Y11348D01*
X7587Y11684D01*
G37*
G36*
X7943Y11313D02*
X7587Y11684D01*
X7509Y11289D01*
X7943Y11313D01*
G37*
G36*
X7587Y11684D02*
X7352Y11446D01*
X7509Y11289D01*
X7587Y11684D01*
G37*
G36*
X7587Y11684D02*
X7352Y11684D01*
X7352Y11446D01*
X7587Y11684D01*
G37*
G36*
X7943Y11313D02*
X7509Y11289D01*
X7931Y11289D01*
X7943Y11313D01*
G37*
G36*
X11369Y13082D02*
X11369Y13690D01*
X8164Y11348D01*
X11369Y13082D01*
G37*
G36*
X11369Y13082D02*
X8164Y11348D01*
X8199Y11313D01*
X11369Y13082D01*
G37*
G36*
X11369Y13082D02*
X8199Y11313D01*
X8221Y11269D01*
X11369Y13082D01*
G37*
G36*
X11369Y13082D02*
X8221Y11269D01*
X11369Y12902D01*
X11369Y13082D01*
G37*
G36*
X11369Y12902D02*
X8221Y11269D01*
X8229Y11220D01*
X11369Y12902D01*
G37*
G36*
X11536Y13082D02*
X11369Y13082D01*
X11369Y12902D01*
X11536Y13082D01*
G37*
G36*
X11536Y13082D02*
X11369Y12902D01*
X11536Y12902D01*
X11536Y13082D01*
G37*
G36*
X7466Y13824D02*
X7420Y13732D01*
X7587Y12844D01*
X7466Y13824D01*
G37*
G36*
X7420Y13732D02*
X7352Y13665D01*
X7587Y12844D01*
X7420Y13732D01*
G37*
G36*
X7352Y13665D02*
X7352Y12844D01*
X7587Y12844D01*
X7352Y13665D01*
G37*
G36*
X11536Y13869D02*
X11369Y13869D01*
X11369Y13690D01*
X11536Y13869D01*
G37*
G36*
X11536Y13869D02*
X11369Y13690D01*
X11536Y13690D01*
X11536Y13869D01*
G37*
G36*
X11369Y14309D02*
X11287Y14391D01*
X11369Y13869D01*
X11369Y14309D01*
G37*
G36*
X4363Y14391D02*
X5052Y14238D01*
X5154Y14254D01*
X4363Y14391D01*
G37*
G36*
X4363Y14391D02*
X4960Y14191D01*
X5052Y14238D01*
X4363Y14391D01*
G37*
G36*
X4363Y14391D02*
X4887Y14119D01*
X4960Y14191D01*
X4363Y14391D01*
G37*
G36*
X4887Y14119D02*
X4363Y14391D01*
X4420Y14119D01*
X4887Y14119D01*
G37*
G36*
X4363Y14391D02*
X4347Y14191D01*
X4420Y14119D01*
X4363Y14391D01*
G37*
G36*
X4255Y14238D02*
X4347Y14191D01*
X4363Y14391D01*
X4255Y14238D01*
G37*
G36*
X4363Y14391D02*
X4218Y14245D01*
X4255Y14238D01*
X4363Y14391D01*
G37*
G36*
X4218Y14245D02*
X4218Y14244D01*
X4255Y14238D01*
X4218Y14245D01*
G37*
G36*
X4887Y14119D02*
X4420Y14119D01*
X4841Y14027D01*
X4887Y14119D01*
G37*
G36*
X4420Y14119D02*
X4466Y14027D01*
X4841Y14027D01*
X4420Y14119D01*
G37*
G36*
X4466Y14027D02*
X4483Y13925D01*
X4841Y14027D01*
X4466Y14027D01*
G37*
G36*
X4483Y13925D02*
X4825Y13925D01*
X4841Y14027D01*
X4483Y13925D01*
G37*
G36*
X4825Y13925D02*
X4483Y13925D01*
X4466Y13824D01*
X4825Y13925D01*
G37*
G36*
X4841Y13824D02*
X4825Y13925D01*
X4466Y13824D01*
X4841Y13824D01*
G37*
G36*
X4841Y13824D02*
X4466Y13824D01*
X4887Y13732D01*
X4841Y13824D01*
G37*
G36*
X4466Y13824D02*
X4420Y13732D01*
X4887Y13732D01*
X4466Y13824D01*
G37*
G36*
X4887Y13732D02*
X4420Y13732D01*
X4960Y13659D01*
X4887Y13732D01*
G37*
G36*
X4420Y13732D02*
X4347Y13659D01*
X4960Y13659D01*
X4420Y13732D01*
G37*
G36*
X5011Y12844D02*
X4960Y13659D01*
X4347Y13659D01*
X5011Y12844D01*
G37*
G36*
X4255Y13612D02*
X5011Y12844D01*
X4347Y13659D01*
X4255Y13612D01*
G37*
G36*
X4255Y13612D02*
X4213Y13606D01*
X5011Y12844D01*
X4255Y13612D01*
G37*
G36*
X5011Y12844D02*
X4213Y13606D01*
X4213Y11740D01*
X5011Y12844D01*
G37*
G36*
X4213Y11740D02*
X5011Y12353D01*
X5011Y12844D01*
X4213Y11740D01*
G37*
G36*
X4213Y11740D02*
X5011Y12175D01*
X5011Y12353D01*
X4213Y11740D01*
G37*
G36*
X5046Y12353D02*
X5011Y12353D01*
X5011Y12175D01*
X5046Y12353D01*
G37*
G36*
X5046Y12353D02*
X5011Y12175D01*
X5046Y12175D01*
X5046Y12353D01*
G37*
G36*
X4213Y11740D02*
X5011Y11684D01*
X5011Y12175D01*
X4213Y11740D01*
G37*
G36*
X5011Y11684D02*
X4213Y11740D01*
X5266Y11565D01*
X5011Y11684D01*
G37*
G36*
X6447Y10384D02*
X5266Y11565D01*
X4213Y11740D01*
X6447Y10384D01*
G37*
G36*
X6462Y10373D02*
X6447Y10384D01*
X4213Y11740D01*
X6462Y10373D01*
G37*
G36*
X6462Y10373D02*
X4213Y11740D01*
X7584Y8368D01*
X6462Y10373D01*
G37*
G36*
X7584Y8368D02*
X6478Y10366D01*
X6462Y10373D01*
X7584Y8368D01*
G37*
G36*
X7584Y8368D02*
X6496Y10364D01*
X6478Y10366D01*
X7584Y8368D01*
G37*
G36*
X7978Y10305D02*
X6496Y10364D01*
X7584Y8368D01*
X7978Y10305D01*
G37*
G36*
X7978Y10305D02*
X7584Y8368D01*
X8022Y10283D01*
X7978Y10305D01*
G37*
G36*
X8022Y10283D02*
X7584Y8368D01*
X8071Y10275D01*
X8022Y10283D01*
G37*
G36*
X8071Y10275D02*
X7584Y8368D01*
X8810Y8368D01*
X8071Y10275D01*
G37*
G36*
X8120Y10283D02*
X8071Y10275D01*
X8810Y8368D01*
X8120Y10283D01*
G37*
G36*
X8164Y10305D02*
X8120Y10283D01*
X8810Y8368D01*
X8164Y10305D01*
G37*
G36*
X8164Y10305D02*
X8810Y8368D01*
X9902Y9025D01*
X8164Y10305D01*
G37*
G36*
X8810Y8368D02*
X8830Y8366D01*
X9902Y9025D01*
X8810Y8368D01*
G37*
G36*
X8830Y8366D02*
X8849Y8358D01*
X9902Y9025D01*
X8830Y8366D01*
G37*
G36*
X8849Y8358D02*
X8866Y8345D01*
X9902Y9025D01*
X8849Y8358D01*
G37*
G36*
X9902Y9025D02*
X8866Y8345D01*
X9370Y8041D01*
X9902Y9025D01*
G37*
G36*
X8866Y8345D02*
X9170Y8041D01*
X9370Y8041D01*
X8866Y8345D01*
G37*
G36*
X9370Y8041D02*
X9824Y8041D01*
X9902Y9025D01*
X9370Y8041D01*
G37*
G36*
X9824Y8041D02*
X9902Y8041D01*
X9902Y9025D01*
X9824Y8041D01*
G37*
G36*
X9824Y8041D02*
X9370Y8041D01*
X9370Y7841D01*
X9824Y8041D01*
G37*
G36*
X9824Y8041D02*
X9370Y7841D01*
X9592Y7619D01*
X9824Y8041D01*
G37*
G36*
X9592Y7619D02*
X9824Y7707D01*
X9824Y8041D01*
X9592Y7619D01*
G37*
G36*
X10118Y7707D02*
X9824Y7707D01*
X9592Y7619D01*
X10118Y7707D01*
G37*
G36*
X10550Y7619D02*
X10118Y7707D01*
X9592Y7619D01*
X10550Y7619D01*
G37*
G36*
X10118Y8041D02*
X10118Y7707D01*
X10550Y7619D01*
X10118Y8041D01*
G37*
G36*
X10365Y8377D02*
X10118Y8041D01*
X10550Y7619D01*
X10365Y8377D01*
G37*
G36*
X10973Y8377D02*
X10365Y8377D01*
X10550Y7619D01*
X10973Y8377D01*
G37*
G36*
X11313Y8373D02*
X10973Y8377D01*
X10550Y7619D01*
X11313Y8373D01*
G37*
G36*
X11321Y8379D02*
X10973Y8377D01*
X11313Y8373D01*
X11321Y8379D01*
G37*
G36*
X11329Y8386D02*
X10973Y8377D01*
X11321Y8379D01*
X11329Y8386D01*
G37*
G36*
X10973Y8377D02*
X11329Y8386D01*
X10973Y8868D01*
X10973Y8377D01*
G37*
G36*
X10973Y8868D02*
X11329Y8386D01*
X11329Y8386D01*
X10973Y8868D01*
G37*
G36*
X11329Y8386D02*
X11329Y8386D01*
X11329Y8386D01*
X11329Y8386D01*
G37*
G36*
X11329Y8386D02*
X10973Y9046D01*
X10973Y8868D01*
X11329Y8386D01*
G37*
G36*
X10973Y9046D02*
X10938Y8868D01*
X10973Y8868D01*
X10973Y9046D01*
G37*
G36*
X10973Y9046D02*
X10938Y9046D01*
X10938Y8868D01*
X10973Y9046D01*
G37*
G36*
X11329Y8386D02*
X10973Y9222D01*
X10973Y9046D01*
X11329Y8386D01*
G37*
G36*
X11349Y9222D02*
X10973Y9222D01*
X11329Y8386D01*
X11349Y9222D01*
G37*
G36*
X11329Y8386D02*
X11339Y8390D01*
X11349Y9222D01*
X11329Y8386D01*
G37*
G36*
X11339Y8390D02*
X11348Y8393D01*
X11349Y9222D01*
X11339Y8390D01*
G37*
G36*
X11349Y9222D02*
X11348Y8393D01*
X11348Y8394D01*
X11349Y9222D01*
G37*
G36*
X11348Y8393D02*
X11348Y8393D01*
X11348Y8394D01*
X11348Y8393D01*
G37*
G36*
X11684Y8888D02*
X11349Y9222D01*
X11348Y8394D01*
X11684Y8888D01*
G37*
G36*
X11358Y8395D02*
X11684Y8888D01*
X11348Y8394D01*
X11358Y8395D01*
G37*
G36*
X11684Y8888D02*
X11358Y8395D01*
X11368Y8396D01*
X11684Y8888D01*
G37*
G36*
X11368Y8396D02*
X11684Y8652D01*
X11684Y8888D01*
X11368Y8396D01*
G37*
G36*
X11684Y8652D02*
X11368Y8396D01*
X12254Y8396D01*
X11684Y8652D01*
G37*
G36*
X12017Y8652D02*
X11684Y8652D01*
X12254Y8396D01*
X12017Y8652D01*
G37*
G36*
X12471Y8572D02*
X12017Y8652D01*
X12254Y8396D01*
X12471Y8572D01*
G37*
G36*
X12256Y8396D02*
X12471Y8572D01*
X12254Y8396D01*
X12256Y8396D01*
G37*
G36*
X12254Y8396D02*
X12255Y8396D01*
X12256Y8396D01*
X12254Y8396D01*
G37*
G36*
X12256Y8396D02*
X12265Y8395D01*
X12471Y8572D01*
X12256Y8396D01*
G37*
G36*
X12265Y8395D02*
X12275Y8393D01*
X12471Y8572D01*
X12265Y8395D01*
G37*
G36*
X12471Y8572D02*
X12275Y8393D01*
X12276Y8393D01*
X12471Y8572D01*
G37*
G36*
X12275Y8393D02*
X12275Y8393D01*
X12276Y8393D01*
X12275Y8393D01*
G37*
G36*
X12276Y8393D02*
X12285Y8389D01*
X12471Y8572D01*
X12276Y8393D01*
G37*
G36*
X12285Y8389D02*
X12294Y8386D01*
X12471Y8572D01*
X12285Y8389D01*
G37*
G36*
X12471Y8572D02*
X12294Y8386D01*
X12295Y8385D01*
X12471Y8572D01*
G37*
G36*
X12294Y8386D02*
X12294Y8385D01*
X12295Y8385D01*
X12294Y8386D01*
G37*
G36*
X12295Y8385D02*
X12303Y8379D01*
X12471Y8572D01*
X12295Y8385D01*
G37*
G36*
X12303Y8379D02*
X12310Y8373D01*
X12471Y8572D01*
X12303Y8379D01*
G37*
G36*
X12471Y8572D02*
X12310Y8373D01*
X12311Y8372D01*
X12471Y8572D01*
G37*
G36*
X12310Y8373D02*
X12311Y8372D01*
X12311Y8372D01*
X12310Y8373D01*
G37*
G36*
X12311Y8372D02*
X12471Y8278D01*
X12471Y8572D01*
X12311Y8372D01*
G37*
G36*
X12471Y8278D02*
X12311Y8372D01*
X12508Y8168D01*
X12471Y8278D01*
G37*
G36*
X12471Y8278D02*
X12508Y8168D01*
X12805Y8278D01*
X12471Y8278D01*
G37*
G36*
X12805Y8278D02*
X12508Y8168D01*
X14423Y8168D01*
X12805Y8278D01*
G37*
G36*
X14423Y8168D02*
X13773Y8730D01*
X12805Y8278D01*
X14423Y8168D01*
G37*
G36*
X13773Y8730D02*
X12805Y8572D01*
X12805Y8278D01*
X13773Y8730D01*
G37*
G36*
X13773Y8730D02*
X12017Y8730D01*
X12805Y8572D01*
X13773Y8730D01*
G37*
G36*
X12017Y8730D02*
X12471Y8572D01*
X12805Y8572D01*
X12017Y8730D01*
G37*
G36*
X12471Y8572D02*
X12017Y8730D01*
X12017Y8652D01*
X12471Y8572D01*
G37*
G36*
X13791Y8733D02*
X13773Y8730D01*
X14423Y8168D01*
X13791Y8733D01*
G37*
G36*
X13808Y8739D02*
X13791Y8733D01*
X14423Y8168D01*
X13808Y8739D01*
G37*
G36*
X13822Y8750D02*
X13808Y8739D01*
X14423Y8168D01*
X13822Y8750D01*
G37*
G36*
X13822Y8750D02*
X14423Y8168D01*
X14444Y8165D01*
X13822Y8750D01*
G37*
G36*
X15512Y8976D02*
X13822Y8750D01*
X14444Y8165D01*
X15512Y8976D01*
G37*
G36*
X14444Y8165D02*
X14463Y8157D01*
X15512Y8976D01*
X14444Y8165D01*
G37*
G36*
X14463Y8157D02*
X14479Y8145D01*
X15512Y8976D01*
X14463Y8157D01*
G37*
G36*
X15512Y8976D02*
X14479Y8145D01*
X14980Y7844D01*
X15512Y8976D01*
G37*
G36*
X14479Y8145D02*
X14780Y7844D01*
X14980Y7844D01*
X14479Y8145D01*
G37*
G36*
X14980Y7844D02*
X15434Y7844D01*
X15512Y8976D01*
X14980Y7844D01*
G37*
G36*
X15512Y7844D02*
X15512Y8976D01*
X15434Y7844D01*
X15512Y7844D01*
G37*
G36*
X15434Y7844D02*
X14980Y7844D01*
X14980Y7644D01*
X15434Y7844D01*
G37*
G36*
X15434Y7844D02*
X14980Y7644D01*
X15158Y7466D01*
X15434Y7844D01*
G37*
G36*
X15158Y7466D02*
X15434Y7511D01*
X15434Y7844D01*
X15158Y7466D01*
G37*
G36*
X15434Y7511D02*
X15158Y7466D01*
X15966Y7466D01*
X15434Y7511D01*
G37*
G36*
X15728Y7511D02*
X15434Y7511D01*
X15966Y7466D01*
X15728Y7511D01*
G37*
G36*
X15728Y7511D02*
X15966Y7466D01*
X15966Y7588D01*
X15728Y7511D01*
G37*
G36*
X15966Y7588D02*
X15728Y7844D01*
X15728Y7511D01*
X15966Y7588D01*
G37*
G36*
X16137Y7588D02*
X15728Y7844D01*
X15966Y7588D01*
X16137Y7588D01*
G37*
G36*
X16074Y8377D02*
X15728Y7844D01*
X16137Y7588D01*
X16074Y8377D01*
G37*
G36*
X16682Y8377D02*
X16074Y8377D01*
X16137Y7588D01*
X16682Y8377D01*
G37*
G36*
X16137Y7588D02*
X16951Y8402D01*
X16682Y8377D01*
X16137Y7588D01*
G37*
G36*
X16951Y8402D02*
X16682Y8868D01*
X16682Y8377D01*
X16951Y8402D01*
G37*
G36*
X16951Y8402D02*
X16968Y8415D01*
X16682Y8868D01*
X16951Y8402D01*
G37*
G36*
X16968Y8415D02*
X16987Y8422D01*
X16682Y8868D01*
X16968Y8415D01*
G37*
G36*
X16987Y8422D02*
X16682Y9046D01*
X16682Y8868D01*
X16987Y8422D01*
G37*
G36*
X16682Y9046D02*
X16647Y8868D01*
X16682Y8868D01*
X16682Y9046D01*
G37*
G36*
X16682Y9046D02*
X16647Y9046D01*
X16647Y8868D01*
X16682Y9046D01*
G37*
G36*
X16682Y9046D02*
X16987Y8422D01*
X17007Y8425D01*
X16682Y9046D01*
G37*
G36*
X17392Y8849D02*
X16682Y9046D01*
X17007Y8425D01*
X17392Y8849D01*
G37*
G36*
X17007Y8425D02*
X17392Y8652D01*
X17392Y8849D01*
X17007Y8425D01*
G37*
G36*
X17392Y8652D02*
X17007Y8425D01*
X17914Y8425D01*
X17392Y8652D01*
G37*
G36*
X17726Y8652D02*
X17392Y8652D01*
X17914Y8425D01*
X17726Y8652D01*
G37*
G36*
X17914Y8425D02*
X17935Y8422D01*
X17726Y8652D01*
X17914Y8425D01*
G37*
G36*
X17726Y8652D02*
X17935Y8422D01*
X18180Y8572D01*
X17726Y8652D01*
G37*
G36*
X18180Y8572D02*
X17935Y8422D01*
X17954Y8415D01*
X18180Y8572D01*
G37*
G36*
X17954Y8415D02*
X17970Y8402D01*
X18180Y8572D01*
X17954Y8415D01*
G37*
G36*
X17970Y8402D02*
X18180Y8278D01*
X18180Y8572D01*
X17970Y8402D01*
G37*
G36*
X18259Y8114D02*
X18180Y8278D01*
X17970Y8402D01*
X18259Y8114D01*
G37*
G36*
X18180Y8278D02*
X18259Y8114D01*
X18513Y8278D01*
X18180Y8278D01*
G37*
G36*
X18513Y8278D02*
X18259Y8114D01*
X20031Y8114D01*
X18513Y8278D01*
G37*
G36*
X18513Y8572D02*
X18513Y8278D01*
X20031Y8114D01*
X18513Y8572D01*
G37*
G36*
X18513Y8572D02*
X20031Y8114D01*
X21073Y9222D01*
X18513Y8572D01*
G37*
G36*
X20031Y8114D02*
X20052Y8111D01*
X21073Y9222D01*
X20031Y8114D01*
G37*
G36*
X20052Y8111D02*
X20071Y8103D01*
X21073Y9222D01*
X20052Y8111D01*
G37*
G36*
X20071Y8103D02*
X20087Y8090D01*
X21073Y9222D01*
X20071Y8103D01*
G37*
G36*
X21073Y9222D02*
X20087Y8090D01*
X20541Y7844D01*
X21073Y9222D01*
G37*
G36*
X20087Y8090D02*
X20333Y7844D01*
X20541Y7844D01*
X20087Y8090D01*
G37*
G36*
X20541Y7844D02*
X20995Y7844D01*
X21073Y9222D01*
X20541Y7844D01*
G37*
G36*
X20995Y7844D02*
X21073Y7844D01*
X21073Y9222D01*
X20995Y7844D01*
G37*
G36*
X20995Y7844D02*
X20541Y7844D01*
X20541Y7636D01*
X20995Y7844D01*
G37*
G36*
X20995Y7844D02*
X20541Y7636D01*
X20734Y7443D01*
X20995Y7844D01*
G37*
G36*
X20734Y7443D02*
X20995Y7511D01*
X20995Y7844D01*
X20734Y7443D01*
G37*
G36*
X20995Y7511D02*
X20734Y7443D01*
X21487Y7443D01*
X20995Y7511D01*
G37*
G36*
X21289Y7511D02*
X20995Y7511D01*
X21487Y7443D01*
X21289Y7511D01*
G37*
G36*
X21289Y7511D02*
X21487Y7443D01*
X21487Y7587D01*
X21289Y7511D01*
G37*
G36*
X21487Y7587D02*
X21289Y7844D01*
X21289Y7511D01*
X21487Y7587D01*
G37*
G36*
X21667Y7587D02*
X21289Y7844D01*
X21487Y7587D01*
X21667Y7587D01*
G37*
G36*
X21586Y8377D02*
X21289Y7844D01*
X21667Y7587D01*
X21586Y8377D01*
G37*
G36*
X22194Y8377D02*
X21586Y8377D01*
X21667Y7587D01*
X22194Y8377D01*
G37*
G36*
X21667Y7587D02*
X22511Y8431D01*
X22194Y8377D01*
X21667Y7587D01*
G37*
G36*
X22511Y8431D02*
X22194Y8868D01*
X22194Y8377D01*
X22511Y8431D01*
G37*
G36*
X22194Y8868D02*
X22511Y8431D01*
X22527Y8443D01*
X22194Y8868D01*
G37*
G36*
X22527Y8443D02*
X22546Y8451D01*
X22194Y8868D01*
X22527Y8443D01*
G37*
G36*
X22546Y8451D02*
X22194Y9046D01*
X22194Y8868D01*
X22546Y8451D01*
G37*
G36*
X22194Y9046D02*
X22159Y8868D01*
X22194Y8868D01*
X22194Y9046D01*
G37*
G36*
X22194Y9046D02*
X22159Y9046D01*
X22159Y8868D01*
X22194Y9046D01*
G37*
G36*
X22546Y8451D02*
X22194Y9222D01*
X22194Y9046D01*
X22546Y8451D01*
G37*
G36*
X22570Y9222D02*
X22194Y9222D01*
X22546Y8451D01*
X22570Y9222D01*
G37*
G36*
X22546Y8451D02*
X22567Y8454D01*
X22570Y9222D01*
X22546Y8451D01*
G37*
G36*
X22570Y9222D02*
X22567Y8454D01*
X22904Y8888D01*
X22570Y9222D01*
G37*
G36*
X22567Y8454D02*
X22904Y8652D01*
X22904Y8888D01*
X22567Y8454D01*
G37*
G36*
X22904Y8652D02*
X22567Y8454D01*
X23402Y8454D01*
X22904Y8652D01*
G37*
G36*
X23238Y8652D02*
X22904Y8652D01*
X23402Y8454D01*
X23238Y8652D01*
G37*
G36*
X23402Y8454D02*
X23423Y8451D01*
X23238Y8652D01*
X23402Y8454D01*
G37*
G36*
X23423Y8451D02*
X23238Y8946D01*
X23238Y8652D01*
X23423Y8451D01*
G37*
G36*
X23691Y8572D02*
X23238Y8946D01*
X23423Y8451D01*
X23691Y8572D01*
G37*
G36*
X23423Y8451D02*
X23442Y8443D01*
X23691Y8572D01*
X23423Y8451D01*
G37*
G36*
X23442Y8443D02*
X23458Y8431D01*
X23691Y8572D01*
X23442Y8443D01*
G37*
G36*
X23458Y8431D02*
X23691Y8278D01*
X23691Y8572D01*
X23458Y8431D01*
G37*
G36*
X23724Y8165D02*
X23691Y8278D01*
X23458Y8431D01*
X23724Y8165D01*
G37*
G36*
X23691Y8278D02*
X23724Y8165D01*
X24025Y8278D01*
X23691Y8278D01*
G37*
G36*
X24025Y8278D02*
X23724Y8165D01*
X25446Y8165D01*
X24025Y8278D01*
G37*
G36*
X25446Y8165D02*
X24361Y8691D01*
X24025Y8278D01*
X25446Y8165D01*
G37*
G36*
X24361Y8691D02*
X24343Y8693D01*
X24025Y8278D01*
X24361Y8691D01*
G37*
G36*
X24025Y8278D02*
X24343Y8693D01*
X24025Y8572D01*
X24025Y8278D01*
G37*
G36*
X24326Y8700D02*
X24025Y8572D01*
X24343Y8693D01*
X24326Y8700D01*
G37*
G36*
X24312Y8711D02*
X24025Y8572D01*
X24326Y8700D01*
X24312Y8711D01*
G37*
G36*
X23397Y9626D02*
X24025Y8572D01*
X24312Y8711D01*
X23397Y9626D01*
G37*
G36*
X23397Y9626D02*
X23691Y8572D01*
X24025Y8572D01*
X23397Y9626D01*
G37*
G36*
X23238Y8946D02*
X23691Y8572D01*
X23397Y9626D01*
X23238Y8946D01*
G37*
G36*
X23041Y8946D02*
X23238Y8946D01*
X23397Y9626D01*
X23041Y8946D01*
G37*
G36*
X22647Y9340D02*
X23041Y8946D01*
X23397Y9626D01*
X22647Y9340D01*
G37*
G36*
X22633Y9351D02*
X22647Y9340D01*
X23397Y9626D01*
X22633Y9351D01*
G37*
G36*
X22616Y9358D02*
X22633Y9351D01*
X23397Y9626D01*
X22616Y9358D01*
G37*
G36*
X23397Y9626D02*
X22194Y9537D01*
X22616Y9358D01*
X23397Y9626D01*
G37*
G36*
X22194Y9537D02*
X22598Y9360D01*
X22616Y9358D01*
X22194Y9537D01*
G37*
G36*
X22194Y9537D02*
X22194Y9360D01*
X22598Y9360D01*
X22194Y9537D01*
G37*
G36*
X23397Y9626D02*
X20424Y9626D01*
X22194Y9537D01*
X23397Y9626D01*
G37*
G36*
X20424Y9626D02*
X21586Y9537D01*
X22194Y9537D01*
X20424Y9626D01*
G37*
G36*
X21586Y9537D02*
X20424Y9626D01*
X21586Y9360D01*
X21586Y9537D01*
G37*
G36*
X20424Y9626D02*
X17972Y9360D01*
X21586Y9360D01*
X20424Y9626D01*
G37*
G36*
X20406Y9629D02*
X17972Y9360D01*
X20424Y9626D01*
X20406Y9629D01*
G37*
G36*
X20389Y9635D02*
X17972Y9360D01*
X20406Y9629D01*
X20389Y9635D01*
G37*
G36*
X20375Y9646D02*
X17972Y9360D01*
X20389Y9635D01*
X20375Y9646D01*
G37*
G36*
X19440Y10581D02*
X17972Y9360D01*
X20375Y9646D01*
X19440Y10581D01*
G37*
G36*
X19429Y10596D02*
X17972Y9360D01*
X19440Y10581D01*
X19429Y10596D01*
G37*
G36*
X19422Y10612D02*
X17972Y9360D01*
X19429Y10596D01*
X19422Y10612D01*
G37*
G36*
X18356Y11507D02*
X17972Y9360D01*
X19422Y10612D01*
X18356Y11507D01*
G37*
G36*
X19420Y10630D02*
X18356Y11507D01*
X19422Y10612D01*
X19420Y10630D01*
G37*
G36*
X18534Y11507D02*
X18356Y11507D01*
X19420Y10630D01*
X18534Y11507D01*
G37*
G36*
X19025Y11507D02*
X18534Y11507D01*
X19420Y10630D01*
X19025Y11507D01*
G37*
G36*
X19420Y10630D02*
X19420Y12078D01*
X19025Y11507D01*
X19420Y10630D01*
G37*
G36*
X19025Y11507D02*
X19420Y12078D01*
X19025Y12115D01*
X19025Y11507D01*
G37*
G36*
X18968Y12530D02*
X19025Y12115D01*
X19420Y12078D01*
X18968Y12530D01*
G37*
G36*
X18968Y12530D02*
X18534Y12115D01*
X19025Y12115D01*
X18968Y12530D01*
G37*
G36*
X18356Y12115D02*
X18534Y12115D01*
X18968Y12530D01*
X18356Y12115D01*
G37*
G36*
X17865Y12115D02*
X18356Y12115D01*
X18968Y12530D01*
X17865Y12115D01*
G37*
G36*
X17243Y12368D02*
X17865Y12115D01*
X18968Y12530D01*
X17243Y12368D01*
G37*
G36*
X18968Y12530D02*
X15285Y12530D01*
X17243Y12368D01*
X18968Y12530D01*
G37*
G36*
X15285Y12530D02*
X16965Y12368D01*
X17243Y12368D01*
X15285Y12530D01*
G37*
G36*
X15285Y12530D02*
X16743Y12368D01*
X16965Y12368D01*
X15285Y12530D01*
G37*
G36*
X16743Y11460D02*
X16965Y12368D01*
X16743Y12368D01*
X16743Y11460D01*
G37*
G36*
X16965Y12368D02*
X16743Y11460D01*
X16965Y11460D01*
X16965Y12368D01*
G37*
G36*
X16673Y10659D02*
X16965Y11460D01*
X16743Y11460D01*
X16673Y10659D01*
G37*
G36*
X16673Y10659D02*
X16743Y11460D01*
X16673Y11460D01*
X16673Y10659D01*
G37*
G36*
X16673Y10659D02*
X17243Y11460D01*
X16965Y11460D01*
X16673Y10659D01*
G37*
G36*
X17243Y11460D02*
X16673Y10659D01*
X17972Y9360D01*
X17243Y11460D01*
G37*
G36*
X17972Y9360D02*
X17865Y11507D01*
X17243Y11460D01*
X17972Y9360D01*
G37*
G36*
X17569Y11703D02*
X17243Y11460D01*
X17865Y11507D01*
X17569Y11703D01*
G37*
G36*
X17618Y11710D02*
X17569Y11703D01*
X17865Y11507D01*
X17618Y11710D01*
G37*
G36*
X17662Y11733D02*
X17618Y11710D01*
X17865Y11507D01*
X17662Y11733D01*
G37*
G36*
X17697Y11768D02*
X17662Y11733D01*
X17865Y11507D01*
X17697Y11768D01*
G37*
G36*
X17865Y11507D02*
X17865Y11836D01*
X17697Y11768D01*
X17865Y11507D01*
G37*
G36*
X17865Y11836D02*
X17720Y11812D01*
X17697Y11768D01*
X17865Y11836D01*
G37*
G36*
X17865Y11836D02*
X17724Y11836D01*
X17720Y11812D01*
X17865Y11836D01*
G37*
G36*
X17521Y11710D02*
X17243Y11460D01*
X17569Y11703D01*
X17521Y11710D01*
G37*
G36*
X17477Y11733D02*
X17243Y11460D01*
X17521Y11710D01*
X17477Y11733D01*
G37*
G36*
X17477Y11733D02*
X17243Y11782D01*
X17243Y11460D01*
X17477Y11733D01*
G37*
G36*
X17442Y11768D02*
X17243Y11782D01*
X17477Y11733D01*
X17442Y11768D01*
G37*
G36*
X17434Y11782D02*
X17243Y11782D01*
X17442Y11768D01*
X17434Y11782D01*
G37*
G36*
X17972Y9360D02*
X18356Y11507D01*
X17865Y11507D01*
X17972Y9360D01*
G37*
G36*
X15285Y12530D02*
X16465Y12368D01*
X16743Y12368D01*
X15285Y12530D01*
G37*
G36*
X15285Y12530D02*
X16243Y12368D01*
X16465Y12368D01*
X15285Y12530D01*
G37*
G36*
X16465Y12368D02*
X16243Y12368D01*
X16243Y11460D01*
X16465Y12368D01*
G37*
G36*
X16465Y12368D02*
X16243Y11460D01*
X16465Y11460D01*
X16465Y12368D01*
G37*
G36*
X16465Y11460D02*
X16243Y11460D01*
X16535Y10630D01*
X16465Y11460D01*
G37*
G36*
X16243Y11460D02*
X16173Y11460D01*
X16535Y10630D01*
X16243Y11460D01*
G37*
G36*
X16535Y10630D02*
X16173Y11460D01*
X16173Y9773D01*
X16535Y10630D01*
G37*
G36*
X16535Y10630D02*
X16173Y9773D01*
X16538Y10612D01*
X16535Y10630D01*
G37*
G36*
X16545Y10596D02*
X16538Y10612D01*
X16173Y9773D01*
X16545Y10596D01*
G37*
G36*
X16556Y10581D02*
X16545Y10596D01*
X16173Y9773D01*
X16556Y10581D01*
G37*
G36*
X16556Y10581D02*
X16173Y9773D01*
X16682Y9537D01*
X16556Y10581D01*
G37*
G36*
X16682Y9537D02*
X16173Y9773D01*
X16410Y9537D01*
X16682Y9537D01*
G37*
G36*
X17065Y9358D02*
X16556Y10581D01*
X16682Y9537D01*
X17065Y9358D01*
G37*
G36*
X17065Y9358D02*
X16682Y9537D01*
X17047Y9360D01*
X17065Y9358D01*
G37*
G36*
X16682Y9537D02*
X16682Y9360D01*
X17047Y9360D01*
X16682Y9537D01*
G37*
G36*
X16556Y10581D02*
X17065Y9358D01*
X17082Y9351D01*
X16556Y10581D01*
G37*
G36*
X17894Y9243D02*
X16556Y10581D01*
X17082Y9351D01*
X17894Y9243D01*
G37*
G36*
X17894Y9243D02*
X17082Y9351D01*
X17096Y9340D01*
X17894Y9243D01*
G37*
G36*
X17096Y9340D02*
X17490Y8946D01*
X17894Y9243D01*
X17096Y9340D01*
G37*
G36*
X17490Y8946D02*
X17726Y8946D01*
X17894Y9243D01*
X17490Y8946D01*
G37*
G36*
X17894Y9243D02*
X17726Y8946D01*
X17909Y9232D01*
X17894Y9243D01*
G37*
G36*
X17909Y9232D02*
X17726Y8946D01*
X17925Y9225D01*
X17909Y9232D01*
G37*
G36*
X17925Y9225D02*
X17726Y8946D01*
X17943Y9222D01*
X17925Y9225D01*
G37*
G36*
X17943Y9222D02*
X17726Y8946D01*
X18180Y8572D01*
X17943Y9222D01*
G37*
G36*
X18180Y8572D02*
X17726Y8946D01*
X17726Y8652D01*
X18180Y8572D01*
G37*
G36*
X17943Y9222D02*
X18180Y8572D01*
X18513Y8572D01*
X17943Y9222D01*
G37*
G36*
X21073Y9222D02*
X17943Y9222D01*
X18513Y8572D01*
X21073Y9222D01*
G37*
G36*
X16535Y11460D02*
X16465Y11460D01*
X16535Y10630D01*
X16535Y11460D01*
G37*
G36*
X15285Y12530D02*
X15965Y12368D01*
X16243Y12368D01*
X15285Y12530D01*
G37*
G36*
X15285Y12530D02*
X15743Y12368D01*
X15965Y12368D01*
X15285Y12530D01*
G37*
G36*
X15965Y12368D02*
X15743Y12368D01*
X15743Y11460D01*
X15965Y12368D01*
G37*
G36*
X15965Y12368D02*
X15743Y11460D01*
X15965Y11460D01*
X15965Y12368D01*
G37*
G36*
X15673Y10630D02*
X15965Y11460D01*
X15743Y11460D01*
X15673Y10630D01*
G37*
G36*
X15743Y11460D02*
X15673Y11460D01*
X15673Y10630D01*
X15743Y11460D01*
G37*
G36*
X15673Y10630D02*
X16035Y11460D01*
X15965Y11460D01*
X15673Y10630D01*
G37*
G36*
X15671Y10612D02*
X16035Y11460D01*
X15673Y10630D01*
X15671Y10612D01*
G37*
G36*
X15664Y10596D02*
X16035Y11460D01*
X15671Y10612D01*
X15664Y10596D01*
G37*
G36*
X15664Y10596D02*
X16035Y9744D01*
X16035Y11460D01*
X15664Y10596D01*
G37*
G36*
X15653Y10581D02*
X16035Y9744D01*
X15664Y10596D01*
X15653Y10581D01*
G37*
G36*
X16035Y9744D02*
X15653Y10581D01*
X15847Y9340D01*
X16035Y9744D01*
G37*
G36*
X15653Y10581D02*
X15532Y9025D01*
X15847Y9340D01*
X15653Y10581D01*
G37*
G36*
X13822Y8750D02*
X15532Y9025D01*
X15653Y10581D01*
X13822Y8750D01*
G37*
G36*
X13822Y8750D02*
X15521Y9011D01*
X15532Y9025D01*
X13822Y8750D01*
G37*
G36*
X13822Y8750D02*
X15514Y8994D01*
X15521Y9011D01*
X13822Y8750D01*
G37*
G36*
X13822Y8750D02*
X15512Y8976D01*
X15514Y8994D01*
X13822Y8750D01*
G37*
G36*
X15862Y9351D02*
X16035Y9744D01*
X15847Y9340D01*
X15862Y9351D01*
G37*
G36*
X15878Y9358D02*
X16035Y9744D01*
X15862Y9351D01*
X15878Y9358D01*
G37*
G36*
X16038Y9727D02*
X16035Y9744D01*
X15878Y9358D01*
X16038Y9727D01*
G37*
G36*
X16045Y9710D02*
X16038Y9727D01*
X15878Y9358D01*
X16045Y9710D01*
G37*
G36*
X16074Y9537D02*
X16045Y9710D01*
X15878Y9358D01*
X16074Y9537D01*
G37*
G36*
X15896Y9360D02*
X16074Y9537D01*
X15878Y9358D01*
X15896Y9360D01*
G37*
G36*
X15896Y9360D02*
X16074Y9360D01*
X16074Y9537D01*
X15896Y9360D01*
G37*
G36*
X16056Y9696D02*
X16045Y9710D01*
X16074Y9537D01*
X16056Y9696D01*
G37*
G36*
X16056Y9696D02*
X16074Y9537D01*
X16213Y9538D01*
X16056Y9696D01*
G37*
G36*
X16074Y9537D02*
X16213Y9537D01*
X16213Y9538D01*
X16074Y9537D01*
G37*
G36*
X15285Y12530D02*
X15465Y12368D01*
X15743Y12368D01*
X15285Y12530D01*
G37*
G36*
X15285Y12530D02*
X15243Y12368D01*
X15465Y12368D01*
X15285Y12530D01*
G37*
G36*
X15465Y12368D02*
X15243Y12368D01*
X15243Y11460D01*
X15465Y12368D01*
G37*
G36*
X15465Y12368D02*
X15243Y11460D01*
X15465Y11460D01*
X15465Y12368D01*
G37*
G36*
X15535Y10659D02*
X15465Y11460D01*
X15243Y11460D01*
X15535Y10659D01*
G37*
G36*
X15243Y11460D02*
X14965Y11460D01*
X15535Y10659D01*
X15243Y11460D01*
G37*
G36*
X15535Y10659D02*
X15535Y11460D01*
X15465Y11460D01*
X15535Y10659D01*
G37*
G36*
X15207Y12452D02*
X15243Y12368D01*
X15285Y12530D01*
X15207Y12452D01*
G37*
G36*
X15243Y12368D02*
X15207Y12452D01*
X15205Y12450D01*
X15243Y12368D01*
G37*
G36*
X15207Y12452D02*
X15206Y12451D01*
X15205Y12450D01*
X15207Y12452D01*
G37*
G36*
X15205Y12450D02*
X15173Y12421D01*
X15243Y12368D01*
X15205Y12450D01*
G37*
G36*
X15173Y12421D02*
X15173Y12368D01*
X15243Y12368D01*
X15173Y12421D01*
G37*
G36*
X17865Y12115D02*
X17243Y12368D01*
X17569Y12019D01*
X17865Y12115D01*
G37*
G36*
X17243Y12368D02*
X17521Y12011D01*
X17569Y12019D01*
X17243Y12368D01*
G37*
G36*
X17243Y12368D02*
X17484Y11992D01*
X17521Y12011D01*
X17243Y12368D01*
G37*
G36*
X17243Y12368D02*
X17243Y11992D01*
X17484Y11992D01*
X17243Y12368D01*
G37*
G36*
X17569Y12019D02*
X17618Y12011D01*
X17865Y12115D01*
X17569Y12019D01*
G37*
G36*
X17618Y12011D02*
X17655Y11992D01*
X17865Y12115D01*
X17618Y12011D01*
G37*
G36*
X17655Y11992D02*
X17865Y11992D01*
X17865Y12115D01*
X17655Y11992D01*
G37*
G36*
X18356Y12115D02*
X18534Y12080D01*
X18534Y12115D01*
X18356Y12115D01*
G37*
G36*
X18356Y12115D02*
X18356Y12080D01*
X18534Y12080D01*
X18356Y12115D01*
G37*
G36*
X18356Y11542D02*
X18356Y11507D01*
X18534Y11507D01*
X18356Y11542D01*
G37*
G36*
X18356Y11542D02*
X18534Y11507D01*
X18534Y11542D01*
X18356Y11542D01*
G37*
G36*
X24361Y8691D02*
X25446Y8165D01*
X25513Y8691D01*
X24361Y8691D01*
G37*
G36*
X25446Y8165D02*
X25467Y8163D01*
X25513Y8691D01*
X25446Y8165D01*
G37*
G36*
X25467Y8163D02*
X25486Y8155D01*
X25513Y8691D01*
X25467Y8163D01*
G37*
G36*
X25486Y8155D02*
X25502Y8142D01*
X25513Y8691D01*
X25486Y8155D01*
G37*
G36*
X26004Y7844D02*
X25513Y8691D01*
X25502Y8142D01*
X26004Y7844D01*
G37*
G36*
X26004Y7844D02*
X25502Y8142D01*
X25800Y7844D01*
X26004Y7844D01*
G37*
G36*
X25513Y8691D02*
X26004Y7844D01*
X26458Y7747D01*
X25513Y8691D01*
G37*
G36*
X26004Y7844D02*
X26004Y7640D01*
X26458Y7747D01*
X26004Y7844D01*
G37*
G36*
X26458Y7747D02*
X26004Y7640D01*
X26458Y7511D01*
X26458Y7747D01*
G37*
G36*
X26004Y7640D02*
X26273Y7371D01*
X26458Y7511D01*
X26004Y7640D01*
G37*
G36*
X26752Y7511D02*
X26458Y7511D01*
X26273Y7371D01*
X26752Y7511D01*
G37*
G36*
X26999Y7371D02*
X26752Y7511D01*
X26273Y7371D01*
X26999Y7371D01*
G37*
G36*
X26752Y7511D02*
X26999Y7371D01*
X26999Y7587D01*
X26752Y7511D01*
G37*
G36*
X26752Y7756D02*
X26752Y7511D01*
X26999Y7587D01*
X26752Y7756D01*
G37*
G36*
X26821Y7825D02*
X26752Y7756D01*
X26999Y7587D01*
X26821Y7825D01*
G37*
G36*
X26832Y7840D02*
X26821Y7825D01*
X26999Y7587D01*
X26832Y7840D01*
G37*
G36*
X26839Y7856D02*
X26832Y7840D01*
X26999Y7587D01*
X26839Y7856D01*
G37*
G36*
X26841Y7874D02*
X26839Y7856D01*
X26999Y7587D01*
X26841Y7874D01*
G37*
G36*
X27490Y7587D02*
X26841Y7874D01*
X26999Y7587D01*
X27490Y7587D01*
G37*
G36*
X27098Y8377D02*
X26841Y7874D01*
X27490Y7587D01*
X27098Y8377D01*
G37*
G36*
X27098Y8377D02*
X27490Y7587D01*
X27706Y8377D01*
X27098Y8377D01*
G37*
G36*
X27490Y7587D02*
X27668Y7587D01*
X27706Y8377D01*
X27490Y7587D01*
G37*
G36*
X27706Y8377D02*
X27668Y7587D01*
X28159Y7587D01*
X27706Y8377D01*
G37*
G36*
X28416Y7904D02*
X27706Y8377D01*
X28159Y7587D01*
X28416Y7904D01*
G37*
G36*
X28159Y7587D02*
X28180Y7587D01*
X28416Y7904D01*
X28159Y7587D01*
G37*
G36*
X28416Y7904D02*
X28180Y7587D01*
X28671Y7587D01*
X28416Y7904D01*
G37*
G36*
X28416Y7904D02*
X28671Y7587D01*
X28749Y7904D01*
X28416Y7904D01*
G37*
G36*
X28749Y7904D02*
X28671Y7587D01*
X28849Y7587D01*
X28749Y7904D01*
G37*
G36*
X28671Y7587D02*
X28849Y7552D01*
X28849Y7587D01*
X28671Y7587D01*
G37*
G36*
X28671Y7587D02*
X28671Y7552D01*
X28849Y7552D01*
X28671Y7587D01*
G37*
G36*
X28749Y7904D02*
X28849Y7587D01*
X29016Y7723D01*
X28749Y7904D01*
G37*
G36*
X28849Y7587D02*
X29016Y7587D01*
X29016Y7723D01*
X28849Y7587D01*
G37*
G36*
X29016Y7723D02*
X28767Y7973D01*
X28749Y7904D01*
X29016Y7723D01*
G37*
G36*
X28767Y7973D02*
X28749Y7973D01*
X28749Y7904D01*
X28767Y7973D01*
G37*
G36*
X28180Y7587D02*
X28159Y7587D01*
X28159Y7362D01*
X28180Y7587D01*
G37*
G36*
X28180Y7362D02*
X28180Y7587D01*
X28159Y7362D01*
X28180Y7362D01*
G37*
G36*
X28416Y8198D02*
X27706Y8377D01*
X28416Y7904D01*
X28416Y8198D01*
G37*
G36*
X27706Y8377D02*
X28416Y8198D01*
X28416Y8652D01*
X27706Y8377D01*
G37*
G36*
X28749Y8652D02*
X28416Y8652D01*
X28416Y8198D01*
X28749Y8652D01*
G37*
G36*
X28749Y8652D02*
X28416Y8198D01*
X28749Y8198D01*
X28749Y8652D01*
G37*
G36*
X28819Y8127D02*
X28749Y8652D01*
X28749Y8198D01*
X28819Y8127D01*
G37*
G36*
X28819Y8127D02*
X28749Y8198D01*
X28799Y8129D01*
X28819Y8127D01*
G37*
G36*
X28749Y8198D02*
X28749Y8129D01*
X28799Y8129D01*
X28749Y8198D01*
G37*
G36*
X29203Y8278D02*
X28749Y8652D01*
X28819Y8127D01*
X29203Y8278D01*
G37*
G36*
X29203Y8278D02*
X28819Y8127D01*
X28838Y8119D01*
X29203Y8278D01*
G37*
G36*
X28838Y8119D02*
X28854Y8106D01*
X29203Y8278D01*
X28838Y8119D01*
G37*
G36*
X28854Y8106D02*
X29150Y7811D01*
X29203Y8278D01*
X28854Y8106D01*
G37*
G36*
X29203Y8278D02*
X29150Y7811D01*
X29537Y8278D01*
X29203Y8278D01*
G37*
G36*
X29162Y7795D02*
X29537Y8278D01*
X29150Y7811D01*
X29162Y7795D01*
G37*
G36*
X29170Y7776D02*
X29537Y8278D01*
X29162Y7795D01*
X29170Y7776D01*
G37*
G36*
X29340Y7587D02*
X29537Y8278D01*
X29170Y7776D01*
X29340Y7587D01*
G37*
G36*
X29340Y7587D02*
X29170Y7776D01*
X29173Y7756D01*
X29340Y7587D01*
G37*
G36*
X29173Y7756D02*
X29173Y7587D01*
X29340Y7587D01*
X29173Y7756D01*
G37*
G36*
X29537Y8278D02*
X29340Y7587D01*
X29340Y6979D01*
X29537Y8278D01*
G37*
G36*
X29203Y8278D02*
X29203Y8572D01*
X28749Y8652D01*
X29203Y8278D01*
G37*
G36*
X28749Y8946D02*
X28749Y8652D01*
X29203Y8572D01*
X28749Y8946D01*
G37*
G36*
X28749Y8946D02*
X29203Y8572D01*
X29537Y8572D01*
X28749Y8946D01*
G37*
G36*
X28416Y8652D02*
X27706Y8868D01*
X27706Y8377D01*
X28416Y8652D01*
G37*
G36*
X27706Y8868D02*
X28416Y8652D01*
X28416Y8888D01*
X27706Y8868D01*
G37*
G36*
X27706Y8868D02*
X28416Y8888D01*
X28082Y9222D01*
X27706Y8868D01*
G37*
G36*
X28082Y9222D02*
X27706Y9046D01*
X27706Y8868D01*
X28082Y9222D01*
G37*
G36*
X27706Y9046D02*
X27671Y8868D01*
X27706Y8868D01*
X27706Y9046D01*
G37*
G36*
X27706Y9046D02*
X27671Y9046D01*
X27671Y8868D01*
X27706Y9046D01*
G37*
G36*
X28082Y9222D02*
X27706Y9222D01*
X27706Y9046D01*
X28082Y9222D01*
G37*
G36*
X27490Y7587D02*
X27668Y7552D01*
X27668Y7587D01*
X27490Y7587D01*
G37*
G36*
X27490Y7587D02*
X27490Y7552D01*
X27668Y7552D01*
X27490Y7587D01*
G37*
G36*
X26841Y8978D02*
X26841Y7874D01*
X27098Y8377D01*
X26841Y8978D01*
G37*
G36*
X27098Y8868D02*
X26841Y8978D01*
X27098Y8377D01*
X27098Y8868D01*
G37*
G36*
X26841Y8978D02*
X27098Y8868D01*
X27098Y9046D01*
X26841Y8978D01*
G37*
G36*
X27133Y9046D02*
X27098Y9046D01*
X27098Y8868D01*
X27133Y9046D01*
G37*
G36*
X27133Y9046D02*
X27098Y8868D01*
X27133Y8868D01*
X27133Y9046D01*
G37*
G36*
X27086Y9222D02*
X26841Y8978D01*
X27098Y9046D01*
X27086Y9222D01*
G37*
G36*
X27086Y9222D02*
X27098Y9046D01*
X27098Y9222D01*
X27086Y9222D01*
G37*
G36*
X21211Y7844D02*
X21289Y7844D01*
X21586Y8377D01*
X21211Y7844D01*
G37*
G36*
X21586Y8868D02*
X21211Y7844D01*
X21586Y8377D01*
X21586Y8868D01*
G37*
G36*
X21211Y9222D02*
X21211Y7844D01*
X21586Y8868D01*
X21211Y9222D01*
G37*
G36*
X21586Y9046D02*
X21211Y9222D01*
X21586Y8868D01*
X21586Y9046D01*
G37*
G36*
X21621Y9046D02*
X21586Y9046D01*
X21586Y8868D01*
X21621Y9046D01*
G37*
G36*
X21621Y9046D02*
X21586Y8868D01*
X21621Y8868D01*
X21621Y9046D01*
G37*
G36*
X21211Y9222D02*
X21586Y9046D01*
X21586Y9222D01*
X21211Y9222D01*
G37*
G36*
X16682Y9046D02*
X17392Y8849D01*
X17019Y9222D01*
X16682Y9046D01*
G37*
G36*
X16682Y9046D02*
X17019Y9222D01*
X16682Y9222D01*
X16682Y9046D01*
G37*
G36*
X16074Y8377D02*
X15650Y7844D01*
X15728Y7844D01*
X16074Y8377D01*
G37*
G36*
X16074Y8377D02*
X15650Y8948D01*
X15650Y7844D01*
X16074Y8377D01*
G37*
G36*
X16074Y8868D02*
X15650Y8948D01*
X16074Y8377D01*
X16074Y8868D01*
G37*
G36*
X15650Y8948D02*
X16074Y8868D01*
X16074Y9046D01*
X15650Y8948D01*
G37*
G36*
X16109Y9046D02*
X16074Y9046D01*
X16074Y8868D01*
X16109Y9046D01*
G37*
G36*
X16109Y9046D02*
X16074Y8868D01*
X16109Y8868D01*
X16109Y9046D01*
G37*
G36*
X15925Y9222D02*
X15650Y8948D01*
X16074Y9046D01*
X15925Y9222D01*
G37*
G36*
X15925Y9222D02*
X16074Y9046D01*
X16074Y9222D01*
X15925Y9222D01*
G37*
G36*
X10365Y8377D02*
X10040Y8041D01*
X10118Y8041D01*
X10365Y8377D01*
G37*
G36*
X10365Y8377D02*
X10040Y8997D01*
X10040Y8041D01*
X10365Y8377D01*
G37*
G36*
X10365Y8868D02*
X10040Y8997D01*
X10365Y8377D01*
X10365Y8868D01*
G37*
G36*
X10040Y8997D02*
X10365Y8868D01*
X10365Y9046D01*
X10040Y8997D01*
G37*
G36*
X10400Y9046D02*
X10365Y9046D01*
X10365Y8868D01*
X10400Y9046D01*
G37*
G36*
X10400Y9046D02*
X10365Y8868D01*
X10400Y8868D01*
X10400Y9046D01*
G37*
G36*
X10265Y9222D02*
X10040Y8997D01*
X10365Y9046D01*
X10265Y9222D01*
G37*
G36*
X10265Y9222D02*
X10365Y9046D01*
X10365Y9222D01*
X10265Y9222D01*
G37*
G36*
X9902Y9025D02*
X8199Y10340D01*
X8164Y10305D01*
X9902Y9025D01*
G37*
G36*
X9902Y9025D02*
X8221Y10384D01*
X8199Y10340D01*
X9902Y9025D01*
G37*
G36*
X9902Y9025D02*
X9904Y9043D01*
X8221Y10384D01*
X9902Y9025D01*
G37*
G36*
X8221Y10384D02*
X9904Y9043D01*
X8229Y10433D01*
X8221Y10384D01*
G37*
G36*
X9911Y9060D02*
X8229Y10433D01*
X9904Y9043D01*
X9911Y9060D01*
G37*
G36*
X9922Y9074D02*
X8229Y10433D01*
X9911Y9060D01*
X9922Y9074D01*
G37*
G36*
X10188Y9340D02*
X8229Y10433D01*
X9922Y9074D01*
X10188Y9340D01*
G37*
G36*
X10188Y9340D02*
X10202Y9351D01*
X8229Y10433D01*
X10188Y9340D01*
G37*
G36*
X7943Y10340D02*
X6496Y10364D01*
X7978Y10305D01*
X7943Y10340D01*
G37*
G36*
X7931Y10364D02*
X6496Y10364D01*
X7943Y10340D01*
X7931Y10364D01*
G37*
G36*
X5266Y11565D02*
X5255Y11580D01*
X5011Y11684D01*
X5266Y11565D01*
G37*
G36*
X5255Y11580D02*
X5248Y11596D01*
X5011Y11684D01*
X5255Y11580D01*
G37*
G36*
X5246Y11614D02*
X5011Y11684D01*
X5248Y11596D01*
X5246Y11614D01*
G37*
G36*
X5011Y11684D02*
X5246Y11614D01*
X5246Y11684D01*
X5011Y11684D01*
G37*
G36*
X5052Y13612D02*
X4960Y13659D01*
X5011Y12844D01*
X5052Y13612D01*
G37*
G36*
X5154Y13596D02*
X5052Y13612D01*
X5011Y12844D01*
X5154Y13596D01*
G37*
G36*
X5154Y13596D02*
X5011Y12844D01*
X5246Y12844D01*
X5154Y13596D01*
G37*
G36*
X5154Y13596D02*
X5246Y12844D01*
X5246Y13611D01*
X5154Y13596D01*
G37*
G36*
X5619Y12844D02*
X5384Y13696D01*
X5384Y12844D01*
X5619Y12844D01*
G37*
G36*
X5619Y12353D02*
X5584Y12175D01*
X5619Y12175D01*
X5619Y12353D01*
G37*
G36*
X5619Y12353D02*
X5584Y12353D01*
X5584Y12175D01*
X5619Y12353D01*
G37*
G36*
X10202Y9351D02*
X10219Y9358D01*
X10365Y9537D01*
X10202Y9351D01*
G37*
G36*
X10365Y9537D02*
X10219Y9358D01*
X10237Y9360D01*
X10365Y9537D01*
G37*
G36*
X10237Y9360D02*
X10365Y9360D01*
X10365Y9537D01*
X10237Y9360D01*
G37*
G36*
X11710Y11812D02*
X11559Y12051D01*
X11559Y12051D01*
X11710Y11812D01*
G37*
G36*
X11559Y12051D02*
X11559Y12051D01*
X11559Y12051D01*
X11559Y12051D01*
G37*
G36*
X11703Y11861D02*
X11559Y12051D01*
X11710Y11812D01*
X11703Y11861D01*
G37*
G36*
X11559Y12051D02*
X11703Y11861D01*
X11709Y11901D01*
X11559Y12051D01*
G37*
G36*
X11953Y11733D02*
X11909Y11710D01*
X13465Y11460D01*
X11953Y11733D01*
G37*
G36*
X11988Y11768D02*
X11953Y11733D01*
X13465Y11460D01*
X11988Y11768D01*
G37*
G36*
X12011Y11812D02*
X11988Y11768D01*
X13465Y11460D01*
X12011Y11812D01*
G37*
G36*
X12529Y12294D02*
X12011Y11812D01*
X13465Y11460D01*
X12529Y12294D01*
G37*
G36*
X12529Y12294D02*
X13465Y11460D01*
X12844Y12448D01*
X12529Y12294D01*
G37*
G36*
X13465Y12368D02*
X12844Y12448D01*
X13465Y11460D01*
X13465Y12368D01*
G37*
G36*
X12888Y12471D02*
X12844Y12448D01*
X13465Y12368D01*
X12888Y12471D01*
G37*
G36*
X12923Y12506D02*
X12888Y12471D01*
X13465Y12368D01*
X12923Y12506D01*
G37*
G36*
X13465Y12368D02*
X13357Y12529D01*
X12923Y12506D01*
X13465Y12368D01*
G37*
G36*
X13357Y12529D02*
X12935Y12529D01*
X12923Y12506D01*
X13357Y12529D01*
G37*
G36*
X13517Y12369D02*
X13357Y12529D01*
X13465Y12368D01*
X13517Y12369D01*
G37*
G36*
X13517Y12369D02*
X13465Y12368D01*
X13517Y12368D01*
X13517Y12369D01*
G37*
G36*
X12844Y12448D02*
X12795Y12440D01*
X12529Y12294D01*
X12844Y12448D01*
G37*
G36*
X12746Y12448D02*
X12529Y12294D01*
X12795Y12440D01*
X12746Y12448D01*
G37*
G36*
X12702Y12471D02*
X12529Y12294D01*
X12746Y12448D01*
X12702Y12471D01*
G37*
G36*
X12667Y12506D02*
X12529Y12294D01*
X12702Y12471D01*
X12667Y12506D01*
G37*
G36*
X12529Y12529D02*
X12529Y12294D01*
X12667Y12506D01*
X12529Y12529D01*
G37*
G36*
X12655Y12529D02*
X12529Y12529D01*
X12667Y12506D01*
X12655Y12529D01*
G37*
G36*
X12529Y12294D02*
X12019Y11861D01*
X12011Y11812D01*
X12529Y12294D01*
G37*
G36*
X12019Y11861D02*
X12529Y12294D01*
X12011Y11909D01*
X12019Y11861D01*
G37*
G36*
X12011Y11909D02*
X12529Y12294D01*
X11988Y11953D01*
X12011Y11909D01*
G37*
G36*
X12038Y12294D02*
X11988Y11953D01*
X12529Y12294D01*
X12038Y12294D01*
G37*
G36*
X11953Y11988D02*
X11988Y11953D01*
X12038Y12294D01*
X11953Y11988D01*
G37*
G36*
X11909Y12011D02*
X11953Y11988D01*
X12038Y12294D01*
X11909Y12011D01*
G37*
G36*
X12038Y12294D02*
X11860Y12329D01*
X11909Y12011D01*
X12038Y12294D01*
G37*
G36*
X11909Y12011D02*
X11860Y12329D01*
X11860Y12294D01*
X11909Y12011D01*
G37*
G36*
X11909Y12011D02*
X11860Y12294D01*
X11861Y12019D01*
X11909Y12011D01*
G37*
G36*
X11861Y12019D02*
X11860Y12294D01*
X11692Y12139D01*
X11861Y12019D01*
G37*
G36*
X11692Y12139D02*
X11860Y12294D01*
X11692Y12294D01*
X11692Y12139D01*
G37*
G36*
X11861Y12019D02*
X11692Y12139D01*
X11820Y12012D01*
X11861Y12019D01*
G37*
G36*
X11860Y12329D02*
X12038Y12294D01*
X12038Y12329D01*
X11860Y12329D01*
G37*
G36*
X14465Y12368D02*
X14243Y11460D01*
X14465Y11460D01*
X14465Y12368D01*
G37*
G36*
X14465Y12368D02*
X14243Y12368D01*
X14243Y11460D01*
X14465Y12368D01*
G37*
G36*
X14173Y12864D02*
X14243Y12368D01*
X14465Y12368D01*
X14173Y12864D01*
G37*
G36*
X14535Y12926D02*
X14173Y12864D01*
X14465Y12368D01*
X14535Y12926D01*
G37*
G36*
X14465Y12368D02*
X14535Y12368D01*
X14535Y12926D01*
X14465Y12368D01*
G37*
G36*
X14171Y12882D02*
X14173Y12864D01*
X14535Y12926D01*
X14171Y12882D01*
G37*
G36*
X14535Y12926D02*
X14164Y12899D01*
X14171Y12882D01*
X14535Y12926D01*
G37*
G36*
X14164Y12899D02*
X14535Y12926D01*
X14153Y12913D01*
X14164Y12899D01*
G37*
G36*
X14535Y12926D02*
X13948Y13514D01*
X14153Y12913D01*
X14535Y12926D01*
G37*
G36*
X13948Y13514D02*
X13828Y13238D01*
X14153Y12913D01*
X13948Y13514D01*
G37*
G36*
X13814Y13249D02*
X13828Y13238D01*
X13948Y13514D01*
X13814Y13249D01*
G37*
G36*
X13797Y13256D02*
X13814Y13249D01*
X13948Y13514D01*
X13797Y13256D01*
G37*
G36*
X13779Y13258D02*
X13797Y13256D01*
X13948Y13514D01*
X13779Y13258D01*
G37*
G36*
X13329Y13514D02*
X13779Y13258D01*
X13948Y13514D01*
X13329Y13514D01*
G37*
G36*
X13329Y13514D02*
X13317Y13490D01*
X13779Y13258D01*
X13329Y13514D01*
G37*
G36*
X13317Y13490D02*
X13282Y13455D01*
X13779Y13258D01*
X13317Y13490D01*
G37*
G36*
X13282Y13455D02*
X13238Y13432D01*
X13779Y13258D01*
X13282Y13455D01*
G37*
G36*
X13779Y13258D02*
X13238Y13432D01*
X12935Y13258D01*
X13779Y13258D01*
G37*
G36*
X13238Y13432D02*
X13189Y13425D01*
X12935Y13258D01*
X13238Y13432D01*
G37*
G36*
X13189Y13425D02*
X13140Y13432D01*
X12935Y13258D01*
X13189Y13425D01*
G37*
G36*
X13140Y13432D02*
X13096Y13455D01*
X12935Y13258D01*
X13140Y13432D01*
G37*
G36*
X12935Y13258D02*
X13096Y13455D01*
X12923Y13282D01*
X12935Y13258D01*
G37*
G36*
X13061Y13490D02*
X12923Y13282D01*
X13096Y13455D01*
X13061Y13490D01*
G37*
G36*
X12888Y13317D02*
X12923Y13282D01*
X13061Y13490D01*
X12888Y13317D01*
G37*
G36*
X13039Y13534D02*
X12888Y13317D01*
X13061Y13490D01*
X13039Y13534D01*
G37*
G36*
X13039Y13534D02*
X12844Y13339D01*
X12888Y13317D01*
X13039Y13534D01*
G37*
G36*
X13039Y13534D02*
X12795Y13347D01*
X12844Y13339D01*
X13039Y13534D01*
G37*
G36*
X13031Y13583D02*
X12795Y13347D01*
X13039Y13534D01*
X13031Y13583D01*
G37*
G36*
X12795Y13347D02*
X13031Y13583D01*
X12529Y13690D01*
X12795Y13347D01*
G37*
G36*
X12529Y13869D02*
X12529Y13690D01*
X13031Y13583D01*
X12529Y13869D01*
G37*
G36*
X13039Y13631D02*
X12529Y13869D01*
X13031Y13583D01*
X13039Y13631D01*
G37*
G36*
X13040Y13634D02*
X12529Y13869D01*
X13039Y13631D01*
X13040Y13634D01*
G37*
G36*
X13040Y13634D02*
X12570Y14104D01*
X12529Y13869D01*
X13040Y13634D01*
G37*
G36*
X12529Y13869D02*
X12570Y14104D01*
X12529Y14104D01*
X12529Y13869D01*
G37*
G36*
X12038Y13869D02*
X12529Y13690D01*
X12529Y13869D01*
X12038Y13869D01*
G37*
G36*
X12038Y13869D02*
X12038Y13690D01*
X12529Y13690D01*
X12038Y13869D01*
G37*
G36*
X11860Y13869D02*
X12038Y13690D01*
X12038Y13869D01*
X11860Y13869D01*
G37*
G36*
X11860Y13904D02*
X11860Y13869D01*
X12038Y13869D01*
X11860Y13904D01*
G37*
G36*
X11860Y13904D02*
X12038Y13869D01*
X12038Y13904D01*
X11860Y13904D01*
G37*
G36*
X11860Y13869D02*
X11860Y13690D01*
X12038Y13690D01*
X11860Y13869D01*
G37*
G36*
X11860Y13690D02*
X12038Y13655D01*
X12038Y13690D01*
X11860Y13690D01*
G37*
G36*
X11860Y13690D02*
X11860Y13655D01*
X12038Y13655D01*
X11860Y13690D01*
G37*
G36*
X11860Y13869D02*
X11692Y13690D01*
X11860Y13690D01*
X11860Y13869D01*
G37*
G36*
X11860Y13869D02*
X11692Y13869D01*
X11692Y13690D01*
X11860Y13869D01*
G37*
G36*
X12795Y13347D02*
X12529Y13690D01*
X12746Y13339D01*
X12795Y13347D01*
G37*
G36*
X12529Y13690D02*
X12529Y13356D01*
X12746Y13339D01*
X12529Y13690D01*
G37*
G36*
X12702Y13317D02*
X12746Y13339D01*
X12529Y13356D01*
X12702Y13317D01*
G37*
G36*
X12702Y13317D02*
X12529Y13356D01*
X12667Y13282D01*
X12702Y13317D01*
G37*
G36*
X12667Y13282D02*
X12529Y13356D01*
X12627Y13258D01*
X12667Y13282D01*
G37*
G36*
X12627Y13258D02*
X12655Y13258D01*
X12667Y13282D01*
X12627Y13258D01*
G37*
G36*
X14173Y12864D02*
X14173Y12368D01*
X14243Y12368D01*
X14173Y12864D01*
G37*
G36*
X15035Y12451D02*
X15035Y12454D01*
X14965Y12368D01*
X15035Y12451D01*
G37*
G36*
X14965Y12368D02*
X15035Y12368D01*
X15035Y12451D01*
X14965Y12368D01*
G37*
G36*
X15035Y12454D02*
X15035Y12451D01*
X15036Y12453D01*
X15035Y12454D01*
G37*
G36*
X15038Y12470D02*
X15039Y12472D01*
X15038Y12469D01*
X15038Y12470D01*
G37*
G36*
X15042Y12479D02*
X15045Y12486D01*
X15039Y12472D01*
X15042Y12479D01*
G37*
G36*
X15046Y12488D02*
X15045Y12486D01*
X15046Y12487D01*
X15046Y12488D01*
G37*
G36*
X15056Y12500D02*
X15046Y12488D01*
X15051Y12494D01*
X15056Y12500D01*
G37*
G36*
X15058Y12502D02*
X15056Y12500D01*
X15057Y12501D01*
X15058Y12502D01*
G37*
G36*
X14465Y14120D02*
X14653Y13003D01*
X14743Y14120D01*
X14465Y14120D01*
G37*
G36*
X14653Y13003D02*
X14465Y14120D01*
X14025Y13631D01*
X14653Y13003D01*
G37*
G36*
X14465Y14120D02*
X14243Y14120D01*
X14025Y13631D01*
X14465Y14120D01*
G37*
G36*
X14011Y13642D02*
X14025Y13631D01*
X14243Y14120D01*
X14011Y13642D01*
G37*
G36*
X13994Y13649D02*
X14011Y13642D01*
X14243Y14120D01*
X13994Y13649D01*
G37*
G36*
X14243Y14120D02*
X13965Y14120D01*
X13994Y13649D01*
X14243Y14120D01*
G37*
G36*
X13965Y14120D02*
X13976Y13652D01*
X13994Y13649D01*
X13965Y14120D01*
G37*
G36*
X13965Y14120D02*
X13743Y14120D01*
X13976Y13652D01*
X13965Y14120D01*
G37*
G36*
X13976Y13652D02*
X13743Y14120D01*
X13329Y13652D01*
X13976Y13652D01*
G37*
G36*
X13329Y13652D02*
X13743Y14120D01*
X13317Y13676D01*
X13329Y13652D01*
G37*
G36*
X13465Y14120D02*
X13317Y13676D01*
X13743Y14120D01*
X13465Y14120D01*
G37*
G36*
X13282Y13711D02*
X13317Y13676D01*
X13465Y14120D01*
X13282Y13711D01*
G37*
G36*
X13238Y13733D02*
X13282Y13711D01*
X13465Y14120D01*
X13238Y13733D01*
G37*
G36*
X13189Y13741D02*
X13238Y13733D01*
X13465Y14120D01*
X13189Y13741D01*
G37*
G36*
X13189Y13741D02*
X13465Y14120D01*
X13140Y13733D01*
X13189Y13741D01*
G37*
G36*
X13465Y14120D02*
X12647Y14222D01*
X13140Y13733D01*
X13465Y14120D01*
G37*
G36*
X12647Y14222D02*
X13138Y13732D01*
X13140Y13733D01*
X12647Y14222D01*
G37*
G36*
X13465Y15028D02*
X12647Y14222D01*
X13465Y14120D01*
X13465Y15028D01*
G37*
G36*
X12529Y14477D02*
X12647Y14222D01*
X13465Y15028D01*
X12529Y14477D01*
G37*
G36*
X12038Y14477D02*
X12529Y14477D01*
X13465Y15028D01*
X12038Y14477D01*
G37*
G36*
X11860Y14477D02*
X12038Y14477D01*
X13465Y15028D01*
X11860Y14477D01*
G37*
G36*
X13465Y15028D02*
X11339Y14544D01*
X11860Y14477D01*
X13465Y15028D01*
G37*
G36*
X11860Y14477D02*
X11339Y14544D01*
X11358Y14537D01*
X11860Y14477D01*
G37*
G36*
X11860Y14477D02*
X11358Y14537D01*
X11375Y14524D01*
X11860Y14477D01*
G37*
G36*
X11375Y14524D02*
X11422Y14477D01*
X11860Y14477D01*
X11375Y14524D01*
G37*
G36*
X11319Y14547D02*
X11339Y14544D01*
X13465Y15028D01*
X11319Y14547D01*
G37*
G36*
X13465Y15028D02*
X1575Y16535D01*
X11319Y14547D01*
X13465Y15028D01*
G37*
G36*
X1575Y16535D02*
X4331Y14547D01*
X11319Y14547D01*
X1575Y16535D01*
G37*
G36*
X4331Y14547D02*
X1575Y16535D01*
X2362Y15748D01*
X4331Y14547D01*
G37*
G36*
X4331Y14547D02*
X2362Y15748D01*
X4311Y14544D01*
X4331Y14547D01*
G37*
G36*
X4311Y14544D02*
X2362Y15748D01*
X4292Y14537D01*
X4311Y14544D01*
G37*
G36*
X4292Y14537D02*
X2362Y15748D01*
X4275Y14524D01*
X4292Y14537D01*
G37*
G36*
X3255Y14238D02*
X4275Y14524D01*
X2362Y15748D01*
X3255Y14238D01*
G37*
G36*
X2362Y15748D02*
X3154Y14254D01*
X3255Y14238D01*
X2362Y15748D01*
G37*
G36*
X2362Y15748D02*
X3052Y14238D01*
X3154Y14254D01*
X2362Y15748D01*
G37*
G36*
X2362Y15748D02*
X2960Y14191D01*
X3052Y14238D01*
X2362Y15748D01*
G37*
G36*
X2960Y14191D02*
X2362Y15748D01*
X1575Y14961D01*
X2960Y14191D01*
G37*
G36*
X2960Y14191D02*
X1575Y14961D01*
X2887Y14119D01*
X2960Y14191D01*
G37*
G36*
X1575Y14961D02*
X2841Y14027D01*
X2887Y14119D01*
X1575Y14961D01*
G37*
G36*
X1575Y14961D02*
X2825Y13925D01*
X2841Y14027D01*
X1575Y14961D01*
G37*
G36*
X2825Y13925D02*
X1575Y14961D01*
X2841Y13824D01*
X2825Y13925D01*
G37*
G36*
X1575Y14961D02*
X2887Y13732D01*
X2841Y13824D01*
X1575Y14961D01*
G37*
G36*
X2924Y6069D02*
X2887Y13732D01*
X1575Y14961D01*
X2924Y6069D01*
G37*
G36*
X2924Y6069D02*
X1575Y14961D01*
X2884Y5992D01*
X2924Y6069D01*
G37*
G36*
X2924Y6069D02*
X4058Y11686D01*
X2887Y13732D01*
X2924Y6069D01*
G37*
G36*
X2960Y13659D02*
X2887Y13732D01*
X4058Y11686D01*
X2960Y13659D01*
G37*
G36*
X3052Y13612D02*
X2960Y13659D01*
X4058Y11686D01*
X3052Y13612D01*
G37*
G36*
X4058Y11686D02*
X4055Y11707D01*
X3052Y13612D01*
X4058Y11686D01*
G37*
G36*
X4055Y11707D02*
X3154Y13596D01*
X3052Y13612D01*
X4055Y11707D01*
G37*
G36*
X4055Y11707D02*
X3255Y13612D01*
X3154Y13596D01*
X4055Y11707D01*
G37*
G36*
X4055Y11707D02*
X4052Y13612D01*
X3255Y13612D01*
X4055Y11707D01*
G37*
G36*
X3347Y13659D02*
X3255Y13612D01*
X4052Y13612D01*
X3347Y13659D01*
G37*
G36*
X3960Y13659D02*
X3347Y13659D01*
X4052Y13612D01*
X3960Y13659D01*
G37*
G36*
X3420Y13732D02*
X3347Y13659D01*
X3960Y13659D01*
X3420Y13732D01*
G37*
G36*
X3887Y13732D02*
X3420Y13732D01*
X3960Y13659D01*
X3887Y13732D01*
G37*
G36*
X3466Y13824D02*
X3420Y13732D01*
X3887Y13732D01*
X3466Y13824D01*
G37*
G36*
X3841Y13824D02*
X3466Y13824D01*
X3887Y13732D01*
X3841Y13824D01*
G37*
G36*
X3841Y13824D02*
X3825Y13925D01*
X3466Y13824D01*
X3841Y13824D01*
G37*
G36*
X3825Y13925D02*
X3483Y13925D01*
X3466Y13824D01*
X3825Y13925D01*
G37*
G36*
X3483Y13925D02*
X3825Y13925D01*
X3841Y14027D01*
X3483Y13925D01*
G37*
G36*
X3466Y14027D02*
X3483Y13925D01*
X3841Y14027D01*
X3466Y14027D01*
G37*
G36*
X3420Y14119D02*
X3466Y14027D01*
X3841Y14027D01*
X3420Y14119D01*
G37*
G36*
X3841Y14027D02*
X3887Y14119D01*
X3420Y14119D01*
X3841Y14027D01*
G37*
G36*
X3887Y14119D02*
X3347Y14191D01*
X3420Y14119D01*
X3887Y14119D01*
G37*
G36*
X3347Y14191D02*
X3887Y14119D01*
X3960Y14191D01*
X3347Y14191D01*
G37*
G36*
X3347Y14191D02*
X3960Y14191D01*
X3255Y14238D01*
X3347Y14191D01*
G37*
G36*
X4066Y14311D02*
X3255Y14238D01*
X3960Y14191D01*
X4066Y14311D01*
G37*
G36*
X4066Y14311D02*
X3960Y14191D01*
X4058Y14292D01*
X4066Y14311D01*
G37*
G36*
X3960Y14191D02*
X4056Y14272D01*
X4058Y14292D01*
X3960Y14191D01*
G37*
G36*
X3960Y14191D02*
X4052Y14238D01*
X4056Y14272D01*
X3960Y14191D01*
G37*
G36*
X4052Y14238D02*
X4056Y14239D01*
X4056Y14272D01*
X4052Y14238D01*
G37*
G36*
X4066Y14311D02*
X4079Y14327D01*
X3255Y14238D01*
X4066Y14311D01*
G37*
G36*
X4079Y14327D02*
X4275Y14524D01*
X3255Y14238D01*
X4079Y14327D01*
G37*
G36*
X4055Y13612D02*
X4052Y13612D01*
X4055Y11707D01*
X4055Y13612D01*
G37*
G36*
X2924Y6069D02*
X2986Y6131D01*
X4058Y11686D01*
X2924Y6069D01*
G37*
G36*
X3063Y6171D02*
X4058Y11686D01*
X2986Y6131D01*
X3063Y6171D01*
G37*
G36*
X4058Y11686D02*
X3063Y6171D01*
X4066Y11667D01*
X4058Y11686D01*
G37*
G36*
X4078Y11651D02*
X4066Y11667D01*
X3063Y6171D01*
X4078Y11651D01*
G37*
G36*
X4078Y11651D02*
X3063Y6171D01*
X3150Y6184D01*
X4078Y11651D01*
G37*
G36*
X3150Y6184D02*
X3236Y6171D01*
X4078Y11651D01*
X3150Y6184D01*
G37*
G36*
X4078Y11651D02*
X3236Y6171D01*
X5246Y5992D01*
X4078Y11651D01*
G37*
G36*
X5246Y5992D02*
X3236Y6171D01*
X3314Y6131D01*
X5246Y5992D01*
G37*
G36*
X5246Y5992D02*
X3314Y6131D01*
X3375Y6069D01*
X5246Y5992D01*
G37*
G36*
X5246Y5992D02*
X3375Y6069D01*
X3415Y5992D01*
X5246Y5992D01*
G37*
G36*
X3415Y5992D02*
X5233Y5906D01*
X5246Y5992D01*
X3415Y5992D01*
G37*
G36*
X3429Y5906D02*
X5233Y5906D01*
X3415Y5992D01*
X3429Y5906D01*
G37*
G36*
X5233Y5906D02*
X3429Y5906D01*
X5246Y5819D01*
X5233Y5906D01*
G37*
G36*
X5246Y5819D02*
X3429Y5906D01*
X5246Y4992D01*
X5246Y5819D01*
G37*
G36*
X5246Y4992D02*
X3429Y5906D01*
X3415Y5819D01*
X5246Y4992D01*
G37*
G36*
X5246Y4992D02*
X3415Y5819D01*
X5233Y4906D01*
X5246Y4992D01*
G37*
G36*
X5246Y5819D02*
X5246Y4992D01*
X5286Y5069D01*
X5246Y5819D01*
G37*
G36*
X5286Y5742D02*
X5246Y5819D01*
X5286Y5069D01*
X5286Y5742D01*
G37*
G36*
X5286Y5742D02*
X5286Y5069D01*
X5348Y5680D01*
X5286Y5742D01*
G37*
G36*
X5286Y5069D02*
X5348Y5131D01*
X5348Y5680D01*
X5286Y5069D01*
G37*
G36*
X5348Y5680D02*
X5348Y5131D01*
X5426Y5640D01*
X5348Y5680D01*
G37*
G36*
X5348Y5131D02*
X5426Y5171D01*
X5426Y5640D01*
X5348Y5131D01*
G37*
G36*
X5426Y5640D02*
X5426Y5171D01*
X5512Y5627D01*
X5426Y5640D01*
G37*
G36*
X5426Y5171D02*
X5512Y5184D01*
X5512Y5627D01*
X5426Y5171D01*
G37*
G36*
X5512Y5627D02*
X5512Y5184D01*
X5598Y5171D01*
X5512Y5627D01*
G37*
G36*
X5512Y5627D02*
X5598Y5171D01*
X5598Y5640D01*
X5512Y5627D01*
G37*
G36*
X5598Y5640D02*
X5598Y5171D01*
X5676Y5131D01*
X5598Y5640D01*
G37*
G36*
X5598Y5640D02*
X5676Y5131D01*
X5676Y5680D01*
X5598Y5640D01*
G37*
G36*
X5738Y5742D02*
X5676Y5680D01*
X5676Y5131D01*
X5738Y5742D01*
G37*
G36*
X5738Y5742D02*
X5676Y5131D01*
X5738Y5069D01*
X5738Y5742D01*
G37*
G36*
X5777Y5819D02*
X5738Y5742D01*
X5738Y5069D01*
X5777Y5819D01*
G37*
G36*
X5777Y4992D02*
X5777Y5819D01*
X5738Y5069D01*
X5777Y4992D01*
G37*
G36*
X7314Y5188D02*
X5777Y5819D01*
X5777Y4992D01*
X7314Y5188D01*
G37*
G36*
X5777Y4992D02*
X5791Y4906D01*
X7314Y5188D01*
X5777Y4992D01*
G37*
G36*
X7314Y5188D02*
X5791Y4906D01*
X5777Y4819D01*
X7314Y5188D01*
G37*
G36*
X7314Y5188D02*
X5777Y4819D01*
X7314Y3671D01*
X7314Y5188D01*
G37*
G36*
X7314Y3671D02*
X5777Y4819D01*
X5777Y3992D01*
X7314Y3671D01*
G37*
G36*
X5777Y4819D02*
X5738Y4069D01*
X5777Y3992D01*
X5777Y4819D01*
G37*
G36*
X5777Y4819D02*
X5738Y4742D01*
X5738Y4069D01*
X5777Y4819D01*
G37*
G36*
X5738Y4742D02*
X5676Y4131D01*
X5738Y4069D01*
X5738Y4742D01*
G37*
G36*
X5738Y4742D02*
X5676Y4680D01*
X5676Y4131D01*
X5738Y4742D01*
G37*
G36*
X5598Y4640D02*
X5676Y4131D01*
X5676Y4680D01*
X5598Y4640D01*
G37*
G36*
X5598Y4640D02*
X5598Y4171D01*
X5676Y4131D01*
X5598Y4640D01*
G37*
G36*
X5512Y4627D02*
X5598Y4171D01*
X5598Y4640D01*
X5512Y4627D01*
G37*
G36*
X5512Y4627D02*
X5512Y4184D01*
X5598Y4171D01*
X5512Y4627D01*
G37*
G36*
X5426Y4171D02*
X5512Y4184D01*
X5512Y4627D01*
X5426Y4171D01*
G37*
G36*
X5426Y4640D02*
X5426Y4171D01*
X5512Y4627D01*
X5426Y4640D01*
G37*
G36*
X5348Y4131D02*
X5426Y4171D01*
X5426Y4640D01*
X5348Y4131D01*
G37*
G36*
X5348Y4680D02*
X5348Y4131D01*
X5426Y4640D01*
X5348Y4680D01*
G37*
G36*
X5286Y4069D02*
X5348Y4131D01*
X5348Y4680D01*
X5286Y4069D01*
G37*
G36*
X5286Y4742D02*
X5286Y4069D01*
X5348Y4680D01*
X5286Y4742D01*
G37*
G36*
X5286Y4742D02*
X5246Y4819D01*
X5286Y4069D01*
X5286Y4742D01*
G37*
G36*
X5246Y4819D02*
X5246Y3992D01*
X5286Y4069D01*
X5246Y4819D01*
G37*
G36*
X5791Y3906D02*
X7314Y3671D01*
X5777Y3992D01*
X5791Y3906D01*
G37*
G36*
X5791Y3906D02*
X5777Y3819D01*
X7314Y3671D01*
X5791Y3906D01*
G37*
G36*
X7314Y3671D02*
X5777Y3819D01*
X5777Y2992D01*
X7314Y3671D01*
G37*
G36*
X5777Y2992D02*
X5777Y3819D01*
X5738Y3069D01*
X5777Y2992D01*
G37*
G36*
X5777Y3819D02*
X5738Y3742D01*
X5738Y3069D01*
X5777Y3819D01*
G37*
G36*
X5738Y3742D02*
X5676Y3131D01*
X5738Y3069D01*
X5738Y3742D01*
G37*
G36*
X5738Y3742D02*
X5676Y3680D01*
X5676Y3131D01*
X5738Y3742D01*
G37*
G36*
X5598Y3640D02*
X5676Y3131D01*
X5676Y3680D01*
X5598Y3640D01*
G37*
G36*
X5598Y3640D02*
X5598Y3171D01*
X5676Y3131D01*
X5598Y3640D01*
G37*
G36*
X5512Y3627D02*
X5598Y3171D01*
X5598Y3640D01*
X5512Y3627D01*
G37*
G36*
X5512Y3627D02*
X5512Y3184D01*
X5598Y3171D01*
X5512Y3627D01*
G37*
G36*
X5426Y3171D02*
X5512Y3184D01*
X5512Y3627D01*
X5426Y3171D01*
G37*
G36*
X5426Y3640D02*
X5426Y3171D01*
X5512Y3627D01*
X5426Y3640D01*
G37*
G36*
X5348Y3131D02*
X5426Y3171D01*
X5426Y3640D01*
X5348Y3131D01*
G37*
G36*
X5348Y3680D02*
X5348Y3131D01*
X5426Y3640D01*
X5348Y3680D01*
G37*
G36*
X5286Y3069D02*
X5348Y3131D01*
X5348Y3680D01*
X5286Y3069D01*
G37*
G36*
X5286Y3742D02*
X5286Y3069D01*
X5348Y3680D01*
X5286Y3742D01*
G37*
G36*
X5286Y3742D02*
X5246Y3819D01*
X5286Y3069D01*
X5286Y3742D01*
G37*
G36*
X5246Y3819D02*
X5246Y2992D01*
X5286Y3069D01*
X5246Y3819D01*
G37*
G36*
X5246Y3819D02*
X3429Y3906D01*
X5246Y2992D01*
X5246Y3819D01*
G37*
G36*
X5246Y2992D02*
X3429Y3906D01*
X3415Y3819D01*
X5246Y2992D01*
G37*
G36*
X5246Y2992D02*
X3415Y3819D01*
X5233Y2906D01*
X5246Y2992D01*
G37*
G36*
X5233Y2906D02*
X3415Y3819D01*
X3415Y2992D01*
X5233Y2906D01*
G37*
G36*
X3415Y3819D02*
X3375Y3069D01*
X3415Y2992D01*
X3415Y3819D01*
G37*
G36*
X3415Y3819D02*
X3375Y3742D01*
X3375Y3069D01*
X3415Y3819D01*
G37*
G36*
X3375Y3742D02*
X3314Y3131D01*
X3375Y3069D01*
X3375Y3742D01*
G37*
G36*
X3375Y3742D02*
X3314Y3680D01*
X3314Y3131D01*
X3375Y3742D01*
G37*
G36*
X3236Y3640D02*
X3314Y3131D01*
X3314Y3680D01*
X3236Y3640D01*
G37*
G36*
X3236Y3640D02*
X3236Y3171D01*
X3314Y3131D01*
X3236Y3640D01*
G37*
G36*
X3150Y3627D02*
X3236Y3171D01*
X3236Y3640D01*
X3150Y3627D01*
G37*
G36*
X3150Y3627D02*
X3150Y3184D01*
X3236Y3171D01*
X3150Y3627D01*
G37*
G36*
X3063Y3171D02*
X3150Y3184D01*
X3150Y3627D01*
X3063Y3171D01*
G37*
G36*
X3063Y3640D02*
X3063Y3171D01*
X3150Y3627D01*
X3063Y3640D01*
G37*
G36*
X2986Y3131D02*
X3063Y3171D01*
X3063Y3640D01*
X2986Y3131D01*
G37*
G36*
X2986Y3680D02*
X2986Y3131D01*
X3063Y3640D01*
X2986Y3680D01*
G37*
G36*
X2924Y3069D02*
X2986Y3131D01*
X2986Y3680D01*
X2924Y3069D01*
G37*
G36*
X2924Y3742D02*
X2924Y3069D01*
X2986Y3680D01*
X2924Y3742D01*
G37*
G36*
X2924Y3742D02*
X2884Y3819D01*
X2924Y3069D01*
X2924Y3742D01*
G37*
G36*
X2884Y3819D02*
X2884Y2992D01*
X2924Y3069D01*
X2884Y3819D01*
G37*
G36*
X3429Y2906D02*
X5233Y2906D01*
X3415Y2992D01*
X3429Y2906D01*
G37*
G36*
X5233Y2906D02*
X3429Y2906D01*
X5246Y2819D01*
X5233Y2906D01*
G37*
G36*
X3429Y2906D02*
X3415Y2819D01*
X5246Y2819D01*
X3429Y2906D01*
G37*
G36*
X5246Y2819D02*
X3415Y2819D01*
X5286Y2742D01*
X5246Y2819D01*
G37*
G36*
X3415Y2819D02*
X3375Y2742D01*
X5286Y2742D01*
X3415Y2819D01*
G37*
G36*
X5286Y2742D02*
X3375Y2742D01*
X5348Y2680D01*
X5286Y2742D01*
G37*
G36*
X3375Y2742D02*
X3314Y2680D01*
X5348Y2680D01*
X3375Y2742D01*
G37*
G36*
X5348Y2680D02*
X3314Y2680D01*
X5426Y2640D01*
X5348Y2680D01*
G37*
G36*
X3314Y2680D02*
X3236Y2640D01*
X5426Y2640D01*
X3314Y2680D01*
G37*
G36*
X5426Y2640D02*
X3236Y2640D01*
X5512Y2627D01*
X5426Y2640D01*
G37*
G36*
X3236Y2640D02*
X3150Y2627D01*
X5512Y2627D01*
X3236Y2640D01*
G37*
G36*
X9388Y2205D02*
X5512Y2627D01*
X3150Y2627D01*
X9388Y2205D01*
G37*
G36*
X9411Y2151D02*
X9388Y2205D01*
X3150Y2627D01*
X9411Y2151D01*
G37*
G36*
X9388Y2205D02*
X5598Y2640D01*
X5512Y2627D01*
X9388Y2205D01*
G37*
G36*
X9388Y2205D02*
X7314Y2825D01*
X5598Y2640D01*
X9388Y2205D01*
G37*
G36*
X5598Y2640D02*
X7314Y2825D01*
X5676Y2680D01*
X5598Y2640D01*
G37*
G36*
X5676Y2680D02*
X7314Y2825D01*
X5738Y2742D01*
X5676Y2680D01*
G37*
G36*
X5738Y2742D02*
X7314Y2825D01*
X5777Y2819D01*
X5738Y2742D01*
G37*
G36*
X5791Y2906D02*
X5777Y2819D01*
X7314Y2825D01*
X5791Y2906D01*
G37*
G36*
X5777Y2992D02*
X5791Y2906D01*
X7314Y2825D01*
X5777Y2992D01*
G37*
G36*
X7314Y3671D02*
X5777Y2992D01*
X7314Y2825D01*
X7314Y3671D01*
G37*
G36*
X9388Y2205D02*
X7647Y2825D01*
X7314Y2825D01*
X9388Y2205D01*
G37*
G36*
X9388Y2205D02*
X8573Y2825D01*
X7647Y2825D01*
X9388Y2205D01*
G37*
G36*
X7647Y3550D02*
X7647Y2825D01*
X8573Y2825D01*
X7647Y3550D01*
G37*
G36*
X7647Y3550D02*
X8573Y2825D01*
X8573Y3671D01*
X7647Y3550D01*
G37*
G36*
X8225Y4128D02*
X7647Y3550D01*
X8573Y3671D01*
X8225Y4128D01*
G37*
G36*
X8237Y4144D02*
X8225Y4128D01*
X8573Y3671D01*
X8237Y4144D01*
G37*
G36*
X8245Y4163D02*
X8237Y4144D01*
X8573Y3671D01*
X8245Y4163D01*
G37*
G36*
X8248Y4183D02*
X8245Y4163D01*
X8573Y3671D01*
X8248Y4183D01*
G37*
G36*
X8907Y3671D02*
X8248Y4183D01*
X8573Y3671D01*
X8907Y3671D01*
G37*
G36*
X8907Y5188D02*
X8248Y4183D01*
X8907Y3671D01*
X8907Y5188D01*
G37*
G36*
X8907Y5188D02*
X8907Y3671D01*
X9440Y3671D01*
X8907Y5188D01*
G37*
G36*
X8907Y3671D02*
X9411Y3361D01*
X9440Y3671D01*
X8907Y3671D01*
G37*
G36*
X9411Y3361D02*
X9440Y3399D01*
X9440Y3671D01*
X9411Y3361D01*
G37*
G36*
X9411Y3361D02*
X8907Y3671D01*
X9388Y3307D01*
X9411Y3361D01*
G37*
G36*
X9388Y3307D02*
X8907Y3671D01*
X9381Y3248D01*
X9388Y3307D01*
G37*
G36*
X9381Y3248D02*
X8907Y3671D01*
X8907Y2825D01*
X9381Y3248D01*
G37*
G36*
X8907Y2825D02*
X9381Y2264D01*
X9381Y3248D01*
X8907Y2825D01*
G37*
G36*
X8907Y2825D02*
X8573Y2825D01*
X9381Y2264D01*
X8907Y2825D01*
G37*
G36*
X9381Y2264D02*
X8573Y2825D01*
X9388Y2205D01*
X9381Y2264D01*
G37*
G36*
X9440Y5188D02*
X8907Y5188D01*
X9440Y3671D01*
X9440Y5188D01*
G37*
G36*
X9440Y5188D02*
X9440Y3671D01*
X9773Y3671D01*
X9440Y5188D01*
G37*
G36*
X9440Y5188D02*
X9773Y3671D01*
X9773Y5188D01*
X9440Y5188D01*
G37*
G36*
X10313Y5155D02*
X9773Y5188D01*
X9773Y3671D01*
X10313Y5155D01*
G37*
G36*
X10313Y5155D02*
X9773Y3671D01*
X10372Y3703D01*
X10313Y5155D01*
G37*
G36*
X9773Y3671D02*
X10306Y3671D01*
X10372Y3703D01*
X9773Y3671D01*
G37*
G36*
X10355Y3681D02*
X10372Y3703D01*
X10306Y3671D01*
X10355Y3681D01*
G37*
G36*
X10355Y3681D02*
X10306Y3671D01*
X10347Y3671D01*
X10355Y3681D01*
G37*
G36*
X10277Y3558D02*
X10306Y3671D01*
X9773Y3671D01*
X10277Y3558D01*
G37*
G36*
X9773Y3671D02*
X10266Y3532D01*
X10277Y3558D01*
X9773Y3671D01*
G37*
G36*
X9773Y3671D02*
X10255Y3507D01*
X10266Y3532D01*
X9773Y3671D01*
G37*
G36*
X10255Y3507D02*
X9773Y3671D01*
X10254Y3503D01*
X10255Y3507D01*
G37*
G36*
X9773Y3671D02*
X9802Y3361D01*
X10254Y3503D01*
X9773Y3671D01*
G37*
G36*
X10254Y3503D02*
X9802Y3361D01*
X10251Y3476D01*
X10254Y3503D01*
G37*
G36*
X10251Y3476D02*
X9802Y3361D01*
X10247Y3449D01*
X10251Y3476D01*
G37*
G36*
X10247Y3449D02*
X9802Y3361D01*
X10247Y3445D01*
X10247Y3449D01*
G37*
G36*
X9802Y3361D02*
X9825Y3307D01*
X10247Y3445D01*
X9802Y3361D01*
G37*
G36*
X10247Y3445D02*
X9825Y3307D01*
X10247Y3248D01*
X10247Y3445D01*
G37*
G36*
X9825Y3307D02*
X9832Y3248D01*
X10247Y3248D01*
X9825Y3307D01*
G37*
G36*
X10247Y3248D02*
X9832Y3248D01*
X10254Y3190D01*
X10247Y3248D01*
G37*
G36*
X10254Y3190D02*
X9832Y3248D01*
X10277Y3135D01*
X10254Y3190D01*
G37*
G36*
X9832Y3248D02*
X10306Y2825D01*
X10277Y3135D01*
X9832Y3248D01*
G37*
G36*
X10306Y3098D02*
X10277Y3135D01*
X10306Y2825D01*
X10306Y3098D01*
G37*
G36*
X9832Y3248D02*
X9832Y2264D01*
X10306Y2825D01*
X9832Y3248D01*
G37*
G36*
X9825Y2205D02*
X10306Y2825D01*
X9832Y2264D01*
X9825Y2205D01*
G37*
G36*
X10306Y2825D02*
X9825Y2205D01*
X10639Y2825D01*
X10306Y2825D01*
G37*
G36*
X10639Y2825D02*
X9825Y2205D01*
X11844Y2727D01*
X10639Y2825D01*
G37*
G36*
X11922Y2687D02*
X11844Y2727D01*
X9825Y2205D01*
X11922Y2687D01*
G37*
G36*
X12008Y2674D02*
X11922Y2687D01*
X9825Y2205D01*
X12008Y2674D01*
G37*
G36*
X9802Y2151D02*
X12008Y2674D01*
X9825Y2205D01*
X9802Y2151D01*
G37*
G36*
X9766Y2104D02*
X12008Y2674D01*
X9802Y2151D01*
X9766Y2104D01*
G37*
G36*
X12008Y2674D02*
X9766Y2104D01*
X9719Y2068D01*
X12008Y2674D01*
G37*
G36*
X11782Y2789D02*
X10639Y2825D01*
X11844Y2727D01*
X11782Y2789D01*
G37*
G36*
X11743Y2867D02*
X10639Y2825D01*
X11782Y2789D01*
X11743Y2867D01*
G37*
G36*
X11729Y2953D02*
X10639Y2825D01*
X11743Y2867D01*
X11729Y2953D01*
G37*
G36*
X11729Y2953D02*
X10668Y3135D01*
X10639Y2825D01*
X11729Y2953D01*
G37*
G36*
X10668Y3135D02*
X10639Y3098D01*
X10639Y2825D01*
X10668Y3135D01*
G37*
G36*
X10691Y3190D02*
X10668Y3135D01*
X11729Y2953D01*
X10691Y3190D01*
G37*
G36*
X11743Y3039D02*
X10691Y3190D01*
X11729Y2953D01*
X11743Y3039D01*
G37*
G36*
X10698Y3248D02*
X10691Y3190D01*
X11743Y3039D01*
X10698Y3248D01*
G37*
G36*
X11743Y3039D02*
X11035Y3727D01*
X10698Y3248D01*
X11743Y3039D01*
G37*
G36*
X10698Y3248D02*
X11035Y3727D01*
X10711Y3403D01*
X10698Y3248D01*
G37*
G36*
X10711Y3403D02*
X10698Y3382D01*
X10698Y3248D01*
X10711Y3403D01*
G37*
G36*
X11035Y3727D02*
X11743Y3039D01*
X11782Y3117D01*
X11035Y3727D01*
G37*
G36*
X11035Y3727D02*
X11782Y3117D01*
X11844Y3727D01*
X11035Y3727D01*
G37*
G36*
X11782Y3117D02*
X11844Y3178D01*
X11844Y3727D01*
X11782Y3117D01*
G37*
G36*
X11844Y3727D02*
X11844Y3178D01*
X11922Y3218D01*
X11844Y3727D01*
G37*
G36*
X11922Y3687D02*
X11844Y3727D01*
X11922Y3218D01*
X11922Y3687D01*
G37*
G36*
X11922Y3687D02*
X11922Y3218D01*
X12008Y3674D01*
X11922Y3687D01*
G37*
G36*
X11922Y3218D02*
X12008Y3232D01*
X12008Y3674D01*
X11922Y3218D01*
G37*
G36*
X12008Y3674D02*
X12008Y3232D01*
X12094Y3218D01*
X12008Y3674D01*
G37*
G36*
X12008Y3674D02*
X12094Y3218D01*
X12094Y3687D01*
X12008Y3674D01*
G37*
G36*
X12094Y3687D02*
X12094Y3218D01*
X12172Y3178D01*
X12094Y3687D01*
G37*
G36*
X12094Y3687D02*
X12172Y3178D01*
X12172Y3727D01*
X12094Y3687D01*
G37*
G36*
X12234Y3789D02*
X12172Y3727D01*
X12172Y3178D01*
X12234Y3789D01*
G37*
G36*
X12234Y3117D02*
X12234Y3789D01*
X12172Y3178D01*
X12234Y3117D01*
G37*
G36*
X13318Y3671D02*
X12234Y3789D01*
X12234Y3117D01*
X13318Y3671D01*
G37*
G36*
X12234Y3117D02*
X12273Y3039D01*
X13318Y3671D01*
X12234Y3117D01*
G37*
G36*
X13318Y3671D02*
X12273Y3039D01*
X13318Y2825D01*
X13318Y3671D01*
G37*
G36*
X12273Y3039D02*
X12287Y2953D01*
X13318Y2825D01*
X12273Y3039D01*
G37*
G36*
X12287Y2953D02*
X12273Y2867D01*
X13318Y2825D01*
X12287Y2953D01*
G37*
G36*
X12273Y2867D02*
X12234Y2789D01*
X13318Y2825D01*
X12273Y2867D01*
G37*
G36*
X12172Y2727D02*
X13318Y2825D01*
X12234Y2789D01*
X12172Y2727D01*
G37*
G36*
X12094Y2687D02*
X13318Y2825D01*
X12172Y2727D01*
X12094Y2687D01*
G37*
G36*
X12273Y3867D02*
X12234Y3789D01*
X13318Y3671D01*
X12273Y3867D01*
G37*
G36*
X12287Y3953D02*
X12273Y3867D01*
X13318Y3671D01*
X12287Y3953D01*
G37*
G36*
X12287Y3953D02*
X13318Y3671D01*
X12273Y4039D01*
X12287Y3953D01*
G37*
G36*
X13318Y3671D02*
X12273Y4867D01*
X12273Y4039D01*
X13318Y3671D01*
G37*
G36*
X12273Y4867D02*
X12234Y4117D01*
X12273Y4039D01*
X12273Y4867D01*
G37*
G36*
X12273Y4867D02*
X12234Y4789D01*
X12234Y4117D01*
X12273Y4867D01*
G37*
G36*
X12234Y4789D02*
X12172Y4178D01*
X12234Y4117D01*
X12234Y4789D01*
G37*
G36*
X12234Y4789D02*
X12172Y4727D01*
X12172Y4178D01*
X12234Y4789D01*
G37*
G36*
X12094Y4687D02*
X12172Y4178D01*
X12172Y4727D01*
X12094Y4687D01*
G37*
G36*
X12094Y4687D02*
X12094Y4218D01*
X12172Y4178D01*
X12094Y4687D01*
G37*
G36*
X12008Y4674D02*
X12094Y4218D01*
X12094Y4687D01*
X12008Y4674D01*
G37*
G36*
X12008Y4674D02*
X12008Y4232D01*
X12094Y4218D01*
X12008Y4674D01*
G37*
G36*
X11922Y4218D02*
X12008Y4232D01*
X12008Y4674D01*
X11922Y4218D01*
G37*
G36*
X11922Y4687D02*
X11922Y4218D01*
X12008Y4674D01*
X11922Y4687D01*
G37*
G36*
X11922Y4687D02*
X11844Y4727D01*
X11922Y4218D01*
X11922Y4687D01*
G37*
G36*
X11844Y4727D02*
X11844Y4179D01*
X11922Y4218D01*
X11844Y4727D01*
G37*
G36*
X10941Y4179D02*
X11844Y4179D01*
X11844Y4727D01*
X10941Y4179D01*
G37*
G36*
X10894Y4727D02*
X10941Y4179D01*
X11844Y4727D01*
X10894Y4727D01*
G37*
G36*
X10894Y4727D02*
X10883Y4171D01*
X10941Y4179D01*
X10894Y4727D01*
G37*
G36*
X10835Y4735D02*
X10883Y4171D01*
X10894Y4727D01*
X10835Y4735D01*
G37*
G36*
X10835Y4735D02*
X10828Y4148D01*
X10883Y4171D01*
X10835Y4735D01*
G37*
G36*
X10781Y4757D02*
X10828Y4148D01*
X10835Y4735D01*
X10781Y4757D01*
G37*
G36*
X10781Y4757D02*
X10781Y4112D01*
X10828Y4148D01*
X10781Y4757D01*
G37*
G36*
X10781Y4757D02*
X10734Y4793D01*
X10781Y4112D01*
X10781Y4757D01*
G37*
G36*
X10781Y4112D02*
X10734Y4793D01*
X10372Y3703D01*
X10781Y4112D01*
G37*
G36*
X10372Y3703D02*
X10734Y4793D01*
X10360Y5119D01*
X10372Y3703D01*
G37*
G36*
X10414Y5097D02*
X10360Y5119D01*
X10734Y4793D01*
X10414Y5097D01*
G37*
G36*
X10433Y5094D02*
X10414Y5097D01*
X10734Y4793D01*
X10433Y5094D01*
G37*
G36*
X10360Y5119D02*
X10313Y5155D01*
X10372Y3703D01*
X10360Y5119D01*
G37*
G36*
X13318Y5188D02*
X12273Y4867D01*
X13318Y3671D01*
X13318Y5188D01*
G37*
G36*
X14105Y4212D02*
X13318Y5188D01*
X13318Y3671D01*
X14105Y4212D01*
G37*
G36*
X14105Y4212D02*
X13318Y3671D01*
X13564Y3671D01*
X14105Y4212D01*
G37*
G36*
X13651Y5188D02*
X13318Y5188D01*
X14105Y4212D01*
X13651Y5188D01*
G37*
G36*
X13651Y5188D02*
X14105Y4212D01*
X14105Y6714D01*
X13651Y5188D01*
G37*
G36*
X14105Y6714D02*
X13651Y6033D01*
X13651Y5188D01*
X14105Y6714D01*
G37*
G36*
X14105Y6714D02*
X13870Y6714D01*
X13651Y6033D01*
X14105Y6714D01*
G37*
G36*
X13318Y6033D02*
X13651Y6033D01*
X13870Y6714D01*
X13318Y6033D01*
G37*
G36*
X13870Y7205D02*
X13318Y6033D01*
X13870Y6714D01*
X13870Y7205D01*
G37*
G36*
X13870Y7205D02*
X12608Y6979D01*
X13318Y6033D01*
X13870Y7205D01*
G37*
G36*
X12608Y6979D02*
X12234Y6117D01*
X13318Y6033D01*
X12608Y6979D01*
G37*
G36*
X13318Y6033D02*
X12234Y6117D01*
X12273Y6039D01*
X13318Y6033D01*
G37*
G36*
X13318Y6033D02*
X12273Y6039D01*
X12287Y5953D01*
X13318Y6033D01*
G37*
G36*
X13318Y6033D02*
X12287Y5953D01*
X12273Y5867D01*
X13318Y6033D01*
G37*
G36*
X13318Y6033D02*
X12273Y5867D01*
X13318Y5188D01*
X13318Y6033D01*
G37*
G36*
X12273Y5867D02*
X12234Y5789D01*
X13318Y5188D01*
X12273Y5867D01*
G37*
G36*
X13318Y5188D02*
X12234Y5789D01*
X12234Y5117D01*
X13318Y5188D01*
G37*
G36*
X12234Y5789D02*
X12172Y5178D01*
X12234Y5117D01*
X12234Y5789D01*
G37*
G36*
X12234Y5789D02*
X12172Y5727D01*
X12172Y5178D01*
X12234Y5789D01*
G37*
G36*
X12094Y5687D02*
X12172Y5178D01*
X12172Y5727D01*
X12094Y5687D01*
G37*
G36*
X12094Y5687D02*
X12094Y5218D01*
X12172Y5178D01*
X12094Y5687D01*
G37*
G36*
X12008Y5674D02*
X12094Y5218D01*
X12094Y5687D01*
X12008Y5674D01*
G37*
G36*
X12008Y5674D02*
X12008Y5232D01*
X12094Y5218D01*
X12008Y5674D01*
G37*
G36*
X11922Y5218D02*
X12008Y5232D01*
X12008Y5674D01*
X11922Y5218D01*
G37*
G36*
X11922Y5687D02*
X11922Y5218D01*
X12008Y5674D01*
X11922Y5687D01*
G37*
G36*
X11844Y5179D02*
X11922Y5218D01*
X11922Y5687D01*
X11844Y5179D01*
G37*
G36*
X11844Y5727D02*
X11844Y5179D01*
X11922Y5687D01*
X11844Y5727D01*
G37*
G36*
X11844Y5727D02*
X11782Y5789D01*
X11844Y5179D01*
X11844Y5727D01*
G37*
G36*
X11844Y5179D02*
X11782Y5789D01*
X10987Y5179D01*
X11844Y5179D01*
G37*
G36*
X10987Y5179D02*
X11782Y5789D01*
X11743Y5867D01*
X10987Y5179D01*
G37*
G36*
X11743Y5867D02*
X10698Y5610D01*
X10987Y5179D01*
X11743Y5867D01*
G37*
G36*
X10698Y5610D02*
X10698Y5468D01*
X10987Y5179D01*
X10698Y5610D01*
G37*
G36*
X11743Y5867D02*
X10691Y5669D01*
X10698Y5610D01*
X11743Y5867D01*
G37*
G36*
X11729Y5953D02*
X10691Y5669D01*
X11743Y5867D01*
X11729Y5953D01*
G37*
G36*
X11729Y5953D02*
X10668Y5723D01*
X10691Y5669D01*
X11729Y5953D01*
G37*
G36*
X10668Y5723D02*
X11729Y5953D01*
X11743Y6039D01*
X10668Y5723D01*
G37*
G36*
X11743Y6039D02*
X10639Y6033D01*
X10668Y5723D01*
X11743Y6039D01*
G37*
G36*
X10639Y6033D02*
X10639Y5761D01*
X10668Y5723D01*
X10639Y6033D01*
G37*
G36*
X11782Y6117D02*
X10639Y6033D01*
X11743Y6039D01*
X11782Y6117D01*
G37*
G36*
X10639Y6033D02*
X11782Y6117D01*
X11417Y6980D01*
X10639Y6033D01*
G37*
G36*
X11782Y6117D02*
X11448Y6979D01*
X11417Y6980D01*
X11782Y6117D01*
G37*
G36*
X11417Y6980D02*
X11448Y6979D01*
X11448Y7205D01*
X11417Y6980D01*
G37*
G36*
X11417Y7205D02*
X11417Y6980D01*
X11448Y7205D01*
X11417Y7205D01*
G37*
G36*
X11448Y6979D02*
X11782Y6117D01*
X11844Y6178D01*
X11448Y6979D01*
G37*
G36*
X11448Y6979D02*
X11844Y6178D01*
X11922Y6218D01*
X11448Y6979D01*
G37*
G36*
X11939Y6979D02*
X11448Y6979D01*
X11922Y6218D01*
X11939Y6979D01*
G37*
G36*
X12008Y6232D02*
X11939Y6979D01*
X11922Y6218D01*
X12008Y6232D01*
G37*
G36*
X11939Y6979D02*
X12008Y6232D01*
X12117Y6979D01*
X11939Y6979D01*
G37*
G36*
X12008Y6232D02*
X12094Y6218D01*
X12117Y6979D01*
X12008Y6232D01*
G37*
G36*
X12117Y6979D02*
X12094Y6218D01*
X12172Y6178D01*
X12117Y6979D01*
G37*
G36*
X12117Y6979D02*
X12172Y6178D01*
X12608Y6979D01*
X12117Y6979D01*
G37*
G36*
X12172Y6178D02*
X12234Y6117D01*
X12608Y6979D01*
X12172Y6178D01*
G37*
G36*
X11939Y7014D02*
X11939Y6979D01*
X12117Y6979D01*
X11939Y7014D01*
G37*
G36*
X11939Y7014D02*
X12117Y6979D01*
X12117Y7014D01*
X11939Y7014D01*
G37*
G36*
X10639Y6033D02*
X11417Y6980D01*
X10926Y6980D01*
X10639Y6033D01*
G37*
G36*
X10926Y6980D02*
X10748Y6980D01*
X10639Y6033D01*
X10926Y6980D01*
G37*
G36*
X10748Y6980D02*
X10257Y6980D01*
X10639Y6033D01*
X10748Y6980D01*
G37*
G36*
X10257Y6980D02*
X10306Y6033D01*
X10639Y6033D01*
X10257Y6980D01*
G37*
G36*
X10257Y6980D02*
X9832Y6594D01*
X10306Y6033D01*
X10257Y6980D01*
G37*
G36*
X9832Y6594D02*
X9832Y5610D01*
X10306Y6033D01*
X9832Y6594D01*
G37*
G36*
X10306Y6033D02*
X9832Y5610D01*
X10277Y5723D01*
X10306Y6033D01*
G37*
G36*
X10277Y5723D02*
X9832Y5610D01*
X10254Y5669D01*
X10277Y5723D01*
G37*
G36*
X10254Y5669D02*
X9832Y5610D01*
X10247Y5610D01*
X10254Y5669D01*
G37*
G36*
X9832Y5610D02*
X9825Y5552D01*
X10247Y5610D01*
X9832Y5610D01*
G37*
G36*
X9825Y5552D02*
X10247Y5315D01*
X10247Y5610D01*
X9825Y5552D01*
G37*
G36*
X9825Y5552D02*
X9802Y5497D01*
X10247Y5315D01*
X9825Y5552D01*
G37*
G36*
X10247Y5315D02*
X9802Y5497D01*
X9773Y5188D01*
X10247Y5315D01*
G37*
G36*
X9802Y5497D02*
X9773Y5460D01*
X9773Y5188D01*
X9802Y5497D01*
G37*
G36*
X10247Y5315D02*
X9773Y5188D01*
X10254Y5257D01*
X10247Y5315D01*
G37*
G36*
X10254Y5257D02*
X9773Y5188D01*
X10277Y5202D01*
X10254Y5257D01*
G37*
G36*
X10277Y5202D02*
X9773Y5188D01*
X10313Y5155D01*
X10277Y5202D01*
G37*
G36*
X10277Y5723D02*
X10306Y5761D01*
X10306Y6033D01*
X10277Y5723D01*
G37*
G36*
X9825Y6653D02*
X9832Y6594D01*
X10257Y6980D01*
X9825Y6653D01*
G37*
G36*
X9802Y6707D02*
X9825Y6653D01*
X10257Y6980D01*
X9802Y6707D01*
G37*
G36*
X9744Y6920D02*
X9802Y6707D01*
X10257Y6980D01*
X9744Y6920D01*
G37*
G36*
X10257Y6980D02*
X9744Y7254D01*
X9744Y6920D01*
X10257Y6980D01*
G37*
G36*
X10257Y7461D02*
X9744Y7254D01*
X10257Y6980D01*
X10257Y7461D01*
G37*
G36*
X9559Y7461D02*
X9744Y7254D01*
X10257Y7461D01*
X9559Y7461D01*
G37*
G36*
X9559Y7461D02*
X9450Y7254D01*
X9744Y7254D01*
X9559Y7461D01*
G37*
G36*
X9539Y7463D02*
X9450Y7254D01*
X9559Y7461D01*
X9539Y7463D01*
G37*
G36*
X9520Y7471D02*
X9450Y7254D01*
X9539Y7463D01*
X9520Y7471D01*
G37*
G36*
X9503Y7484D02*
X9450Y7254D01*
X9520Y7471D01*
X9503Y7484D01*
G37*
G36*
X9503Y7484D02*
X9280Y7707D01*
X9450Y7254D01*
X9503Y7484D01*
G37*
G36*
X9280Y7707D02*
X8867Y7402D01*
X9450Y7254D01*
X9280Y7707D01*
G37*
G36*
X9450Y7254D02*
X8867Y7402D01*
X8867Y7165D01*
X9450Y7254D01*
G37*
G36*
X8867Y7165D02*
X9450Y7165D01*
X9450Y7254D01*
X8867Y7165D01*
G37*
G36*
X9280Y7707D02*
X9076Y7707D01*
X8867Y7402D01*
X9280Y7707D01*
G37*
G36*
X9076Y7707D02*
X8867Y7580D01*
X8867Y7402D01*
X9076Y7707D01*
G37*
G36*
X8867Y7580D02*
X8832Y7402D01*
X8867Y7402D01*
X8867Y7580D01*
G37*
G36*
X8867Y7580D02*
X8832Y7580D01*
X8832Y7402D01*
X8867Y7580D01*
G37*
G36*
X8867Y7580D02*
X9076Y7707D01*
X9076Y7912D01*
X8867Y7580D01*
G37*
G36*
X9076Y7912D02*
X8867Y8071D01*
X8867Y7580D01*
X9076Y7912D01*
G37*
G36*
X8777Y8210D02*
X8867Y8071D01*
X9076Y7912D01*
X8777Y8210D01*
G37*
G36*
X8777Y8210D02*
X8259Y8071D01*
X8867Y8071D01*
X8777Y8210D01*
G37*
G36*
X7552Y8210D02*
X8259Y8071D01*
X8777Y8210D01*
X7552Y8210D01*
G37*
G36*
X8259Y8071D02*
X7552Y8210D01*
X8259Y7580D01*
X8259Y8071D01*
G37*
G36*
X8259Y7580D02*
X7552Y8210D01*
X8259Y7402D01*
X8259Y7580D01*
G37*
G36*
X7531Y8213D02*
X8259Y7402D01*
X7552Y8210D01*
X7531Y8213D01*
G37*
G36*
X8102Y6831D02*
X8259Y7402D01*
X7531Y8213D01*
X8102Y6831D01*
G37*
G36*
X8102Y6831D02*
X7531Y8213D01*
X8094Y6812D01*
X8102Y6831D01*
G37*
G36*
X7531Y8213D02*
X7512Y8221D01*
X8094Y6812D01*
X7531Y8213D01*
G37*
G36*
X8094Y6812D02*
X7512Y8221D01*
X7314Y6033D01*
X8094Y6812D01*
G37*
G36*
X7496Y8234D02*
X7314Y6033D01*
X7512Y8221D01*
X7496Y8234D01*
G37*
G36*
X5777Y5992D02*
X7314Y6033D01*
X7496Y8234D01*
X5777Y5992D01*
G37*
G36*
X7496Y8234D02*
X5738Y6069D01*
X5777Y5992D01*
X7496Y8234D01*
G37*
G36*
X7496Y8234D02*
X5676Y6131D01*
X5738Y6069D01*
X7496Y8234D01*
G37*
G36*
X7496Y8234D02*
X5598Y6171D01*
X5676Y6131D01*
X7496Y8234D01*
G37*
G36*
X5512Y6184D02*
X5598Y6171D01*
X7496Y8234D01*
X5512Y6184D01*
G37*
G36*
X5512Y6184D02*
X7496Y8234D01*
X4078Y11651D01*
X5512Y6184D01*
G37*
G36*
X5512Y6184D02*
X4078Y11651D01*
X5426Y6171D01*
X5512Y6184D01*
G37*
G36*
X5348Y6131D02*
X5426Y6171D01*
X4078Y11651D01*
X5348Y6131D01*
G37*
G36*
X5348Y6131D02*
X4078Y11651D01*
X5286Y6069D01*
X5348Y6131D01*
G37*
G36*
X5246Y5992D02*
X5286Y6069D01*
X4078Y11651D01*
X5246Y5992D01*
G37*
G36*
X7314Y6033D02*
X5777Y5992D01*
X5791Y5906D01*
X7314Y6033D01*
G37*
G36*
X7314Y6033D02*
X5791Y5906D01*
X5777Y5819D01*
X7314Y6033D01*
G37*
G36*
X7314Y6033D02*
X5777Y5819D01*
X7314Y5188D01*
X7314Y6033D01*
G37*
G36*
X8094Y6812D02*
X7314Y6033D01*
X8091Y6791D01*
X8094Y6812D01*
G37*
G36*
X8091Y6791D02*
X7314Y6033D01*
X7647Y6033D01*
X8091Y6791D01*
G37*
G36*
X7647Y5188D02*
X8091Y6791D01*
X7647Y6033D01*
X7647Y5188D01*
G37*
G36*
X7647Y5188D02*
X8091Y4216D01*
X8091Y6791D01*
X7647Y5188D01*
G37*
G36*
X7647Y5188D02*
X7314Y5188D01*
X8091Y4216D01*
X7647Y5188D01*
G37*
G36*
X8091Y4216D02*
X7314Y5188D01*
X7314Y3671D01*
X8091Y4216D01*
G37*
G36*
X8091Y4216D02*
X7314Y3671D01*
X7546Y3671D01*
X8091Y4216D01*
G37*
G36*
X8259Y7402D02*
X8102Y6831D01*
X8114Y6847D01*
X8259Y7402D01*
G37*
G36*
X8114Y6847D02*
X8259Y6992D01*
X8259Y7402D01*
X8114Y6847D01*
G37*
G36*
X8294Y7580D02*
X8259Y7580D01*
X8259Y7402D01*
X8294Y7580D01*
G37*
G36*
X8294Y7580D02*
X8259Y7402D01*
X8294Y7402D01*
X8294Y7580D01*
G37*
G36*
X9744Y6920D02*
X9766Y6754D01*
X9802Y6707D01*
X9744Y6920D01*
G37*
G36*
X9744Y6920D02*
X9719Y6790D01*
X9766Y6754D01*
X9744Y6920D01*
G37*
G36*
X9665Y6813D02*
X9719Y6790D01*
X9744Y6920D01*
X9665Y6813D01*
G37*
G36*
X9606Y6820D02*
X9665Y6813D01*
X9744Y6920D01*
X9606Y6820D01*
G37*
G36*
X9744Y6920D02*
X9450Y6920D01*
X9606Y6820D01*
X9744Y6920D01*
G37*
G36*
X9450Y6920D02*
X9548Y6813D01*
X9606Y6820D01*
X9450Y6920D01*
G37*
G36*
X9450Y6920D02*
X9493Y6790D01*
X9548Y6813D01*
X9450Y6920D01*
G37*
G36*
X9450Y6920D02*
X9447Y6754D01*
X9493Y6790D01*
X9450Y6920D01*
G37*
G36*
X9411Y6707D02*
X9447Y6754D01*
X9450Y6920D01*
X9411Y6707D01*
G37*
G36*
X9411Y6707D02*
X9450Y6920D01*
X8867Y6911D01*
X9411Y6707D01*
G37*
G36*
X9450Y6920D02*
X8867Y7009D01*
X8867Y6911D01*
X9450Y6920D01*
G37*
G36*
X9450Y7009D02*
X8867Y7009D01*
X9450Y6920D01*
X9450Y7009D01*
G37*
G36*
X8867Y6911D02*
X9388Y6653D01*
X9411Y6707D01*
X8867Y6911D01*
G37*
G36*
X8867Y6911D02*
X9381Y6594D01*
X9388Y6653D01*
X8867Y6911D01*
G37*
G36*
X8867Y6911D02*
X8907Y6033D01*
X9381Y6594D01*
X8867Y6911D01*
G37*
G36*
X8907Y6033D02*
X9381Y5610D01*
X9381Y6594D01*
X8907Y6033D01*
G37*
G36*
X9381Y5610D02*
X8907Y6033D01*
X8907Y5188D01*
X9381Y5610D01*
G37*
G36*
X9381Y5610D02*
X8907Y5188D01*
X9388Y5552D01*
X9381Y5610D01*
G37*
G36*
X9388Y5552D02*
X8907Y5188D01*
X9411Y5497D01*
X9388Y5552D01*
G37*
G36*
X9411Y5497D02*
X8907Y5188D01*
X9440Y5188D01*
X9411Y5497D01*
G37*
G36*
X9440Y5460D02*
X9411Y5497D01*
X9440Y5188D01*
X9440Y5460D01*
G37*
G36*
X8867Y6911D02*
X8573Y6033D01*
X8907Y6033D01*
X8867Y6911D01*
G37*
G36*
X8867Y6911D02*
X8248Y6759D01*
X8573Y6033D01*
X8867Y6911D01*
G37*
G36*
X8573Y6033D02*
X8248Y6759D01*
X8573Y5188D01*
X8573Y6033D01*
G37*
G36*
X8248Y6759D02*
X8248Y4183D01*
X8573Y5188D01*
X8248Y6759D01*
G37*
G36*
X8907Y5188D02*
X8573Y5188D01*
X8248Y4183D01*
X8907Y5188D01*
G37*
G36*
X8867Y6911D02*
X8399Y6911D01*
X8248Y6759D01*
X8867Y6911D01*
G37*
G36*
X10748Y7015D02*
X10748Y6980D01*
X10926Y6980D01*
X10748Y7015D01*
G37*
G36*
X10748Y7015D02*
X10926Y6980D01*
X10926Y7015D01*
X10748Y7015D01*
G37*
G36*
X13318Y5188D02*
X12234Y5117D01*
X12273Y5039D01*
X13318Y5188D01*
G37*
G36*
X12273Y5039D02*
X12287Y4953D01*
X13318Y5188D01*
X12273Y5039D01*
G37*
G36*
X13318Y5188D02*
X12287Y4953D01*
X12273Y4867D01*
X13318Y5188D01*
G37*
G36*
X13870Y7205D02*
X12608Y7587D01*
X12608Y6979D01*
X13870Y7205D01*
G37*
G36*
X13870Y7205D02*
X13870Y7383D01*
X12608Y7587D01*
X13870Y7205D01*
G37*
G36*
X12608Y7587D02*
X13870Y7383D01*
X13870Y7874D01*
X12608Y7587D01*
G37*
G36*
X12474Y8010D02*
X12608Y7587D01*
X13870Y7874D01*
X12474Y8010D01*
G37*
G36*
X14390Y8010D02*
X12474Y8010D01*
X13870Y7874D01*
X14390Y8010D01*
G37*
G36*
X14390Y8010D02*
X13870Y7874D01*
X14478Y7874D01*
X14390Y8010D01*
G37*
G36*
X14390Y8010D02*
X14478Y7874D01*
X14686Y7714D01*
X14390Y8010D01*
G37*
G36*
X14686Y7714D02*
X14478Y7874D01*
X14478Y7383D01*
X14686Y7714D01*
G37*
G36*
X14478Y7383D02*
X14686Y7511D01*
X14686Y7714D01*
X14478Y7383D01*
G37*
G36*
X14478Y7205D02*
X14686Y7511D01*
X14478Y7383D01*
X14478Y7205D01*
G37*
G36*
X14478Y7205D02*
X14478Y7383D01*
X14443Y7205D01*
X14478Y7205D01*
G37*
G36*
X14478Y7383D02*
X14443Y7383D01*
X14443Y7205D01*
X14478Y7383D01*
G37*
G36*
X15069Y7331D02*
X14686Y7511D01*
X14478Y7205D01*
X15069Y7331D01*
G37*
G36*
X15060Y7057D02*
X15069Y7331D01*
X14478Y7205D01*
X15060Y7057D01*
G37*
G36*
X15060Y7057D02*
X14478Y7205D01*
X14478Y6959D01*
X15060Y7057D01*
G37*
G36*
X14478Y6959D02*
X15060Y6959D01*
X15060Y7057D01*
X14478Y6959D01*
G37*
G36*
X15085Y7319D02*
X15069Y7331D01*
X15060Y7057D01*
X15085Y7319D01*
G37*
G36*
X15104Y7311D02*
X15085Y7319D01*
X15060Y7057D01*
X15104Y7311D01*
G37*
G36*
X15104Y7311D02*
X15060Y7057D01*
X15125Y7308D01*
X15104Y7311D01*
G37*
G36*
X15125Y7308D02*
X15060Y7057D01*
X15354Y7057D01*
X15125Y7308D01*
G37*
G36*
X15125Y7308D02*
X15354Y7057D01*
X15966Y7308D01*
X15125Y7308D01*
G37*
G36*
X14890Y7511D02*
X14686Y7511D01*
X15069Y7331D01*
X14890Y7511D01*
G37*
G36*
X12474Y8010D02*
X12440Y7815D01*
X12608Y7587D01*
X12474Y8010D01*
G37*
G36*
X12440Y7815D02*
X12440Y7587D01*
X12608Y7587D01*
X12440Y7815D01*
G37*
G36*
X12438Y7835D02*
X12440Y7815D01*
X12474Y8010D01*
X12438Y7835D01*
G37*
G36*
X12430Y7854D02*
X12438Y7835D01*
X12474Y8010D01*
X12430Y7854D01*
G37*
G36*
X12417Y7870D02*
X12430Y7854D01*
X12474Y8010D01*
X12417Y7870D01*
G37*
G36*
X12473Y8010D02*
X12417Y7870D01*
X12474Y8010D01*
X12473Y8010D01*
G37*
G36*
X12473Y8010D02*
X12473Y8010D01*
X12474Y8010D01*
X12473Y8010D01*
G37*
G36*
X12463Y8012D02*
X12417Y7870D01*
X12473Y8010D01*
X12463Y8012D01*
G37*
G36*
X12454Y8013D02*
X12417Y7870D01*
X12463Y8012D01*
X12454Y8013D01*
G37*
G36*
X12454Y8013D02*
X12452Y8013D01*
X12417Y7870D01*
X12454Y8013D01*
G37*
G36*
X12443Y8017D02*
X12417Y7870D01*
X12452Y8013D01*
X12443Y8017D01*
G37*
G36*
X12435Y8021D02*
X12417Y7870D01*
X12443Y8017D01*
X12435Y8021D01*
G37*
G36*
X12435Y8021D02*
X12433Y8021D01*
X12417Y7870D01*
X12435Y8021D01*
G37*
G36*
X12426Y8027D02*
X12417Y7870D01*
X12433Y8021D01*
X12426Y8027D01*
G37*
G36*
X12418Y8033D02*
X12417Y7870D01*
X12426Y8027D01*
X12418Y8033D01*
G37*
G36*
X12418Y8033D02*
X12417Y8034D01*
X12417Y7870D01*
X12418Y8033D01*
G37*
G36*
X12417Y7870D02*
X12417Y8034D01*
X12181Y8106D01*
X12417Y7870D01*
G37*
G36*
X12221Y8238D02*
X12181Y8106D01*
X12417Y8034D01*
X12221Y8238D01*
G37*
G36*
X12165Y8119D02*
X12181Y8106D01*
X12221Y8238D01*
X12165Y8119D01*
G37*
G36*
X12146Y8127D02*
X12165Y8119D01*
X12221Y8238D01*
X12146Y8127D01*
G37*
G36*
X12126Y8129D02*
X12146Y8127D01*
X12221Y8238D01*
X12126Y8129D01*
G37*
G36*
X12017Y8198D02*
X12126Y8129D01*
X12221Y8238D01*
X12017Y8198D01*
G37*
G36*
X11684Y8198D02*
X12017Y8198D01*
X12221Y8238D01*
X11684Y8198D01*
G37*
G36*
X11401Y8238D02*
X11684Y8198D01*
X12221Y8238D01*
X11401Y8238D01*
G37*
G36*
X11684Y8198D02*
X11401Y8238D01*
X11684Y7904D01*
X11684Y8198D01*
G37*
G36*
X11684Y7904D02*
X11401Y8238D01*
X11417Y7588D01*
X11684Y7904D01*
G37*
G36*
X11401Y8238D02*
X10926Y7588D01*
X11417Y7588D01*
X11401Y8238D01*
G37*
G36*
X10926Y7588D02*
X11401Y8238D01*
X10745Y7589D01*
X10926Y7588D01*
G37*
G36*
X10745Y7589D02*
X10748Y7588D01*
X10926Y7588D01*
X10745Y7589D01*
G37*
G36*
X10748Y7588D02*
X10926Y7553D01*
X10926Y7588D01*
X10748Y7588D01*
G37*
G36*
X10748Y7588D02*
X10748Y7553D01*
X10926Y7553D01*
X10748Y7588D01*
G37*
G36*
X10745Y7589D02*
X10745Y7588D01*
X10748Y7588D01*
X10745Y7589D01*
G37*
G36*
X11417Y7588D02*
X11448Y7587D01*
X11684Y7904D01*
X11417Y7588D01*
G37*
G36*
X11684Y7904D02*
X11448Y7587D01*
X11939Y7587D01*
X11684Y7904D01*
G37*
G36*
X11684Y7904D02*
X11939Y7587D01*
X12017Y7904D01*
X11684Y7904D01*
G37*
G36*
X12017Y7904D02*
X11939Y7587D01*
X12117Y7587D01*
X12017Y7904D01*
G37*
G36*
X11939Y7587D02*
X12117Y7552D01*
X12117Y7587D01*
X11939Y7587D01*
G37*
G36*
X11939Y7587D02*
X11939Y7552D01*
X12117Y7552D01*
X11939Y7587D01*
G37*
G36*
X12017Y7904D02*
X12117Y7587D01*
X12284Y7783D01*
X12017Y7904D01*
G37*
G36*
X12117Y7587D02*
X12284Y7587D01*
X12284Y7783D01*
X12117Y7587D01*
G37*
G36*
X12284Y7783D02*
X12094Y7973D01*
X12017Y7904D01*
X12284Y7783D01*
G37*
G36*
X12094Y7973D02*
X12017Y7973D01*
X12017Y7904D01*
X12094Y7973D01*
G37*
G36*
X11417Y7362D02*
X11448Y7587D01*
X11417Y7588D01*
X11417Y7362D01*
G37*
G36*
X11417Y7362D02*
X11448Y7362D01*
X11448Y7587D01*
X11417Y7362D01*
G37*
G36*
X12017Y8198D02*
X12017Y8129D01*
X12126Y8129D01*
X12017Y8198D01*
G37*
G36*
X12418Y8034D02*
X12417Y8034D01*
X12418Y8033D01*
X12418Y8034D01*
G37*
G36*
X12434Y8021D02*
X12433Y8021D01*
X12435Y8021D01*
X12434Y8021D01*
G37*
G36*
X12453Y8013D02*
X12452Y8013D01*
X12454Y8013D01*
X12453Y8013D01*
G37*
G36*
X13905Y7383D02*
X13870Y7383D01*
X13870Y7205D01*
X13905Y7383D01*
G37*
G36*
X13905Y7383D02*
X13870Y7205D01*
X13905Y7205D01*
X13905Y7383D01*
G37*
G36*
X10247Y3449D02*
X10247Y3445D01*
X10247Y3447D01*
X10247Y3449D01*
G37*
G36*
X9773Y3671D02*
X9773Y3399D01*
X9802Y3361D01*
X9773Y3671D01*
G37*
G36*
X10255Y3507D02*
X10254Y3503D01*
X10255Y3505D01*
X10255Y3507D01*
G37*
G36*
X10306Y3671D02*
X10277Y3558D01*
X10279Y3561D01*
X10306Y3671D01*
G37*
G36*
X10279Y3561D02*
X10277Y3558D01*
X10278Y3559D01*
X10279Y3561D01*
G37*
G36*
X10279Y3561D02*
X10306Y3606D01*
X10306Y3671D01*
X10279Y3561D01*
G37*
G36*
X5233Y3906D02*
X3429Y3906D01*
X5246Y3819D01*
X5233Y3906D01*
G37*
G36*
X3429Y3906D02*
X5233Y3906D01*
X3415Y3992D01*
X3429Y3906D01*
G37*
G36*
X20571Y16239D02*
X1575Y16535D01*
X13465Y15028D01*
X20571Y16239D01*
G37*
G36*
X20571Y16239D02*
X13465Y15028D01*
X13743Y15028D01*
X20571Y16239D01*
G37*
G36*
X20571Y16239D02*
X13743Y15028D01*
X13965Y15028D01*
X20571Y16239D01*
G37*
G36*
X13965Y15028D02*
X13743Y15028D01*
X13743Y14120D01*
X13965Y15028D01*
G37*
G36*
X13965Y15028D02*
X13743Y14120D01*
X13965Y14120D01*
X13965Y15028D01*
G37*
G36*
X20571Y16239D02*
X13965Y15028D01*
X14243Y15028D01*
X20571Y16239D01*
G37*
G36*
X20571Y16239D02*
X14243Y15028D01*
X14465Y15028D01*
X20571Y16239D01*
G37*
G36*
X14465Y15028D02*
X14243Y15028D01*
X14243Y14120D01*
X14465Y15028D01*
G37*
G36*
X14465Y15028D02*
X14243Y14120D01*
X14465Y14120D01*
X14465Y15028D01*
G37*
G36*
X20571Y16239D02*
X14465Y15028D01*
X14743Y15028D01*
X20571Y16239D01*
G37*
G36*
X1575Y16535D02*
X20571Y16239D01*
X30709Y16535D01*
X1575Y16535D01*
G37*
G36*
X20571Y16239D02*
X20964Y16239D01*
X30709Y16535D01*
X20571Y16239D01*
G37*
G36*
X20964Y16239D02*
X23426Y16239D01*
X30709Y16535D01*
X20964Y16239D01*
G37*
G36*
X23426Y16239D02*
X23819Y16239D01*
X30709Y16535D01*
X23426Y16239D01*
G37*
G36*
X30709Y16535D02*
X23819Y16239D01*
X24508Y15944D01*
X30709Y16535D01*
G37*
G36*
X23819Y16239D02*
X24114Y15944D01*
X24508Y15944D01*
X23819Y16239D01*
G37*
G36*
X30709Y16535D02*
X24508Y15944D01*
X26181Y15452D01*
X30709Y16535D01*
G37*
G36*
X26181Y15452D02*
X24508Y15944D01*
X24605Y15846D01*
X26181Y15452D01*
G37*
G36*
X24605Y15846D02*
X24902Y15452D01*
X26181Y15452D01*
X24605Y15846D01*
G37*
G36*
X24902Y15452D02*
X24605Y15846D01*
X24408Y15354D01*
X24902Y15452D01*
G37*
G36*
X24902Y15452D02*
X24408Y15354D01*
X24705Y15255D01*
X24902Y15452D01*
G37*
G36*
X24705Y15255D02*
X24408Y15354D01*
X24508Y15255D01*
X24705Y15255D01*
G37*
G36*
X27560Y15353D02*
X30709Y16535D01*
X26181Y15452D01*
X27560Y15353D01*
G37*
G36*
X26181Y15452D02*
X26771Y15353D01*
X27560Y15353D01*
X26181Y15452D01*
G37*
G36*
X26771Y15353D02*
X26968Y15157D01*
X27560Y15353D01*
X26771Y15353D01*
G37*
G36*
X26968Y15157D02*
X27363Y15157D01*
X27560Y15353D01*
X26968Y15157D01*
G37*
G36*
X26181Y15452D02*
X26575Y15353D01*
X26771Y15353D01*
X26181Y15452D01*
G37*
G36*
X26181Y15452D02*
X26378Y15255D01*
X26575Y15353D01*
X26181Y15452D01*
G37*
G36*
X26378Y15255D02*
X26477Y15255D01*
X26575Y15353D01*
X26378Y15255D01*
G37*
G36*
X27560Y15353D02*
X27756Y15353D01*
X30709Y16535D01*
X27560Y15353D01*
G37*
G36*
X27756Y15353D02*
X28544Y15353D01*
X30709Y16535D01*
X27756Y15353D01*
G37*
G36*
X30709Y16535D02*
X28544Y15353D01*
X29921Y15748D01*
X30709Y16535D01*
G37*
G36*
X29921Y15748D02*
X28544Y15353D01*
X28937Y15353D01*
X29921Y15748D01*
G37*
G36*
X28937Y15353D02*
X29133Y15157D01*
X29921Y15748D01*
X28937Y15353D01*
G37*
G36*
X29921Y15748D02*
X29133Y15157D01*
X30709Y14961D01*
X29921Y15748D01*
G37*
G36*
X27756Y15353D02*
X27953Y15157D01*
X28544Y15353D01*
X27756Y15353D01*
G37*
G36*
X27953Y15157D02*
X28347Y15157D01*
X28544Y15353D01*
X27953Y15157D01*
G37*
G36*
X23426Y16239D02*
X20964Y16239D01*
X21949Y16141D01*
X23426Y16239D01*
G37*
G36*
X20964Y16239D02*
X21851Y16141D01*
X21949Y16141D01*
X20964Y16239D01*
G37*
G36*
X20964Y16239D02*
X21161Y16042D01*
X21851Y16141D01*
X20964Y16239D01*
G37*
G36*
X21161Y16042D02*
X21753Y16042D01*
X21851Y16141D01*
X21161Y16042D01*
G37*
G36*
X23426Y16239D02*
X21949Y16141D01*
X23229Y16042D01*
X23426Y16239D01*
G37*
G36*
X21949Y16141D02*
X22047Y16042D01*
X23229Y16042D01*
X21949Y16141D01*
G37*
G36*
X11860Y14477D02*
X12038Y14442D01*
X12038Y14477D01*
X11860Y14477D01*
G37*
G36*
X11860Y14477D02*
X11860Y14442D01*
X12038Y14442D01*
X11860Y14477D01*
G37*
G36*
X12529Y14477D02*
X12633Y14233D01*
X12647Y14222D01*
X12529Y14477D01*
G37*
G36*
X12529Y14477D02*
X12616Y14240D01*
X12633Y14233D01*
X12529Y14477D01*
G37*
G36*
X12529Y14477D02*
X12598Y14242D01*
X12616Y14240D01*
X12529Y14477D01*
G37*
G36*
X12529Y14477D02*
X12529Y14242D01*
X12598Y14242D01*
X12529Y14477D01*
G37*
G36*
X15256Y12668D02*
X16243Y14120D01*
X15965Y14120D01*
X15256Y12668D01*
G37*
G36*
X15256Y12668D02*
X17243Y14120D01*
X16965Y14120D01*
X15256Y12668D01*
G37*
G36*
X18997Y12668D02*
X17243Y14120D01*
X15256Y12668D01*
X18997Y12668D01*
G37*
G36*
X21260Y13781D02*
X20670Y13781D01*
X21457Y13584D01*
X21260Y13781D01*
G37*
G36*
X19558Y12107D02*
X19558Y10659D01*
X20452Y9764D01*
X19558Y12107D01*
G37*
G36*
X24015Y13781D02*
X21752Y13781D01*
X21555Y13584D01*
X24015Y13781D01*
G37*
G36*
X25542Y8829D02*
X23475Y9744D01*
X24390Y8829D01*
X25542Y8829D01*
G37*
G36*
X26724Y9055D02*
X27009Y9340D01*
X27098Y9537D01*
X26724Y9055D01*
G37*
G36*
X27009Y9340D02*
X27023Y9351D01*
X27098Y9537D01*
X27009Y9340D01*
G37*
G36*
X27040Y9358D02*
X27098Y9537D01*
X27023Y9351D01*
X27040Y9358D01*
G37*
G36*
X27040Y9358D02*
X27058Y9360D01*
X27098Y9537D01*
X27040Y9358D01*
G37*
G36*
X27058Y9360D02*
X27098Y9360D01*
X27098Y9537D01*
X27058Y9360D01*
G37*
G36*
X29035Y14568D02*
X24508Y14568D01*
X24015Y13781D01*
X29035Y14568D01*
G37*
G36*
X27432Y3098D02*
X27403Y3135D01*
X27432Y2825D01*
X27432Y3098D01*
G37*
G36*
X26899Y3671D02*
X26899Y3433D01*
X26932Y3408D01*
X26899Y3671D01*
G37*
G36*
X21387Y3671D02*
X21387Y3399D01*
X21416Y3361D01*
X21387Y3671D01*
G37*
G36*
X21891Y5723D02*
X21920Y5761D01*
X21920Y6033D01*
X21891Y5723D01*
G37*
G36*
X20915Y7057D02*
X21487Y6979D01*
X21487Y7285D01*
X20915Y7057D01*
G37*
G36*
X20702Y7285D02*
X20915Y7057D01*
X21487Y7285D01*
X20702Y7285D01*
G37*
G36*
X20702Y7285D02*
X20621Y7057D01*
X20915Y7057D01*
X20702Y7285D01*
G37*
G36*
X20681Y7288D02*
X20621Y7057D01*
X20702Y7285D01*
X20681Y7288D01*
G37*
G36*
X20662Y7296D02*
X20621Y7057D01*
X20681Y7288D01*
X20662Y7296D01*
G37*
G36*
X20662Y7296D02*
X20646Y7308D01*
X20621Y7057D01*
X20662Y7296D01*
G37*
G36*
X20646Y7308D02*
X20444Y7511D01*
X20621Y7057D01*
X20646Y7308D01*
G37*
G36*
X20247Y7511D02*
X20621Y7057D01*
X20444Y7511D01*
X20247Y7511D01*
G37*
G36*
X20621Y7057D02*
X20247Y7511D01*
X19990Y7205D01*
X20621Y7057D01*
G37*
G36*
X20247Y7511D02*
X19990Y7383D01*
X19990Y7205D01*
X20247Y7511D01*
G37*
G36*
X19990Y7383D02*
X19955Y7205D01*
X19990Y7205D01*
X19990Y7383D01*
G37*
G36*
X19990Y7383D02*
X19955Y7383D01*
X19955Y7205D01*
X19990Y7383D01*
G37*
G36*
X19990Y7383D02*
X20247Y7511D01*
X20247Y7707D01*
X19990Y7383D01*
G37*
G36*
X19990Y7874D02*
X19990Y7383D01*
X20247Y7707D01*
X19990Y7874D01*
G37*
G36*
X19998Y7956D02*
X19990Y7874D01*
X20247Y7707D01*
X19998Y7956D01*
G37*
G36*
X19382Y7874D02*
X19990Y7874D01*
X19998Y7956D01*
X19382Y7874D01*
G37*
G36*
X18226Y7956D02*
X19382Y7874D01*
X19998Y7956D01*
X18226Y7956D01*
G37*
G36*
X18226Y7956D02*
X18316Y7587D01*
X19382Y7874D01*
X18226Y7956D01*
G37*
G36*
X18316Y7587D02*
X19382Y7383D01*
X19382Y7874D01*
X18316Y7587D01*
G37*
G36*
X19382Y7205D02*
X19382Y7383D01*
X18316Y7587D01*
X19382Y7205D01*
G37*
G36*
X19382Y7205D02*
X18316Y7587D01*
X18316Y6979D01*
X19382Y7205D01*
G37*
G36*
X19382Y7205D02*
X18316Y6979D01*
X18928Y6033D01*
X19382Y7205D01*
G37*
G36*
X18316Y6979D02*
X17942Y6117D01*
X18928Y6033D01*
X18316Y6979D01*
G37*
G36*
X18928Y6033D02*
X17942Y6117D01*
X17982Y6039D01*
X18928Y6033D01*
G37*
G36*
X18928Y6033D02*
X17982Y6039D01*
X17996Y5953D01*
X18928Y6033D01*
G37*
G36*
X18928Y6033D02*
X17996Y5953D01*
X17982Y5867D01*
X18928Y6033D01*
G37*
G36*
X18928Y6033D02*
X17982Y5867D01*
X18928Y5188D01*
X18928Y6033D01*
G37*
G36*
X17982Y5867D02*
X17942Y5789D01*
X18928Y5188D01*
X17982Y5867D01*
G37*
G36*
X18928Y5188D02*
X17942Y5789D01*
X17942Y5117D01*
X18928Y5188D01*
G37*
G36*
X17942Y5789D02*
X17880Y5178D01*
X17942Y5117D01*
X17942Y5789D01*
G37*
G36*
X17942Y5789D02*
X17880Y5727D01*
X17880Y5178D01*
X17942Y5789D01*
G37*
G36*
X17803Y5687D02*
X17880Y5178D01*
X17880Y5727D01*
X17803Y5687D01*
G37*
G36*
X17803Y5687D02*
X17803Y5218D01*
X17880Y5178D01*
X17803Y5687D01*
G37*
G36*
X17717Y5674D02*
X17803Y5218D01*
X17803Y5687D01*
X17717Y5674D01*
G37*
G36*
X17717Y5674D02*
X17717Y5232D01*
X17803Y5218D01*
X17717Y5674D01*
G37*
G36*
X17630Y5218D02*
X17717Y5232D01*
X17717Y5674D01*
X17630Y5218D01*
G37*
G36*
X17630Y5687D02*
X17630Y5218D01*
X17717Y5674D01*
X17630Y5687D01*
G37*
G36*
X17553Y5179D02*
X17630Y5218D01*
X17630Y5687D01*
X17553Y5179D01*
G37*
G36*
X17553Y5727D02*
X17553Y5179D01*
X17630Y5687D01*
X17553Y5727D01*
G37*
G36*
X17491Y5789D02*
X17553Y5179D01*
X17553Y5727D01*
X17491Y5789D01*
G37*
G36*
X17553Y5179D02*
X17491Y5789D01*
X16834Y5179D01*
X17553Y5179D01*
G37*
G36*
X17491Y5789D02*
X16702Y5610D01*
X16834Y5179D01*
X17491Y5789D01*
G37*
G36*
X16702Y5610D02*
X16702Y5310D01*
X16834Y5179D01*
X16702Y5610D01*
G37*
G36*
X17491Y5789D02*
X17451Y5867D01*
X16702Y5610D01*
X17491Y5789D01*
G37*
G36*
X16702Y5610D02*
X17451Y5867D01*
X16695Y5669D01*
X16702Y5610D01*
G37*
G36*
X17438Y5953D02*
X16695Y5669D01*
X17451Y5867D01*
X17438Y5953D01*
G37*
G36*
X17438Y5953D02*
X16672Y5723D01*
X16695Y5669D01*
X17438Y5953D01*
G37*
G36*
X16672Y5723D02*
X17438Y5953D01*
X17451Y6039D01*
X16672Y5723D01*
G37*
G36*
X17451Y6039D02*
X16643Y6033D01*
X16672Y5723D01*
X17451Y6039D01*
G37*
G36*
X16643Y6033D02*
X16643Y5761D01*
X16672Y5723D01*
X16643Y6033D01*
G37*
G36*
X17491Y6117D02*
X16643Y6033D01*
X17451Y6039D01*
X17491Y6117D01*
G37*
G36*
X16643Y6033D02*
X17491Y6117D01*
X17126Y6980D01*
X16643Y6033D01*
G37*
G36*
X17491Y6117D02*
X17156Y6979D01*
X17126Y6980D01*
X17491Y6117D01*
G37*
G36*
X17156Y7205D02*
X17126Y6980D01*
X17156Y6979D01*
X17156Y7205D01*
G37*
G36*
X17156Y7205D02*
X17126Y7205D01*
X17126Y6980D01*
X17156Y7205D01*
G37*
G36*
X17156Y6979D02*
X17491Y6117D01*
X17553Y6178D01*
X17156Y6979D01*
G37*
G36*
X17156Y6979D02*
X17553Y6178D01*
X17630Y6218D01*
X17156Y6979D01*
G37*
G36*
X17647Y6979D02*
X17156Y6979D01*
X17630Y6218D01*
X17647Y6979D01*
G37*
G36*
X17717Y6232D02*
X17647Y6979D01*
X17630Y6218D01*
X17717Y6232D01*
G37*
G36*
X17647Y6979D02*
X17717Y6232D01*
X17825Y6979D01*
X17647Y6979D01*
G37*
G36*
X17717Y6232D02*
X17803Y6218D01*
X17825Y6979D01*
X17717Y6232D01*
G37*
G36*
X17825Y6979D02*
X17803Y6218D01*
X17880Y6178D01*
X17825Y6979D01*
G37*
G36*
X17825Y6979D02*
X17880Y6178D01*
X18316Y6979D01*
X17825Y6979D01*
G37*
G36*
X17880Y6178D02*
X17942Y6117D01*
X18316Y6979D01*
X17880Y6178D01*
G37*
G36*
X17647Y7014D02*
X17647Y6979D01*
X17825Y6979D01*
X17647Y7014D01*
G37*
G36*
X17647Y7014D02*
X17825Y6979D01*
X17825Y7014D01*
X17647Y7014D01*
G37*
G36*
X16643Y6033D02*
X17126Y6980D01*
X16635Y6980D01*
X16643Y6033D01*
G37*
G36*
X16635Y6980D02*
X16457Y6980D01*
X16643Y6033D01*
X16635Y6980D01*
G37*
G36*
X16457Y6980D02*
X16310Y6033D01*
X16643Y6033D01*
X16457Y6980D01*
G37*
G36*
X16457Y7015D02*
X16457Y6980D01*
X16635Y6980D01*
X16457Y7015D01*
G37*
G36*
X16457Y7015D02*
X16635Y6980D01*
X16635Y7015D01*
X16457Y7015D01*
G37*
G36*
X18928Y5188D02*
X17942Y5117D01*
X17982Y5039D01*
X18928Y5188D01*
G37*
G36*
X17982Y5039D02*
X17996Y4953D01*
X18928Y5188D01*
X17982Y5039D01*
G37*
G36*
X18928Y5188D02*
X17996Y4953D01*
X17982Y4867D01*
X18928Y5188D01*
G37*
G36*
X18928Y5188D02*
X17982Y4867D01*
X18928Y3671D01*
X18928Y5188D01*
G37*
G36*
X18928Y3671D02*
X17982Y4867D01*
X17942Y4789D01*
X18928Y3671D01*
G37*
G36*
X17942Y4117D02*
X18928Y3671D01*
X17942Y4789D01*
X17942Y4117D01*
G37*
G36*
X17942Y4789D02*
X17880Y4178D01*
X17942Y4117D01*
X17942Y4789D01*
G37*
G36*
X17942Y4789D02*
X17880Y4727D01*
X17880Y4178D01*
X17942Y4789D01*
G37*
G36*
X17803Y4687D02*
X17880Y4178D01*
X17880Y4727D01*
X17803Y4687D01*
G37*
G36*
X17803Y4687D02*
X17803Y4218D01*
X17880Y4178D01*
X17803Y4687D01*
G37*
G36*
X17717Y4674D02*
X17803Y4218D01*
X17803Y4687D01*
X17717Y4674D01*
G37*
G36*
X17717Y4674D02*
X17717Y4232D01*
X17803Y4218D01*
X17717Y4674D01*
G37*
G36*
X17630Y4218D02*
X17717Y4232D01*
X17717Y4674D01*
X17630Y4218D01*
G37*
G36*
X17630Y4687D02*
X17630Y4218D01*
X17717Y4674D01*
X17630Y4687D01*
G37*
G36*
X17630Y4687D02*
X17553Y4727D01*
X17630Y4218D01*
X17630Y4687D01*
G37*
G36*
X17553Y4727D02*
X17553Y4179D01*
X17630Y4218D01*
X17553Y4727D01*
G37*
G36*
X16787Y4179D02*
X17553Y4179D01*
X17553Y4727D01*
X16787Y4179D01*
G37*
G36*
X16740Y4727D02*
X16787Y4179D01*
X17553Y4727D01*
X16740Y4727D01*
G37*
G36*
X16740Y4727D02*
X16729Y4171D01*
X16787Y4179D01*
X16740Y4727D01*
G37*
G36*
X16682Y4735D02*
X16729Y4171D01*
X16740Y4727D01*
X16682Y4735D01*
G37*
G36*
X16682Y4735D02*
X16674Y4148D01*
X16729Y4171D01*
X16682Y4735D01*
G37*
G36*
X16628Y4757D02*
X16674Y4148D01*
X16682Y4735D01*
X16628Y4757D01*
G37*
G36*
X16628Y4757D02*
X16628Y4112D01*
X16674Y4148D01*
X16628Y4757D01*
G37*
G36*
X16628Y4757D02*
X16581Y4793D01*
X16628Y4112D01*
X16628Y4757D01*
G37*
G36*
X16628Y4112D02*
X16581Y4793D01*
X16317Y3802D01*
X16628Y4112D01*
G37*
G36*
X16317Y5057D02*
X16317Y3802D01*
X16581Y4793D01*
X16317Y5057D01*
G37*
G36*
X17982Y4039D02*
X18928Y3671D01*
X17942Y4117D01*
X17982Y4039D01*
G37*
G36*
X17996Y3953D02*
X18928Y3671D01*
X17982Y4039D01*
X17996Y3953D01*
G37*
G36*
X17996Y3953D02*
X17982Y3867D01*
X18928Y3671D01*
X17996Y3953D01*
G37*
G36*
X17982Y3867D02*
X17942Y3789D01*
X18928Y3671D01*
X17982Y3867D01*
G37*
G36*
X18928Y3671D02*
X17942Y3789D01*
X17942Y3117D01*
X18928Y3671D01*
G37*
G36*
X17942Y3117D02*
X17942Y3789D01*
X17880Y3178D01*
X17942Y3117D01*
G37*
G36*
X17942Y3789D02*
X17880Y3727D01*
X17880Y3178D01*
X17942Y3789D01*
G37*
G36*
X17803Y3687D02*
X17880Y3178D01*
X17880Y3727D01*
X17803Y3687D01*
G37*
G36*
X17803Y3687D02*
X17803Y3218D01*
X17880Y3178D01*
X17803Y3687D01*
G37*
G36*
X17717Y3674D02*
X17803Y3218D01*
X17803Y3687D01*
X17717Y3674D01*
G37*
G36*
X17717Y3674D02*
X17717Y3232D01*
X17803Y3218D01*
X17717Y3674D01*
G37*
G36*
X17630Y3218D02*
X17717Y3232D01*
X17717Y3674D01*
X17630Y3218D01*
G37*
G36*
X17630Y3687D02*
X17630Y3218D01*
X17717Y3674D01*
X17630Y3687D01*
G37*
G36*
X17630Y3218D02*
X17630Y3687D01*
X17553Y3727D01*
X17630Y3218D01*
G37*
G36*
X17553Y3727D02*
X17553Y3178D01*
X17630Y3218D01*
X17553Y3727D01*
G37*
G36*
X17553Y3727D02*
X16881Y3727D01*
X17553Y3178D01*
X17553Y3727D01*
G37*
G36*
X16881Y3727D02*
X17491Y3117D01*
X17553Y3178D01*
X16881Y3727D01*
G37*
G36*
X17491Y3117D02*
X16881Y3727D01*
X16702Y3248D01*
X17491Y3117D01*
G37*
G36*
X16702Y3248D02*
X16881Y3727D01*
X16702Y3548D01*
X16702Y3248D01*
G37*
G36*
X17491Y3117D02*
X16702Y3248D01*
X17451Y3039D01*
X17491Y3117D01*
G37*
G36*
X16702Y3248D02*
X16695Y3190D01*
X17451Y3039D01*
X16702Y3248D01*
G37*
G36*
X17451Y3039D02*
X16695Y3190D01*
X17438Y2953D01*
X17451Y3039D01*
G37*
G36*
X17438Y2953D02*
X16695Y3190D01*
X16672Y3135D01*
X17438Y2953D01*
G37*
G36*
X17438Y2953D02*
X16672Y3135D01*
X16643Y2825D01*
X17438Y2953D01*
G37*
G36*
X16672Y3135D02*
X16643Y3098D01*
X16643Y2825D01*
X16672Y3135D01*
G37*
G36*
X17438Y2953D02*
X16643Y2825D01*
X17451Y2867D01*
X17438Y2953D01*
G37*
G36*
X17451Y2867D02*
X16643Y2825D01*
X17491Y2789D01*
X17451Y2867D01*
G37*
G36*
X17491Y2789D02*
X16643Y2825D01*
X17553Y2727D01*
X17491Y2789D01*
G37*
G36*
X17942Y3117D02*
X17982Y3039D01*
X18928Y3671D01*
X17942Y3117D01*
G37*
G36*
X18928Y3671D02*
X17982Y3039D01*
X18928Y2825D01*
X18928Y3671D01*
G37*
G36*
X17982Y3039D02*
X17996Y2953D01*
X18928Y2825D01*
X17982Y3039D01*
G37*
G36*
X17996Y2953D02*
X17982Y2867D01*
X18928Y2825D01*
X17996Y2953D01*
G37*
G36*
X17982Y2867D02*
X17942Y2789D01*
X18928Y2825D01*
X17982Y2867D01*
G37*
G36*
X17880Y2727D02*
X18928Y2825D01*
X17942Y2789D01*
X17880Y2727D01*
G37*
G36*
X17803Y2687D02*
X18928Y2825D01*
X17880Y2727D01*
X17803Y2687D01*
G37*
G36*
X19607Y4117D02*
X18928Y5188D01*
X18928Y3671D01*
X19607Y4117D01*
G37*
G36*
X19607Y4117D02*
X18928Y3671D01*
X19161Y3671D01*
X19607Y4117D01*
G37*
G36*
X19261Y5188D02*
X18928Y5188D01*
X19607Y4117D01*
X19261Y5188D01*
G37*
G36*
X19261Y5188D02*
X19607Y4117D01*
X19607Y6714D01*
X19261Y5188D01*
G37*
G36*
X19607Y6714D02*
X19261Y6033D01*
X19261Y5188D01*
X19607Y6714D01*
G37*
G36*
X19607Y6714D02*
X19382Y6714D01*
X19261Y6033D01*
X19607Y6714D01*
G37*
G36*
X18928Y6033D02*
X19261Y6033D01*
X19382Y6714D01*
X18928Y6033D01*
G37*
G36*
X19382Y7205D02*
X18928Y6033D01*
X19382Y6714D01*
X19382Y7205D01*
G37*
G36*
X19417Y7383D02*
X19382Y7383D01*
X19382Y7205D01*
X19417Y7383D01*
G37*
G36*
X19417Y7383D02*
X19382Y7205D01*
X19417Y7205D01*
X19417Y7383D01*
G37*
G36*
X18226Y7956D02*
X18149Y7835D01*
X18316Y7587D01*
X18226Y7956D01*
G37*
G36*
X18149Y7835D02*
X18149Y7587D01*
X18316Y7587D01*
X18149Y7835D01*
G37*
G36*
X18146Y7855D02*
X18149Y7835D01*
X18226Y7956D01*
X18146Y7855D01*
G37*
G36*
X18146Y7855D02*
X18226Y7956D01*
X18205Y7958D01*
X18146Y7855D01*
G37*
G36*
X18205Y7958D02*
X18139Y7874D01*
X18146Y7855D01*
X18205Y7958D01*
G37*
G36*
X18205Y7958D02*
X18186Y7966D01*
X18139Y7874D01*
X18205Y7958D01*
G37*
G36*
X18139Y7874D02*
X18186Y7966D01*
X18126Y7890D01*
X18139Y7874D01*
G37*
G36*
X18170Y7979D02*
X18126Y7890D01*
X18186Y7966D01*
X18170Y7979D01*
G37*
G36*
X17910Y8106D02*
X18126Y7890D01*
X18170Y7979D01*
X17910Y8106D01*
G37*
G36*
X17882Y8267D02*
X17910Y8106D01*
X18170Y7979D01*
X17882Y8267D01*
G37*
G36*
X17882Y8267D02*
X17893Y8119D01*
X17910Y8106D01*
X17882Y8267D01*
G37*
G36*
X17882Y8267D02*
X17875Y8127D01*
X17893Y8119D01*
X17882Y8267D01*
G37*
G36*
X17854Y8129D02*
X17875Y8127D01*
X17882Y8267D01*
X17854Y8129D01*
G37*
G36*
X17726Y8198D02*
X17854Y8129D01*
X17882Y8267D01*
X17726Y8198D01*
G37*
G36*
X17392Y8198D02*
X17726Y8198D01*
X17882Y8267D01*
X17392Y8198D01*
G37*
G36*
X17040Y8267D02*
X17392Y8198D01*
X17882Y8267D01*
X17040Y8267D01*
G37*
G36*
X17392Y8198D02*
X17040Y8267D01*
X17392Y7904D01*
X17392Y8198D01*
G37*
G36*
X17392Y7904D02*
X17040Y8267D01*
X17126Y7588D01*
X17392Y7904D01*
G37*
G36*
X17040Y8267D02*
X16635Y7588D01*
X17126Y7588D01*
X17040Y8267D01*
G37*
G36*
X16457Y7588D02*
X16635Y7588D01*
X17040Y8267D01*
X16457Y7588D01*
G37*
G36*
X17040Y8267D02*
X16362Y7589D01*
X16457Y7588D01*
X17040Y8267D01*
G37*
G36*
X16362Y7589D02*
X16362Y7588D01*
X16457Y7588D01*
X16362Y7589D01*
G37*
G36*
X16457Y7588D02*
X16635Y7553D01*
X16635Y7588D01*
X16457Y7588D01*
G37*
G36*
X16457Y7588D02*
X16457Y7553D01*
X16635Y7553D01*
X16457Y7588D01*
G37*
G36*
X17126Y7588D02*
X17156Y7587D01*
X17392Y7904D01*
X17126Y7588D01*
G37*
G36*
X17392Y7904D02*
X17156Y7587D01*
X17647Y7587D01*
X17392Y7904D01*
G37*
G36*
X17392Y7904D02*
X17647Y7587D01*
X17726Y7904D01*
X17392Y7904D01*
G37*
G36*
X17726Y7904D02*
X17647Y7587D01*
X17825Y7587D01*
X17726Y7904D01*
G37*
G36*
X17647Y7587D02*
X17825Y7552D01*
X17825Y7587D01*
X17647Y7587D01*
G37*
G36*
X17647Y7587D02*
X17647Y7552D01*
X17825Y7552D01*
X17647Y7587D01*
G37*
G36*
X17726Y7904D02*
X17825Y7587D01*
X17993Y7802D01*
X17726Y7904D01*
G37*
G36*
X17825Y7587D02*
X17993Y7587D01*
X17993Y7802D01*
X17825Y7587D01*
G37*
G36*
X17993Y7802D02*
X17822Y7973D01*
X17726Y7904D01*
X17993Y7802D01*
G37*
G36*
X17822Y7973D02*
X17726Y7973D01*
X17726Y7904D01*
X17822Y7973D01*
G37*
G36*
X17126Y7362D02*
X17156Y7587D01*
X17126Y7588D01*
X17126Y7362D01*
G37*
G36*
X17126Y7362D02*
X17156Y7362D01*
X17156Y7587D01*
X17126Y7362D01*
G37*
G36*
X17726Y8198D02*
X17726Y8129D01*
X17854Y8129D01*
X17726Y8198D01*
G37*
G36*
X19990Y7205D02*
X19990Y6968D01*
X20621Y7057D01*
X19990Y7205D01*
G37*
G36*
X19990Y6968D02*
X20621Y6968D01*
X20621Y7057D01*
X19990Y6968D01*
G37*
G36*
X20188Y6033D02*
X20521Y6033D01*
X20621Y6723D01*
X20188Y6033D01*
G37*
G36*
X20621Y6723D02*
X19990Y6714D01*
X20188Y6033D01*
X20621Y6723D01*
G37*
G36*
X19990Y6714D02*
X19764Y6714D01*
X20188Y6033D01*
X19990Y6714D01*
G37*
G36*
X20188Y6033D02*
X19764Y6714D01*
X20188Y5188D01*
X20188Y6033D01*
G37*
G36*
X20188Y5188D02*
X19764Y6714D01*
X19764Y4085D01*
X20188Y5188D01*
G37*
G36*
X20521Y5188D02*
X20188Y5188D01*
X19764Y4085D01*
X20521Y5188D01*
G37*
G36*
X20621Y6723D02*
X19990Y6812D01*
X19990Y6714D01*
X20621Y6723D01*
G37*
G36*
X19990Y6812D02*
X20621Y6723D01*
X20621Y6812D01*
X19990Y6812D01*
G37*
G36*
X15777Y3671D02*
X15777Y3399D01*
X15806Y3361D01*
X15777Y3671D01*
G37*
G36*
X16281Y5723D02*
X16310Y5761D01*
X16310Y6033D01*
X16281Y5723D01*
G37*
G36*
X14911Y6033D02*
X15060Y6723D01*
X14478Y6714D01*
X14911Y6033D01*
G37*
G36*
X15060Y6723D02*
X14478Y6821D01*
X14478Y6714D01*
X15060Y6723D01*
G37*
G36*
X14478Y6821D02*
X15060Y6723D01*
X15060Y6821D01*
X14478Y6821D01*
G37*
G36*
X14478Y6714D02*
X14577Y6033D01*
X14911Y6033D01*
X14478Y6714D01*
G37*
G36*
X14478Y6714D02*
X14243Y6714D01*
X14577Y6033D01*
X14478Y6714D01*
G37*
G36*
X14577Y6033D02*
X14243Y6714D01*
X14577Y5188D01*
X14577Y6033D01*
G37*
G36*
X14577Y5188D02*
X14243Y6714D01*
X14243Y4183D01*
X14577Y5188D01*
G37*
G36*
X14911Y5188D02*
X14577Y5188D01*
X14243Y4183D01*
X14911Y5188D01*
G37*
%LNSTD*%
%LPD*%
G54D11*
X17104Y14574D03*
X16604Y14574D03*
X16104Y14574D03*
X15604Y14574D03*
X15104Y14574D03*
X14604Y14574D03*
X14104Y14574D03*
X13604Y14574D03*
X13604Y11914D03*
X14104Y11914D03*
X14604Y11914D03*
X15104Y11914D03*
X15604Y11914D03*
X16104Y11914D03*
X16604Y11914D03*
X17104Y11914D03*
G54D18*
X3150Y5906D03*
X3150Y4906D03*
X3150Y3906D03*
X3150Y2906D03*
X12008Y2953D03*
X12008Y3953D03*
X12008Y4953D03*
X12008Y5953D03*
X17717Y2953D03*
X17717Y3953D03*
X17717Y4953D03*
X17717Y5953D03*
X23228Y2953D03*
X23228Y3953D03*
X23228Y4953D03*
X23228Y5953D03*
X28740Y2953D03*
X28740Y3953D03*
X28740Y4953D03*
X28740Y5953D03*
G54D20*
X7154Y13925D03*
X6154Y13925D03*
X5154Y13925D03*
X4154Y13925D03*
X3154Y13925D03*
G54D23*
X11614Y14173D03*
X12283Y14173D03*
X11614Y13386D03*
X12283Y13386D03*
X11614Y12598D03*
X12283Y12598D03*
X18110Y11811D03*
X18779Y11811D03*
G54D25*
X5315Y12598D03*
X5315Y11929D03*
X6299Y12598D03*
X6299Y11929D03*
X7283Y12598D03*
X7283Y11929D03*
G54D18*
X5512Y5906D03*
X5512Y4906D03*
X5512Y3906D03*
X5512Y2906D03*
G54D27*
X1575Y1575D03*
X1575Y15748D03*
G54D23*
X22402Y7283D03*
X21733Y7283D03*
X27913Y7283D03*
X27244Y7283D03*
X12362Y7283D03*
X11693Y7283D03*
X18071Y7283D03*
X17402Y7283D03*
X23583Y7283D03*
X22914Y7283D03*
X29094Y7283D03*
X28425Y7283D03*
G54D31*
X11850Y8051D03*
X11850Y8799D03*
X12638Y8425D03*
X17559Y8051D03*
X17559Y8799D03*
X18346Y8425D03*
X23071Y8051D03*
X23071Y8799D03*
X23858Y8425D03*
X28583Y8051D03*
X28583Y8799D03*
X29370Y8425D03*
G54D25*
X8563Y7825D03*
X8563Y7156D03*
X14174Y7628D03*
X14174Y6959D03*
X19686Y7628D03*
X19686Y6959D03*
X25198Y7628D03*
X25198Y6959D03*
X10669Y9291D03*
X10669Y8622D03*
X16378Y9291D03*
X16378Y8622D03*
X21890Y9291D03*
X21890Y8622D03*
X27402Y9291D03*
X27402Y8622D03*
G54D38*
X7480Y3248D03*
X8740Y3248D03*
X9606Y3248D03*
X10473Y3248D03*
X10473Y5610D03*
X9606Y5610D03*
X8740Y5610D03*
X7480Y5610D03*
G54D40*
X9223Y7874D03*
X9971Y7874D03*
X9597Y7087D03*
X14833Y7677D03*
X15581Y7677D03*
X15207Y6890D03*
G54D38*
X13484Y3248D03*
X14744Y3248D03*
X15610Y3248D03*
X16476Y3248D03*
X16476Y5610D03*
X15610Y5610D03*
X14744Y5610D03*
X13484Y5610D03*
G54D40*
X20394Y7677D03*
X21142Y7677D03*
X20768Y6890D03*
X25857Y7677D03*
X26605Y7677D03*
X26231Y6890D03*
G54D38*
X19095Y3248D03*
X20354Y3248D03*
X21221Y3248D03*
X22087Y3248D03*
X22087Y5610D03*
X21221Y5610D03*
X20354Y5610D03*
X19095Y5610D03*
X24606Y3248D03*
X25866Y3248D03*
X26732Y3248D03*
X27599Y3248D03*
X27599Y5610D03*
X26732Y5610D03*
X25866Y5610D03*
X24606Y5610D03*
G54D27*
X30709Y1575D03*
X30709Y15748D03*
G54D23*
X16880Y7284D03*
X16211Y7284D03*
X11172Y7284D03*
X10503Y7284D03*
G54D43*
X26772Y3248D02*
X26772Y2658D01*
X26378Y2264D01*
G54D44*
X26378Y2264D03*
G54D43*
X21221Y3248D02*
X21221Y2264D01*
G54D44*
X21221Y2264D03*
G54D43*
X9606Y3248D02*
X9606Y2264D01*
G54D44*
X9606Y2264D03*
G54D43*
X15610Y2264D02*
X15610Y3248D01*
G54D44*
X15610Y2264D03*
G54D43*
X26723Y6595D02*
X26723Y6595D01*
G54D44*
X26723Y6595D03*
G54D43*
X15610Y5610D02*
X15610Y6595D01*
G54D44*
X15610Y6595D03*
G54D43*
X9606Y5610D02*
X9606Y6595D01*
G54D44*
X9606Y6595D03*
G54D43*
X26732Y5610D02*
X26723Y6595D01*
X26723Y6595D01*
X21221Y5610D02*
X21221Y6595D01*
G54D44*
X21221Y6595D03*
G54D16*
X12283Y13386D02*
X12402Y13386D01*
X12598Y13189D01*
X13780Y13189D01*
X14104Y12864D01*
X14104Y11914D01*
X6299Y11929D02*
X6299Y11417D01*
X6890Y10827D01*
X8071Y10827D01*
G54D44*
X8071Y10827D03*
G54D16*
X12795Y13189D02*
X12992Y13189D01*
G54D44*
X12795Y13189D03*
G54D16*
X12283Y14173D02*
X12598Y14173D01*
X13189Y13583D01*
X13976Y13583D01*
X14604Y12955D01*
X14604Y11914D01*
X7283Y11929D02*
X7283Y11417D01*
X7480Y11220D01*
X8071Y11220D01*
G54D44*
X8071Y11220D03*
G54D16*
X13189Y13583D02*
X13386Y13583D01*
G54D44*
X13189Y13583D03*
G54D16*
X12283Y12598D02*
X13386Y12598D01*
X13604Y12380D01*
X13604Y11914D01*
X12992Y12598D02*
X12795Y12598D01*
G54D44*
X12795Y12598D03*
G54D16*
X8071Y10433D02*
X6496Y10433D01*
G54D44*
X8071Y10433D03*
G54D16*
X6496Y10433D02*
X5315Y11614D01*
X5315Y11929D01*
G54D45*
X17104Y11914D02*
X18012Y11914D01*
X18110Y11811D01*
X11614Y12598D02*
X11614Y12107D01*
X11861Y11861D01*
G54D44*
X11861Y11861D03*
G54D45*
X17569Y11861D02*
X17104Y11861D01*
G54D44*
X17569Y11861D03*
G54D45*
X17104Y11861D02*
X17104Y11914D01*
X4154Y13925D02*
X4134Y13925D01*
X4134Y14272D01*
X4331Y14469D01*
X11319Y14469D01*
X11615Y14173D01*
X11614Y14173D01*
X11614Y12599D01*
G54D33*
X4134Y13928D02*
X4134Y11707D01*
X7551Y8289D01*
X8810Y8289D01*
X9559Y7540D01*
X10583Y7540D01*
X11368Y8317D01*
X12254Y8317D01*
X12474Y8089D01*
X14423Y8089D01*
X15125Y7387D01*
X16048Y7387D01*
X17007Y8346D01*
X17914Y8346D01*
X18226Y8035D01*
X20031Y8035D01*
X20702Y7364D01*
X21556Y7364D01*
X22567Y8375D01*
X23402Y8375D01*
X23691Y8086D01*
X25446Y8086D01*
X26240Y7292D01*
X27215Y7292D01*
G54D16*
X5154Y13925D02*
X5315Y13764D01*
X5315Y12598D01*
X5315Y12598D01*
X6154Y13925D02*
X6299Y13780D01*
X6299Y12598D01*
X7154Y13925D02*
X7283Y13795D01*
X7283Y12598D01*
G54D45*
X9597Y7087D02*
X8563Y7087D01*
X8563Y7156D01*
X8514Y7156D01*
X8416Y7038D01*
X8170Y6792D01*
X8170Y4183D01*
X7480Y3494D01*
X7480Y3248D01*
G54D16*
X15207Y6890D02*
X14174Y6890D01*
X14174Y6959D01*
X14174Y4183D01*
X13484Y3494D01*
X13484Y3248D01*
G54D45*
X20768Y6890D02*
X19686Y6890D01*
X19686Y6959D01*
X19686Y4085D01*
X19144Y3543D01*
X19095Y3248D01*
X26231Y6890D02*
X25198Y6890D01*
X25198Y6959D01*
X25198Y4036D01*
X24705Y3543D01*
X24606Y3248D01*
G54D16*
X10669Y9291D02*
X11378Y9291D01*
X11850Y8819D01*
X11850Y8799D01*
X10669Y9291D02*
X10237Y9291D01*
X9971Y9026D01*
X9971Y7874D01*
X15604Y11914D02*
X15604Y10630D01*
X13773Y8799D01*
X11850Y8799D01*
X16378Y9291D02*
X17047Y9291D01*
X17539Y8799D01*
X17559Y8799D01*
X16378Y9291D02*
X15896Y9291D01*
X15581Y8976D01*
X15581Y7677D01*
X15581Y7677D01*
X16104Y11914D02*
X16104Y9744D01*
X16378Y9471D01*
X16378Y9291D01*
X21890Y9291D02*
X22598Y9291D01*
X23091Y8799D01*
X23071Y8799D01*
X21142Y7677D02*
X21142Y9291D01*
X16604Y11914D02*
X16604Y10630D01*
X17943Y9291D01*
X21890Y9291D01*
X21890Y9291D01*
X27402Y9291D02*
X28110Y9291D01*
X28543Y8858D01*
X28583Y8799D01*
X26605Y7677D02*
X26674Y7776D01*
X26772Y7874D01*
X26772Y9006D01*
X27058Y9291D01*
X27402Y9291D01*
X15104Y11914D02*
X15104Y12451D01*
X15158Y12500D01*
X15256Y12599D01*
X18997Y12599D01*
X19489Y12107D01*
X19489Y10630D01*
X20424Y9695D01*
X23426Y9695D01*
X24361Y8760D01*
X25542Y8760D01*
X26576Y7727D01*
X26605Y7677D01*
G54D45*
X22914Y7283D02*
X22402Y7283D01*
X28425Y7283D02*
X27913Y7283D01*
X29094Y7283D02*
X29094Y7756D01*
X28799Y8051D01*
X28583Y8051D01*
X23583Y7283D02*
X23583Y7874D01*
X23405Y8051D01*
X23071Y8051D01*
X23071Y8051D01*
X18071Y7283D02*
X18071Y7835D01*
X17854Y8051D01*
X17559Y8051D01*
X17559Y8051D01*
X11850Y8051D02*
X12126Y8051D01*
X12362Y7815D01*
X12362Y7283D01*
G54D43*
X10473Y3248D02*
X10473Y3445D01*
X10532Y3543D01*
X10941Y3953D01*
X12008Y3953D01*
X10473Y5610D02*
X10473Y5315D01*
X10532Y5315D01*
X10894Y4953D01*
X12008Y4953D01*
X16476Y3248D02*
X16476Y3642D01*
X16787Y3953D01*
X17717Y3953D01*
X16476Y5610D02*
X16476Y5217D01*
X16740Y4953D01*
X17717Y4953D01*
X22087Y3248D02*
X22087Y3642D01*
X22398Y3953D01*
X23228Y3953D01*
X22087Y5610D02*
X22087Y5217D01*
X22351Y4953D01*
X23228Y4953D01*
X27599Y3248D02*
X27599Y3642D01*
X27910Y3953D01*
X28740Y3953D01*
X27599Y5610D02*
X27599Y5217D01*
X27863Y4953D01*
X28740Y4953D01*
G54D45*
X11693Y7283D02*
X11172Y7284D01*
X17402Y7283D02*
X16929Y7283D01*
X16880Y7284D01*
%LNERASE*%
%LPC*%
G54D19*
X3150Y5906D03*
X3150Y4906D03*
X3150Y3906D03*
X3150Y2906D03*
X12008Y2953D03*
X12008Y3953D03*
X12008Y4953D03*
X12008Y5953D03*
X17717Y2953D03*
X17717Y3953D03*
X17717Y4953D03*
X17717Y5953D03*
X23228Y2953D03*
X23228Y3953D03*
X23228Y4953D03*
X23228Y5953D03*
X28740Y2953D03*
X28740Y3953D03*
X28740Y4953D03*
X28740Y5953D03*
G54D21*
X7154Y13925D03*
X6154Y13925D03*
X5154Y13925D03*
X4154Y13925D03*
X3154Y13925D03*
G54D19*
X5512Y5906D03*
X5512Y4906D03*
X5512Y3906D03*
X5512Y2906D03*
G54D28*
X1575Y1575D03*
X1575Y15748D03*
X30709Y1575D03*
X30709Y15748D03*
%LNSTD*%
%LPD*%
G54D30*
X18996Y11811D02*
X19026Y11811D01*
X18779Y12086D02*
X18779Y12116D01*
X18779Y11536D02*
X18779Y11506D01*
X14104Y14149D02*
X14104Y14119D01*
X14214Y14574D02*
X14244Y14574D01*
X14104Y14999D02*
X14104Y15029D01*
X13994Y14574D02*
X13964Y14574D01*
X13604Y14149D02*
X13604Y14119D01*
X13714Y14574D02*
X13744Y14574D01*
X13604Y14999D02*
X13604Y15029D01*
X13494Y14574D02*
X13464Y14574D01*
X3154Y14225D02*
X3154Y14255D01*
X2854Y13925D02*
X2824Y13925D01*
X3154Y13625D02*
X3154Y13595D01*
X3454Y13925D02*
X3484Y13925D01*
X12776Y8425D02*
X12806Y8425D01*
X12638Y8543D02*
X12638Y8573D01*
X12500Y8425D02*
X12470Y8425D01*
X12638Y8307D02*
X12638Y8277D01*
X14449Y7628D02*
X14479Y7628D01*
X14174Y7845D02*
X14174Y7875D01*
X13899Y7628D02*
X13869Y7628D01*
X13484Y6004D02*
X13484Y6034D01*
X13347Y5610D02*
X13317Y5610D01*
X13484Y5217D02*
X13484Y5187D01*
X13622Y5610D02*
X13652Y5610D01*
X7480Y6004D02*
X7480Y6034D01*
X7343Y5610D02*
X7313Y5610D01*
X7480Y5217D02*
X7480Y5187D01*
X7618Y5610D02*
X7648Y5610D01*
X8838Y7825D02*
X8868Y7825D01*
X8563Y8042D02*
X8563Y8072D01*
X8288Y7825D02*
X8258Y7825D01*
X29508Y8425D02*
X29538Y8425D01*
X29370Y8543D02*
X29370Y8573D01*
X29232Y8425D02*
X29202Y8425D01*
X29370Y8307D02*
X29370Y8277D01*
X25473Y7628D02*
X25503Y7628D01*
X25198Y7845D02*
X25198Y7875D01*
X24923Y7628D02*
X24893Y7628D01*
X24606Y6004D02*
X24606Y6034D01*
X24469Y5610D02*
X24439Y5610D01*
X24606Y5217D02*
X24606Y5187D01*
X24744Y5610D02*
X24774Y5610D01*
X18484Y8425D02*
X18514Y8425D01*
X18346Y8543D02*
X18346Y8573D01*
X18209Y8425D02*
X18179Y8425D01*
X18346Y8307D02*
X18346Y8277D01*
X19961Y7628D02*
X19991Y7628D01*
X19686Y7845D02*
X19686Y7875D01*
X19411Y7628D02*
X19381Y7628D01*
X19095Y6004D02*
X19095Y6034D01*
X18957Y5610D02*
X18927Y5610D01*
X19095Y5217D02*
X19095Y5187D01*
X19232Y5610D02*
X19262Y5610D01*
X23996Y8425D02*
X24026Y8425D01*
X23858Y8543D02*
X23858Y8573D01*
X23720Y8425D02*
X23690Y8425D01*
X23858Y8307D02*
X23858Y8277D01*
X10669Y8406D02*
X10669Y8376D01*
X10944Y8622D02*
X10974Y8622D01*
X10394Y8622D02*
X10364Y8622D01*
X16378Y8406D02*
X16378Y8376D01*
X16653Y8622D02*
X16683Y8622D01*
X16103Y8622D02*
X16073Y8622D01*
X21890Y8406D02*
X21890Y8376D01*
X22165Y8622D02*
X22195Y8622D01*
X21615Y8622D02*
X21585Y8622D01*
X27402Y8406D02*
X27402Y8376D01*
X27677Y8622D02*
X27707Y8622D01*
X27127Y8622D02*
X27097Y8622D01*
M02*
