G04 -- Generated By PCBWeb Designer*
%FSLAX24Y24*%
%MOIN*%
%OFA0B0*%
%SFA1.0B1.0*%
%AMROTRECT*21,1,$1,$2,0,0,$3*%
%AMROTOBLONG*1,1,$7,$1,$2*1,1,$7,$3,$4*21,1,$5,$6,0,0,$8*%
%ADD10C,0.025*%
%ADD11R,0.022X0.085*%
%ADD12R,0.032X0.095*%
%ADD13C,0.006*%
%ADD14C,0.0075*%
%ADD15C,0.0235*%
%ADD16C,0.008*%
%ADD17C,0.024*%
%ADD18C,0.05*%
%ADD19C,0.028*%
%ADD20C,0.06*%
%ADD21C,0.035*%
%ADD22C,0.07*%
%ADD23R,0.0433X0.055*%
%ADD24R,0.0533X0.065*%
%ADD25R,0.055X0.0433*%
%ADD26R,0.065X0.0533*%
%ADD27C,0.1772*%
%ADD28C,0.128*%
%ADD29C,0.1872*%
%ADD30C,0.0059*%
%ADD31R,0.0276X0.0236*%
%ADD32R,0.0376X0.0336*%
%ADD33C,0.01*%
%ADD34C,0.0039*%
%ADD35C,0.0199*%
%ADD36R,0.07X0.085*%
%ADD37R,0.08X0.095*%
%ADD38R,0.0276X0.0787*%
%ADD39R,0.0376X0.0887*%
%ADD40R,0.0236X0.0276*%
%ADD41R,0.0336X0.0376*%
%ADD42C,0.0*%
%ADD43C,0.0394*%
%ADD44C,0.0258*%
%ADD45C,0.0098*%
G01*
%LNERASE*%
%LPC*%
G54D15*
X18187Y14712D02*
X18412Y14487D01*
X18412Y14712D02*
X18187Y14487D01*
X18449Y14599D02*
X18149Y14599D01*
X18299Y14749D02*
X18299Y14449D01*
G54D17*
X18315Y13645D02*
X17790Y13645D01*
X17715Y13570D01*
X17715Y13307D01*
X17790Y13232D01*
X18315Y13232D01*
X17715Y13082D02*
X17715Y12857D01*
X17715Y12970D02*
X18315Y12970D01*
X18240Y13082D01*
X11903Y2257D02*
X11528Y2257D01*
X11528Y1657D01*
X11903Y1657D01*
X11528Y1957D02*
X11753Y1957D01*
X12053Y1807D02*
X12090Y1732D01*
X12128Y1695D01*
X12203Y1657D01*
X12353Y1657D01*
X12428Y1695D01*
X12465Y1732D01*
X12503Y1807D01*
X12503Y2107D01*
X12465Y2182D01*
X12428Y2220D01*
X12353Y2257D01*
X12203Y2257D01*
X12128Y2220D01*
X12090Y2182D01*
X12053Y2107D01*
X12053Y1807D01*
X12053Y1807D01*
X12053Y1657D02*
X12503Y2257D01*
X17769Y2257D02*
X17394Y2257D01*
X17394Y1657D01*
X17769Y1657D01*
X17394Y1957D02*
X17619Y1957D01*
X17919Y1657D02*
X18144Y1657D01*
X18031Y1657D02*
X18031Y2257D01*
X17919Y2182D01*
X23163Y2237D02*
X22788Y2237D01*
X22788Y1637D01*
X23163Y1637D01*
X22788Y1937D02*
X23013Y1937D01*
X23313Y2124D02*
X23425Y2237D01*
X23538Y2237D01*
X23650Y2124D01*
X23650Y1974D01*
X23575Y1899D01*
X23388Y1899D01*
X23313Y1824D01*
X23313Y1637D01*
X23650Y1637D01*
X28674Y2237D02*
X28299Y2237D01*
X28299Y1637D01*
X28674Y1637D01*
X28299Y1937D02*
X28524Y1937D01*
X28824Y2162D02*
X28899Y2237D01*
X29087Y2237D01*
X29162Y2162D01*
X29162Y2012D01*
X29087Y1937D01*
X28974Y1937D01*
X29087Y1937D02*
X29162Y1862D01*
X29162Y1712D01*
X29087Y1637D01*
X28899Y1637D01*
X28824Y1712D01*
X10665Y13983D02*
X10665Y14361D01*
X10830Y14361D01*
X10901Y14290D01*
X10901Y14219D01*
X10830Y14148D01*
X10665Y14148D01*
X10830Y14148D02*
X10925Y13983D01*
X11019Y13983D02*
X11161Y13983D01*
X11090Y13983D02*
X11090Y14361D01*
X11019Y14314D01*
X10632Y13211D02*
X10632Y13589D01*
X10798Y13589D01*
X10869Y13518D01*
X10869Y13448D01*
X10798Y13377D01*
X10632Y13377D01*
X10798Y13377D02*
X10892Y13211D01*
X10987Y13518D02*
X11058Y13589D01*
X11128Y13589D01*
X11199Y13518D01*
X11199Y13424D01*
X11152Y13377D01*
X11034Y13377D01*
X10987Y13329D01*
X10987Y13211D01*
X11199Y13211D01*
X10632Y12424D02*
X10632Y12802D01*
X10798Y12802D01*
X10869Y12731D01*
X10869Y12660D01*
X10798Y12589D01*
X10632Y12589D01*
X10798Y12589D02*
X10892Y12424D01*
X10987Y12755D02*
X11034Y12802D01*
X11152Y12802D01*
X11199Y12755D01*
X11199Y12660D01*
X11152Y12613D01*
X11081Y12613D01*
X11152Y12613D02*
X11199Y12566D01*
X11199Y12471D01*
X11152Y12424D01*
X11034Y12424D01*
X10987Y12471D01*
X19511Y11912D02*
X19441Y11983D01*
X19322Y11983D01*
X19252Y11912D01*
X19252Y11676D01*
X19322Y11605D01*
X19441Y11605D01*
X19511Y11676D01*
X19606Y11605D02*
X19748Y11605D01*
X19677Y11605D02*
X19677Y11983D01*
X19606Y11936D01*
X5140Y11495D02*
X5518Y11495D01*
X5518Y11329D01*
X5448Y11258D01*
X5377Y11258D01*
X5306Y11329D01*
X5306Y11495D01*
X5306Y11329D02*
X5140Y11235D01*
X5518Y11140D02*
X5306Y11140D01*
X5306Y10951D01*
X5471Y10999D02*
X5140Y10999D01*
X6125Y11495D02*
X6503Y11495D01*
X6503Y11329D01*
X6432Y11258D01*
X6361Y11258D01*
X6290Y11329D01*
X6290Y11495D01*
X6290Y11329D02*
X6125Y11235D01*
X6503Y10951D02*
X6503Y11140D01*
X6337Y11140D01*
X6337Y10999D01*
X6290Y10951D01*
X6172Y10951D01*
X6125Y10999D01*
X6125Y11140D01*
X7109Y11513D02*
X7487Y11513D01*
X7487Y11348D01*
X7416Y11277D01*
X7345Y11277D01*
X7274Y11348D01*
X7274Y11513D01*
X7274Y11348D02*
X7109Y11253D01*
X7487Y11088D02*
X7416Y11159D01*
X7156Y11159D01*
X7109Y11112D01*
X7109Y10994D01*
X7156Y10946D01*
X7251Y10946D01*
X7298Y10994D01*
X7298Y11112D01*
X7251Y11159D01*
X2933Y14921D02*
X2894Y14961D01*
X2776Y14961D01*
X2736Y14921D01*
X2736Y14685D01*
X2776Y14646D01*
X2894Y14646D01*
X2933Y14685D01*
X2933Y14803D01*
X2795Y14803D01*
X3012Y14646D02*
X3012Y14961D01*
X3209Y14646D01*
X3209Y14961D01*
X3287Y14646D02*
X3287Y14961D01*
X3425Y14961D01*
X3484Y14902D01*
X3484Y14705D01*
X3425Y14646D01*
X3287Y14646D01*
X3287Y14646D01*
X3819Y14961D02*
X3937Y14646D01*
X4055Y14961D01*
X4272Y14784D02*
X4232Y14823D01*
X4173Y14823D01*
X4134Y14784D01*
X4134Y14685D01*
X4173Y14646D01*
X4232Y14646D01*
X4272Y14685D01*
X4488Y14784D02*
X4449Y14823D01*
X4390Y14823D01*
X4350Y14784D01*
X4350Y14685D01*
X4390Y14646D01*
X4449Y14646D01*
X4488Y14685D01*
X5217Y14902D02*
X5158Y14961D01*
X5059Y14961D01*
X5000Y14902D01*
X5000Y14705D01*
X5059Y14646D01*
X5158Y14646D01*
X5217Y14705D01*
X6083Y14646D02*
X6083Y14961D01*
X6221Y14961D01*
X6260Y14921D01*
X6260Y14843D01*
X6221Y14803D01*
X6260Y14764D01*
X6260Y14685D01*
X6221Y14646D01*
X6083Y14646D01*
X6221Y14803D02*
X6083Y14803D01*
X7112Y14764D02*
X7258Y14764D01*
X7067Y14646D02*
X7185Y14961D01*
X7303Y14646D01*
X1850Y6043D02*
X1909Y6102D01*
X1969Y6102D01*
X2028Y6043D01*
X2028Y5965D01*
X1988Y5925D01*
X1890Y5925D01*
X1850Y5886D01*
X1850Y5787D01*
X2028Y5787D01*
X2106Y5787D02*
X2106Y6102D01*
X2244Y6102D01*
X2283Y6063D01*
X2283Y5984D01*
X2244Y5945D01*
X2283Y5906D01*
X2283Y5827D01*
X2244Y5787D01*
X2106Y5787D01*
X2244Y5945D02*
X2106Y5945D01*
X1949Y4803D02*
X2067Y4803D01*
X2008Y4803D02*
X2008Y5118D01*
X1949Y5079D01*
X2146Y4803D02*
X2146Y5118D01*
X2283Y5118D01*
X2323Y5079D01*
X2323Y5000D01*
X2283Y4961D01*
X2323Y4921D01*
X2323Y4843D01*
X2283Y4803D01*
X2146Y4803D01*
X2283Y4961D02*
X2146Y4961D01*
X1850Y4075D02*
X1909Y4134D01*
X1969Y4134D01*
X2028Y4075D01*
X2028Y3996D01*
X1988Y3957D01*
X1890Y3957D01*
X1850Y3917D01*
X1850Y3819D01*
X2028Y3819D01*
X2152Y3937D02*
X2297Y3937D01*
X2106Y3819D02*
X2224Y4134D01*
X2343Y3819D01*
X1949Y2736D02*
X2067Y2736D01*
X2008Y2736D02*
X2008Y3051D01*
X1949Y3012D01*
X2191Y2854D02*
X2337Y2854D01*
X2146Y2736D02*
X2264Y3051D01*
X2382Y2736D01*
X21805Y7690D02*
X21805Y8005D01*
X21942Y8005D01*
X22001Y7946D01*
X22001Y7887D01*
X21942Y7828D01*
X21805Y7828D01*
X21942Y7828D02*
X22021Y7690D01*
X22100Y7966D02*
X22139Y8005D01*
X22238Y8005D01*
X22277Y7966D01*
X22277Y7887D01*
X22238Y7848D01*
X22139Y7848D01*
X22100Y7887D01*
X22100Y7966D01*
X22100Y7966D01*
X22277Y7887D02*
X22277Y7690D01*
X27226Y7690D02*
X27226Y8005D01*
X27363Y8005D01*
X27422Y7946D01*
X27422Y7887D01*
X27363Y7828D01*
X27226Y7828D01*
X27363Y7828D02*
X27442Y7690D01*
X27521Y7690D02*
X27639Y7690D01*
X27580Y7690D02*
X27580Y8005D01*
X27521Y7966D01*
X27718Y7769D02*
X27737Y7730D01*
X27757Y7710D01*
X27796Y7690D01*
X27875Y7690D01*
X27914Y7710D01*
X27934Y7730D01*
X27954Y7769D01*
X27954Y7926D01*
X27934Y7966D01*
X27914Y7985D01*
X27875Y8005D01*
X27796Y8005D01*
X27757Y7985D01*
X27737Y7966D01*
X27718Y7926D01*
X27718Y7769D01*
X27718Y7769D01*
X27718Y7690D02*
X27954Y8005D01*
G54D35*
X11575Y9039D02*
X11717Y9181D01*
X11575Y9181D02*
X11717Y9039D01*
X11646Y9205D02*
X11646Y9016D01*
X11551Y9110D02*
X11740Y9110D01*
G54D17*
X12045Y9108D02*
X11986Y9167D01*
X11986Y9364D01*
X12045Y9423D01*
X12163Y9423D01*
X12222Y9364D01*
X12222Y9167D01*
X12163Y9108D01*
X12045Y9108D01*
X12045Y9108D01*
X12222Y9108D02*
X12143Y9187D01*
X12301Y9383D02*
X12340Y9423D01*
X12439Y9423D01*
X12478Y9383D01*
X12478Y9305D01*
X12439Y9265D01*
X12340Y9265D01*
X12301Y9305D01*
X12301Y9383D01*
X12301Y9383D01*
X12478Y9305D02*
X12478Y9108D01*
G54D35*
X17283Y9039D02*
X17425Y9181D01*
X17283Y9181D02*
X17425Y9039D01*
X17354Y9205D02*
X17354Y9016D01*
X17260Y9110D02*
X17449Y9110D01*
G54D17*
X17667Y9187D02*
X17608Y9246D01*
X17608Y9443D01*
X17667Y9502D01*
X17785Y9502D01*
X17844Y9443D01*
X17844Y9246D01*
X17785Y9187D01*
X17667Y9187D01*
X17667Y9187D01*
X17844Y9187D02*
X17766Y9265D01*
X17923Y9187D02*
X18041Y9187D01*
X17982Y9187D02*
X17982Y9502D01*
X17923Y9462D01*
X18120Y9265D02*
X18140Y9226D01*
X18159Y9206D01*
X18199Y9187D01*
X18277Y9187D01*
X18317Y9206D01*
X18337Y9226D01*
X18356Y9265D01*
X18356Y9423D01*
X18337Y9462D01*
X18317Y9482D01*
X18277Y9502D01*
X18199Y9502D01*
X18159Y9482D01*
X18140Y9462D01*
X18120Y9423D01*
X18120Y9265D01*
X18120Y9265D01*
X18120Y9187D02*
X18356Y9502D01*
G54D35*
X22795Y9039D02*
X22937Y9181D01*
X22795Y9181D02*
X22937Y9039D01*
X22866Y9205D02*
X22866Y9016D01*
X22772Y9110D02*
X22961Y9110D01*
G54D17*
X23193Y9187D02*
X23134Y9246D01*
X23134Y9443D01*
X23193Y9502D01*
X23311Y9502D01*
X23370Y9443D01*
X23370Y9246D01*
X23311Y9187D01*
X23193Y9187D01*
X23193Y9187D01*
X23370Y9187D02*
X23291Y9265D01*
X23449Y9187D02*
X23567Y9187D01*
X23508Y9187D02*
X23508Y9502D01*
X23449Y9462D01*
X23646Y9187D02*
X23764Y9187D01*
X23705Y9187D02*
X23705Y9502D01*
X23646Y9462D01*
G54D35*
X28307Y9039D02*
X28449Y9181D01*
X28307Y9181D02*
X28449Y9039D01*
X28378Y9205D02*
X28378Y9016D01*
X28283Y9110D02*
X28472Y9110D01*
G54D17*
X28747Y9187D02*
X28688Y9246D01*
X28688Y9443D01*
X28747Y9502D01*
X28865Y9502D01*
X28924Y9443D01*
X28924Y9246D01*
X28865Y9187D01*
X28747Y9187D01*
X28747Y9187D01*
X28924Y9187D02*
X28845Y9265D01*
X29003Y9187D02*
X29121Y9187D01*
X29062Y9187D02*
X29062Y9502D01*
X29003Y9462D01*
X29200Y9443D02*
X29259Y9502D01*
X29318Y9502D01*
X29377Y9443D01*
X29377Y9364D01*
X29338Y9324D01*
X29239Y9324D01*
X29200Y9285D01*
X29200Y9187D01*
X29377Y9187D01*
X8275Y8147D02*
X8275Y8462D01*
X8412Y8462D01*
X8471Y8403D01*
X8471Y8344D01*
X8412Y8285D01*
X8275Y8285D01*
X8412Y8285D02*
X8491Y8147D01*
X8570Y8147D02*
X8688Y8147D01*
X8629Y8147D02*
X8629Y8462D01*
X8570Y8422D01*
X8767Y8147D02*
X8885Y8147D01*
X8826Y8147D02*
X8826Y8462D01*
X8767Y8422D01*
X13806Y7967D02*
X13806Y8282D01*
X13944Y8282D01*
X14003Y8223D01*
X14003Y8164D01*
X13944Y8105D01*
X13806Y8105D01*
X13944Y8105D02*
X14023Y7967D01*
X14102Y7967D02*
X14220Y7967D01*
X14161Y7967D02*
X14161Y8282D01*
X14102Y8242D01*
X14298Y8223D02*
X14357Y8282D01*
X14416Y8282D01*
X14476Y8223D01*
X14476Y8144D01*
X14436Y8105D01*
X14338Y8105D01*
X14298Y8065D01*
X14298Y7967D01*
X14476Y7967D01*
X19279Y7967D02*
X19279Y8282D01*
X19417Y8282D01*
X19476Y8223D01*
X19476Y8164D01*
X19417Y8105D01*
X19279Y8105D01*
X19417Y8105D02*
X19495Y7967D01*
X19574Y7967D02*
X19692Y7967D01*
X19633Y7967D02*
X19633Y8282D01*
X19574Y8242D01*
X19771Y8242D02*
X19810Y8282D01*
X19909Y8282D01*
X19948Y8242D01*
X19948Y8164D01*
X19909Y8124D01*
X19850Y8124D01*
X19909Y8124D02*
X19948Y8085D01*
X19948Y8006D01*
X19909Y7967D01*
X19810Y7967D01*
X19771Y8006D01*
X24830Y7948D02*
X24830Y8263D01*
X24968Y8263D01*
X25027Y8204D01*
X25027Y8145D01*
X24968Y8086D01*
X24830Y8086D01*
X24968Y8086D02*
X25047Y7948D01*
X25125Y7948D02*
X25244Y7948D01*
X25184Y7948D02*
X25184Y8263D01*
X25125Y8224D01*
X25322Y8263D02*
X25322Y8086D01*
X25480Y8086D01*
X25440Y8224D02*
X25440Y7948D01*
X11050Y9296D02*
X11365Y9296D01*
X11365Y9158D01*
X11306Y9099D01*
X11247Y9099D01*
X11188Y9158D01*
X11188Y9296D01*
X11188Y9158D02*
X11050Y9080D01*
X11050Y9001D02*
X11050Y8883D01*
X11050Y8942D02*
X11365Y8942D01*
X11325Y9001D01*
X11365Y8647D02*
X11365Y8804D01*
X11227Y8804D01*
X11227Y8686D01*
X11188Y8647D01*
X11089Y8647D01*
X11050Y8686D01*
X11050Y8804D01*
X16759Y9276D02*
X17074Y9276D01*
X17074Y9138D01*
X17014Y9079D01*
X16955Y9079D01*
X16896Y9138D01*
X16896Y9276D01*
X16896Y9138D02*
X16759Y9059D01*
X16759Y8980D02*
X16759Y8862D01*
X16759Y8921D02*
X17074Y8921D01*
X17034Y8980D01*
X17074Y8724D02*
X17014Y8783D01*
X16798Y8783D01*
X16759Y8744D01*
X16759Y8646D01*
X16798Y8606D01*
X16877Y8606D01*
X16916Y8646D01*
X16916Y8744D01*
X16877Y8783D01*
X22270Y9236D02*
X22585Y9236D01*
X22585Y9098D01*
X22526Y9039D01*
X22467Y9039D01*
X22408Y9098D01*
X22408Y9236D01*
X22408Y9098D02*
X22270Y9020D01*
X22270Y8941D02*
X22270Y8823D01*
X22270Y8882D02*
X22585Y8882D01*
X22546Y8941D01*
X22585Y8744D02*
X22585Y8567D01*
X22270Y8744D01*
X27782Y9315D02*
X28097Y9315D01*
X28097Y9177D01*
X28038Y9118D01*
X27979Y9118D01*
X27920Y9177D01*
X27920Y9315D01*
X27920Y9177D02*
X27782Y9098D01*
X27782Y9020D02*
X27782Y8902D01*
X27782Y8961D02*
X28097Y8961D01*
X28058Y9020D01*
X27822Y8823D02*
X27782Y8783D01*
X27782Y8685D01*
X27822Y8646D01*
X27900Y8646D01*
X27940Y8685D01*
X27940Y8783D01*
X27900Y8823D01*
X27822Y8823D01*
X27822Y8823D01*
X27940Y8685D02*
X27979Y8646D01*
X28058Y8646D01*
X28097Y8685D01*
X28097Y8783D01*
X28058Y8823D01*
X27979Y8823D01*
X27940Y8783D01*
X20614Y15496D02*
X20614Y16063D01*
X20862Y16063D01*
X20969Y15957D01*
X20969Y15602D01*
X20862Y15496D01*
X20614Y15496D01*
X20614Y15496D01*
X21358Y15567D02*
X21287Y15496D01*
X21181Y15496D01*
X21110Y15567D01*
X21110Y15744D01*
X21181Y15815D01*
X21287Y15815D01*
X21358Y15744D01*
X21358Y15673D01*
X21110Y15673D01*
X21730Y15762D02*
X21677Y15815D01*
X21553Y15815D01*
X21500Y15762D01*
X21500Y15691D01*
X21536Y15656D01*
X21695Y15656D01*
X21730Y15620D01*
X21730Y15549D01*
X21677Y15496D01*
X21553Y15496D01*
X21500Y15549D01*
X21899Y15505D02*
X21899Y15939D01*
X21881Y15957D02*
X21899Y15974D01*
X21916Y15957D01*
X21899Y15939D01*
X21881Y15957D01*
X22058Y15709D02*
X22058Y15744D01*
X22129Y15815D01*
X22235Y15815D01*
X22306Y15744D01*
X22306Y15567D01*
X22235Y15496D01*
X22129Y15496D01*
X22058Y15567D01*
X22058Y15709D01*
X22306Y15815D02*
X22306Y15425D01*
X22235Y15354D01*
X22129Y15354D01*
X22058Y15425D01*
X22448Y15815D02*
X22448Y15496D01*
X22448Y15762D02*
X22501Y15815D01*
X22643Y15815D01*
X22696Y15762D01*
X22696Y15496D01*
X23086Y15567D02*
X23015Y15496D01*
X22909Y15496D01*
X22838Y15567D01*
X22838Y15744D01*
X22909Y15815D01*
X23015Y15815D01*
X23086Y15744D01*
X23086Y15673D01*
X22838Y15673D01*
X23227Y15567D02*
X23227Y15744D01*
X23298Y15815D01*
X23405Y15815D01*
X23475Y15744D01*
X23475Y15567D01*
X23405Y15496D01*
X23298Y15496D01*
X23227Y15567D01*
X23475Y15496D02*
X23475Y16063D01*
X23759Y15496D02*
X23759Y16063D01*
X23759Y15567D02*
X23830Y15496D01*
X23936Y15496D01*
X24007Y15567D01*
X24007Y15744D01*
X23936Y15815D01*
X23830Y15815D01*
X23759Y15744D01*
X24149Y15815D02*
X24273Y15496D01*
X24379Y15815D01*
X24273Y15496D02*
X24237Y15372D01*
X24220Y15354D01*
X24184Y15354D01*
X20696Y14921D02*
X20958Y14921D01*
X20614Y14709D02*
X20827Y15276D01*
X21039Y14709D01*
X21217Y15276D02*
X21217Y14709D01*
X21358Y14780D02*
X21429Y14709D01*
X21536Y14709D01*
X21606Y14780D01*
X21606Y14957D01*
X21536Y15028D01*
X21429Y15028D01*
X21358Y14957D01*
X21358Y14780D01*
X21606Y14709D02*
X21606Y15028D01*
X21748Y15028D02*
X21748Y14709D01*
X21748Y14974D02*
X21801Y15028D01*
X21943Y15028D01*
X21996Y14974D01*
X21996Y14709D01*
X22280Y15276D02*
X22280Y15134D01*
X22297Y15276D01*
X22280Y15276D01*
X22280Y15276D01*
X22350Y15276D02*
X22350Y15134D01*
X22368Y15276D01*
X22350Y15276D01*
X22350Y15276D01*
X22510Y14762D02*
X22563Y14709D01*
X22705Y14709D01*
X22758Y14762D01*
X22758Y14974D01*
X22705Y15028D01*
X22563Y15028D01*
X22510Y14974D01*
X22510Y14567D01*
X22510Y14974D02*
X22510Y15028D01*
X22900Y15028D02*
X23024Y14709D01*
X23130Y15028D01*
X23024Y14709D02*
X22988Y14585D01*
X22971Y14567D01*
X22935Y14567D01*
X23272Y15028D02*
X23272Y14709D01*
X23484Y14974D02*
X23431Y15028D01*
X23325Y15028D01*
X23272Y14974D01*
X23272Y14957D01*
X23626Y14850D02*
X23661Y14780D01*
X23697Y14744D01*
X23768Y14709D01*
X23910Y14709D01*
X23980Y14744D01*
X24016Y14780D01*
X24051Y14850D01*
X24051Y15134D01*
X24016Y15205D01*
X23980Y15240D01*
X23910Y15276D01*
X23768Y15276D01*
X23697Y15240D01*
X23661Y15205D01*
X23626Y15134D01*
X23626Y14850D01*
X23626Y14850D01*
X23626Y14709D02*
X24051Y15276D01*
X24193Y14709D02*
X24193Y15276D01*
X24193Y14780D02*
X24264Y14709D01*
X24370Y14709D01*
X24441Y14780D01*
X24441Y14957D01*
X24370Y15028D01*
X24264Y15028D01*
X24193Y14957D01*
X24583Y14780D02*
X24654Y14709D01*
X24760Y14709D01*
X24831Y14780D01*
X24831Y14957D01*
X24760Y15028D01*
X24654Y15028D01*
X24583Y14957D01*
X24583Y14780D01*
X24831Y14709D02*
X24831Y15028D01*
X25008Y15276D02*
X25008Y14709D01*
X25185Y15276D02*
X25185Y14709D01*
X25327Y15276D02*
X25327Y15134D01*
X25345Y15276D01*
X25327Y15276D01*
X25327Y15276D01*
X25398Y15276D02*
X25398Y15134D01*
X25415Y15276D01*
X25398Y15276D01*
X25398Y15276D01*
X25699Y15276D02*
X25805Y14709D01*
X25911Y15276D01*
X26018Y14709D01*
X26124Y15276D01*
X26514Y14780D02*
X26443Y14709D01*
X26337Y14709D01*
X26266Y14780D01*
X26266Y14957D01*
X26337Y15028D01*
X26443Y15028D01*
X26514Y14957D01*
X26514Y14886D01*
X26266Y14886D01*
X26682Y14718D02*
X26682Y15152D01*
X26664Y15169D02*
X26682Y15187D01*
X26700Y15169D01*
X26682Y15152D01*
X26664Y15169D01*
X26842Y15028D02*
X26842Y14709D01*
X26842Y14974D02*
X26895Y15028D01*
X27036Y15028D01*
X27090Y14974D01*
X27090Y14709D01*
X27462Y14974D02*
X27409Y15028D01*
X27285Y15028D01*
X27231Y14974D01*
X27231Y14904D01*
X27267Y14868D01*
X27426Y14868D01*
X27462Y14833D01*
X27462Y14762D01*
X27409Y14709D01*
X27285Y14709D01*
X27231Y14762D01*
X27603Y15028D02*
X27745Y15028D01*
X27745Y14709D02*
X27710Y14709D01*
X27674Y14744D01*
X27674Y15276D01*
X27940Y15028D02*
X27887Y14974D01*
X27887Y14762D01*
X27940Y14709D01*
X28082Y14709D01*
X28135Y14762D01*
X28135Y14974D01*
X28082Y15028D01*
X27940Y15028D01*
X28525Y14957D02*
X28454Y15028D01*
X28348Y15028D01*
X28277Y14957D01*
X28277Y14780D01*
X28348Y14709D01*
X28454Y14709D01*
X28525Y14780D01*
X28666Y14709D02*
X28666Y15276D01*
X28666Y14886D02*
X28932Y15028D01*
X28702Y14904D02*
X28932Y14709D01*
X20969Y14382D02*
X20862Y14488D01*
X20721Y14488D01*
X20614Y14382D01*
X20614Y14276D01*
X20685Y14205D01*
X20898Y14205D01*
X20969Y14134D01*
X20969Y14028D01*
X20862Y13921D01*
X20721Y13921D01*
X20614Y14028D01*
X21358Y13992D02*
X21287Y13921D01*
X21181Y13921D01*
X21110Y13992D01*
X21110Y14169D01*
X21181Y14240D01*
X21287Y14240D01*
X21358Y14169D01*
X21358Y14098D01*
X21110Y14098D01*
X21500Y13974D02*
X21553Y13921D01*
X21695Y13921D01*
X21748Y13974D01*
X21748Y14187D01*
X21695Y14240D01*
X21553Y14240D01*
X21500Y14187D01*
X21500Y13780D01*
X21500Y14187D02*
X21500Y14240D01*
X21890Y14240D02*
X22032Y14240D01*
X22032Y13921D02*
X21996Y13921D01*
X21961Y13957D01*
X21961Y14488D01*
X22173Y13957D02*
X22209Y13921D01*
X22244Y13957D01*
X22209Y13992D01*
X22173Y13957D01*
X22528Y14382D02*
X22634Y14488D01*
X22740Y14488D01*
X22847Y14382D01*
X22847Y14240D01*
X22776Y14169D01*
X22598Y14169D01*
X22528Y14098D01*
X22528Y13921D01*
X22847Y13921D01*
X22988Y14063D02*
X23024Y13992D01*
X23059Y13957D01*
X23130Y13921D01*
X23272Y13921D01*
X23343Y13957D01*
X23378Y13992D01*
X23413Y14063D01*
X23413Y14346D01*
X23378Y14417D01*
X23343Y14453D01*
X23272Y14488D01*
X23130Y14488D01*
X23059Y14453D01*
X23024Y14417D01*
X22988Y14346D01*
X22988Y14063D01*
X22988Y14063D01*
X22988Y13921D02*
X23413Y14488D01*
X23555Y13921D02*
X23768Y13921D01*
X23661Y13921D02*
X23661Y14488D01*
X23555Y14417D01*
X23910Y14488D02*
X24228Y14488D01*
X23910Y13921D01*
X6858Y6148D02*
X6858Y6620D01*
X7065Y6620D01*
X7153Y6532D01*
X7153Y6443D01*
X7065Y6354D01*
X6858Y6354D01*
X7065Y6354D02*
X7183Y6148D01*
X7301Y6620D02*
X7301Y6148D01*
X7567Y6148D01*
X7685Y6148D02*
X7862Y6148D01*
X7773Y6148D02*
X7773Y6620D01*
X7685Y6561D01*
G54D35*
X10211Y8150D02*
X10353Y8008D01*
X10353Y8150D02*
X10211Y8008D01*
X10376Y8079D02*
X10187Y8079D01*
X10282Y8173D02*
X10282Y7984D01*
G54D17*
X9433Y8125D02*
X9374Y8185D01*
X9374Y8381D01*
X9433Y8440D01*
X9551Y8440D01*
X9610Y8381D01*
X9610Y8185D01*
X9551Y8125D01*
X9433Y8125D01*
X9433Y8125D01*
X9610Y8125D02*
X9531Y8204D01*
X9689Y8125D02*
X9807Y8125D01*
X9748Y8125D02*
X9748Y8440D01*
X9689Y8401D01*
G54D35*
X15821Y7953D02*
X15963Y7811D01*
X15963Y7953D02*
X15821Y7811D01*
X15987Y7882D02*
X15798Y7882D01*
X15892Y7977D02*
X15892Y7788D01*
G54D17*
X14994Y7936D02*
X14935Y7995D01*
X14935Y8192D01*
X14994Y8251D01*
X15112Y8251D01*
X15171Y8192D01*
X15171Y7995D01*
X15112Y7936D01*
X14994Y7936D01*
X14994Y7936D01*
X15171Y7936D02*
X15093Y8014D01*
X15250Y8192D02*
X15309Y8251D01*
X15368Y8251D01*
X15427Y8192D01*
X15427Y8113D01*
X15388Y8073D01*
X15289Y8073D01*
X15250Y8034D01*
X15250Y7936D01*
X15427Y7936D01*
X12862Y6141D02*
X12862Y6613D01*
X13069Y6613D01*
X13157Y6525D01*
X13157Y6436D01*
X13069Y6347D01*
X12862Y6347D01*
X13069Y6347D02*
X13187Y6141D01*
X13305Y6613D02*
X13305Y6141D01*
X13571Y6141D01*
X13689Y6525D02*
X13777Y6613D01*
X13866Y6613D01*
X13954Y6525D01*
X13954Y6406D01*
X13895Y6347D01*
X13748Y6347D01*
X13689Y6288D01*
X13689Y6141D01*
X13954Y6141D01*
G54D35*
X21382Y7953D02*
X21524Y7811D01*
X21524Y7953D02*
X21382Y7811D01*
X21548Y7882D02*
X21359Y7882D01*
X21453Y7977D02*
X21453Y7788D01*
G54D17*
X20604Y7985D02*
X20545Y8044D01*
X20545Y8241D01*
X20604Y8300D01*
X20723Y8300D01*
X20782Y8241D01*
X20782Y8044D01*
X20723Y7985D01*
X20604Y7985D01*
X20604Y7985D01*
X20782Y7985D02*
X20703Y8064D01*
X20860Y8260D02*
X20900Y8300D01*
X20998Y8300D01*
X21038Y8260D01*
X21038Y8182D01*
X20998Y8142D01*
X20939Y8142D01*
X20998Y8142D02*
X21038Y8103D01*
X21038Y8024D01*
X20998Y7985D01*
X20900Y7985D01*
X20860Y8024D01*
G54D35*
X26845Y7953D02*
X26987Y7811D01*
X26987Y7953D02*
X26845Y7811D01*
X27011Y7882D02*
X26822Y7882D01*
X26916Y7977D02*
X26916Y7788D01*
G54D17*
X26067Y7966D02*
X26008Y8025D01*
X26008Y8222D01*
X26067Y8281D01*
X26185Y8281D01*
X26244Y8222D01*
X26244Y8025D01*
X26185Y7966D01*
X26067Y7966D01*
X26067Y7966D01*
X26244Y7966D02*
X26166Y8045D01*
X26323Y8281D02*
X26323Y8104D01*
X26481Y8104D01*
X26441Y8242D02*
X26441Y7966D01*
X18472Y6141D02*
X18472Y6613D01*
X18679Y6613D01*
X18767Y6525D01*
X18767Y6436D01*
X18679Y6347D01*
X18472Y6347D01*
X18679Y6347D02*
X18797Y6141D01*
X18915Y6613D02*
X18915Y6141D01*
X19181Y6141D01*
X19299Y6554D02*
X19358Y6613D01*
X19506Y6613D01*
X19565Y6554D01*
X19565Y6436D01*
X19506Y6377D01*
X19417Y6377D01*
X19506Y6377D02*
X19565Y6318D01*
X19565Y6200D01*
X19506Y6141D01*
X19358Y6141D01*
X19299Y6200D01*
X24033Y6159D02*
X24033Y6632D01*
X24240Y6632D01*
X24329Y6543D01*
X24329Y6455D01*
X24240Y6366D01*
X24033Y6366D01*
X24240Y6366D02*
X24358Y6159D01*
X24476Y6632D02*
X24476Y6159D01*
X24742Y6159D01*
X24860Y6632D02*
X24860Y6366D01*
X25096Y6366D01*
X25037Y6573D02*
X25037Y6159D01*
X30273Y1933D02*
X30273Y1333D01*
X30610Y1933D02*
X30610Y1333D01*
X30273Y1633D02*
X30610Y1633D01*
X30760Y1858D02*
X30835Y1933D01*
X31023Y1933D01*
X31098Y1858D01*
X31098Y1708D01*
X31023Y1633D01*
X30910Y1633D01*
X31023Y1633D02*
X31098Y1558D01*
X31098Y1408D01*
X31023Y1333D01*
X30835Y1333D01*
X30760Y1408D01*
X30292Y16106D02*
X30292Y15506D01*
X30629Y16106D02*
X30629Y15506D01*
X30292Y15806D02*
X30629Y15806D01*
X30779Y16106D02*
X30779Y15768D01*
X31079Y15768D01*
X31004Y16031D02*
X31004Y15506D01*
X16461Y7631D02*
X16461Y7946D01*
X16598Y7946D01*
X16658Y7887D01*
X16658Y7828D01*
X16598Y7769D01*
X16461Y7769D01*
X16598Y7769D02*
X16677Y7631D01*
X16756Y7946D02*
X16933Y7946D01*
X16756Y7631D01*
X10604Y7681D02*
X10604Y7996D01*
X10742Y7996D01*
X10801Y7937D01*
X10801Y7877D01*
X10742Y7818D01*
X10604Y7818D01*
X10742Y7818D02*
X10821Y7681D01*
X10899Y7720D02*
X10939Y7681D01*
X11037Y7681D01*
X11077Y7720D01*
X11077Y7799D01*
X11037Y7838D01*
X10939Y7838D01*
X10899Y7799D01*
X10899Y7720D01*
X10899Y7720D01*
X11037Y7838D02*
X11077Y7877D01*
X11077Y7956D01*
X11037Y7996D01*
X10939Y7996D01*
X10899Y7956D01*
X10899Y7877D01*
X10939Y7838D01*
%LNSTD*%
%LPD*%
G54D13*
X14179Y11289D02*
X14029Y11289D01*
X14029Y11389D01*
X14179Y11389D01*
G54D14*
X18187Y14712D02*
X18412Y14487D01*
X18412Y14712D02*
X18187Y14487D01*
X18449Y14599D02*
X18149Y14599D01*
X18299Y14749D02*
X18299Y14449D01*
G54D13*
X13289Y14344D02*
X13289Y12144D01*
X17419Y12144D02*
X17419Y14344D01*
X17419Y13364D02*
X17411Y13364D01*
X17403Y13363D01*
X17395Y13362D01*
X17388Y13360D01*
X17380Y13357D01*
X17373Y13355D01*
X17365Y13351D01*
X17358Y13347D01*
X17351Y13343D01*
X17345Y13338D01*
X17339Y13333D01*
X17333Y13328D01*
X17328Y13322D01*
X17323Y13315D01*
X17318Y13309D01*
X17314Y13302D01*
X17311Y13295D01*
X17307Y13287D01*
X17305Y13280D01*
X17303Y13272D01*
X17301Y13264D01*
X17300Y13256D01*
X17299Y13248D01*
X17299Y13240D01*
X17300Y13232D01*
X17301Y13224D01*
X17303Y13216D01*
X17305Y13209D01*
X17307Y13201D01*
X17311Y13194D01*
X17314Y13186D01*
X17318Y13180D01*
X17323Y13173D01*
X17328Y13167D01*
X17333Y13161D01*
X17339Y13155D01*
X17345Y13150D01*
X17351Y13145D01*
X17358Y13141D01*
X17365Y13137D01*
X17373Y13134D01*
X17380Y13131D01*
X17388Y13128D01*
X17395Y13127D01*
X17403Y13125D01*
X17411Y13124D01*
X17419Y13124D01*
G54D16*
X18315Y13645D02*
X17790Y13645D01*
X17715Y13570D01*
X17715Y13307D01*
X17790Y13232D01*
X18315Y13232D01*
X17715Y13082D02*
X17715Y12857D01*
X17715Y12970D02*
X18315Y12970D01*
X18240Y13082D01*
G54D13*
X2650Y6406D02*
X2650Y2406D01*
X3650Y2406D01*
X3650Y6406D01*
X2650Y6406D01*
X12508Y2453D02*
X12508Y6453D01*
X11508Y6453D01*
X11508Y2453D01*
X12508Y2453D01*
G54D16*
X11903Y2257D02*
X11528Y2257D01*
X11528Y1657D01*
X11903Y1657D01*
X11528Y1957D02*
X11753Y1957D01*
X12053Y1807D02*
X12090Y1732D01*
X12128Y1695D01*
X12203Y1657D01*
X12353Y1657D01*
X12428Y1695D01*
X12465Y1732D01*
X12503Y1807D01*
X12503Y2107D01*
X12465Y2182D01*
X12428Y2220D01*
X12353Y2257D01*
X12203Y2257D01*
X12128Y2220D01*
X12090Y2182D01*
X12053Y2107D01*
X12053Y1807D01*
X12053Y1807D01*
X12053Y1657D02*
X12503Y2257D01*
G54D13*
X18217Y2453D02*
X18217Y6453D01*
X17217Y6453D01*
X17217Y2453D01*
X18217Y2453D01*
G54D16*
X17769Y2257D02*
X17394Y2257D01*
X17394Y1657D01*
X17769Y1657D01*
X17394Y1957D02*
X17619Y1957D01*
X17919Y1657D02*
X18144Y1657D01*
X18031Y1657D02*
X18031Y2257D01*
X17919Y2182D01*
G54D13*
X23728Y2453D02*
X23728Y6453D01*
X22728Y6453D01*
X22728Y2453D01*
X23728Y2453D01*
G54D16*
X23163Y2237D02*
X22788Y2237D01*
X22788Y1637D01*
X23163Y1637D01*
X22788Y1937D02*
X23013Y1937D01*
X23313Y2124D02*
X23425Y2237D01*
X23538Y2237D01*
X23650Y2124D01*
X23650Y1974D01*
X23575Y1899D01*
X23388Y1899D01*
X23313Y1824D01*
X23313Y1637D01*
X23650Y1637D01*
G54D13*
X29240Y2453D02*
X29240Y6453D01*
X28240Y6453D01*
X28240Y2453D01*
X29240Y2453D01*
G54D16*
X28674Y2237D02*
X28299Y2237D01*
X28299Y1637D01*
X28674Y1637D01*
X28299Y1937D02*
X28524Y1937D01*
X28824Y2162D02*
X28899Y2237D01*
X29087Y2237D01*
X29162Y2162D01*
X29162Y2012D01*
X29087Y1937D01*
X28974Y1937D01*
X29087Y1937D02*
X29162Y1862D01*
X29162Y1712D01*
X29087Y1637D01*
X28899Y1637D01*
X28824Y1712D01*
G54D13*
X7654Y14425D02*
X2654Y14425D01*
X2654Y13425D01*
X7654Y13425D01*
X7654Y14425D01*
G54D16*
X11874Y14413D02*
X12024Y14413D01*
X11874Y13933D02*
X12024Y13933D01*
X10665Y13983D02*
X10665Y14361D01*
X10830Y14361D01*
X10901Y14290D01*
X10901Y14219D01*
X10830Y14148D01*
X10665Y14148D01*
X10830Y14148D02*
X10925Y13983D01*
X11019Y13983D02*
X11161Y13983D01*
X11090Y13983D02*
X11090Y14361D01*
X11019Y14314D01*
X11874Y13626D02*
X12024Y13626D01*
X11874Y13146D02*
X12024Y13146D01*
X10632Y13211D02*
X10632Y13589D01*
X10798Y13589D01*
X10869Y13518D01*
X10869Y13448D01*
X10798Y13377D01*
X10632Y13377D01*
X10798Y13377D02*
X10892Y13211D01*
X10987Y13518D02*
X11058Y13589D01*
X11128Y13589D01*
X11199Y13518D01*
X11199Y13424D01*
X11152Y13377D01*
X11034Y13377D01*
X10987Y13329D01*
X10987Y13211D01*
X11199Y13211D01*
X11874Y12838D02*
X12024Y12838D01*
X11874Y12358D02*
X12024Y12358D01*
X10632Y12424D02*
X10632Y12802D01*
X10798Y12802D01*
X10869Y12731D01*
X10869Y12660D01*
X10798Y12589D01*
X10632Y12589D01*
X10798Y12589D02*
X10892Y12424D01*
X10987Y12755D02*
X11034Y12802D01*
X11152Y12802D01*
X11199Y12755D01*
X11199Y12660D01*
X11152Y12613D01*
X11081Y12613D01*
X11152Y12613D02*
X11199Y12566D01*
X11199Y12471D01*
X11152Y12424D01*
X11034Y12424D01*
X10987Y12471D01*
X18370Y12051D02*
X18520Y12051D01*
X18370Y11571D02*
X18520Y11571D01*
X19511Y11912D02*
X19441Y11983D01*
X19322Y11983D01*
X19252Y11912D01*
X19252Y11676D01*
X19322Y11605D01*
X19441Y11605D01*
X19511Y11676D01*
X19606Y11605D02*
X19748Y11605D01*
X19677Y11605D02*
X19677Y11983D01*
X19606Y11936D01*
X5555Y12338D02*
X5555Y12188D01*
X5075Y12338D02*
X5075Y12188D01*
X5140Y11495D02*
X5518Y11495D01*
X5518Y11329D01*
X5448Y11258D01*
X5377Y11258D01*
X5306Y11329D01*
X5306Y11495D01*
X5306Y11329D02*
X5140Y11235D01*
X5518Y11140D02*
X5306Y11140D01*
X5306Y10951D01*
X5471Y10999D02*
X5140Y10999D01*
X6539Y12338D02*
X6539Y12188D01*
X6059Y12338D02*
X6059Y12188D01*
X6125Y11495D02*
X6503Y11495D01*
X6503Y11329D01*
X6432Y11258D01*
X6361Y11258D01*
X6290Y11329D01*
X6290Y11495D01*
X6290Y11329D02*
X6125Y11235D01*
X6503Y10951D02*
X6503Y11140D01*
X6337Y11140D01*
X6337Y10999D01*
X6290Y10951D01*
X6172Y10951D01*
X6125Y10999D01*
X6125Y11140D01*
X7523Y12338D02*
X7523Y12188D01*
X7043Y12338D02*
X7043Y12188D01*
X7109Y11513D02*
X7487Y11513D01*
X7487Y11348D01*
X7416Y11277D01*
X7345Y11277D01*
X7274Y11348D01*
X7274Y11513D01*
X7274Y11348D02*
X7109Y11253D01*
X7487Y11088D02*
X7416Y11159D01*
X7156Y11159D01*
X7109Y11112D01*
X7109Y10994D01*
X7156Y10946D01*
X7251Y10946D01*
X7298Y10994D01*
X7298Y11112D01*
X7251Y11159D01*
G54D13*
X5012Y6406D02*
X5012Y2406D01*
X6012Y2406D01*
X6012Y6406D01*
X5012Y6406D01*
G54D16*
X2933Y14921D02*
X2894Y14961D01*
X2776Y14961D01*
X2736Y14921D01*
X2736Y14685D01*
X2776Y14646D01*
X2894Y14646D01*
X2933Y14685D01*
X2933Y14803D01*
X2795Y14803D01*
X3012Y14646D02*
X3012Y14961D01*
X3209Y14646D01*
X3209Y14961D01*
X3287Y14646D02*
X3287Y14961D01*
X3425Y14961D01*
X3484Y14902D01*
X3484Y14705D01*
X3425Y14646D01*
X3287Y14646D01*
X3287Y14646D01*
X3819Y14961D02*
X3937Y14646D01*
X4055Y14961D01*
X4272Y14784D02*
X4232Y14823D01*
X4173Y14823D01*
X4134Y14784D01*
X4134Y14685D01*
X4173Y14646D01*
X4232Y14646D01*
X4272Y14685D01*
X4488Y14784D02*
X4449Y14823D01*
X4390Y14823D01*
X4350Y14784D01*
X4350Y14685D01*
X4390Y14646D01*
X4449Y14646D01*
X4488Y14685D01*
X5217Y14902D02*
X5158Y14961D01*
X5059Y14961D01*
X5000Y14902D01*
X5000Y14705D01*
X5059Y14646D01*
X5158Y14646D01*
X5217Y14705D01*
X6083Y14646D02*
X6083Y14961D01*
X6221Y14961D01*
X6260Y14921D01*
X6260Y14843D01*
X6221Y14803D01*
X6260Y14764D01*
X6260Y14685D01*
X6221Y14646D01*
X6083Y14646D01*
X6221Y14803D02*
X6083Y14803D01*
X7112Y14764D02*
X7258Y14764D01*
X7067Y14646D02*
X7185Y14961D01*
X7303Y14646D01*
X1850Y6043D02*
X1909Y6102D01*
X1969Y6102D01*
X2028Y6043D01*
X2028Y5965D01*
X1988Y5925D01*
X1890Y5925D01*
X1850Y5886D01*
X1850Y5787D01*
X2028Y5787D01*
X2106Y5787D02*
X2106Y6102D01*
X2244Y6102D01*
X2283Y6063D01*
X2283Y5984D01*
X2244Y5945D01*
X2283Y5906D01*
X2283Y5827D01*
X2244Y5787D01*
X2106Y5787D01*
X2244Y5945D02*
X2106Y5945D01*
X1949Y4803D02*
X2067Y4803D01*
X2008Y4803D02*
X2008Y5118D01*
X1949Y5079D01*
X2146Y4803D02*
X2146Y5118D01*
X2283Y5118D01*
X2323Y5079D01*
X2323Y5000D01*
X2283Y4961D01*
X2323Y4921D01*
X2323Y4843D01*
X2283Y4803D01*
X2146Y4803D01*
X2283Y4961D02*
X2146Y4961D01*
X1850Y4075D02*
X1909Y4134D01*
X1969Y4134D01*
X2028Y4075D01*
X2028Y3996D01*
X1988Y3957D01*
X1890Y3957D01*
X1850Y3917D01*
X1850Y3819D01*
X2028Y3819D01*
X2152Y3937D02*
X2297Y3937D01*
X2106Y3819D02*
X2224Y4134D01*
X2343Y3819D01*
X1949Y2736D02*
X2067Y2736D01*
X2008Y2736D02*
X2008Y3051D01*
X1949Y3012D01*
X2191Y2854D02*
X2337Y2854D01*
X2146Y2736D02*
X2264Y3051D01*
X2382Y2736D01*
X22142Y7043D02*
X21992Y7043D01*
X22142Y7523D02*
X21992Y7523D01*
X21805Y7690D02*
X21805Y8005D01*
X21942Y8005D01*
X22001Y7946D01*
X22001Y7887D01*
X21942Y7828D01*
X21805Y7828D01*
X21942Y7828D02*
X22021Y7690D01*
X22100Y7966D02*
X22139Y8005D01*
X22238Y8005D01*
X22277Y7966D01*
X22277Y7887D01*
X22238Y7848D01*
X22139Y7848D01*
X22100Y7887D01*
X22100Y7966D01*
X22100Y7966D01*
X22277Y7887D02*
X22277Y7690D01*
X27653Y7043D02*
X27503Y7043D01*
X27653Y7523D02*
X27503Y7523D01*
X27226Y7690D02*
X27226Y8005D01*
X27363Y8005D01*
X27422Y7946D01*
X27422Y7887D01*
X27363Y7828D01*
X27226Y7828D01*
X27363Y7828D02*
X27442Y7690D01*
X27521Y7690D02*
X27639Y7690D01*
X27580Y7690D02*
X27580Y8005D01*
X27521Y7966D01*
X27718Y7769D02*
X27737Y7730D01*
X27757Y7710D01*
X27796Y7690D01*
X27875Y7690D01*
X27914Y7710D01*
X27934Y7730D01*
X27954Y7769D01*
X27954Y7926D01*
X27934Y7966D01*
X27914Y7985D01*
X27875Y8005D01*
X27796Y8005D01*
X27757Y7985D01*
X27737Y7966D01*
X27718Y7926D01*
X27718Y7769D01*
X27718Y7769D01*
X27718Y7690D02*
X27954Y8005D01*
G54D30*
X11988Y7559D02*
X11988Y7008D01*
X11988Y7362D02*
X12067Y7362D01*
X12067Y7205D01*
X11988Y7205D01*
X17697Y7559D02*
X17697Y7008D01*
X17697Y7362D02*
X17776Y7362D01*
X17776Y7205D01*
X17697Y7205D01*
X23209Y7559D02*
X23209Y7008D01*
X23209Y7362D02*
X23287Y7362D01*
X23287Y7205D01*
X23209Y7205D01*
X28720Y7559D02*
X28720Y7008D01*
X28720Y7362D02*
X28799Y7362D01*
X28799Y7205D01*
X28720Y7205D01*
G54D33*
X11988Y8563D02*
X11988Y8287D01*
G54D34*
X11575Y9039D02*
X11717Y9181D01*
X11575Y9181D02*
X11717Y9039D01*
X11646Y9205D02*
X11646Y9016D01*
X11551Y9110D02*
X11740Y9110D01*
G54D33*
X12028Y8996D02*
X12500Y8996D01*
X12500Y8681D01*
X12500Y8169D02*
X12500Y7854D01*
X12028Y7854D01*
G54D16*
X12045Y9108D02*
X11986Y9167D01*
X11986Y9364D01*
X12045Y9423D01*
X12163Y9423D01*
X12222Y9364D01*
X12222Y9167D01*
X12163Y9108D01*
X12045Y9108D01*
X12045Y9108D01*
X12222Y9108D02*
X12143Y9187D01*
X12301Y9383D02*
X12340Y9423D01*
X12439Y9423D01*
X12478Y9383D01*
X12478Y9305D01*
X12439Y9265D01*
X12340Y9265D01*
X12301Y9305D01*
X12301Y9383D01*
X12301Y9383D01*
X12478Y9305D02*
X12478Y9108D01*
G54D33*
X17697Y8563D02*
X17697Y8287D01*
G54D34*
X17283Y9039D02*
X17425Y9181D01*
X17283Y9181D02*
X17425Y9039D01*
X17354Y9205D02*
X17354Y9016D01*
X17260Y9110D02*
X17449Y9110D01*
G54D33*
X17736Y8996D02*
X18209Y8996D01*
X18209Y8681D01*
X18209Y8169D02*
X18209Y7854D01*
X17736Y7854D01*
G54D16*
X17667Y9187D02*
X17608Y9246D01*
X17608Y9443D01*
X17667Y9502D01*
X17785Y9502D01*
X17844Y9443D01*
X17844Y9246D01*
X17785Y9187D01*
X17667Y9187D01*
X17667Y9187D01*
X17844Y9187D02*
X17766Y9265D01*
X17923Y9187D02*
X18041Y9187D01*
X17982Y9187D02*
X17982Y9502D01*
X17923Y9462D01*
X18120Y9265D02*
X18140Y9226D01*
X18159Y9206D01*
X18199Y9187D01*
X18277Y9187D01*
X18317Y9206D01*
X18337Y9226D01*
X18356Y9265D01*
X18356Y9423D01*
X18337Y9462D01*
X18317Y9482D01*
X18277Y9502D01*
X18199Y9502D01*
X18159Y9482D01*
X18140Y9462D01*
X18120Y9423D01*
X18120Y9265D01*
X18120Y9265D01*
X18120Y9187D02*
X18356Y9502D01*
G54D33*
X23209Y8563D02*
X23209Y8287D01*
G54D34*
X22795Y9039D02*
X22937Y9181D01*
X22795Y9181D02*
X22937Y9039D01*
X22866Y9205D02*
X22866Y9016D01*
X22772Y9110D02*
X22961Y9110D01*
G54D33*
X23248Y8996D02*
X23720Y8996D01*
X23720Y8681D01*
X23720Y8169D02*
X23720Y7854D01*
X23248Y7854D01*
G54D16*
X23193Y9187D02*
X23134Y9246D01*
X23134Y9443D01*
X23193Y9502D01*
X23311Y9502D01*
X23370Y9443D01*
X23370Y9246D01*
X23311Y9187D01*
X23193Y9187D01*
X23193Y9187D01*
X23370Y9187D02*
X23291Y9265D01*
X23449Y9187D02*
X23567Y9187D01*
X23508Y9187D02*
X23508Y9502D01*
X23449Y9462D01*
X23646Y9187D02*
X23764Y9187D01*
X23705Y9187D02*
X23705Y9502D01*
X23646Y9462D01*
G54D33*
X28720Y8563D02*
X28720Y8287D01*
G54D34*
X28307Y9039D02*
X28449Y9181D01*
X28307Y9181D02*
X28449Y9039D01*
X28378Y9205D02*
X28378Y9016D01*
X28283Y9110D02*
X28472Y9110D01*
G54D33*
X28760Y8996D02*
X29232Y8996D01*
X29232Y8681D01*
X29232Y8169D02*
X29232Y7854D01*
X28760Y7854D01*
G54D16*
X28747Y9187D02*
X28688Y9246D01*
X28688Y9443D01*
X28747Y9502D01*
X28865Y9502D01*
X28924Y9443D01*
X28924Y9246D01*
X28865Y9187D01*
X28747Y9187D01*
X28747Y9187D01*
X28924Y9187D02*
X28845Y9265D01*
X29003Y9187D02*
X29121Y9187D01*
X29062Y9187D02*
X29062Y9502D01*
X29003Y9462D01*
X29200Y9443D02*
X29259Y9502D01*
X29318Y9502D01*
X29377Y9443D01*
X29377Y9364D01*
X29338Y9324D01*
X29239Y9324D01*
X29200Y9285D01*
X29200Y9187D01*
X29377Y9187D01*
X8803Y7565D02*
X8803Y7415D01*
X8323Y7565D02*
X8323Y7415D01*
X8275Y8147D02*
X8275Y8462D01*
X8412Y8462D01*
X8471Y8403D01*
X8471Y8344D01*
X8412Y8285D01*
X8275Y8285D01*
X8412Y8285D02*
X8491Y8147D01*
X8570Y8147D02*
X8688Y8147D01*
X8629Y8147D02*
X8629Y8462D01*
X8570Y8422D01*
X8767Y8147D02*
X8885Y8147D01*
X8826Y8147D02*
X8826Y8462D01*
X8767Y8422D01*
X14414Y7368D02*
X14414Y7218D01*
X13934Y7368D02*
X13934Y7218D01*
X13806Y7967D02*
X13806Y8282D01*
X13944Y8282D01*
X14003Y8223D01*
X14003Y8164D01*
X13944Y8105D01*
X13806Y8105D01*
X13944Y8105D02*
X14023Y7967D01*
X14102Y7967D02*
X14220Y7967D01*
X14161Y7967D02*
X14161Y8282D01*
X14102Y8242D01*
X14298Y8223D02*
X14357Y8282D01*
X14416Y8282D01*
X14476Y8223D01*
X14476Y8144D01*
X14436Y8105D01*
X14338Y8105D01*
X14298Y8065D01*
X14298Y7967D01*
X14476Y7967D01*
X19926Y7368D02*
X19926Y7218D01*
X19446Y7368D02*
X19446Y7218D01*
X19279Y7967D02*
X19279Y8282D01*
X19417Y8282D01*
X19476Y8223D01*
X19476Y8164D01*
X19417Y8105D01*
X19279Y8105D01*
X19417Y8105D02*
X19495Y7967D01*
X19574Y7967D02*
X19692Y7967D01*
X19633Y7967D02*
X19633Y8282D01*
X19574Y8242D01*
X19771Y8242D02*
X19810Y8282D01*
X19909Y8282D01*
X19948Y8242D01*
X19948Y8164D01*
X19909Y8124D01*
X19850Y8124D01*
X19909Y8124D02*
X19948Y8085D01*
X19948Y8006D01*
X19909Y7967D01*
X19810Y7967D01*
X19771Y8006D01*
X25438Y7368D02*
X25438Y7218D01*
X24958Y7368D02*
X24958Y7218D01*
X24830Y7948D02*
X24830Y8263D01*
X24968Y8263D01*
X25027Y8204D01*
X25027Y8145D01*
X24968Y8086D01*
X24830Y8086D01*
X24968Y8086D02*
X25047Y7948D01*
X25125Y7948D02*
X25244Y7948D01*
X25184Y7948D02*
X25184Y8263D01*
X25125Y8224D01*
X25322Y8263D02*
X25322Y8086D01*
X25480Y8086D01*
X25440Y8224D02*
X25440Y7948D01*
X10909Y9031D02*
X10909Y8881D01*
X10429Y9031D02*
X10429Y8881D01*
X11050Y9296D02*
X11365Y9296D01*
X11365Y9158D01*
X11306Y9099D01*
X11247Y9099D01*
X11188Y9158D01*
X11188Y9296D01*
X11188Y9158D02*
X11050Y9080D01*
X11050Y9001D02*
X11050Y8883D01*
X11050Y8942D02*
X11365Y8942D01*
X11325Y9001D01*
X11365Y8647D02*
X11365Y8804D01*
X11227Y8804D01*
X11227Y8686D01*
X11188Y8647D01*
X11089Y8647D01*
X11050Y8686D01*
X11050Y8804D01*
X16618Y9031D02*
X16618Y8881D01*
X16138Y9031D02*
X16138Y8881D01*
X16759Y9276D02*
X17074Y9276D01*
X17074Y9138D01*
X17014Y9079D01*
X16955Y9079D01*
X16896Y9138D01*
X16896Y9276D01*
X16896Y9138D02*
X16759Y9059D01*
X16759Y8980D02*
X16759Y8862D01*
X16759Y8921D02*
X17074Y8921D01*
X17034Y8980D01*
X17074Y8724D02*
X17014Y8783D01*
X16798Y8783D01*
X16759Y8744D01*
X16759Y8646D01*
X16798Y8606D01*
X16877Y8606D01*
X16916Y8646D01*
X16916Y8744D01*
X16877Y8783D01*
X22130Y9031D02*
X22130Y8881D01*
X21650Y9031D02*
X21650Y8881D01*
X22270Y9236D02*
X22585Y9236D01*
X22585Y9098D01*
X22526Y9039D01*
X22467Y9039D01*
X22408Y9098D01*
X22408Y9236D01*
X22408Y9098D02*
X22270Y9020D01*
X22270Y8941D02*
X22270Y8823D01*
X22270Y8882D02*
X22585Y8882D01*
X22546Y8941D01*
X22585Y8744D02*
X22585Y8567D01*
X22270Y8744D01*
X27642Y9031D02*
X27642Y8881D01*
X27162Y9031D02*
X27162Y8881D01*
X27782Y9315D02*
X28097Y9315D01*
X28097Y9177D01*
X28038Y9118D01*
X27979Y9118D01*
X27920Y9177D01*
X27920Y9315D01*
X27920Y9177D02*
X27782Y9098D01*
X27782Y9020D02*
X27782Y8902D01*
X27782Y8961D02*
X28097Y8961D01*
X28058Y9020D01*
X27822Y8823D02*
X27782Y8783D01*
X27782Y8685D01*
X27822Y8646D01*
X27900Y8646D01*
X27940Y8685D01*
X27940Y8783D01*
X27900Y8823D01*
X27822Y8823D01*
X27822Y8823D01*
X27940Y8685D02*
X27979Y8646D01*
X28058Y8646D01*
X28097Y8685D01*
X28097Y8783D01*
X28058Y8823D01*
X27979Y8823D01*
X27940Y8783D01*
X20614Y15496D02*
X20614Y16063D01*
X20862Y16063D01*
X20969Y15957D01*
X20969Y15602D01*
X20862Y15496D01*
X20614Y15496D01*
X20614Y15496D01*
X21358Y15567D02*
X21287Y15496D01*
X21181Y15496D01*
X21110Y15567D01*
X21110Y15744D01*
X21181Y15815D01*
X21287Y15815D01*
X21358Y15744D01*
X21358Y15673D01*
X21110Y15673D01*
X21730Y15762D02*
X21677Y15815D01*
X21553Y15815D01*
X21500Y15762D01*
X21500Y15691D01*
X21536Y15656D01*
X21695Y15656D01*
X21730Y15620D01*
X21730Y15549D01*
X21677Y15496D01*
X21553Y15496D01*
X21500Y15549D01*
X21899Y15505D02*
X21899Y15939D01*
X21881Y15957D02*
X21899Y15974D01*
X21916Y15957D01*
X21899Y15939D01*
X21881Y15957D01*
X22058Y15709D02*
X22058Y15744D01*
X22129Y15815D01*
X22235Y15815D01*
X22306Y15744D01*
X22306Y15567D01*
X22235Y15496D01*
X22129Y15496D01*
X22058Y15567D01*
X22058Y15709D01*
X22306Y15815D02*
X22306Y15425D01*
X22235Y15354D01*
X22129Y15354D01*
X22058Y15425D01*
X22448Y15815D02*
X22448Y15496D01*
X22448Y15762D02*
X22501Y15815D01*
X22643Y15815D01*
X22696Y15762D01*
X22696Y15496D01*
X23086Y15567D02*
X23015Y15496D01*
X22909Y15496D01*
X22838Y15567D01*
X22838Y15744D01*
X22909Y15815D01*
X23015Y15815D01*
X23086Y15744D01*
X23086Y15673D01*
X22838Y15673D01*
X23227Y15567D02*
X23227Y15744D01*
X23298Y15815D01*
X23405Y15815D01*
X23475Y15744D01*
X23475Y15567D01*
X23405Y15496D01*
X23298Y15496D01*
X23227Y15567D01*
X23475Y15496D02*
X23475Y16063D01*
X23759Y15496D02*
X23759Y16063D01*
X23759Y15567D02*
X23830Y15496D01*
X23936Y15496D01*
X24007Y15567D01*
X24007Y15744D01*
X23936Y15815D01*
X23830Y15815D01*
X23759Y15744D01*
X24149Y15815D02*
X24273Y15496D01*
X24379Y15815D01*
X24273Y15496D02*
X24237Y15372D01*
X24220Y15354D01*
X24184Y15354D01*
X20696Y14921D02*
X20958Y14921D01*
X20614Y14709D02*
X20827Y15276D01*
X21039Y14709D01*
X21217Y15276D02*
X21217Y14709D01*
X21358Y14780D02*
X21429Y14709D01*
X21536Y14709D01*
X21606Y14780D01*
X21606Y14957D01*
X21536Y15028D01*
X21429Y15028D01*
X21358Y14957D01*
X21358Y14780D01*
X21606Y14709D02*
X21606Y15028D01*
X21748Y15028D02*
X21748Y14709D01*
X21748Y14974D02*
X21801Y15028D01*
X21943Y15028D01*
X21996Y14974D01*
X21996Y14709D01*
X22280Y15276D02*
X22280Y15134D01*
X22297Y15276D01*
X22280Y15276D01*
X22280Y15276D01*
X22350Y15276D02*
X22350Y15134D01*
X22368Y15276D01*
X22350Y15276D01*
X22350Y15276D01*
X22510Y14762D02*
X22563Y14709D01*
X22705Y14709D01*
X22758Y14762D01*
X22758Y14974D01*
X22705Y15028D01*
X22563Y15028D01*
X22510Y14974D01*
X22510Y14567D01*
X22510Y14974D02*
X22510Y15028D01*
X22900Y15028D02*
X23024Y14709D01*
X23130Y15028D01*
X23024Y14709D02*
X22988Y14585D01*
X22971Y14567D01*
X22935Y14567D01*
X23272Y15028D02*
X23272Y14709D01*
X23484Y14974D02*
X23431Y15028D01*
X23325Y15028D01*
X23272Y14974D01*
X23272Y14957D01*
X23626Y14850D02*
X23661Y14780D01*
X23697Y14744D01*
X23768Y14709D01*
X23910Y14709D01*
X23980Y14744D01*
X24016Y14780D01*
X24051Y14850D01*
X24051Y15134D01*
X24016Y15205D01*
X23980Y15240D01*
X23910Y15276D01*
X23768Y15276D01*
X23697Y15240D01*
X23661Y15205D01*
X23626Y15134D01*
X23626Y14850D01*
X23626Y14850D01*
X23626Y14709D02*
X24051Y15276D01*
X24193Y14709D02*
X24193Y15276D01*
X24193Y14780D02*
X24264Y14709D01*
X24370Y14709D01*
X24441Y14780D01*
X24441Y14957D01*
X24370Y15028D01*
X24264Y15028D01*
X24193Y14957D01*
X24583Y14780D02*
X24654Y14709D01*
X24760Y14709D01*
X24831Y14780D01*
X24831Y14957D01*
X24760Y15028D01*
X24654Y15028D01*
X24583Y14957D01*
X24583Y14780D01*
X24831Y14709D02*
X24831Y15028D01*
X25008Y15276D02*
X25008Y14709D01*
X25185Y15276D02*
X25185Y14709D01*
X25327Y15276D02*
X25327Y15134D01*
X25345Y15276D01*
X25327Y15276D01*
X25327Y15276D01*
X25398Y15276D02*
X25398Y15134D01*
X25415Y15276D01*
X25398Y15276D01*
X25398Y15276D01*
X25699Y15276D02*
X25805Y14709D01*
X25911Y15276D01*
X26018Y14709D01*
X26124Y15276D01*
X26514Y14780D02*
X26443Y14709D01*
X26337Y14709D01*
X26266Y14780D01*
X26266Y14957D01*
X26337Y15028D01*
X26443Y15028D01*
X26514Y14957D01*
X26514Y14886D01*
X26266Y14886D01*
X26682Y14718D02*
X26682Y15152D01*
X26664Y15169D02*
X26682Y15187D01*
X26700Y15169D01*
X26682Y15152D01*
X26664Y15169D01*
X26842Y15028D02*
X26842Y14709D01*
X26842Y14974D02*
X26895Y15028D01*
X27036Y15028D01*
X27090Y14974D01*
X27090Y14709D01*
X27462Y14974D02*
X27409Y15028D01*
X27285Y15028D01*
X27231Y14974D01*
X27231Y14904D01*
X27267Y14868D01*
X27426Y14868D01*
X27462Y14833D01*
X27462Y14762D01*
X27409Y14709D01*
X27285Y14709D01*
X27231Y14762D01*
X27603Y15028D02*
X27745Y15028D01*
X27745Y14709D02*
X27710Y14709D01*
X27674Y14744D01*
X27674Y15276D01*
X27940Y15028D02*
X27887Y14974D01*
X27887Y14762D01*
X27940Y14709D01*
X28082Y14709D01*
X28135Y14762D01*
X28135Y14974D01*
X28082Y15028D01*
X27940Y15028D01*
X28525Y14957D02*
X28454Y15028D01*
X28348Y15028D01*
X28277Y14957D01*
X28277Y14780D01*
X28348Y14709D01*
X28454Y14709D01*
X28525Y14780D01*
X28666Y14709D02*
X28666Y15276D01*
X28666Y14886D02*
X28932Y15028D01*
X28702Y14904D02*
X28932Y14709D01*
X20969Y14382D02*
X20862Y14488D01*
X20721Y14488D01*
X20614Y14382D01*
X20614Y14276D01*
X20685Y14205D01*
X20898Y14205D01*
X20969Y14134D01*
X20969Y14028D01*
X20862Y13921D01*
X20721Y13921D01*
X20614Y14028D01*
X21358Y13992D02*
X21287Y13921D01*
X21181Y13921D01*
X21110Y13992D01*
X21110Y14169D01*
X21181Y14240D01*
X21287Y14240D01*
X21358Y14169D01*
X21358Y14098D01*
X21110Y14098D01*
X21500Y13974D02*
X21553Y13921D01*
X21695Y13921D01*
X21748Y13974D01*
X21748Y14187D01*
X21695Y14240D01*
X21553Y14240D01*
X21500Y14187D01*
X21500Y13780D01*
X21500Y14187D02*
X21500Y14240D01*
X21890Y14240D02*
X22032Y14240D01*
X22032Y13921D02*
X21996Y13921D01*
X21961Y13957D01*
X21961Y14488D01*
X22173Y13957D02*
X22209Y13921D01*
X22244Y13957D01*
X22209Y13992D01*
X22173Y13957D01*
X22528Y14382D02*
X22634Y14488D01*
X22740Y14488D01*
X22847Y14382D01*
X22847Y14240D01*
X22776Y14169D01*
X22598Y14169D01*
X22528Y14098D01*
X22528Y13921D01*
X22847Y13921D01*
X22988Y14063D02*
X23024Y13992D01*
X23059Y13957D01*
X23130Y13921D01*
X23272Y13921D01*
X23343Y13957D01*
X23378Y13992D01*
X23413Y14063D01*
X23413Y14346D01*
X23378Y14417D01*
X23343Y14453D01*
X23272Y14488D01*
X23130Y14488D01*
X23059Y14453D01*
X23024Y14417D01*
X22988Y14346D01*
X22988Y14063D01*
X22988Y14063D01*
X22988Y13921D02*
X23413Y14488D01*
X23555Y13921D02*
X23768Y13921D01*
X23661Y13921D02*
X23661Y14488D01*
X23555Y14417D01*
X23910Y14488D02*
X24228Y14488D01*
X23910Y13921D01*
G54D33*
X7185Y3346D02*
X6890Y3346D01*
X6890Y5512D01*
X7185Y5512D01*
X7776Y3346D02*
X8465Y3346D01*
X7776Y5512D02*
X8465Y5512D01*
X9006Y5512D02*
X9350Y5512D01*
X9843Y5512D02*
X10236Y5512D01*
X9350Y3346D02*
X9006Y3346D01*
X9843Y3346D02*
X10236Y3346D01*
X10728Y3346D02*
X10925Y3346D01*
X10925Y5512D01*
X10728Y5512D01*
X7480Y3839D02*
X7480Y4232D01*
X7677Y4232D02*
X7284Y4232D01*
X7480Y4577D01*
X7677Y4232D01*
X7677Y4232D01*
X7284Y4577D02*
X7677Y4577D01*
X7480Y4577D02*
X7480Y5020D01*
X8809Y3740D02*
X8809Y4134D01*
X9351Y4134D01*
X10384Y3740D02*
X10384Y4134D01*
X9843Y4134D01*
X8809Y5118D02*
X8809Y4724D01*
X9351Y4724D01*
X10384Y5118D02*
X10384Y4724D01*
X9843Y4724D01*
X9597Y5118D02*
X9597Y4971D01*
X9301Y4626D01*
X9597Y3740D02*
X9597Y3888D01*
X9301Y4232D01*
G54D16*
X6858Y6148D02*
X6858Y6620D01*
X7065Y6620D01*
X7153Y6532D01*
X7153Y6443D01*
X7065Y6354D01*
X6858Y6354D01*
X7065Y6354D02*
X7183Y6148D01*
X7301Y6620D02*
X7301Y6148D01*
X7567Y6148D01*
X7685Y6148D02*
X7862Y6148D01*
X7773Y6148D02*
X7773Y6620D01*
X7685Y6561D01*
G54D33*
X9735Y7736D02*
X9459Y7736D01*
G54D34*
X10211Y8150D02*
X10353Y8008D01*
X10353Y8150D02*
X10211Y8008D01*
X10376Y8079D02*
X10187Y8079D01*
X10282Y8173D02*
X10282Y7984D01*
G54D33*
X10168Y7697D02*
X10168Y7225D01*
X9853Y7225D01*
X9341Y7225D02*
X9026Y7225D01*
X9026Y7697D01*
G54D16*
X9433Y8125D02*
X9374Y8185D01*
X9374Y8381D01*
X9433Y8440D01*
X9551Y8440D01*
X9610Y8381D01*
X9610Y8185D01*
X9551Y8125D01*
X9433Y8125D01*
X9433Y8125D01*
X9610Y8125D02*
X9531Y8204D01*
X9689Y8125D02*
X9807Y8125D01*
X9748Y8125D02*
X9748Y8440D01*
X9689Y8401D01*
G54D33*
X15345Y7540D02*
X15069Y7540D01*
G54D34*
X15821Y7953D02*
X15963Y7811D01*
X15963Y7953D02*
X15821Y7811D01*
X15987Y7882D02*
X15798Y7882D01*
X15892Y7977D02*
X15892Y7788D01*
G54D33*
X15778Y7500D02*
X15778Y7028D01*
X15463Y7028D01*
X14951Y7028D02*
X14636Y7028D01*
X14636Y7500D01*
G54D16*
X14994Y7936D02*
X14935Y7995D01*
X14935Y8192D01*
X14994Y8251D01*
X15112Y8251D01*
X15171Y8192D01*
X15171Y7995D01*
X15112Y7936D01*
X14994Y7936D01*
X14994Y7936D01*
X15171Y7936D02*
X15093Y8014D01*
X15250Y8192D02*
X15309Y8251D01*
X15368Y8251D01*
X15427Y8192D01*
X15427Y8113D01*
X15388Y8073D01*
X15289Y8073D01*
X15250Y8034D01*
X15250Y7936D01*
X15427Y7936D01*
G54D33*
X13189Y3346D02*
X12894Y3346D01*
X12894Y5512D01*
X13189Y5512D01*
X13780Y3346D02*
X14469Y3346D01*
X13780Y5512D02*
X14469Y5512D01*
X15010Y5512D02*
X15354Y5512D01*
X15847Y5512D02*
X16240Y5512D01*
X15354Y3346D02*
X15010Y3346D01*
X15847Y3346D02*
X16240Y3346D01*
X16732Y3346D02*
X16929Y3346D01*
X16929Y5512D01*
X16732Y5512D01*
X13484Y3839D02*
X13484Y4232D01*
X13681Y4232D02*
X13288Y4232D01*
X13484Y4577D01*
X13681Y4232D01*
X13681Y4232D01*
X13288Y4577D02*
X13681Y4577D01*
X13484Y4577D02*
X13484Y5020D01*
X14813Y3740D02*
X14813Y4134D01*
X15354Y4134D01*
X16388Y3740D02*
X16388Y4134D01*
X15847Y4134D01*
X14813Y5118D02*
X14813Y4724D01*
X15354Y4724D01*
X16388Y5118D02*
X16388Y4724D01*
X15847Y4724D01*
X15601Y5118D02*
X15601Y4971D01*
X15305Y4626D01*
X15601Y3740D02*
X15601Y3888D01*
X15305Y4232D01*
G54D16*
X12862Y6141D02*
X12862Y6613D01*
X13069Y6613D01*
X13157Y6525D01*
X13157Y6436D01*
X13069Y6347D01*
X12862Y6347D01*
X13069Y6347D02*
X13187Y6141D01*
X13305Y6613D02*
X13305Y6141D01*
X13571Y6141D01*
X13689Y6525D02*
X13777Y6613D01*
X13866Y6613D01*
X13954Y6525D01*
X13954Y6406D01*
X13895Y6347D01*
X13748Y6347D01*
X13689Y6288D01*
X13689Y6141D01*
X13954Y6141D01*
G54D33*
X20906Y7540D02*
X20631Y7540D01*
G54D34*
X21382Y7953D02*
X21524Y7811D01*
X21524Y7953D02*
X21382Y7811D01*
X21548Y7882D02*
X21359Y7882D01*
X21453Y7977D02*
X21453Y7788D01*
G54D33*
X21339Y7500D02*
X21339Y7028D01*
X21024Y7028D01*
X20512Y7028D02*
X20197Y7028D01*
X20197Y7500D01*
G54D16*
X20604Y7985D02*
X20545Y8044D01*
X20545Y8241D01*
X20604Y8300D01*
X20723Y8300D01*
X20782Y8241D01*
X20782Y8044D01*
X20723Y7985D01*
X20604Y7985D01*
X20604Y7985D01*
X20782Y7985D02*
X20703Y8064D01*
X20860Y8260D02*
X20900Y8300D01*
X20998Y8300D01*
X21038Y8260D01*
X21038Y8182D01*
X20998Y8142D01*
X20939Y8142D01*
X20998Y8142D02*
X21038Y8103D01*
X21038Y8024D01*
X20998Y7985D01*
X20900Y7985D01*
X20860Y8024D01*
G54D33*
X26369Y7540D02*
X26093Y7540D01*
G54D34*
X26845Y7953D02*
X26987Y7811D01*
X26987Y7953D02*
X26845Y7811D01*
X27011Y7882D02*
X26822Y7882D01*
X26916Y7977D02*
X26916Y7788D01*
G54D33*
X26802Y7500D02*
X26802Y7028D01*
X26487Y7028D01*
X25975Y7028D02*
X25660Y7028D01*
X25660Y7500D01*
G54D16*
X26067Y7966D02*
X26008Y8025D01*
X26008Y8222D01*
X26067Y8281D01*
X26185Y8281D01*
X26244Y8222D01*
X26244Y8025D01*
X26185Y7966D01*
X26067Y7966D01*
X26067Y7966D01*
X26244Y7966D02*
X26166Y8045D01*
X26323Y8281D02*
X26323Y8104D01*
X26481Y8104D01*
X26441Y8242D02*
X26441Y7966D01*
G54D33*
X18799Y3346D02*
X18504Y3346D01*
X18504Y5512D01*
X18799Y5512D01*
X19390Y3346D02*
X20079Y3346D01*
X19390Y5512D02*
X20079Y5512D01*
X20620Y5512D02*
X20965Y5512D01*
X21457Y5512D02*
X21851Y5512D01*
X20965Y3346D02*
X20620Y3346D01*
X21457Y3346D02*
X21851Y3346D01*
X22343Y3346D02*
X22540Y3346D01*
X22540Y5512D01*
X22343Y5512D01*
X19095Y3839D02*
X19095Y4232D01*
X19292Y4232D02*
X18898Y4232D01*
X19095Y4577D01*
X19292Y4232D01*
X19292Y4232D01*
X18898Y4577D02*
X19292Y4577D01*
X19095Y4577D02*
X19095Y5020D01*
X20423Y3740D02*
X20423Y4134D01*
X20965Y4134D01*
X21998Y3740D02*
X21998Y4134D01*
X21457Y4134D01*
X20423Y5118D02*
X20423Y4724D01*
X20965Y4724D01*
X21998Y5118D02*
X21998Y4724D01*
X21457Y4724D01*
X21211Y5118D02*
X21211Y4971D01*
X20916Y4626D01*
X21211Y3740D02*
X21211Y3888D01*
X20916Y4232D01*
G54D16*
X18472Y6141D02*
X18472Y6613D01*
X18679Y6613D01*
X18767Y6525D01*
X18767Y6436D01*
X18679Y6347D01*
X18472Y6347D01*
X18679Y6347D02*
X18797Y6141D01*
X18915Y6613D02*
X18915Y6141D01*
X19181Y6141D01*
X19299Y6554D02*
X19358Y6613D01*
X19506Y6613D01*
X19565Y6554D01*
X19565Y6436D01*
X19506Y6377D01*
X19417Y6377D01*
X19506Y6377D02*
X19565Y6318D01*
X19565Y6200D01*
X19506Y6141D01*
X19358Y6141D01*
X19299Y6200D01*
G54D33*
X24311Y3346D02*
X24016Y3346D01*
X24016Y5512D01*
X24311Y5512D01*
X24902Y3346D02*
X25591Y3346D01*
X24902Y5512D02*
X25591Y5512D01*
X26132Y5512D02*
X26477Y5512D01*
X26969Y5512D02*
X27362Y5512D01*
X26477Y3346D02*
X26132Y3346D01*
X26969Y3346D02*
X27362Y3346D01*
X27855Y3346D02*
X28051Y3346D01*
X28051Y5512D01*
X27855Y5512D01*
X24606Y3839D02*
X24606Y4232D01*
X24803Y4232D02*
X24410Y4232D01*
X24606Y4577D01*
X24803Y4232D01*
X24803Y4232D01*
X24410Y4577D02*
X24803Y4577D01*
X24606Y4577D02*
X24606Y5020D01*
X25935Y3740D02*
X25935Y4134D01*
X26477Y4134D01*
X27510Y3740D02*
X27510Y4134D01*
X26969Y4134D01*
X25935Y5118D02*
X25935Y4724D01*
X26477Y4724D01*
X27510Y5118D02*
X27510Y4724D01*
X26969Y4724D01*
X26723Y5118D02*
X26723Y4971D01*
X26427Y4626D01*
X26723Y3740D02*
X26723Y3888D01*
X26427Y4232D01*
G54D16*
X24033Y6159D02*
X24033Y6632D01*
X24240Y6632D01*
X24329Y6543D01*
X24329Y6455D01*
X24240Y6366D01*
X24033Y6366D01*
X24240Y6366D02*
X24358Y6159D01*
X24476Y6632D02*
X24476Y6159D01*
X24742Y6159D01*
X24860Y6632D02*
X24860Y6366D01*
X25096Y6366D01*
X25037Y6573D02*
X25037Y6159D01*
X30273Y1933D02*
X30273Y1333D01*
X30610Y1933D02*
X30610Y1333D01*
X30273Y1633D02*
X30610Y1633D01*
X30760Y1858D02*
X30835Y1933D01*
X31023Y1933D01*
X31098Y1858D01*
X31098Y1708D01*
X31023Y1633D01*
X30910Y1633D01*
X31023Y1633D02*
X31098Y1558D01*
X31098Y1408D01*
X31023Y1333D01*
X30835Y1333D01*
X30760Y1408D01*
X30292Y16106D02*
X30292Y15506D01*
X30629Y16106D02*
X30629Y15506D01*
X30292Y15806D02*
X30629Y15806D01*
X30779Y16106D02*
X30779Y15768D01*
X31079Y15768D01*
X31004Y16031D02*
X31004Y15506D01*
X16620Y7044D02*
X16470Y7044D01*
X16620Y7524D02*
X16470Y7524D01*
X16461Y7631D02*
X16461Y7946D01*
X16598Y7946D01*
X16658Y7887D01*
X16658Y7828D01*
X16598Y7769D01*
X16461Y7769D01*
X16598Y7769D02*
X16677Y7631D01*
X16756Y7946D02*
X16933Y7946D01*
X16756Y7631D01*
X10912Y7044D02*
X10762Y7044D01*
X10912Y7524D02*
X10762Y7524D01*
X10604Y7681D02*
X10604Y7996D01*
X10742Y7996D01*
X10801Y7937D01*
X10801Y7877D01*
X10742Y7818D01*
X10604Y7818D01*
X10742Y7818D02*
X10821Y7681D01*
X10899Y7720D02*
X10939Y7681D01*
X11037Y7681D01*
X11077Y7720D01*
X11077Y7799D01*
X11037Y7838D01*
X10939Y7838D01*
X10899Y7799D01*
X10899Y7720D01*
X10899Y7720D01*
X11037Y7838D02*
X11077Y7877D01*
X11077Y7956D01*
X11037Y7996D01*
X10939Y7996D01*
X10899Y7956D01*
X10899Y7877D01*
X10939Y7838D01*
M02*
