M48
M72, LZ
T1C0.0280
T2C0.0350
T3C0.1280
T4C0.0118
%
T1
X0.3150Y0.5906
X0.3150Y0.4906
X0.3150Y0.3906
X0.3150Y0.2906
X1.2008Y0.2953
X1.2008Y0.3953
X1.2008Y0.4953
X1.2008Y0.5953
X1.7717Y0.2953
X1.7717Y0.3953
X1.7717Y0.4953
X1.7717Y0.5953
X2.3228Y0.2953
X2.3228Y0.3953
X2.3228Y0.4953
X2.3228Y0.5953
X2.8740Y0.2953
X2.8740Y0.3953
X2.8740Y0.4953
X2.8740Y0.5953
X0.5512Y0.5906
X0.5512Y0.4906
X0.5512Y0.3906
X0.5512Y0.2906
T2
X0.7154Y1.3925
X0.6154Y1.3925
X0.5154Y1.3925
X0.4154Y1.3925
X0.3154Y1.3925
T3
X0.1575Y0.1575
X0.1575Y1.5748
X3.0709Y0.1575
X3.0709Y1.5748
T4
X2.6378Y0.2264
X2.1221Y0.2264
X0.9606Y0.2264
X1.5610Y0.2264
X2.6723Y0.6595
X1.5610Y0.6595
X0.9606Y0.6595
X2.1221Y0.6595
X0.8071Y1.0827
X1.2795Y1.3189
X0.8071Y1.1220
X1.3189Y1.3583
X1.2795Y1.2598
X0.8071Y1.0433
X1.1861Y1.1861
X1.7569Y1.1861
T00
M30
