G04 -- Generated By PCBWeb Designer*
%FSLAX24Y24*%
%MOIN*%
%OFA0B0*%
%SFA1.0B1.0*%
%AMROTRECT*21,1,$1,$2,0,0,$3*%
%AMROTOBLONG*1,1,$7,$1,$2*1,1,$7,$3,$4*21,1,$5,$6,0,0,$8*%
%ADD10C,0.025*%
%ADD11R,0.022X0.085*%
%ADD12R,0.032X0.095*%
%ADD13C,0.006*%
%ADD14C,0.0075*%
%ADD15C,0.0235*%
%ADD16C,0.008*%
%ADD17C,0.024*%
%ADD18C,0.05*%
%ADD19C,0.028*%
%ADD20C,0.06*%
%ADD21C,0.035*%
%ADD22C,0.07*%
%ADD23R,0.0433X0.055*%
%ADD24R,0.0533X0.065*%
%ADD25R,0.055X0.0433*%
%ADD26R,0.065X0.0533*%
%ADD27C,0.1772*%
%ADD28C,0.128*%
%ADD29C,0.1872*%
%ADD30C,0.0059*%
%ADD31R,0.0276X0.0236*%
%ADD32R,0.0376X0.0336*%
%ADD33C,0.01*%
%ADD34C,0.0039*%
%ADD35C,0.0199*%
%ADD36R,0.07X0.085*%
%ADD37R,0.08X0.095*%
%ADD38R,0.0276X0.0787*%
%ADD39R,0.0376X0.0887*%
%ADD40R,0.0236X0.0276*%
%ADD41R,0.0336X0.0376*%
%ADD42C,0.0*%
%ADD43C,0.0394*%
%ADD44C,0.0258*%
%ADD45C,0.0098*%
G01*
%LNBASEFILL*%
%LPD*%
G36*
X7244Y2559D02*
X7795Y2244D01*
X7795Y2874D01*
X7244Y2559D01*
G37*
G36*
X7717Y3740D02*
X7165Y4055D01*
X7165Y3425D01*
X7717Y3740D01*
G37*
G36*
X7244Y6102D02*
X7795Y5787D01*
X7795Y6417D01*
X7244Y6102D01*
G37*
G36*
X7717Y4921D02*
X7165Y5236D01*
X7165Y4606D01*
X7717Y4921D01*
G37*
%LNERASE*%
%LPC*%
G54D17*
X8863Y2272D02*
X9257Y2272D01*
X9257Y2444D01*
X9183Y2518D01*
X8937Y2518D01*
X8863Y2444D01*
X8863Y2272D01*
X8863Y2272D01*
X9257Y2813D02*
X9257Y2617D01*
X9084Y2617D01*
X9084Y2764D01*
X9035Y2813D01*
X8912Y2813D01*
X8863Y2764D01*
X8863Y2617D01*
X8872Y3437D02*
X9266Y3437D01*
X9266Y3609D01*
X9192Y3683D01*
X8946Y3683D01*
X8872Y3609D01*
X8872Y3437D01*
X8872Y3437D01*
X9266Y3855D02*
X9192Y3781D01*
X8922Y3781D01*
X8872Y3830D01*
X8872Y3953D01*
X8922Y4003D01*
X9020Y4003D01*
X9069Y3953D01*
X9069Y3830D01*
X9020Y3781D01*
X8844Y5815D02*
X9238Y5815D01*
X9238Y5988D01*
X9164Y6061D01*
X8918Y6061D01*
X8844Y5988D01*
X8844Y5815D01*
X8844Y5815D01*
X9238Y6160D02*
X9238Y6381D01*
X8844Y6160D01*
X8872Y4618D02*
X9266Y4618D01*
X9266Y4790D01*
X9192Y4864D01*
X8946Y4864D01*
X8872Y4790D01*
X8872Y4618D01*
X8872Y4618D01*
X8922Y4962D02*
X8872Y5011D01*
X8872Y5134D01*
X8922Y5184D01*
X9020Y5184D01*
X9069Y5134D01*
X9069Y5011D01*
X9020Y4962D01*
X8922Y4962D01*
X8922Y4962D01*
X9069Y5134D02*
X9119Y5184D01*
X9217Y5184D01*
X9266Y5134D01*
X9266Y5011D01*
X9217Y4962D01*
X9119Y4962D01*
X9069Y5011D01*
%LNSTD*%
%LPD*%
G54D33*
X7008Y2559D02*
X7953Y2559D01*
X7244Y2244D02*
X7244Y2874D01*
G54D30*
X8268Y2087D02*
X8268Y2008D01*
X6693Y2008D01*
X6693Y2087D01*
X6693Y3032D02*
X6693Y3110D01*
X8268Y3110D01*
X8268Y3032D01*
G54D16*
X8863Y2272D02*
X9257Y2272D01*
X9257Y2444D01*
X9183Y2518D01*
X8937Y2518D01*
X8863Y2444D01*
X8863Y2272D01*
X8863Y2272D01*
X9257Y2813D02*
X9257Y2617D01*
X9084Y2617D01*
X9084Y2764D01*
X9035Y2813D01*
X8912Y2813D01*
X8863Y2764D01*
X8863Y2617D01*
G54D33*
X7953Y3740D02*
X7008Y3740D01*
X7717Y4055D02*
X7717Y3425D01*
G54D30*
X6693Y4213D02*
X6693Y4291D01*
X8268Y4291D01*
X8268Y4213D01*
X8268Y3268D02*
X8268Y3189D01*
X6693Y3189D01*
X6693Y3268D01*
G54D16*
X8872Y3437D02*
X9266Y3437D01*
X9266Y3609D01*
X9192Y3683D01*
X8946Y3683D01*
X8872Y3609D01*
X8872Y3437D01*
X8872Y3437D01*
X9266Y3855D02*
X9192Y3781D01*
X8922Y3781D01*
X8872Y3830D01*
X8872Y3953D01*
X8922Y4003D01*
X9020Y4003D01*
X9069Y3953D01*
X9069Y3830D01*
X9020Y3781D01*
G54D33*
X7008Y6102D02*
X7953Y6102D01*
X7244Y5787D02*
X7244Y6417D01*
G54D30*
X8268Y5630D02*
X8268Y5551D01*
X6693Y5551D01*
X6693Y5630D01*
X6693Y6575D02*
X6693Y6654D01*
X8268Y6654D01*
X8268Y6575D01*
G54D16*
X8844Y5815D02*
X9238Y5815D01*
X9238Y5988D01*
X9164Y6061D01*
X8918Y6061D01*
X8844Y5988D01*
X8844Y5815D01*
X8844Y5815D01*
X9238Y6160D02*
X9238Y6381D01*
X8844Y6160D01*
G54D33*
X7953Y4921D02*
X7008Y4921D01*
X7717Y5236D02*
X7717Y4606D01*
G54D30*
X6693Y5394D02*
X6693Y5472D01*
X8268Y5472D01*
X8268Y5394D01*
X8268Y4449D02*
X8268Y4370D01*
X6693Y4370D01*
X6693Y4449D01*
G54D16*
X8872Y4618D02*
X9266Y4618D01*
X9266Y4790D01*
X9192Y4864D01*
X8946Y4864D01*
X8872Y4790D01*
X8872Y4618D01*
X8872Y4618D01*
X8922Y4962D02*
X8872Y5011D01*
X8872Y5134D01*
X8922Y5184D01*
X9020Y5184D01*
X9069Y5134D01*
X9069Y5011D01*
X9020Y4962D01*
X8922Y4962D01*
X8922Y4962D01*
X9069Y5134D02*
X9119Y5184D01*
X9217Y5184D01*
X9266Y5134D01*
X9266Y5011D01*
X9217Y4962D01*
X9119Y4962D01*
X9069Y5011D01*
M02*
