G04 -- Generated By PCBWeb Designer*
%FSLAX24Y24*%
%MOIN*%
%OFA0B0*%
%SFA1.0B1.0*%
%AMROTRECT*21,1,$1,$2,0,0,$3*%
%AMROTOBLONG*1,1,$7,$1,$2*1,1,$7,$3,$4*21,1,$5,$6,0,0,$8*%
%ADD10C,0.025*%
%ADD11R,0.022X0.085*%
%ADD12R,0.032X0.095*%
%ADD13C,0.006*%
%ADD14C,0.0075*%
%ADD15C,0.0235*%
%ADD16C,0.008*%
%ADD17C,0.024*%
%ADD18C,0.05*%
%ADD19C,0.028*%
%ADD20C,0.06*%
%ADD21C,0.035*%
%ADD22C,0.07*%
%ADD23R,0.0433X0.055*%
%ADD24R,0.0533X0.065*%
%ADD25R,0.055X0.0433*%
%ADD26R,0.065X0.0533*%
%ADD27C,0.1772*%
%ADD28C,0.128*%
%ADD29C,0.1872*%
%ADD30C,0.0059*%
%ADD31R,0.0276X0.0236*%
%ADD32R,0.0376X0.0336*%
%ADD33C,0.01*%
%ADD34C,0.0039*%
%ADD35C,0.0199*%
%ADD36R,0.07X0.085*%
%ADD37R,0.08X0.095*%
%ADD38R,0.0276X0.0787*%
%ADD39R,0.0376X0.0887*%
%ADD40R,0.0236X0.0276*%
%ADD41R,0.0336X0.0376*%
%ADD42C,0.0*%
%ADD43C,0.0394*%
%ADD44C,0.0258*%
%ADD45C,0.0098*%
G01*
%LNSTD*%
%LPD*%
G54D12*
X17104Y14574D03*
X16604Y14574D03*
X16104Y14574D03*
X15604Y14574D03*
X15104Y14574D03*
X14604Y14574D03*
X14104Y14574D03*
X13604Y14574D03*
X13604Y11914D03*
X14104Y11914D03*
X14604Y11914D03*
X15104Y11914D03*
X15604Y11914D03*
X16104Y11914D03*
X16604Y11914D03*
X17104Y11914D03*
G54D20*
X3150Y5906D03*
X3150Y4906D03*
X3150Y3906D03*
X3150Y2906D03*
X12008Y2953D03*
X12008Y3953D03*
X12008Y4953D03*
X12008Y5953D03*
X17717Y2953D03*
X17717Y3953D03*
X17717Y4953D03*
X17717Y5953D03*
X23228Y2953D03*
X23228Y3953D03*
X23228Y4953D03*
X23228Y5953D03*
X28740Y2953D03*
X28740Y3953D03*
X28740Y4953D03*
X28740Y5953D03*
G54D22*
X7154Y13925D03*
X6154Y13925D03*
X5154Y13925D03*
X4154Y13925D03*
X3154Y13925D03*
G54D24*
X11614Y14173D03*
X12283Y14173D03*
X11614Y13386D03*
X12283Y13386D03*
X11614Y12598D03*
X12283Y12598D03*
X18110Y11811D03*
X18779Y11811D03*
G54D26*
X5315Y12598D03*
X5315Y11929D03*
X6299Y12598D03*
X6299Y11929D03*
X7283Y12598D03*
X7283Y11929D03*
G54D20*
X5512Y5906D03*
X5512Y4906D03*
X5512Y3906D03*
X5512Y2906D03*
G54D29*
X1575Y1575D03*
X1575Y15748D03*
G54D24*
X22402Y7283D03*
X21733Y7283D03*
X27913Y7283D03*
X27244Y7283D03*
X12362Y7283D03*
X11693Y7283D03*
X18071Y7283D03*
X17402Y7283D03*
X23583Y7283D03*
X22914Y7283D03*
X29094Y7283D03*
X28425Y7283D03*
G54D32*
X11850Y8051D03*
X11850Y8799D03*
X12638Y8425D03*
X17559Y8051D03*
X17559Y8799D03*
X18346Y8425D03*
X23071Y8051D03*
X23071Y8799D03*
X23858Y8425D03*
X28583Y8051D03*
X28583Y8799D03*
X29370Y8425D03*
G54D26*
X8563Y7825D03*
X8563Y7156D03*
X14174Y7628D03*
X14174Y6959D03*
X19686Y7628D03*
X19686Y6959D03*
X25198Y7628D03*
X25198Y6959D03*
X10669Y9291D03*
X10669Y8622D03*
X16378Y9291D03*
X16378Y8622D03*
X21890Y9291D03*
X21890Y8622D03*
X27402Y9291D03*
X27402Y8622D03*
G54D39*
X7480Y3248D03*
X8740Y3248D03*
X9606Y3248D03*
X10473Y3248D03*
X10473Y5610D03*
X9606Y5610D03*
X8740Y5610D03*
X7480Y5610D03*
G54D41*
X9223Y7874D03*
X9971Y7874D03*
X9597Y7087D03*
X14833Y7677D03*
X15581Y7677D03*
X15207Y6890D03*
G54D39*
X13484Y3248D03*
X14744Y3248D03*
X15610Y3248D03*
X16476Y3248D03*
X16476Y5610D03*
X15610Y5610D03*
X14744Y5610D03*
X13484Y5610D03*
G54D41*
X20394Y7677D03*
X21142Y7677D03*
X20768Y6890D03*
X25857Y7677D03*
X26605Y7677D03*
X26231Y6890D03*
G54D39*
X19095Y3248D03*
X20354Y3248D03*
X21221Y3248D03*
X22087Y3248D03*
X22087Y5610D03*
X21221Y5610D03*
X20354Y5610D03*
X19095Y5610D03*
X24606Y3248D03*
X25866Y3248D03*
X26732Y3248D03*
X27599Y3248D03*
X27599Y5610D03*
X26732Y5610D03*
X25866Y5610D03*
X24606Y5610D03*
G54D29*
X30709Y1575D03*
X30709Y15748D03*
G54D24*
X16880Y7284D03*
X16211Y7284D03*
X11172Y7284D03*
X10503Y7284D03*
M02*
