G04 -- Generated By PCBWeb Designer*
%FSLAX24Y24*%
%MOIN*%
%OFA0B0*%
%SFA1.0B1.0*%
%AMROTRECT*21,1,$1,$2,0,0,$3*%
%AMROTOBLONG*1,1,$7,$1,$2*1,1,$7,$3,$4*21,1,$5,$6,0,0,$8*%
%ADD10C,0.025*%
%ADD11R,0.022X0.085*%
%ADD12R,0.032X0.095*%
%ADD13C,0.006*%
%ADD14C,0.0075*%
%ADD15C,0.0235*%
%ADD16C,0.008*%
%ADD17C,0.024*%
%ADD18C,0.05*%
%ADD19C,0.028*%
%ADD20C,0.06*%
%ADD21C,0.035*%
%ADD22C,0.07*%
%ADD23R,0.0433X0.055*%
%ADD24R,0.0533X0.065*%
%ADD25R,0.055X0.0433*%
%ADD26R,0.065X0.0533*%
%ADD27C,0.1772*%
%ADD28C,0.128*%
%ADD29C,0.1872*%
%ADD30C,0.0059*%
%ADD31R,0.0276X0.0236*%
%ADD32R,0.0376X0.0336*%
%ADD33C,0.01*%
%ADD34C,0.0039*%
%ADD35C,0.0199*%
%ADD36R,0.07X0.085*%
%ADD37R,0.08X0.095*%
%ADD38R,0.0276X0.0787*%
%ADD39R,0.0376X0.0887*%
%ADD40R,0.0236X0.0276*%
%ADD41R,0.0336X0.0376*%
%ADD42C,0.0*%
%ADD43C,0.0394*%
%ADD44C,0.0258*%
%ADD45C,0.0098*%
G01*
%LNSTD*%
%LPD*%
G54D20*
X3150Y5906D03*
X3150Y4906D03*
X3150Y3906D03*
X3150Y2906D03*
X12008Y2953D03*
X12008Y3953D03*
X12008Y4953D03*
X12008Y5953D03*
X17717Y2953D03*
X17717Y3953D03*
X17717Y4953D03*
X17717Y5953D03*
X23228Y2953D03*
X23228Y3953D03*
X23228Y4953D03*
X23228Y5953D03*
X28740Y2953D03*
X28740Y3953D03*
X28740Y4953D03*
X28740Y5953D03*
G54D22*
X7154Y13925D03*
X6154Y13925D03*
X5154Y13925D03*
X4154Y13925D03*
X3154Y13925D03*
G54D20*
X5512Y5906D03*
X5512Y4906D03*
X5512Y3906D03*
X5512Y2906D03*
G54D29*
X1575Y1575D03*
X1575Y15748D03*
G54D37*
X6580Y2559D03*
X8380Y2559D03*
X8380Y3740D03*
X6580Y3740D03*
X6580Y6102D03*
X8380Y6102D03*
X8380Y4921D03*
X6580Y4921D03*
G54D29*
X30709Y1575D03*
X30709Y15748D03*
M02*
